<?xml version="1.0" encoding="utf-8"?>
<!-- Generator: Adobe Illustrator 24.1.0, SVG Export Plug-In . SVG Version: 6.00 Build 0)  -->
<svg version="1.1" id="Capa_1" xmlns="http://www.w3.org/2000/svg" xmlns:xlink="http://www.w3.org/1999/xlink" x="0px" y="0px"
	 viewBox="0 0 225.1 54.4" style="enable-background:new 0 0 225.1 54.4;" xml:space="preserve">
<style type="text/css">
	.st0{fill:#0097D7;}
	.st1{fill-rule:evenodd;clip-rule:evenodd;fill:#0097D7;}
	.st2{fill:#333333;}
</style>
<g>
	<rect x="102.5" y="34.7" class="st0" width="1" height="15"/>
	<path id="Fill-1" class="st1" d="M128.4,34.2l3.9,10.2h-7.7L128.4,34.2z M124,54v-0.9c-0.9,0-1.4-0.7-1.4-1.7
		c0-0.4,0.1-1.3,0.3-1.9l1.1-3.4h9.1l1.4,3.6c0.3,0.8,0.5,1.4,0.5,2c0,0.9-0.5,1.4-1.3,1.4V54c1.3,0,2.6-0.2,3.9-0.2
		c1.3,0,2.6,0.2,3.9,0.2v-0.9c-1.4-0.2-1.7-1.4-3.1-4.9l-8.5-21.7h-0.5l-8.3,20.8c-0.7,1.9-2.2,5.5-3.8,5.8V54
		c1.1,0,2.2-0.2,3.3-0.2C121.8,53.9,122.9,54,124,54L124,54z"/>
	<path id="Fill-4" class="st1" d="M149.5,39.2c3.1,0,4.2,1.5,4.2,5.2v6.3c-1,1-2,1.4-3.1,1.4c-3.4,0-5.3-3.8-5.3-7
		C145.2,42.5,146.4,39.2,149.5,39.2 M148.8,54.4c1.3,0,2.1-0.2,2.7-0.6l2.3-2c0.6,1.2,1.7,2.1,3,2.5c0.7-0.9,2.2-2,3.5-2.9l-0.6-0.6
		c-0.3,0.2-0.5,0.3-1.1,0.3c-0.9,0-1.2-0.8-1.2-2.2v-9.6c0-5.6,0.2-9.9,0.2-12.9h-0.8c-1,1.1-3.3,2.2-5.2,2.7V30c1,0.2,2,0.7,2,2.9
		v5.7c-1.3-0.6-2.6-1-4-1c-5,0-8.6,3.1-8.6,8.5C141,50.8,144.1,54.4,148.8,54.4"/>
	<path id="Fill-7" class="st1" d="M167.6,39c2.5,0,3.6,1.5,3.6,3.8h-7C164.1,40.7,165.5,39,167.6,39 M169.2,54.4
		c1.6,0,2.9-0.3,3.7-0.6l2.1-3.1l-0.4-0.5c-1.2,0.8-2.6,1.2-4.1,1.2c-4,0-6.8-3.5-6.5-7.3h11.3c0-4.1-3.2-6.6-7.2-6.6
		c-5.3,0-7.9,4.8-7.9,8.4C160.3,49.7,162.9,54.4,169.2,54.4"/>
	<path id="Fill-10" class="st1" d="M185,50.5c0,1.5-1.3,2.4-2.7,2.4c-1.7,0-3.3-1.3-3.7-3.2h-1.4l0.2,3.6c1.2,0.7,3.1,1.1,4.5,1.1
		c3.3,0,6.2-1.5,6.2-5.2c0-5.3-7.7-3.9-7.7-7.6c0-1.6,1.1-2.4,2.7-2.4c2.1,0,3.2,1,3.6,2.9h1.2l0.2-3.5c-1.6-0.5-3.3-1-4.9-1
		c-3.2,0-6.1,1.5-6.1,5.1C177,48.2,185,47.7,185,50.5"/>
	<path id="Fill-12" class="st1" d="M191.3,32.3c0.1,1.5,0.3,4.4,0.3,6.6v12.5c0,0.8-0.3,1.5-1.5,1.7V54c1.1,0,2.2-0.1,3.3-0.1
		c1.2,0,2.3,0.1,3.5,0.1v-0.8c-1.2-0.2-1.5-0.9-1.5-2.2V36c0-3.6,0.1-7.3,0.2-9.4h-0.8c-1,1.1-4.1,2.2-5.4,2.4v0.9
		C190.6,29.8,191.2,30.7,191.3,32.3"/>
	<path id="Fill-14" class="st1" d="M205.1,45.6c0.7,0,1.4,0.1,1.9,0.2l0.1,5.7c-0.6,0.4-1.4,0.7-2.6,0.7c-1.6,0-3-1.4-3-3.1
		C201.4,46.5,203.3,45.6,205.1,45.6 M202.9,54.4c1.7,0,2.9-0.9,4.3-1.9c0.5,1,1.6,1.7,3.1,1.9l2.9-2.3l-0.6-0.6
		c-0.3,0.1-0.6,0.2-0.8,0.2c-0.9,0-1.2-0.5-1.2-2.3V48c0-2.2,0.2-4.2,0.2-5.6c0-3.9-3-4.8-6.4-4.8c-1.8,0-3.4,0.2-5,0.7V42h0.9
		c1-1.4,1.9-2.1,3.8-2.1c2.6,0,2.8,2.3,2.8,4.4c-0.5,0-1.2-0.1-1.8-0.1c-3.5,0-7.5,1.6-7.5,5.7C197.7,52.8,200.3,54.4,202.9,54.4"/>
	<path id="Fill-17" class="st1" d="M222,50.5c0,1.5-1.3,2.4-2.7,2.4c-1.7,0-3.3-1.3-3.7-3.2h-1.4l0.2,3.6c1.2,0.7,3.1,1.1,4.5,1.1
		c3.3,0,6.2-1.5,6.2-5.2c0-5.3-7.7-3.9-7.7-7.6c0-1.6,1.1-2.4,2.7-2.4c2.1,0,3.2,1,3.6,2.9h1.2l0.2-3.5c-1.6-0.5-3.3-1-4.9-1
		c-3.2,0-6.1,1.5-6.1,5.1C214,48.2,222,47.7,222,50.5"/>
	<g>
		<path class="st0" d="M0,46.3l3.6-9.5H5l3.9,9.5H7.5l-1.1-2.9h-4l-1,2.9H0z M2.7,42.4H6l-1-2.6c-0.3-0.8-0.5-1.5-0.7-2
			C4.2,38.4,4,39,3.8,39.6L2.7,42.4z"/>
		<path class="st0" d="M9,46.9l1.1,0.2c0,0.3,0.2,0.6,0.4,0.8c0.3,0.2,0.7,0.3,1.2,0.3c0.5,0,1-0.1,1.2-0.3c0.3-0.2,0.5-0.5,0.6-0.9
			c0.1-0.2,0.1-0.7,0.1-1.5c-0.5,0.6-1.1,0.9-1.9,0.9c-0.9,0-1.7-0.3-2.2-1c-0.5-0.7-0.8-1.5-0.8-2.5c0-0.7,0.1-1.3,0.4-1.8
			s0.6-1,1-1.3s1-0.5,1.6-0.5c0.8,0,1.5,0.3,2,1v-0.8h1.1v5.9c0,1.1-0.1,1.8-0.3,2.3c-0.2,0.4-0.6,0.8-1,1.1s-1.1,0.4-1.7,0.4
			c-0.8,0-1.5-0.2-2-0.6S9,47.6,9,46.9z M10,42.7c0,0.9,0.2,1.6,0.5,2c0.4,0.4,0.8,0.6,1.3,0.6c0.5,0,1-0.2,1.3-0.6s0.5-1.1,0.5-1.9
			c0-0.8-0.2-1.5-0.6-1.9s-0.8-0.6-1.4-0.6c-0.5,0-1,0.2-1.3,0.6C10.1,41.3,10,41.9,10,42.7z"/>
		<path class="st0" d="M20.8,44.1l1.2,0.1c-0.2,0.7-0.5,1.2-1.1,1.6c-0.5,0.4-1.2,0.6-2,0.6c-1,0-1.8-0.3-2.4-0.9
			c-0.6-0.6-0.9-1.5-0.9-2.6c0-1.2,0.3-2.1,0.9-2.7s1.4-1,2.3-1c0.9,0,1.7,0.3,2.3,0.9c0.6,0.6,0.9,1.5,0.9,2.6c0,0.1,0,0.2,0,0.3
			h-5.1c0,0.8,0.3,1.3,0.6,1.7c0.4,0.4,0.9,0.6,1.4,0.6c0.4,0,0.8-0.1,1.1-0.3C20.3,44.9,20.6,44.6,20.8,44.1z M16.9,42.2h3.8
			c-0.1-0.6-0.2-1-0.4-1.3c-0.4-0.4-0.9-0.7-1.4-0.7c-0.5,0-1,0.2-1.4,0.5S17,41.6,16.9,42.2z"/>
		<path class="st0" d="M22.9,46.3v-6.9h1v1c0.5-0.8,1.2-1.1,2.2-1.1c0.4,0,0.8,0.1,1.1,0.2s0.6,0.3,0.8,0.6s0.3,0.5,0.4,0.9
			c0,0.2,0.1,0.6,0.1,1.1v4.2h-1.2v-4.2c0-0.5,0-0.8-0.1-1.1c-0.1-0.2-0.3-0.4-0.5-0.6s-0.5-0.2-0.8-0.2c-0.5,0-0.9,0.2-1.3,0.5
			c-0.4,0.3-0.5,0.9-0.5,1.8v3.8H22.9z"/>
		<path class="st0" d="M32.3,45.2l0.2,1c-0.3,0.1-0.6,0.1-0.9,0.1c-0.4,0-0.8-0.1-1-0.2c-0.2-0.1-0.4-0.3-0.5-0.5
			C30,45.4,30,45,30,44.3v-4h-0.9v-0.9H30v-1.7l1.2-0.7v2.4h1.2v0.9h-1.2v4c0,0.3,0,0.5,0.1,0.6c0,0.1,0.1,0.2,0.2,0.2
			c0.1,0.1,0.2,0.1,0.4,0.1C31.9,45.3,32.1,45.3,32.3,45.2z"/>
		<path class="st0" d="M37.6,44.1l1.2,0.1c-0.2,0.7-0.5,1.2-1.1,1.6c-0.5,0.4-1.2,0.6-2,0.6c-1,0-1.8-0.3-2.4-0.9
			c-0.6-0.6-0.9-1.5-0.9-2.6c0-1.2,0.3-2.1,0.9-2.7s1.4-1,2.3-1c0.9,0,1.7,0.3,2.3,0.9c0.6,0.6,0.9,1.5,0.9,2.6c0,0.1,0,0.2,0,0.3
			h-5.1c0,0.8,0.3,1.3,0.6,1.7s0.9,0.6,1.4,0.6c0.4,0,0.8-0.1,1.1-0.3C37.2,44.9,37.4,44.6,37.6,44.1z M33.8,42.2h3.8
			c-0.1-0.6-0.2-1-0.4-1.3c-0.4-0.4-0.9-0.7-1.4-0.7c-0.5,0-1,0.2-1.4,0.5C34,41.1,33.8,41.6,33.8,42.2z"/>
		<path class="st0" d="M47.6,44.1l1.2,0.1c-0.2,0.7-0.5,1.2-1.1,1.6c-0.5,0.4-1.2,0.6-2,0.6c-1,0-1.8-0.3-2.4-0.9
			c-0.6-0.6-0.9-1.5-0.9-2.6c0-1.2,0.3-2.1,0.9-2.7s1.4-1,2.3-1c0.9,0,1.7,0.3,2.3,0.9c0.6,0.6,0.9,1.5,0.9,2.6c0,0.1,0,0.2,0,0.3
			h-5.1c0,0.8,0.3,1.3,0.6,1.7s0.9,0.6,1.4,0.6c0.4,0,0.8-0.1,1.1-0.3C47.2,44.9,47.4,44.6,47.6,44.1z M43.8,42.2h3.8
			c-0.1-0.6-0.2-1-0.4-1.3c-0.4-0.4-0.9-0.7-1.4-0.7c-0.5,0-1,0.2-1.4,0.5S43.8,41.6,43.8,42.2z"/>
		<path class="st0" d="M49,46.3l2.5-3.6l-2.3-3.3h1.5l1.1,1.6c0.2,0.3,0.4,0.6,0.5,0.8c0.2-0.3,0.4-0.5,0.5-0.8l1.2-1.6h1.4
			l-2.4,3.2l2.6,3.6H54l-1.4-2.1l-0.4-0.6l-1.8,2.7H49z"/>
		<path class="st0" d="M60.3,43.8l1.1,0.1c-0.1,0.8-0.4,1.4-1,1.9c-0.5,0.4-1.1,0.7-1.9,0.7c-0.9,0-1.7-0.3-2.3-0.9
			c-0.6-0.6-0.9-1.5-0.9-2.6c0-0.7,0.1-1.4,0.4-1.9c0.2-0.6,0.6-1,1.1-1.3c0.5-0.3,1.1-0.4,1.6-0.4c0.7,0,1.4,0.2,1.8,0.6
			c0.5,0.4,0.8,0.9,0.9,1.6l-1.1,0.2c-0.1-0.5-0.3-0.8-0.6-1c-0.3-0.2-0.6-0.3-1-0.3c-0.6,0-1.1,0.2-1.4,0.6s-0.6,1.1-0.6,2
			c0,0.9,0.2,1.6,0.5,2c0.4,0.4,0.8,0.6,1.4,0.6c0.5,0,0.8-0.1,1.1-0.4C60.1,44.8,60.3,44.4,60.3,43.8z"/>
		<path class="st0" d="M61.9,46.3v-9.5h1.2v9.5H61.9z"/>
		<path class="st0" d="M68.9,46.3v-1c-0.5,0.8-1.3,1.2-2.2,1.2c-0.4,0-0.8-0.1-1.1-0.2c-0.4-0.2-0.6-0.4-0.8-0.6
			c-0.2-0.2-0.3-0.5-0.4-0.9c0-0.2-0.1-0.6-0.1-1.1v-4.3h1.2v3.8c0,0.6,0,1,0.1,1.2c0.1,0.3,0.2,0.5,0.5,0.7
			c0.2,0.2,0.5,0.3,0.9,0.3s0.7-0.1,1-0.3s0.5-0.4,0.7-0.7c0.1-0.3,0.2-0.8,0.2-1.3v-3.7h1.2v6.9H68.9z"/>
		<path class="st0" d="M70.7,44.2l1.2-0.2c0.1,0.5,0.2,0.8,0.5,1.1c0.3,0.2,0.7,0.4,1.2,0.4c0.5,0,0.9-0.1,1.2-0.3
			c0.3-0.2,0.4-0.5,0.4-0.8c0-0.3-0.1-0.5-0.3-0.6c-0.2-0.1-0.6-0.2-1.2-0.4c-0.9-0.2-1.4-0.4-1.8-0.6c-0.3-0.2-0.6-0.4-0.8-0.7
			c-0.2-0.3-0.3-0.6-0.3-0.9c0-0.3,0.1-0.6,0.2-0.9c0.1-0.3,0.3-0.5,0.6-0.7c0.2-0.1,0.4-0.2,0.7-0.3c0.3-0.1,0.6-0.1,1-0.1
			c0.5,0,1,0.1,1.4,0.2c0.4,0.2,0.7,0.4,0.9,0.6c0.2,0.3,0.3,0.6,0.4,1.1l-1.1,0.2c-0.1-0.4-0.2-0.6-0.4-0.8
			c-0.2-0.2-0.6-0.3-1.1-0.3c-0.5,0-0.9,0.1-1.1,0.3c-0.2,0.2-0.3,0.4-0.3,0.6c0,0.2,0,0.3,0.1,0.4c0.1,0.1,0.2,0.2,0.4,0.3
			c0.1,0,0.5,0.1,1,0.3c0.8,0.2,1.4,0.4,1.7,0.5c0.3,0.1,0.6,0.3,0.8,0.6c0.2,0.3,0.3,0.6,0.3,1c0,0.4-0.1,0.8-0.3,1.1
			c-0.2,0.3-0.6,0.6-1,0.8c-0.4,0.2-0.9,0.3-1.5,0.3c-0.9,0-1.6-0.2-2-0.6C71.2,45.5,70.9,45,70.7,44.2z"/>
		<path class="st0" d="M77.3,38.1v-1.3h1.2v1.3H77.3z M77.3,46.3v-6.9h1.2v6.9H77.3z"/>
		<path class="st0" d="M81.6,46.3L79,39.4h1.2l1.5,4.1c0.2,0.4,0.3,0.9,0.4,1.4c0.1-0.4,0.2-0.8,0.4-1.3l1.5-4.2h1.2l-2.6,6.9H81.6z
			"/>
		<path class="st0" d="M85.4,42.9c0-1.3,0.4-2.2,1.1-2.8c0.6-0.5,1.3-0.8,2.2-0.8c0.9,0,1.7,0.3,2.3,0.9s0.9,1.5,0.9,2.6
			c0,0.9-0.1,1.6-0.4,2.1c-0.3,0.5-0.7,0.9-1.2,1.2c-0.5,0.3-1.1,0.4-1.7,0.4c-1,0-1.7-0.3-2.3-0.9C85.7,44.9,85.4,44,85.4,42.9z
			 M86.6,42.9c0,0.9,0.2,1.5,0.6,2s0.9,0.7,1.5,0.7c0.6,0,1.1-0.2,1.4-0.7s0.6-1.1,0.6-2c0-0.9-0.2-1.5-0.6-1.9
			c-0.4-0.4-0.9-0.7-1.4-0.7c-0.6,0-1.1,0.2-1.5,0.7S86.6,42,86.6,42.9z"/>
	</g>
	<g>
		<path class="st2" d="M6.8,7.8c0.7,0,1.2,0.1,1.5,0.4c0.3,0.3,0.5,0.7,0.5,1.2c0,0.6-0.2,1.1-0.5,1.6c-0.2,0.3-0.6,0.6-0.9,0.8
			C6.9,11.9,6.5,12,6.1,12c-1.1,0-2-0.5-2.8-1.5C2.9,9.9,2.6,9.3,2.4,8.6C2.2,7.9,2.1,7.2,2.1,6.4c0-1.6,0.4-3.1,1.3-4.4
			C3.8,1.4,4.2,1,4.7,0.7s1.1-0.4,1.7-0.4c0.9,0,1.6,0.3,2.2,0.9C9.3,1.8,9.8,2.8,10.2,4l0.2,0l-0.1-3.7h-0.2
			C10,0.7,9.8,0.9,9.6,0.9c-0.1,0-0.2,0-0.3-0.1L8.7,0.5C8.3,0.4,7.9,0.2,7.5,0.1C7.1,0,6.7,0,6.2,0C5.4,0,4.7,0.1,4,0.4
			S2.6,1,2.1,1.4C1.4,2,0.9,2.7,0.5,3.6S0,5.4,0,6.5c0,0.7,0.1,1.4,0.3,2.1s0.5,1.2,0.9,1.7c0.5,0.6,1.2,1.1,2,1.5
			c0.8,0.3,1.7,0.5,2.7,0.5c0.7,0,1.4-0.1,2.1-0.3c0.7-0.2,1.2-0.4,1.7-0.8C9.8,11.1,10,11,10.1,11c0.1,0,0.3,0,0.5,0.1l0-0.2
			c0-0.4,0-0.8,0-1c0-0.7,0.1-1.2,0.2-1.5C10.8,8.2,11,8.1,11.2,8s0.6-0.2,1.1-0.2V7.6H6.8V7.8z"/>
		<path class="st2" d="M22.5,9.7c-0.1,0.3-0.3,0.6-0.5,0.9c-0.3,0.4-0.7,0.7-1.1,0.8c-0.5,0.2-1,0.3-1.7,0.3c-0.6,0-1.2-0.1-1.6-0.3
			s-0.7-0.5-0.9-0.9c-0.1-0.2-0.2-0.5-0.2-0.9s-0.1-0.9-0.1-1.7V3c0-0.6,0-1,0.1-1.3c0.1-0.3,0.2-0.5,0.4-0.7
			c0.2-0.1,0.3-0.3,0.5-0.3s0.5-0.1,0.8-0.1V0.3h-5.5v0.2c0.3,0,0.6,0.1,0.8,0.1s0.4,0.2,0.5,0.3c0.2,0.2,0.3,0.4,0.4,0.7
			s0.1,0.7,0.1,1.3v6.3c0,0.6,0,1-0.1,1.3c-0.1,0.3-0.2,0.5-0.4,0.7c-0.3,0.3-0.8,0.5-1.3,0.5V12H23l0.1-3.5l-0.2,0
			C22.8,9,22.6,9.4,22.5,9.7z"/>
		<path class="st2" d="M32.7,0.6C31.9,0.2,31.1,0,30.2,0c-0.7,0-1.4,0.1-2.1,0.4c-0.7,0.2-1.3,0.6-1.9,1c-0.8,0.6-1.4,1.3-1.8,2.1
			c-0.4,0.8-0.6,1.7-0.6,2.7c0,0.7,0.1,1.4,0.4,2.1c0.3,0.7,0.6,1.3,1.1,1.8c0.6,0.7,1.3,1.2,2.1,1.6c0.8,0.4,1.7,0.6,2.6,0.6
			c0.9,0,1.8-0.2,2.6-0.6c0.8-0.4,1.6-0.9,2.2-1.6c0.5-0.6,0.9-1.2,1.1-1.9c0.3-0.7,0.4-1.4,0.4-2.1c0-1.5-0.5-2.8-1.5-3.9
			C34.3,1.5,33.6,1,32.7,0.6z M33,10.5c-0.4,0.5-0.8,0.9-1.3,1.1c-0.5,0.2-1,0.3-1.6,0.3c-0.6,0-1.1-0.1-1.6-0.3
			c-0.5-0.2-0.9-0.6-1.3-1.1c-0.9-1.1-1.4-2.5-1.4-4.2c0-0.9,0.1-1.8,0.4-2.6c0.2-0.8,0.6-1.5,1-2.1c0.4-0.5,0.8-0.8,1.2-1
			s1-0.3,1.6-0.3c0.6,0,1.1,0.1,1.6,0.3c0.4,0.2,0.9,0.6,1.2,1c0.5,0.6,0.8,1.3,1,2.1c0.2,0.8,0.4,1.7,0.4,2.6
			C34.3,8,33.9,9.4,33,10.5z"/>
		<path class="st2" d="M47.1,6.3c-0.2-0.2-0.5-0.3-0.8-0.5c-0.3-0.1-0.7-0.2-1.3-0.3c0.4-0.1,0.7-0.3,0.9-0.4
			c0.2-0.1,0.4-0.3,0.6-0.4c0.5-0.5,0.7-1.1,0.7-1.8c0-0.5-0.1-0.9-0.3-1.2S46.4,1,46,0.8c-0.4-0.3-1-0.4-1.6-0.5
			c-0.2,0-0.5,0-1.1,0h-5.6v0.2c0.3,0,0.6,0.1,0.8,0.1S38.8,0.8,39,1c0.2,0.2,0.3,0.4,0.4,0.7C39.4,2,39.4,2.4,39.4,3v6.3
			c0,0.6,0,1-0.1,1.3c-0.1,0.3-0.2,0.5-0.4,0.7c-0.2,0.2-0.3,0.3-0.5,0.4s-0.5,0.1-0.8,0.1V12h6.2c0.8,0,1.5,0,2-0.1
			c0.5-0.1,0.9-0.3,1.2-0.5c0.4-0.3,0.7-0.6,0.9-1c0.2-0.4,0.3-0.9,0.3-1.4c0-0.5-0.1-1-0.3-1.4C47.7,7,47.4,6.6,47.1,6.3z
			 M41.3,0.6h0.8c0.6,0,1.1,0,1.4,0.1s0.6,0.2,0.8,0.4c0.3,0.2,0.5,0.5,0.6,0.9s0.2,0.8,0.2,1.2c0,0.4-0.1,0.8-0.2,1.1
			c-0.2,0.3-0.4,0.6-0.7,0.8c-0.2,0.1-0.3,0.2-0.5,0.3c-0.2,0.1-0.4,0.1-0.7,0.2c-0.3,0-0.7,0.1-1,0.1h-0.7V0.6z M45.4,11
			c-0.5,0.5-1.3,0.8-2.2,0.8c-0.7,0-1.2-0.2-1.5-0.6c-0.1-0.2-0.2-0.4-0.3-0.7c-0.1-0.3-0.1-0.6-0.1-1V5.9h1.5
			c1.1,0,1.9,0.2,2.4,0.6c0.3,0.2,0.5,0.6,0.7,1c0.2,0.4,0.2,0.9,0.2,1.4C46.2,9.8,45.9,10.4,45.4,11z"/>
		<path class="st2" d="M60,11.4c-0.2-0.1-0.4-0.4-0.5-0.7c-0.2-0.3-0.4-0.8-0.7-1.5l-3.7-9h-0.5l-3.1,8.1C51.2,9.1,51,9.6,50.8,10
			c-0.2,0.4-0.4,0.7-0.5,0.9c-0.2,0.3-0.4,0.5-0.7,0.6c-0.2,0.1-0.5,0.2-0.8,0.2V12h3.8v-0.2c-0.3,0-0.6-0.1-0.9-0.3
			c-0.2-0.1-0.3-0.3-0.4-0.4c-0.1-0.2-0.1-0.4-0.1-0.6c0-0.4,0.1-0.9,0.4-1.5l0.2-0.5l0.4-1.2h3.8l0.8,2L57,9.7
			c0.2,0.4,0.2,0.7,0.2,0.9c0,0.4-0.2,0.7-0.5,0.9c-0.2,0.1-0.6,0.2-1.1,0.3V12h5.6v-0.2c-0.4,0-0.6-0.1-0.8-0.1
			C60.3,11.6,60.2,11.5,60,11.4z M52.5,6.9l1.7-4.4l1.8,4.4H52.5z"/>
		<path class="st2" d="M71.3,9.7c-0.1,0.3-0.3,0.6-0.5,0.9c-0.3,0.4-0.7,0.7-1.1,0.8c-0.5,0.2-1,0.3-1.7,0.3c-0.6,0-1.2-0.1-1.6-0.3
			s-0.7-0.5-0.9-0.9c-0.1-0.2-0.2-0.5-0.2-0.9c0-0.4-0.1-0.9-0.1-1.7V3c0-0.6,0-1,0.1-1.3c0.1-0.3,0.2-0.5,0.4-0.7
			c0.2-0.1,0.3-0.3,0.5-0.3c0.2-0.1,0.5-0.1,0.8-0.1V0.3h-5.5v0.2c0.3,0,0.6,0.1,0.8,0.1c0.2,0.1,0.4,0.2,0.5,0.3
			c0.2,0.2,0.3,0.4,0.4,0.7c0.1,0.3,0.1,0.7,0.1,1.3v6.3c0,0.6,0,1-0.1,1.3c-0.1,0.3-0.2,0.5-0.4,0.7c-0.3,0.3-0.8,0.5-1.3,0.5V12
			h10.2l0.1-3.5l-0.2,0C71.6,9,71.4,9.4,71.3,9.7z"/>
		<path class="st2" d="M76.6,0.5c0.3,0,0.6,0.1,0.8,0.1c0.2,0.1,0.4,0.2,0.5,0.4c0.2,0.2,0.3,0.4,0.4,0.7C78.4,2,78.4,2.4,78.4,3
			v6.3c0,0.6,0,1-0.1,1.3c-0.1,0.3-0.2,0.5-0.4,0.7c-0.2,0.2-0.3,0.3-0.5,0.4c-0.2,0.1-0.5,0.1-0.8,0.1V12h5.5v-0.2
			c-0.4,0-0.7-0.1-0.9-0.2s-0.4-0.3-0.6-0.5c-0.1-0.2-0.2-0.4-0.2-0.7s-0.1-0.6-0.1-1.1V3c0-0.4,0-0.7,0.1-1
			c0.1-0.4,0.2-0.7,0.4-0.9c0.2-0.2,0.3-0.3,0.5-0.4c0.2-0.1,0.5-0.1,0.8-0.1V0.3h-5.5V0.5z"/>
		<path class="st2" d="M91.3,0.5c0.3,0,0.6,0.1,0.8,0.1c0.2,0.1,0.4,0.2,0.5,0.4C92.9,1.2,93,1.4,93,1.7C93.1,2,93.1,2.4,93.1,3v6.2
			l-6.9-8.9h-3.3v0.2c0.3,0,0.6,0.1,0.8,0.1c0.2,0.1,0.4,0.2,0.5,0.4c0.2,0.2,0.3,0.4,0.4,0.7C84.7,2,84.7,2.4,84.7,3v6.3
			c0,0.6,0,1-0.1,1.3c-0.1,0.3-0.2,0.5-0.4,0.7c-0.2,0.2-0.3,0.3-0.5,0.4c-0.2,0.1-0.5,0.1-0.8,0.1V12h3.9v-0.2
			c-0.3,0-0.6-0.1-0.8-0.1c-0.2-0.1-0.4-0.2-0.5-0.4c-0.2-0.2-0.3-0.4-0.4-0.7c-0.1-0.3-0.1-0.7-0.1-1.3V1.8L93.1,12h0.4V3
			c0-0.6,0-1,0.1-1.3C93.7,1.4,93.8,1.2,94,1c0.3-0.3,0.8-0.5,1.3-0.5V0.3h-3.9V0.5z"/>
		<path class="st2" d="M101.3,5.2l-1.2-0.6c-1.2-0.6-1.8-1.3-1.8-2.3c0-0.2,0-0.5,0.1-0.7c0.1-0.2,0.2-0.4,0.4-0.6
			c0.4-0.4,0.9-0.7,1.5-0.7c0.4,0,0.8,0.1,1.2,0.3c0.3,0.2,0.6,0.5,0.9,1c0.2,0.2,0.3,0.5,0.4,0.8s0.2,0.7,0.4,1.2h0.2l-0.1-3.4
			h-0.2c-0.1,0.3-0.2,0.4-0.4,0.4c-0.1,0-0.2,0-0.3,0c-0.1,0-0.3-0.1-0.6-0.2c-0.4-0.2-0.7-0.3-0.9-0.3S100.5,0,100.2,0
			c-0.8,0-1.5,0.3-2.1,0.8c-0.3,0.3-0.6,0.7-0.8,1.1C97.1,2.4,97,2.9,97,3.3c0,0.8,0.2,1.4,0.7,2c0.2,0.2,0.4,0.4,0.7,0.6
			c0.3,0.2,0.7,0.4,1.2,0.7c0.6,0.3,1.1,0.6,1.4,0.8c0.3,0.2,0.5,0.4,0.7,0.6c0.2,0.2,0.3,0.5,0.4,0.8c0.1,0.3,0.1,0.6,0.1,0.9
			c0,0.7-0.2,1.2-0.6,1.7c-0.4,0.4-1,0.7-1.6,0.7c-0.9,0-1.7-0.5-2.3-1.4C97.3,10,97,9.3,96.8,8.4l-0.2,0l0,3.5h0.2
			c0.1-0.3,0.3-0.4,0.6-0.4c0.1,0,0.2,0,0.2,0c0.1,0,0.3,0.1,0.6,0.3c0.7,0.3,1.4,0.4,2.1,0.4c0.8,0,1.5-0.2,2.1-0.5
			c0.6-0.4,1-0.9,1.3-1.5c0.2-0.5,0.3-1,0.3-1.5c0-0.8-0.2-1.5-0.7-2.1C102.9,6.1,102.3,5.6,101.3,5.2z"/>
		<path class="st2" d="M113.7,0.5c0.3,0,0.6,0.1,0.8,0.1c0.2,0.1,0.4,0.2,0.5,0.4c0.2,0.2,0.3,0.4,0.4,0.7c0.1,0.3,0.1,0.7,0.1,1.3
			v4.8c0,0.9,0,1.4,0,1.7c0,0.4-0.1,0.7-0.2,0.9c-0.1,0.2-0.3,0.5-0.5,0.6c-0.4,0.3-0.8,0.6-1.3,0.7c-0.5,0.2-1.1,0.3-1.7,0.3
			c-0.6,0-1.1-0.1-1.5-0.3c-0.4-0.2-0.7-0.5-1-1c-0.2-0.3-0.3-0.6-0.4-1c-0.1-0.4-0.1-0.9-0.1-1.7V3.2c0-0.7,0-1.2,0.1-1.5
			c0.1-0.3,0.2-0.5,0.4-0.7c0.2-0.2,0.3-0.3,0.5-0.4c0.2-0.1,0.5-0.1,0.8-0.1V0.3h-5.5v0.2c0.3,0,0.6,0.1,0.8,0.1
			c0.2,0.1,0.4,0.2,0.5,0.4c0.2,0.2,0.3,0.4,0.4,0.7c0.1,0.3,0.1,0.7,0.1,1.3v5.2c0,0.7,0,1.1,0.1,1.4c0.1,0.7,0.4,1.3,0.9,1.7
			c0.8,0.7,2,1,3.6,1c1.5,0,2.7-0.4,3.6-1.1c0.4-0.3,0.6-0.7,0.7-1c0.1-0.4,0.2-1,0.2-1.8V3c0-0.6,0-1,0.1-1.3
			c0.1-0.3,0.2-0.5,0.4-0.7c0.2-0.2,0.3-0.3,0.5-0.4c0.2-0.1,0.5-0.1,0.8-0.1V0.3h-3.9V0.5z"/>
		<path class="st2" d="M140.3,11.4c-0.2-0.1-0.4-0.4-0.5-0.7c-0.2-0.3-0.4-0.8-0.7-1.5l-3.7-9h-0.5l-3.1,8.1
			c-0.3,0.7-0.5,1.3-0.7,1.7c-0.2,0.4-0.4,0.7-0.5,0.9c-0.2,0.3-0.4,0.5-0.7,0.6c-0.2,0.1-0.4,0.2-0.7,0.2c-0.2,0-0.3,0-0.4-0.1
			c-0.1-0.1-0.3-0.2-0.4-0.4c-0.2-0.2-0.4-0.6-0.7-1c-0.3-0.5-0.6-1.2-1.2-2.3c-0.2-0.5-0.4-0.8-0.5-1c-0.1-0.2-0.2-0.3-0.4-0.4
			c-0.2-0.2-0.4-0.3-0.8-0.4c0.4-0.1,0.7-0.2,1-0.3c0.2-0.1,0.5-0.2,0.7-0.4c0.7-0.5,1-1.2,1-2.1c0-0.6-0.2-1.1-0.5-1.6
			c-0.3-0.5-0.7-0.8-1.3-1c-0.5-0.2-1.2-0.3-2.1-0.4c-0.2,0-0.7,0-1.4,0h-4.1v0.2c0.3,0,0.6,0.1,0.8,0.1s0.4,0.2,0.5,0.4
			c0.2,0.2,0.3,0.4,0.4,0.7s0.1,0.7,0.1,1.3v6.3c0,0.6,0,1-0.1,1.3s-0.2,0.5-0.4,0.7c-0.2,0.2-0.3,0.3-0.5,0.4
			c-0.2,0.1-0.5,0.1-0.8,0.1V12h5.5v-0.2c-0.3,0-0.6-0.1-0.8-0.1c-0.2-0.1-0.4-0.2-0.5-0.4c-0.2-0.2-0.3-0.4-0.4-0.7
			c-0.1-0.3-0.1-0.7-0.1-1.3v-3h0.4c0.3,0,0.5,0,0.6,0.1s0.3,0.1,0.5,0.2c0.3,0.2,0.6,0.7,1,1.3c0.4,0.6,0.7,1.3,1.1,2.2l0.6,1.4
			c0,0.1,0.1,0.3,0.3,0.6h2.6h0.3h3.5v-0.2c-0.3,0-0.6-0.1-0.9-0.3c-0.2-0.1-0.3-0.3-0.4-0.4c-0.1-0.2-0.1-0.4-0.1-0.6
			c0-0.4,0.1-0.9,0.4-1.5l0.2-0.5l0.4-1.2h3.8l0.8,2l0.1,0.4c0.2,0.4,0.2,0.7,0.2,0.9c0,0.4-0.2,0.7-0.5,0.9
			c-0.2,0.1-0.6,0.2-1.1,0.3V12h5.6v-0.2c-0.4,0-0.6-0.1-0.8-0.1C140.6,11.6,140.5,11.5,140.3,11.4z M123.9,6
			c-0.3,0.1-0.8,0.1-1.5,0.1H122V0.6h0.4c0.6,0,1.1,0,1.4,0.1c0.3,0.1,0.6,0.2,0.9,0.4c0.3,0.3,0.5,0.6,0.7,1
			c0.2,0.4,0.3,0.8,0.3,1.3c0,0.8-0.3,1.5-0.9,2.1C124.5,5.7,124.2,5.9,123.9,6z M132.7,6.9l1.7-4.4l1.8,4.4H132.7z"/>
		<path class="st2" d="M150.3,0.5c0.3,0,0.6,0.1,0.8,0.1c0.2,0.1,0.4,0.2,0.5,0.4c0.2,0.2,0.3,0.4,0.4,0.7c0.1,0.3,0.1,0.7,0.1,1.3
			v6.2l-6.9-8.9h-3.3v0.2c0.3,0,0.6,0.1,0.8,0.1c0.2,0.1,0.4,0.2,0.5,0.4c0.2,0.2,0.3,0.4,0.4,0.7c0.1,0.3,0.1,0.7,0.1,1.3v6.3
			c0,0.6,0,1-0.1,1.3c-0.1,0.3-0.2,0.5-0.4,0.7c-0.2,0.2-0.3,0.3-0.5,0.4c-0.2,0.1-0.5,0.1-0.8,0.1V12h3.9v-0.2
			c-0.3,0-0.6-0.1-0.8-0.1c-0.2-0.1-0.4-0.2-0.5-0.4c-0.2-0.2-0.3-0.4-0.4-0.7c-0.1-0.3-0.1-0.7-0.1-1.3V1.8L152,12h0.4V3
			c0-0.6,0-1,0.1-1.3c0.1-0.3,0.2-0.5,0.4-0.7c0.3-0.3,0.8-0.5,1.3-0.5V0.3h-3.9V0.5z"/>
		<path class="st2" d="M164.9,10.4c-0.3,0.4-0.7,0.7-1.2,1s-1.1,0.3-1.8,0.3c-1.3,0-2.3-0.5-3.1-1.4c-0.4-0.5-0.8-1.1-1-1.8
			c-0.2-0.7-0.3-1.5-0.3-2.4c0-1.1,0.2-2,0.5-2.8c0.2-0.6,0.5-1.1,0.9-1.6s0.7-0.8,1.2-1.1c0.5-0.3,1-0.4,1.7-0.4
			c0.4,0,0.8,0.1,1.2,0.2c0.3,0.1,0.7,0.4,1,0.7c0.4,0.4,0.7,0.8,1,1.3c0.1,0.3,0.3,0.7,0.5,1.2c0,0.1,0.1,0.2,0.1,0.4h0.2l-0.1-3.8
			h-0.2c-0.1,0.1-0.1,0.2-0.1,0.3c-0.1,0.1-0.2,0.2-0.4,0.2c-0.1,0-0.2,0-0.4-0.1l-0.7-0.2c-0.8-0.3-1.5-0.4-2.2-0.4
			c-0.7,0-1.4,0.1-2.2,0.4c-0.7,0.2-1.3,0.6-1.9,1c-0.7,0.5-1.2,1.2-1.6,2.1c-0.4,0.9-0.6,1.8-0.6,2.9c0,1.4,0.3,2.5,1,3.5
			s1.5,1.7,2.7,2c0.7,0.2,1.5,0.4,2.3,0.4c0.8,0,1.6-0.1,2.2-0.4c0.6-0.3,1.1-0.7,1.5-1.2c0.4-0.5,0.6-1.2,0.7-2.1l-0.2,0
			C165.5,9.3,165.3,10,164.9,10.4z"/>
		<path class="st2" d="M176.9,8.6c-0.1,0.5-0.2,0.9-0.4,1.2c-0.1,0.3-0.3,0.6-0.5,0.8c-0.3,0.4-0.7,0.6-1.1,0.8
			c-0.5,0.2-1,0.3-1.7,0.3c-0.6,0-1.2-0.1-1.6-0.3c-0.4-0.2-0.7-0.5-0.9-0.9c-0.1-0.2-0.2-0.5-0.2-0.9s-0.1-0.9-0.1-1.7V6h0.5
			c0.4,0,0.8,0,1,0.1c0.3,0.1,0.5,0.2,0.7,0.4c0.2,0.2,0.3,0.4,0.4,0.7c0.1,0.3,0.2,0.6,0.2,1.1h0.2l0-4.6l-0.2,0
			c-0.1,0.4-0.1,0.8-0.2,1c-0.1,0.2-0.2,0.4-0.4,0.6c-0.2,0.2-0.4,0.3-0.6,0.4c-0.3,0.1-0.7,0.1-1.2,0.1h-0.5V0.6h2
			c0.6,0,1.1,0,1.5,0.1c0.4,0.1,0.7,0.2,0.9,0.4c0.3,0.2,0.6,0.5,0.7,0.8c0.2,0.3,0.3,0.7,0.4,1.2l0.2,0L176,0.3h-9.2v0.2
			c0.3,0,0.6,0.1,0.8,0.1c0.2,0.1,0.4,0.2,0.5,0.4c0.2,0.2,0.3,0.4,0.4,0.7c0.1,0.3,0.1,0.7,0.1,1.3v6.3c0,0.6,0,1-0.1,1.3
			c-0.1,0.3-0.2,0.5-0.4,0.7c-0.2,0.2-0.3,0.3-0.5,0.4c-0.2,0.1-0.5,0.1-0.8,0.1V12H177l0.1-3.4L176.9,8.6z"/>
	</g>
</g>
</svg>
