<?xml version="1.0" encoding="utf-8"?>
<!-- Generator: Adobe Illustrator 24.1.0, SVG Export Plug-In . SVG Version: 6.00 Build 0)  -->
<svg version="1.1" id="Capa_1" xmlns="http://www.w3.org/2000/svg" xmlns:xlink="http://www.w3.org/1999/xlink" x="0px" y="0px"
	 viewBox="0 0 101.4 53.9" style="enable-background:new 0 0 101.4 53.9;" xml:space="preserve">
<style type="text/css">
	.st0{fill-rule:evenodd;clip-rule:evenodd;fill:#0097D7;}
	.st1{fill:#0097D7;}
	.st2{fill:#333333;}
</style>
<desc>Created with Sketch.</desc>
<g id="Clip-2">
</g>
<g id="Clip-5">
</g>
<g id="Clip-8">
</g>
<g id="Clip-15">
</g>
<g id="Clip-18">
</g>
<g>
	<path id="Fill-1" class="st0" d="M20.9,37.1l3.2,8.4h-6.4L20.9,37.1z M17.3,53.5v-0.7c-0.8,0-1.2-0.6-1.2-1.4
		c0-0.4,0.1-1.1,0.2-1.6l0.9-2.8h7.5l1.1,3c0.2,0.6,0.4,1.2,0.4,1.6c0,0.7-0.4,1.2-1.1,1.2v0.7c1.1,0,2.1-0.1,3.2-0.1
		s2.1,0.1,3.2,0.1v-0.7c-1.2-0.1-1.4-1.2-2.6-4l-7-17.9h-0.4l-6.8,17.2c-0.6,1.5-1.8,4.5-3.1,4.8v0.7c0.9,0,1.8-0.1,2.8-0.1
		C15.4,53.4,16.3,53.5,17.3,53.5L17.3,53.5z"/>
	<path id="Fill-4" class="st0" d="M38.3,41.3c2.5,0,3.4,1.3,3.4,4.3v5.2c-0.8,0.8-1.7,1.1-2.6,1.1c-2.8,0-4.4-3.1-4.4-5.8
		C34.7,44,35.8,41.3,38.3,41.3 M37.8,53.9c1.1,0,1.7-0.2,2.2-0.5l1.9-1.6c0.5,1,1.4,1.8,2.4,2.1c0.6-0.8,1.8-1.6,2.9-2.4L46.7,51
		c-0.2,0.1-0.5,0.3-0.9,0.3c-0.7,0-1-0.6-1-1.8v-7.9c0-4.6,0.1-8.2,0.1-10.7h-0.6c-0.8,0.9-2.7,1.8-4.3,2.2v0.6
		c0.8,0.1,1.6,0.6,1.6,2.4v4.7c-1.1-0.5-2.2-0.8-3.3-0.8c-4.1,0-7.1,2.6-7.1,7C31.3,50.9,33.8,53.9,37.8,53.9"/>
	<path id="Fill-7" class="st0" d="M53.2,41.1c2.1,0,3,1.2,3,3.1h-5.8C50.4,42.6,51.5,41.1,53.2,41.1 M54.6,53.9c1.3,0,2.4-0.3,3-0.5
		l1.7-2.5L59,50.5c-1,0.7-2.2,1-3.4,1c-3.3,0-5.6-2.9-5.4-6h9.3c0-3.4-2.6-5.5-5.9-5.5c-4.4,0-6.5,3.9-6.5,6.9
		C47.2,49.9,49.4,53.9,54.6,53.9"/>
	<path id="Fill-10" class="st0" d="M67.6,50.6c0,1.2-1.1,2-2.2,2c-1.4,0-2.7-1.1-3-2.6h-1.2l0.2,3c1,0.6,2.6,0.9,3.7,0.9
		c2.8,0,5.1-1.2,5.1-4.3c0-4.4-6.4-3.2-6.4-6.3c0-1.3,0.9-2,2.2-2c1.7,0,2.6,0.8,3,2.4h1l0.1-2.9C68.8,40.4,67.4,40,66,40
		c-2.6,0-5.1,1.3-5.1,4.2C61,48.8,67.6,48.3,67.6,50.6"/>
	<path id="Fill-12" class="st0" d="M72.8,35.6c0.1,1.2,0.3,3.6,0.3,5.5v10.3c0,0.7-0.3,1.3-1.3,1.4v0.6c0.9,0,1.8-0.1,2.8-0.1
		s1.9,0.1,2.9,0.1v-0.6c-1-0.2-1.2-0.7-1.2-1.8V38.7c0-2.9,0.1-6.1,0.1-7.8h-0.6c-0.8,0.9-3.4,1.8-4.5,1.9v0.7
		C72.2,33.6,72.7,34.3,72.8,35.6"/>
	<path id="Fill-14" class="st0" d="M84.2,46.6c0.6,0,1.2,0.1,1.5,0.2l0.1,4.7c-0.5,0.3-1.2,0.5-2.1,0.5c-1.3,0-2.5-1.1-2.5-2.6
		C81.2,47.3,82.7,46.6,84.2,46.6 M82.4,53.9c1.4,0,2.4-0.8,3.5-1.6c0.4,0.8,1.3,1.4,2.6,1.6l2.4-1.9l-0.5-0.5
		c-0.2,0.1-0.5,0.1-0.7,0.1c-0.7,0-1-0.4-1-1.9v-1.1c0-1.8,0.1-3.5,0.1-4.6c0-3.2-2.4-4-5.3-4c-1.5,0-2.8,0.2-4.1,0.6v3h0.8
		c0.8-1.2,1.6-1.7,3.2-1.7c2.2,0,2.3,1.9,2.3,3.6c-0.4,0-1-0.1-1.5-0.1c-2.9,0-6.2,1.3-6.2,4.7C78.1,52.5,80.2,53.9,82.4,53.9"/>
	<path id="Fill-17" class="st0" d="M98.2,50.6c0,1.2-1.1,2-2.2,2c-1.4,0-2.7-1.1-3-2.6h-1.2l0.2,3c1,0.6,2.6,0.9,3.7,0.9
		c2.8,0,5.1-1.2,5.1-4.3c0-4.4-6.4-3.2-6.4-6.3c0-1.3,0.9-2,2.2-2c1.7,0,2.6,0.8,3,2.4h1l0.1-2.9C99.4,40.4,98,40,96.6,40
		c-2.6,0-5.1,1.3-5.1,4.2C91.6,48.8,98.2,48.3,98.2,50.6"/>
	<g>
		<path class="st1" d="M-0.1,20.8l2.7-7.2h1l2.9,7.2H5.5l-0.8-2.2h-3l-0.8,2.2H-0.1z M2,17.9h2.4l-0.7-2c-0.2-0.6-0.4-1.1-0.5-1.5
			c-0.1,0.5-0.2,0.9-0.4,1.4L2,17.9z"/>
		<path class="st1" d="M6.7,21.2l0.9,0.1c0,0.3,0.1,0.5,0.3,0.6c0.2,0.2,0.5,0.2,0.9,0.2c0.4,0,0.7-0.1,0.9-0.2s0.4-0.4,0.4-0.7
			c0-0.2,0.1-0.6,0.1-1.1c-0.4,0.5-0.9,0.7-1.4,0.7c-0.7,0-1.3-0.3-1.7-0.8s-0.6-1.1-0.6-1.9c0-0.5,0.1-1,0.3-1.4s0.4-0.7,0.8-1
			s0.7-0.3,1.2-0.3c0.6,0,1.1,0.2,1.5,0.7v-0.6h0.8v4.5c0,0.8-0.1,1.4-0.2,1.7s-0.4,0.6-0.8,0.8s-0.8,0.3-1.3,0.3
			c-0.6,0-1.1-0.1-1.5-0.4S6.7,21.8,6.7,21.2z M7.4,18.1c0,0.7,0.1,1.2,0.4,1.5s0.6,0.5,1,0.5c0.4,0,0.7-0.2,1-0.5s0.4-0.8,0.4-1.5
			c0-0.6-0.1-1.1-0.4-1.4s-0.6-0.5-1-0.5c-0.4,0-0.7,0.2-1,0.5S7.4,17.5,7.4,18.1z"/>
		<path class="st1" d="M15.5,19.1l0.9,0.1c-0.1,0.5-0.4,0.9-0.8,1.2s-0.9,0.4-1.5,0.4c-0.8,0-1.4-0.2-1.8-0.7s-0.7-1.1-0.7-2
			c0-0.9,0.2-1.5,0.7-2s1-0.7,1.7-0.7c0.7,0,1.3,0.2,1.7,0.7s0.7,1.1,0.7,2c0,0.1,0,0.1,0,0.2h-3.9c0,0.6,0.2,1,0.5,1.3
			s0.7,0.5,1.1,0.5c0.3,0,0.6-0.1,0.8-0.3S15.4,19.5,15.5,19.1z M12.7,17.7h2.9c0-0.4-0.1-0.8-0.3-1c-0.3-0.3-0.6-0.5-1.1-0.5
			c-0.4,0-0.7,0.1-1,0.4S12.7,17.3,12.7,17.7z"/>
		<path class="st1" d="M17.2,20.8v-5.2h0.8v0.7c0.4-0.6,0.9-0.9,1.7-0.9c0.3,0,0.6,0.1,0.9,0.2s0.5,0.3,0.6,0.4s0.2,0.4,0.3,0.6
			c0,0.2,0,0.4,0,0.9v3.2h-0.9v-3.2c0-0.4,0-0.6-0.1-0.8s-0.2-0.3-0.4-0.4s-0.4-0.2-0.6-0.2c-0.4,0-0.7,0.1-1,0.4S18,17.3,18,18v2.8
			H17.2z"/>
		<path class="st1" d="M24.2,20l0.1,0.8c-0.2,0.1-0.5,0.1-0.7,0.1c-0.3,0-0.6-0.1-0.7-0.2s-0.3-0.2-0.4-0.4s-0.1-0.5-0.1-1v-3h-0.6
			v-0.7h0.6v-1.3l0.9-0.5v1.8h0.9v0.7h-0.9v3c0,0.3,0,0.4,0,0.5s0.1,0.1,0.2,0.2s0.2,0.1,0.3,0.1C23.9,20,24.1,20,24.2,20z"/>
		<path class="st1" d="M28.2,19.1l0.9,0.1c-0.1,0.5-0.4,0.9-0.8,1.2s-0.9,0.4-1.5,0.4c-0.8,0-1.4-0.2-1.8-0.7s-0.7-1.1-0.7-2
			c0-0.9,0.2-1.5,0.7-2s1-0.7,1.7-0.7c0.7,0,1.3,0.2,1.7,0.7s0.7,1.1,0.7,2c0,0.1,0,0.1,0,0.2h-3.9c0,0.6,0.2,1,0.5,1.3
			s0.7,0.5,1.1,0.5c0.3,0,0.6-0.1,0.8-0.3S28.1,19.5,28.2,19.1z M25.4,17.7h2.9c0-0.4-0.1-0.8-0.3-1c-0.3-0.3-0.6-0.5-1.1-0.5
			c-0.4,0-0.7,0.1-1,0.4S25.4,17.3,25.4,17.7z"/>
		<path class="st1" d="M35.8,19.1l0.9,0.1c-0.1,0.5-0.4,0.9-0.8,1.2s-0.9,0.4-1.5,0.4c-0.8,0-1.4-0.2-1.8-0.7s-0.7-1.1-0.7-2
			c0-0.9,0.2-1.5,0.7-2s1-0.7,1.7-0.7c0.7,0,1.3,0.2,1.7,0.7s0.7,1.1,0.7,2c0,0.1,0,0.1,0,0.2h-3.9c0,0.6,0.2,1,0.5,1.3
			s0.7,0.5,1.1,0.5c0.3,0,0.6-0.1,0.8-0.3S35.6,19.5,35.8,19.1z M32.9,17.7h2.9c0-0.4-0.1-0.8-0.3-1c-0.3-0.3-0.6-0.5-1.1-0.5
			c-0.4,0-0.7,0.1-1,0.4S32.9,17.3,32.9,17.7z"/>
		<path class="st1" d="M36.8,20.8l1.9-2.7l-1.8-2.5H38l0.8,1.2c0.1,0.2,0.3,0.4,0.4,0.6c0.1-0.2,0.3-0.4,0.4-0.6l0.9-1.2h1l-1.8,2.4
			l1.9,2.7h-1.1l-1.1-1.6l-0.3-0.4l-1.4,2H36.8z"/>
		<path class="st1" d="M45.4,18.9l0.9,0.1c-0.1,0.6-0.3,1.1-0.7,1.4c-0.4,0.3-0.9,0.5-1.4,0.5c-0.7,0-1.3-0.2-1.7-0.7
			c-0.4-0.5-0.6-1.1-0.6-2c0-0.6,0.1-1,0.3-1.5s0.5-0.7,0.8-0.9c0.4-0.2,0.8-0.3,1.2-0.3c0.6,0,1,0.1,1.4,0.4s0.6,0.7,0.7,1.2
			l-0.9,0.1c-0.1-0.3-0.2-0.6-0.4-0.8c-0.2-0.2-0.5-0.3-0.7-0.3c-0.4,0-0.8,0.2-1.1,0.5s-0.4,0.8-0.4,1.5c0,0.7,0.1,1.2,0.4,1.5
			s0.6,0.5,1,0.5c0.3,0,0.6-0.1,0.9-0.3S45.3,19.3,45.4,18.9z"/>
		<path class="st1" d="M46.6,20.8v-7.2h0.9v7.2H46.6z"/>
		<path class="st1" d="M51.8,20.8V20c-0.4,0.6-1,0.9-1.6,0.9c-0.3,0-0.6-0.1-0.9-0.2c-0.3-0.1-0.5-0.3-0.6-0.4
			c-0.1-0.2-0.2-0.4-0.3-0.7c0-0.2-0.1-0.4-0.1-0.8v-3.2h0.9v2.9c0,0.5,0,0.8,0.1,0.9c0.1,0.2,0.2,0.4,0.4,0.5s0.4,0.2,0.7,0.2
			s0.5-0.1,0.7-0.2s0.4-0.3,0.5-0.6c0.1-0.2,0.1-0.6,0.1-1v-2.8h0.9v5.2H51.8z"/>
		<path class="st1" d="M53.2,19.3l0.9-0.1c0,0.3,0.2,0.6,0.4,0.8c0.2,0.2,0.5,0.3,0.9,0.3c0.4,0,0.7-0.1,0.9-0.2s0.3-0.4,0.3-0.6
			c0-0.2-0.1-0.4-0.3-0.5c-0.1-0.1-0.4-0.2-0.9-0.3c-0.6-0.2-1.1-0.3-1.3-0.4c-0.2-0.1-0.4-0.3-0.6-0.5c-0.1-0.2-0.2-0.4-0.2-0.7
			c0-0.2,0.1-0.4,0.2-0.6c0.1-0.2,0.2-0.4,0.4-0.5c0.1-0.1,0.3-0.2,0.6-0.3c0.2-0.1,0.5-0.1,0.8-0.1c0.4,0,0.8,0.1,1.1,0.2
			c0.3,0.1,0.5,0.3,0.7,0.5s0.2,0.5,0.3,0.8l-0.9,0.1c0-0.3-0.2-0.5-0.3-0.6c-0.2-0.1-0.5-0.2-0.8-0.2c-0.4,0-0.7,0.1-0.9,0.2
			s-0.3,0.3-0.3,0.5c0,0.1,0,0.2,0.1,0.3c0.1,0.1,0.2,0.2,0.3,0.2c0.1,0,0.3,0.1,0.8,0.2c0.6,0.2,1.1,0.3,1.3,0.4
			c0.2,0.1,0.4,0.3,0.6,0.5s0.2,0.5,0.2,0.8c0,0.3-0.1,0.6-0.3,0.8c-0.2,0.3-0.4,0.5-0.7,0.6s-0.7,0.2-1.1,0.2
			c-0.7,0-1.2-0.1-1.5-0.4C53.5,20.2,53.3,19.8,53.2,19.3z"/>
		<path class="st1" d="M58.2,14.7v-1h0.9v1H58.2z M58.2,20.8v-5.2h0.9v5.2H58.2z"/>
		<path class="st1" d="M61.4,20.8l-2-5.2h0.9l1.1,3.1c0.1,0.3,0.2,0.7,0.3,1c0.1-0.3,0.2-0.6,0.3-1l1.2-3.2h0.9l-2,5.2H61.4z"/>
		<path class="st1" d="M64.3,18.2c0-1,0.3-1.7,0.8-2.1c0.4-0.4,1-0.6,1.6-0.6c0.7,0,1.3,0.2,1.7,0.7s0.7,1.1,0.7,1.9
			c0,0.7-0.1,1.2-0.3,1.6c-0.2,0.4-0.5,0.7-0.9,0.9c-0.4,0.2-0.8,0.3-1.3,0.3c-0.7,0-1.3-0.2-1.8-0.7C64.5,19.8,64.3,19.1,64.3,18.2
			z M65.2,18.2c0,0.7,0.1,1.2,0.4,1.5s0.7,0.5,1.1,0.5c0.4,0,0.8-0.2,1.1-0.5s0.4-0.8,0.4-1.5c0-0.6-0.1-1.1-0.4-1.5
			c-0.3-0.3-0.7-0.5-1.1-0.5c-0.4,0-0.8,0.2-1.1,0.5S65.2,17.5,65.2,18.2z"/>
	</g>
	<g>
		<path class="st2" d="M3.8,4.4c0.4,0,0.7,0.1,0.9,0.2S4.9,5,4.9,5.4c0,0.3-0.1,0.6-0.3,0.9C4.5,6.4,4.3,6.6,4.1,6.7
			S3.7,6.8,3.4,6.8C2.8,6.8,2.3,6.6,1.8,6c-0.2-0.3-0.4-0.7-0.5-1S1.1,4.1,1.1,3.7c0-0.9,0.2-1.8,0.7-2.5c0.2-0.4,0.5-0.6,0.8-0.8
			s0.6-0.2,1-0.2c0.5,0,0.9,0.2,1.3,0.5s0.6,0.9,0.9,1.6l0.1,0L5.8,0.2H5.7C5.6,0.4,5.5,0.5,5.4,0.5c-0.1,0-0.1,0-0.2,0L4.9,0.3
			C4.7,0.2,4.4,0.1,4.2,0.1S3.7,0,3.5,0C3,0,2.6,0.1,2.2,0.2S1.4,0.6,1.1,0.8C0.8,1.2,0.5,1.6,0.3,2.1s-0.3,1-0.3,1.6
			c0,0.4,0.1,0.8,0.2,1.2s0.3,0.7,0.5,1c0.3,0.4,0.7,0.6,1.1,0.8S2.7,7,3.3,7c0.4,0,0.8-0.1,1.2-0.2s0.7-0.3,1-0.4
			c0.1-0.1,0.2-0.1,0.3-0.1c0.1,0,0.1,0,0.3,0.1l0-0.1C6,6,6,5.8,6,5.7C6,5.3,6,5,6.1,4.8c0.1-0.1,0.1-0.2,0.3-0.3s0.3-0.1,0.6-0.1
			V4.3H3.8V4.4z"/>
		<path class="st2" d="M12.8,5.6c-0.1,0.2-0.2,0.4-0.3,0.5c-0.2,0.2-0.4,0.4-0.7,0.5s-0.6,0.2-1,0.2c-0.4,0-0.7-0.1-0.9-0.2
			S9.6,6.2,9.5,6C9.4,5.9,9.4,5.7,9.4,5.5s0-0.5,0-1V1.7c0-0.3,0-0.6,0.1-0.8s0.1-0.3,0.2-0.4c0.1-0.1,0.2-0.1,0.3-0.2
			s0.3-0.1,0.4-0.1V0.2H7.2v0.1c0.2,0,0.3,0,0.4,0.1S7.9,0.5,8,0.5c0.1,0.1,0.2,0.2,0.2,0.4s0.1,0.4,0.1,0.8v3.6
			c0,0.3,0,0.6-0.1,0.7S8.1,6.3,8,6.4C7.8,6.6,7.6,6.7,7.2,6.7v0.1h5.8l0.1-2l-0.1,0C12.9,5.1,12.9,5.4,12.8,5.6z"/>
		<path class="st2" d="M18.6,0.3c-0.5-0.2-1-0.3-1.5-0.3c-0.4,0-0.8,0.1-1.2,0.2c-0.4,0.1-0.7,0.3-1.1,0.6c-0.4,0.3-0.8,0.8-1,1.2
			s-0.4,1-0.4,1.5c0,0.4,0.1,0.8,0.2,1.2c0.1,0.4,0.4,0.7,0.6,1c0.3,0.4,0.7,0.7,1.2,0.9c0.5,0.2,1,0.3,1.5,0.3c0.5,0,1-0.1,1.5-0.3
			c0.5-0.2,0.9-0.5,1.2-0.9c0.3-0.3,0.5-0.7,0.7-1.1s0.2-0.8,0.2-1.2c0-0.8-0.3-1.6-0.9-2.2C19.5,0.9,19.1,0.5,18.6,0.3z M18.8,6
			c-0.2,0.3-0.5,0.5-0.7,0.6s-0.6,0.2-0.9,0.2c-0.3,0-0.6-0.1-0.9-0.2S15.7,6.3,15.5,6c-0.5-0.6-0.8-1.4-0.8-2.4
			c0-0.5,0.1-1,0.2-1.5s0.3-0.9,0.6-1.2c0.2-0.3,0.4-0.5,0.7-0.6s0.6-0.2,0.9-0.2c0.3,0,0.7,0.1,0.9,0.2c0.3,0.1,0.5,0.3,0.7,0.6
			c0.3,0.3,0.5,0.7,0.6,1.2s0.2,1,0.2,1.5C19.6,4.6,19.3,5.4,18.8,6z"/>
		<path class="st2" d="M26.8,3.6c-0.1-0.1-0.3-0.2-0.5-0.3c-0.2-0.1-0.4-0.1-0.7-0.2C25.9,3.1,26,3,26.2,3s0.2-0.2,0.3-0.3
			c0.3-0.3,0.4-0.6,0.4-1c0-0.3-0.1-0.5-0.2-0.7s-0.3-0.4-0.5-0.5c-0.2-0.1-0.6-0.2-0.9-0.3c-0.1,0-0.3,0-0.6,0h-3.2v0.1
			c0.2,0,0.3,0,0.5,0.1s0.2,0.1,0.3,0.2c0.1,0.1,0.2,0.2,0.2,0.4s0.1,0.4,0.1,0.7v3.6c0,0.3,0,0.6-0.1,0.7s-0.1,0.3-0.2,0.4
			c-0.1,0.1-0.2,0.2-0.3,0.2s-0.3,0.1-0.5,0.1v0.1H25c0.5,0,0.9,0,1.1-0.1c0.3-0.1,0.5-0.1,0.7-0.3c0.2-0.1,0.4-0.3,0.5-0.6
			s0.2-0.5,0.2-0.8c0-0.3-0.1-0.6-0.2-0.8C27.2,4,27,3.8,26.8,3.6z M23.5,0.3H24c0.3,0,0.6,0,0.8,0.1s0.3,0.1,0.5,0.2
			c0.2,0.1,0.3,0.3,0.4,0.5s0.1,0.5,0.1,0.7c0,0.2,0,0.4-0.1,0.6s-0.2,0.4-0.4,0.5C25.1,3,25,3.1,24.9,3.1s-0.2,0.1-0.4,0.1
			c-0.2,0-0.4,0-0.6,0h-0.4V0.3z M25.9,6.3c-0.3,0.3-0.7,0.4-1.2,0.4c-0.4,0-0.7-0.1-0.9-0.3c-0.1-0.1-0.1-0.2-0.2-0.4
			s-0.1-0.3-0.1-0.6v-2h0.9c0.6,0,1.1,0.1,1.4,0.4c0.2,0.1,0.3,0.3,0.4,0.6s0.1,0.5,0.1,0.8C26.3,5.6,26.2,6,25.9,6.3z"/>
		<path class="st2" d="M34.2,6.5c-0.1-0.1-0.2-0.2-0.3-0.4s-0.2-0.4-0.4-0.8l-2.1-5.1h-0.3l-1.8,4.6c-0.2,0.4-0.3,0.7-0.4,0.9
			c-0.1,0.2-0.2,0.4-0.3,0.5c-0.1,0.2-0.3,0.3-0.4,0.4S28,6.7,27.8,6.7v0.1H30V6.7c-0.2,0-0.4-0.1-0.5-0.2c-0.1-0.1-0.2-0.1-0.2-0.3
			c-0.1-0.1-0.1-0.2-0.1-0.3c0-0.2,0.1-0.5,0.2-0.8l0.1-0.3l0.3-0.7H32l0.5,1.2l0.1,0.2c0.1,0.2,0.1,0.4,0.1,0.5
			c0,0.2-0.1,0.4-0.3,0.5c-0.1,0.1-0.3,0.1-0.6,0.1v0.1H35V6.7c-0.2,0-0.4,0-0.5-0.1S34.3,6.6,34.2,6.5z M29.9,4l1-2.5l1,2.5H29.9z"
			/>
		<path class="st2" d="M40.7,5.6c-0.1,0.2-0.2,0.4-0.3,0.5c-0.2,0.2-0.4,0.4-0.7,0.5c-0.3,0.1-0.6,0.2-1,0.2c-0.4,0-0.7-0.1-0.9-0.2
			S37.5,6.2,37.4,6c-0.1-0.1-0.1-0.3-0.1-0.5s0-0.5,0-1V1.7c0-0.3,0-0.6,0.1-0.8s0.1-0.3,0.2-0.4c0.1-0.1,0.2-0.1,0.3-0.2
			s0.3-0.1,0.4-0.1V0.2h-3.1v0.1c0.2,0,0.3,0,0.4,0.1c0.1,0,0.2,0.1,0.3,0.2C36,0.6,36,0.8,36.1,0.9c0,0.2,0.1,0.4,0.1,0.8v3.6
			c0,0.3,0,0.6-0.1,0.7c0,0.2-0.1,0.3-0.2,0.4c-0.2,0.2-0.4,0.3-0.8,0.3v0.1h5.8l0.1-2l-0.1,0C40.8,5.1,40.8,5.4,40.7,5.6z"/>
		<path class="st2" d="M43.7,0.3c0.2,0,0.3,0,0.5,0.1s0.2,0.1,0.3,0.2c0.1,0.1,0.2,0.2,0.2,0.4s0.1,0.4,0.1,0.7v3.6
			c0,0.3,0,0.6-0.1,0.7s-0.1,0.3-0.2,0.4c-0.1,0.1-0.2,0.2-0.3,0.2c-0.1,0-0.3,0.1-0.5,0.1v0.1h3.1V6.7c-0.2,0-0.4-0.1-0.5-0.1
			S46,6.4,46,6.3c-0.1-0.1-0.1-0.2-0.1-0.4s0-0.4,0-0.6V1.7c0-0.2,0-0.4,0-0.6c0-0.2,0.1-0.4,0.2-0.5c0.1-0.1,0.2-0.2,0.3-0.2
			c0.1,0,0.3-0.1,0.5-0.1V0.2h-3.1V0.3z"/>
		<path class="st2" d="M52.1,0.3c0.2,0,0.3,0,0.5,0.1c0.1,0,0.2,0.1,0.3,0.2C53,0.7,53.1,0.8,53.1,1c0,0.2,0.1,0.4,0.1,0.7v3.5
			l-4-5.1h-1.9v0.1c0.2,0,0.3,0,0.5,0.1c0.1,0,0.2,0.1,0.3,0.2c0.1,0.1,0.2,0.2,0.2,0.4c0,0.2,0.1,0.4,0.1,0.7v3.6
			c0,0.3,0,0.6-0.1,0.7c0,0.2-0.1,0.3-0.2,0.4c-0.1,0.1-0.2,0.2-0.3,0.2c-0.1,0-0.3,0.1-0.5,0.1v0.1h2.3V6.7c-0.2,0-0.3,0-0.5-0.1
			c-0.1,0-0.2-0.1-0.3-0.2c-0.1-0.1-0.2-0.2-0.2-0.4c0-0.2-0.1-0.4-0.1-0.7V1.1l4.6,5.8h0.2V1.7c0-0.3,0-0.6,0.1-0.7
			c0-0.2,0.1-0.3,0.2-0.4c0.2-0.2,0.4-0.3,0.8-0.3V0.2h-2.3V0.3z"/>
		<path class="st2" d="M57.8,2.9l-0.7-0.3c-0.7-0.3-1-0.8-1-1.3c0-0.1,0-0.3,0.1-0.4c0.1-0.1,0.1-0.3,0.2-0.4
			c0.2-0.2,0.5-0.4,0.9-0.4c0.2,0,0.5,0.1,0.7,0.2c0.2,0.1,0.4,0.3,0.5,0.6c0.1,0.1,0.2,0.3,0.2,0.5s0.1,0.4,0.2,0.7H59l0-1.9h-0.1
			c0,0.2-0.1,0.2-0.2,0.2c0,0-0.1,0-0.2,0s-0.2-0.1-0.3-0.1c-0.2-0.1-0.4-0.2-0.5-0.2s-0.3,0-0.4,0c-0.5,0-0.9,0.2-1.2,0.5
			c-0.2,0.2-0.3,0.4-0.5,0.6c-0.1,0.3-0.2,0.5-0.2,0.8c0,0.4,0.1,0.8,0.4,1.1c0.1,0.1,0.2,0.2,0.4,0.3c0.2,0.1,0.4,0.2,0.7,0.4
			c0.4,0.2,0.6,0.3,0.8,0.4C57.8,4.3,58,4.4,58,4.6c0.1,0.1,0.2,0.3,0.2,0.4c0.1,0.2,0.1,0.3,0.1,0.5c0,0.4-0.1,0.7-0.4,1
			S57.4,6.8,57,6.8c-0.5,0-1-0.3-1.3-0.8c-0.2-0.3-0.4-0.7-0.5-1.2l-0.1,0l0,2h0.1c0.1-0.2,0.2-0.2,0.3-0.2c0,0,0.1,0,0.1,0
			s0.2,0.1,0.4,0.2C56.4,6.9,56.8,7,57.2,7c0.5,0,0.9-0.1,1.2-0.3c0.3-0.2,0.6-0.5,0.8-0.9c0.1-0.3,0.2-0.6,0.2-0.9
			c0-0.4-0.1-0.8-0.4-1.2C58.7,3.5,58.4,3.2,57.8,2.9z"/>
		<path class="st2" d="M64.9,0.3c0.2,0,0.3,0,0.5,0.1c0.1,0,0.2,0.1,0.3,0.2c0.1,0.1,0.2,0.2,0.2,0.4c0,0.2,0.1,0.4,0.1,0.7v2.7
			c0,0.5,0,0.8,0,0.9c0,0.2-0.1,0.4-0.1,0.5c-0.1,0.1-0.2,0.3-0.3,0.4c-0.2,0.2-0.5,0.3-0.8,0.4c-0.3,0.1-0.6,0.2-1,0.2
			c-0.3,0-0.6-0.1-0.9-0.2c-0.2-0.1-0.4-0.3-0.6-0.6c-0.1-0.2-0.2-0.4-0.2-0.6c0-0.2-0.1-0.5-0.1-1V1.8c0-0.4,0-0.7,0.1-0.8
			c0-0.2,0.1-0.3,0.2-0.4c0.1-0.1,0.2-0.2,0.3-0.2s0.3-0.1,0.5-0.1V0.2H60v0.1c0.2,0,0.3,0,0.5,0.1c0.1,0,0.2,0.1,0.3,0.2
			c0.1,0.1,0.2,0.2,0.2,0.4S61,1.4,61,1.7v3c0,0.4,0,0.6,0,0.8c0.1,0.4,0.2,0.7,0.5,1C62,6.8,62.6,7,63.6,7c0.9,0,1.6-0.2,2-0.6
			C65.8,6.2,65.9,6,66,5.8c0.1-0.2,0.1-0.6,0.1-1V1.7c0-0.3,0-0.6,0.1-0.7c0-0.2,0.1-0.3,0.2-0.4c0.1-0.1,0.2-0.2,0.3-0.2
			c0.1,0,0.3-0.1,0.5-0.1V0.2h-2.3V0.3z"/>
		<path class="st2" d="M80.1,6.5c-0.1-0.1-0.2-0.2-0.3-0.4s-0.2-0.4-0.4-0.8l-2.1-5.1H77l-1.8,4.6c-0.2,0.4-0.3,0.7-0.4,0.9
			c-0.1,0.2-0.2,0.4-0.3,0.5c-0.1,0.2-0.3,0.3-0.4,0.4c-0.1,0.1-0.2,0.1-0.4,0.1c-0.1,0-0.2,0-0.2-0.1c-0.1,0-0.2-0.1-0.2-0.2
			c-0.1-0.1-0.2-0.3-0.4-0.6c-0.1-0.3-0.4-0.7-0.7-1.3C72.1,4.3,72.1,4.1,72,4s-0.1-0.2-0.2-0.3c-0.1-0.1-0.2-0.2-0.4-0.3
			c0.2-0.1,0.4-0.1,0.6-0.2c0.1-0.1,0.3-0.1,0.4-0.2c0.4-0.3,0.6-0.7,0.6-1.2c0-0.3-0.1-0.6-0.3-0.9c-0.2-0.3-0.4-0.5-0.7-0.6
			c-0.3-0.1-0.7-0.2-1.2-0.2c-0.1,0-0.4,0-0.8,0h-2.4v0.1c0.2,0,0.3,0,0.5,0.1s0.2,0.1,0.3,0.2c0.1,0.1,0.2,0.2,0.2,0.4
			s0.1,0.4,0.1,0.7v3.6c0,0.3,0,0.6-0.1,0.7s-0.1,0.3-0.2,0.4c-0.1,0.1-0.2,0.2-0.3,0.2c-0.1,0-0.3,0.1-0.5,0.1v0.1h3.1V6.7
			c-0.2,0-0.3,0-0.5-0.1c-0.1,0-0.2-0.1-0.3-0.2c-0.1-0.1-0.2-0.2-0.2-0.4c0-0.2-0.1-0.4-0.1-0.7V3.6h0.2c0.1,0,0.3,0,0.4,0
			s0.2,0.1,0.3,0.1c0.2,0.1,0.4,0.4,0.6,0.7c0.2,0.4,0.4,0.8,0.6,1.2l0.3,0.8c0,0,0.1,0.2,0.2,0.3h1.5h0.2h2V6.7
			c-0.2,0-0.4-0.1-0.5-0.2c-0.1-0.1-0.2-0.1-0.2-0.3c-0.1-0.1-0.1-0.2-0.1-0.3c0-0.2,0.1-0.5,0.2-0.8l0.1-0.3l0.3-0.7h2.1l0.5,1.2
			l0.1,0.2c0.1,0.2,0.1,0.4,0.1,0.5c0,0.2-0.1,0.4-0.3,0.5c-0.1,0.1-0.3,0.1-0.6,0.1v0.1h3.2V6.7c-0.2,0-0.4,0-0.5-0.1
			S80.2,6.6,80.1,6.5z M70.7,3.4c-0.2,0-0.5,0.1-0.9,0.1h-0.2V0.3h0.2c0.3,0,0.6,0,0.8,0.1s0.4,0.1,0.5,0.2c0.2,0.1,0.3,0.3,0.4,0.6
			c0.1,0.2,0.1,0.5,0.1,0.7c0,0.5-0.2,0.9-0.5,1.2C71,3.3,70.9,3.4,70.7,3.4z M75.8,4l1-2.5l1,2.5H75.8z"/>
		<path class="st2" d="M85.8,0.3c0.2,0,0.3,0,0.5,0.1c0.1,0,0.2,0.1,0.3,0.2c0.1,0.1,0.2,0.2,0.2,0.4c0,0.2,0.1,0.4,0.1,0.7v3.5
			l-4-5.1H81v0.1c0.2,0,0.3,0,0.5,0.1c0.1,0,0.2,0.1,0.3,0.2c0.1,0.1,0.2,0.2,0.2,0.4C82,1.1,82,1.4,82,1.7v3.6c0,0.3,0,0.6-0.1,0.7
			c0,0.2-0.1,0.3-0.2,0.4c-0.1,0.1-0.2,0.2-0.3,0.2c-0.1,0-0.3,0.1-0.5,0.1v0.1h2.3V6.7c-0.2,0-0.3,0-0.5-0.1
			c-0.1,0-0.2-0.1-0.3-0.2c-0.1-0.1-0.2-0.2-0.2-0.4c0-0.2-0.1-0.4-0.1-0.7V1.1l4.6,5.8H87V1.7c0-0.3,0-0.6,0.1-0.7
			c0-0.2,0.1-0.3,0.2-0.4c0.2-0.2,0.4-0.3,0.8-0.3V0.2h-2.3V0.3z"/>
		<path class="st2" d="M94.2,6c-0.2,0.2-0.4,0.4-0.7,0.5s-0.6,0.2-1,0.2c-0.7,0-1.3-0.3-1.8-0.8c-0.2-0.3-0.4-0.6-0.6-1
			S89.9,4,89.9,3.5c0-0.6,0.1-1.1,0.3-1.6c0.1-0.3,0.3-0.6,0.5-0.9s0.4-0.5,0.7-0.6c0.3-0.2,0.6-0.2,1-0.2c0.2,0,0.5,0,0.7,0.1
			s0.4,0.2,0.6,0.4c0.2,0.2,0.4,0.5,0.6,0.8c0.1,0.2,0.2,0.4,0.3,0.7c0,0,0,0.1,0.1,0.2h0.1l-0.1-2.2h-0.1c0,0.1-0.1,0.1-0.1,0.2
			c-0.1,0.1-0.1,0.1-0.2,0.1c-0.1,0-0.1,0-0.2,0l-0.4-0.1C93.1,0.1,92.7,0,92.3,0c-0.4,0-0.8,0.1-1.2,0.2c-0.4,0.1-0.8,0.3-1.1,0.6
			c-0.4,0.3-0.7,0.7-0.9,1.2S88.7,3,88.7,3.6c0,0.8,0.2,1.4,0.6,2s0.9,0.9,1.5,1.2C91.2,6.9,91.7,7,92.1,7c0.5,0,0.9-0.1,1.3-0.2
			c0.4-0.2,0.7-0.4,0.9-0.7c0.2-0.3,0.4-0.7,0.4-1.2l-0.1,0C94.5,5.3,94.3,5.7,94.2,6z"/>
		<path class="st2" d="M101,4.9c-0.1,0.3-0.1,0.5-0.2,0.7c-0.1,0.2-0.2,0.3-0.3,0.5c-0.2,0.2-0.4,0.4-0.6,0.5s-0.6,0.1-1,0.1
			c-0.4,0-0.7-0.1-0.9-0.2c-0.2-0.1-0.4-0.3-0.5-0.5c-0.1-0.1-0.1-0.3-0.1-0.5s0-0.5,0-1V3.4h0.3c0.2,0,0.4,0,0.6,0.1
			s0.3,0.1,0.4,0.2c0.1,0.1,0.2,0.2,0.2,0.4c0.1,0.2,0.1,0.4,0.1,0.6H99l0-2.6l-0.1,0c0,0.3-0.1,0.4-0.1,0.6c0,0.1-0.1,0.2-0.2,0.3
			c-0.1,0.1-0.2,0.2-0.4,0.2s-0.4,0.1-0.7,0.1h-0.3V0.3h1.1c0.3,0,0.6,0,0.8,0.1s0.4,0.1,0.5,0.2c0.2,0.1,0.3,0.3,0.4,0.5
			s0.2,0.4,0.2,0.7l0.1,0l-0.1-1.6h-5.2v0.1c0.2,0,0.3,0,0.5,0.1c0.1,0,0.2,0.1,0.3,0.2c0.1,0.1,0.2,0.2,0.2,0.4
			c0,0.2,0.1,0.4,0.1,0.7v3.6c0,0.3,0,0.6-0.1,0.7c0,0.2-0.1,0.3-0.2,0.4c-0.1,0.1-0.2,0.2-0.3,0.2c-0.1,0-0.3,0.1-0.5,0.1v0.1h5.8
			l0.1-1.9L101,4.9z"/>
	</g>
</g>
</svg>
