<?xml version="1.0" encoding="utf-8"?>
<!-- Generator: Adobe Illustrator 24.1.0, SVG Export Plug-In . SVG Version: 6.00 Build 0)  -->
<svg version="1.1" id="Capa_1" xmlns="http://www.w3.org/2000/svg" xmlns:xlink="http://www.w3.org/1999/xlink" x="0px" y="0px"
	 viewBox="0 0 225 55" style="enable-background:new 0 0 225 55;" xml:space="preserve">
<style type="text/css">
	.st0{fill-rule:evenodd;clip-rule:evenodd;fill:#0097D7;}
	.st1{fill:#0097D7;}
	.st2{fill:#016790;}
	.st3{fill:#019DDD;}
</style>
<g>
	<g>
		<g>
			<path class="st0" d="M129.1558228,35.2073975L132.9944,45.2836342h-7.6771317L129.1558228,35.2073975z M124.8374405,54.8800468
				v-0.8396873c-0.9596405,0-1.4394608-0.7197304-1.4394608-1.6793747c0-0.4798203,0.119957-1.3195038,0.2399139-1.919281
				l1.0795898-3.3587418h8.9966431l1.3195038,3.5986557c0.2399139,0.7197266,0.4798279,1.4394608,0.4798279,1.9192772
				c0,0.8396873-0.4798279,1.4394646-1.319519,1.4394646v0.8396873c1.319519,0,2.5190582-0.1199532,3.8385773-0.1199532
				c1.3195038,0,2.5190582,0.1199532,3.838562,0.1199532v-0.8396873c-1.4394684-0.1199532-1.6793671-1.4394646-3.1188354-4.7982063
				l-8.3968658-21.4719734h-0.4798126l-8.1569519,20.6322861c-0.7197342,1.7993279-2.1591949,5.3979836-3.7186127,5.7578468V55
				c1.0795975,0,2.1591949-0.1199532,3.3587418-0.1199532C122.5582962,54.7600937,123.6378937,54.8800468,124.8374405,54.8800468
				L124.8374405,54.8800468z M150.0280304,39.8856468c2.9988708,0,4.078476,1.5594177,4.078476,5.1580696v6.2376709
				c-0.9596405,0.9596405-2.0392456,1.3195038-3.1188354,1.3195038c-3.3587494,0-5.2780304-3.7186089-5.2780304-6.9573975
				C145.7096405,43.1244354,147.0291443,39.8856468,150.0280304,39.8856468 M149.4282532,55
				c1.3195038,0,2.0392303-0.2399101,2.6390076-0.5997772l2.2791595-1.919281
				c0.5997772,1.1995544,1.6793671,2.1591949,2.8789215,2.5190582c0.7197266-0.9596405,2.1591949-1.919281,3.4786987-2.8789253
				l-0.5997772-0.5997772c-0.2399139,0.1199532-0.5997772,0.3598671-1.0796051,0.3598671
				c-0.8396759,0-1.1995392-0.7197304-1.1995392-2.1591949v-9.4764595c0-5.5179329,0.1199493-9.8363228,0.1199493-12.8352032
				h-0.7197266c-0.9596405,1.0795975-3.2388,2.159193-5.1580811,2.6390152v0.7197285
				c0.9596405,0.1199551,1.919281,0.7197304,1.919281,2.8789253v5.6378937
				c-1.3195038-0.5997734-2.6390076-0.9596405-3.9585114-0.9596405c-4.9181671,0-8.5168152,3.1188354-8.5168152,8.396862
				C141.6311646,51.4013443,144.6300507,55,149.4282532,55 M167.9013519,39.6457367
				c2.5190582,0,3.5986481,1.4394608,3.5986481,3.718605h-6.9573975
				C164.5426025,41.4450645,165.8621063,39.6457367,167.9013519,39.6457367 M169.580719,55
				c1.5594177,0,2.8789215-0.3598633,3.5986481-0.5997772l2.0392456-2.9988785l-0.3598633-0.4798203
				c-1.1995544,0.8396873-2.6390228,1.1995506-4.078476,1.1995506c-3.9585266,0-6.7174835-3.4787025-6.4775848-7.1973114h11.1558228
				c0-4.078476-3.1188202-6.5975342-7.0773468-6.5975342c-5.2780304,0-7.7970886,4.6782532-7.7970886,8.2769089
				C160.7040405,50.2017937,163.3430481,55,169.580719,55 M185.1748962,51.0414772
				c0,1.4394608-1.319519,2.3991013-2.6390228,2.3991013c-1.6793671,0-3.2387848-1.3195038-3.5986481-3.1188316h-1.4394684
				l0.2399139,3.5986557C178.9372253,54.6401291,180.8565063,55,182.1760101,55
				c3.3587494,0,6.1177063-1.4394646,6.1177063-5.1580696c0-5.2780304-7.677124-3.8385658-7.677124-7.5571747
				c0-1.5594177,1.0795898-2.3991051,2.6390076-2.3991051c2.0392303,0,3.1188354,0.9596405,3.5986481,2.8789253h1.1995544
				l0.1199493-3.4786987c-1.5594025-0.4798241-3.2387695-0.9596481-4.9181366-0.9596481
				c-3.1188354,0-6.1177216,1.5594177-6.1177216,5.0381203C177.257843,48.8822823,185.1748962,48.2825089,185.1748962,51.0414772
				 M191.4125671,33.6479836c0.1199493,1.4394608,0.3598633,4.3183823,0.3598633,6.5975304v12.355381
				c0,0.8396873-0.3598633,1.5594177-1.5594177,1.6793747V55c1.0795898,0,2.1591949-0.1199532,3.3587494-0.1199532
				S195.8509064,55,197.0504608,55v-0.7197304c-1.1995544-0.2399101-1.4394531-0.8396873-1.4394531-2.1591911V37.3665962
				c0-3.4787025,0.1199493-7.3172646,0.1199493-9.3565025h-0.7197266c-0.9596405,1.0795956-4.078476,2.1591911-5.3979797,2.2791481
				v0.8396873C190.6928253,31.2488785,191.2926025,32.0885658,191.4125671,33.6479836 M205.0874481,46.2432709
				c0.7197266,0,1.4394531,0.1199532,1.7993164,0.2399101l0.1199646,5.6378937
				c-0.5997772,0.3598633-1.4394684,0.5997772-2.5190582,0.5997772c-1.5594177,0-2.9988861-1.3195076-2.9988861-3.1188354
				C201.4887848,47.0829582,203.2881165,46.2432709,205.0874481,46.2432709 M202.9282532,55
				c1.6793823,0,2.8789368-0.9596405,4.1984406-1.919281c0.4798126,0.9596405,1.5594177,1.6793747,3.1188202,1.919281
				l2.8789368-2.2791481l-0.5997772-0.5997772c-0.2399139,0.1199532-0.5997772,0.1199532-0.8396912,0.1199532
				c-0.8396759,0-1.1995392-0.4798241-1.1995392-2.2791519v-1.3195038c0-2.1591911,0.1199493-4.1984291,0.1199493-5.5179367
				c0-3.8385658-2.8789215-4.7982063-6.3576355-4.7982063c-1.7993164,0-3.3587494,0.2399139-4.9181519,0.7197304v3.5986557
				h0.9596405c0.9596405-1.4394646,1.919281-2.039238,3.838562-2.039238c2.6390076,0,2.7589722,2.2791481,2.7589722,4.3183823
				c-0.4798279,0-1.1995544-0.1199532-1.7993317-0.1199532c-3.4786987,0-7.4372101,1.5594177-7.4372101,5.6378937
				C197.7701874,53.3206253,200.2892456,55,202.9282532,55 M221.8811646,51.0414772
				c0,1.4394608-1.3195038,2.3991013-2.6390076,2.3991013c-1.6793671,0-3.2387848-1.3195038-3.5986481-3.1188316h-1.4394684
				l0.2399139,3.5986557C215.6435089,54.6401291,217.5627899,55,218.8822937,55C222.2410431,55,225,53.5605354,225,49.8419304
				c0-5.2780304-7.6771393-3.8385658-7.6771393-7.5571747c0-1.5594177,1.0796051-2.3991051,2.6390228-2.3991051
				c2.0392303,0,3.1188202,0.9596405,3.5986481,2.8789253h1.1995544l0.1199493-3.4786987
				c-1.5594025-0.4798241-3.2387695-0.9596481-4.9181519-0.9596481c-3.1188354,0-6.1177063,1.5594177-6.1177063,5.0381203
				C213.9641266,48.8822823,221.8811646,48.2825089,221.8811646,51.0414772"/>
		</g>
		<g>
			<path class="st1" d="M0,42.3044586l3.288146-8.562027H4.50879l3.504241,8.562027H6.722302L5.7235932,39.711319H2.1434274
				l-0.9403048,2.5931396H0z M2.4704897,38.7885361h2.9026797L4.479588,36.4173355
				c-0.272747-0.7201233-0.4748249-1.3123398-0.6074021-1.7754822c-0.1092155,0.548996-0.2628179,1.0939064-0.4613917,1.6353111
				L2.4704897,38.7885361z"/>
			<path class="st1" d="M8.5912304,42.8184128l1.0220699,0.1518517c0.042635,0.3153801,0.1617794,0.5449104,0.3562651,0.689167
				c0.2610655,0.1944847,0.6173296,0.2920189,1.0687933,0.2920189c0.4865055,0,0.862627-0.0975342,1.1271973-0.2920189
				s0.4438705-0.4672318,0.5373173-0.8176575c0.0543156-0.2143402,0.0800133-0.6640511,0.0759249-1.3491325
				c-0.4596395,0.5414085-1.0319986,0.8118172-1.7170782,0.8118172c-0.8526983,0-1.5126638-0.3077888-1.9798956-0.9227829
				c-0.4672327-0.614994-0.7008486-1.3532219-0.7008486-2.2135124c0-0.5916328,0.1068792-1.1377106,0.3212223-1.6382332
				s0.5244684-0.8865738,0.9315443-1.159317c0.4070759-0.272747,0.88482-0.4088287,1.4338179-0.4088287
				c0.7318029,0,1.3357,0.2961082,1.8105249,0.8877411v-0.7475739h0.9695063v5.3614883
				c0,0.9654198-0.0981188,1.6499138-0.29494,2.0529022c-0.1968222,0.4029884-0.5081148,0.7212906-0.9344645,0.9549065
				s-0.9508171,0.3504219-1.573988,0.3504219c-0.7399788,0-1.3374519-0.1664505-1.7930031-0.4993515
				C8.7956448,43.9894142,8.5754614,43.488308,8.5912304,42.8184128z M9.4614506,39.0922394
				c0,0.8135681,0.1617785,1.4075356,0.4847527,1.7813225c0.3229742,0.3737831,0.7282982,0.5606766,1.2148037,0.5606766
				c0.4830008,0,0.8877411-0.1857224,1.2148037-0.5577583c0.3270626-0.3720322,0.4905939-0.9549065,0.4905939-1.7491989
				c0-0.7592545-0.1682043-1.3316116-0.5051956-1.7170792c-0.3369904-0.3854675-0.7428989-0.5781975-1.2177229-0.5781975
				c-0.4672327,0-0.8643799,0.1898117-1.1914425,0.5694389C9.6249809,37.7810669,9.4614506,38.3446655,9.4614506,39.0922394z"/>
			<path class="st1" d="M19.6821518,40.3070412l1.0863152,0.1343307c-0.1711235,0.6348495-0.488842,1.1271973-0.9519844,1.4776192
				c-0.4631443,0.3504257-1.0553608,0.5256386-1.7754822,0.5256386c-0.9070148,0-1.6265526-0.279171-2.1580286-0.8381004
				c-0.531477-0.5589256-0.7972155-1.3421211-0.7972155-2.3507614c0-1.0436783,0.2686586-1.853157,0.8059759-2.4296036
				c0.5373163-0.5764503,1.2340765-0.8643799,2.0908632-0.8643799c0.8293381,0,1.5068245,0.2820892,2.0324593,0.8468552
				c0.5256367,0.5647697,0.7884541,1.3590622,0.7884541,2.382885c0,0.0624924-0.0017509,0.155941-0.0058403,0.2803383h-4.625597
				c0.0391312,0.6815758,0.231863,1.203125,0.5781994,1.5652275c0.3463364,0.3621063,0.7785263,0.5431595,1.2965698,0.5431595
				c0.3854656,0,0.7142811-0.1010399,0.9870281-0.3037033C19.3066139,41.0738869,19.5227089,40.7509117,19.6821518,40.3070412z
				 M16.2304745,38.6074867h3.4633579c-0.0467224-0.5215492-0.1793003-0.9128571-0.3971462-1.1739235
				c-0.3346558-0.4047394-0.7691803-0.607399-1.3024101-0.607399c-0.4830017,0-0.8889084,0.1617775-1.2177238,0.4847527
				C16.4477386,37.6338882,16.2655182,38.0660782,16.2304745,38.6074867z"/>
			<path class="st1" d="M22.088398,42.3044586v-6.202507h0.9461441v0.8819008
				c0.4555511-0.681572,1.1131821-1.022068,1.9740562-1.022068c0.373785,0,0.7172012,0.0671616,1.031414,0.2014923
				c0.3130455,0.1343307,0.5478306,0.3107109,0.703186,0.5285568c0.1553535,0.2178459,0.2651539,0.4771614,0.3270607,0.7767715
				c0.0385475,0.1944885,0.0584049,0.5355682,0.0584049,1.0220718v3.8137817h-1.0512714V38.531559
				c0-0.4281006-0.040884-0.7487373-0.1226501-0.9607468c-0.0817642-0.2120056-0.2266064-0.3813782-0.4356937-0.5081139
				c-0.2079182-0.1267357-0.4520454-0.1898117-0.7323856-0.1898117c-0.4473743,0-0.8340092,0.141922-1.1599045,0.4263496
				c-0.3247261,0.2844276-0.4870892,0.823494-0.4870892,1.6177902v3.3874321H22.088398z"/>
			<path class="st1" d="M31.0358925,41.3641548l0.1518497,0.9286232c-0.2955227,0.0624924-0.5606785,0.0934448-0.7942944,0.0934448
				c-0.3819618,0-0.6774864-0.060154-0.8877411-0.1810493c-0.2102547-0.1208992-0.3586006-0.279171-0.4438705-0.4759941
				s-0.1284885-0.610321-0.1284885-1.2410851v-3.5684853h-0.7709332v-0.8176575h0.7709332v-1.536026l1.045433-0.6307602v2.1667862
				h1.0571117v0.8176575h-1.0571117v3.6268883c0,0.299614,0.0186882,0.4923477,0.0548992,0.5782013
				c0.0373783,0.0858536,0.0981178,0.1536026,0.1822205,0.2044144c0.0829334,0.0508118,0.2032452,0.0759239,0.3586006,0.0759239
				C30.691309,41.4050369,30.8454952,41.3916054,31.0358925,41.3641548z"/>
			<path class="st1" d="M36.3097763,40.3070412l1.0863113,0.1343307c-0.1717072,0.6348495-0.4882545,1.1271973-0.9519844,1.4776192
				c-0.463726,0.3504257-1.0547752,0.5256386-1.7754822,0.5256386c-0.9075966,0-1.6271362-0.279171-2.157444-0.8381004
				c-0.5326443-0.5589256-0.7977982-1.3421211-0.7977982-2.3507614c0-1.0436783,0.2686577-1.853157,0.8059769-2.4296036
				c0.5373154-0.5764503,1.2346611-0.8643799,2.0908623-0.8643799c0.8293381,0,1.5068245,0.2820892,2.0324593,0.8468552
				c0.5256348,0.5647697,0.788456,1.3590622,0.788456,2.382885c0,0.0624924-0.0023384,0.155941-0.0058403,0.2803383h-4.6255989
				c0.0385475,0.6815758,0.2312813,1.203125,0.5781975,1.5652275c0.34692,0.3621063,0.77911,0.5431595,1.2965698,0.5431595
				c0.3854675,0,0.7148666-0.1010399,0.98703-0.3037033C35.9336548,41.0738869,36.1497498,40.7509117,36.3097763,40.3070412z
				 M32.8580971,38.6074867h3.4633598c-0.0467262-0.5215492-0.1787186-0.9128571-0.3971481-1.1739235
				c-0.3352394-0.4047394-0.7685966-0.607399-1.3024101-0.607399c-0.4824181,0-0.8889084,0.1617775-1.2183075,0.4847527
				C33.0753593,37.6338882,32.8931389,38.0660782,32.8580971,38.6074867z"/>
			<path class="st1" d="M46.2851791,40.3070412l1.0863152,0.1343307c-0.1717072,0.6348495-0.4882584,1.1271973-0.9519844,1.4776192
				c-0.4637299,0.3504257-1.0547752,0.5256386-1.7754822,0.5256386c-0.9076004,0-1.6271362-0.279171-2.157444-0.8381004
				c-0.5326462-0.5589256-0.7977982-1.3421211-0.7977982-2.3507614c0-1.0436783,0.2686577-1.853157,0.8059731-2.4296036
				c0.5373192-0.5764503,1.2346611-0.8643799,2.0908661-0.8643799c0.8293343,0,1.5068207,0.2820892,2.0324593,0.8468552
				c0.5256348,0.5647697,0.7884521,1.3590622,0.7884521,2.382885c0,0.0624924-0.0023346,0.155941-0.0058403,0.2803383h-4.6255951
				c0.0385437,0.6815758,0.2312775,1.203125,0.5781975,1.5652275c0.34692,0.3621063,0.77911,0.5431595,1.2965698,0.5431595
				c0.3854675,0,0.7148666-0.1010399,0.9870262-0.3037033C45.9090576,41.0738869,46.1251526,40.7509117,46.2851791,40.3070412z
				 M42.8335037,38.6074867h3.463356c-0.0467224-0.5215492-0.1787148-0.9128571-0.3971443-1.1739235
				c-0.3352394-0.4047394-0.7685966-0.607399-1.3024101-0.607399c-0.4824181,0-0.8889084,0.1617775-1.2183075,0.4847527
				C43.050766,37.6338882,42.8685455,38.0660782,42.8335037,38.6074867z"/>
			<path class="st1" d="M47.9905777,42.3044586l2.2660751-3.2238998l-2.0967026-2.9786072h1.3140907l0.9519844,1.4542618
				c0.1787148,0.2762489,0.3235588,0.5081139,0.4321899,0.6950073c0.1717072-0.2569771,0.3293991-0.4847527,0.4730721-0.6833267
				l1.045433-1.4659424h1.2556839l-2.143425,2.9202003l2.3069572,3.2823067h-1.2907295l-1.2732086-1.9273338l-0.3387413-0.5197945
				l-1.6294708,2.4471283H47.9905777z"/>
			<path class="st1" d="M58.7193947,40.0325432l1.0337524,0.1343307c-0.1133041,0.7125282-0.4018211,1.2702866-0.8678856,1.673275
				c-0.4648972,0.4029846-1.036087,0.6044807-1.7135735,0.6044807c-0.8491936,0-1.531353-0.27742-2.0476456-0.8322601
				c-0.5151215-0.5548363-0.7732697-1.3502998-0.7732697-2.3858032c0-0.6698914,0.1109695-1.2556839,0.3329048-1.7579613
				c0.2219353-0.5022736,0.5595093-0.8789787,1.0127258-1.1301155c0.4543839-0.2511368,0.9473114-0.3767052,1.4811249-0.3767052
				c0.6739845,0,1.2241478,0.1705399,1.652832,0.5110321c0.428688,0.3404961,0.703186,0.8246651,0.8234978,1.4513397
				l-1.022068,0.157692c-0.0969505-0.41642-0.2698288-0.7300491-0.5174599-0.9403038
				c-0.2464676-0.2102547-0.5454941-0.3153801-0.8959198-0.3153801c-0.5291405,0-0.9601593,0.1898117-1.2907295,0.5694389
				c-0.3305664,0.3796234-0.4964333,0.9800186-0.4964333,1.8017616c0,0.8334274,0.1600266,1.4384918,0.4789124,1.8163643
				c0.3188858,0.3778763,0.7358932,0.5665207,1.2498474,0.5665207c0.4123306,0,0.756916-0.1267357,1.0337524-0.3796272
				C58.4705925,40.9477348,58.6458054,40.5581779,58.7193947,40.0325432z"/>
			<path class="st1" d="M60.6292076,42.3044586v-8.562027h1.0518532v8.562027H60.6292076z"/>
			<path class="st1" d="M67.3742828,42.3044586v-0.9111023c-0.4812469,0.7008476-1.1377106,1.0512733-1.967041,1.0512733
				c-0.3667831,0-0.7078629-0.0700874-1.0255814-0.2102547c-0.3177109-0.1401711-0.5536652-0.3165512-0.7055168-0.5285568
				c-0.1541862-0.2120056-0.2639847-0.4719048-0.3247261-0.7796936c-0.0443878-0.2061653-0.0654144-0.5332298-0.0654144-0.9811859
				v-3.8429871h1.0512772v3.4399986c0,0.548996,0.021019,0.9186935,0.0654068,1.1096764
				c0.0654144,0.2762489,0.2055817,0.4935112,0.4205093,0.6512032c0.2125931,0.157692,0.4789124,0.2365379,0.7942963,0.2365379
				s0.6097412-0.0805969,0.8877411-0.2423782c0.2756653-0.1617775,0.4719009-0.3813782,0.5863724-0.6599655
				c0.1144791-0.2785873,0.1728821-0.6821594,0.1728821-1.2118835v-3.3231888h1.0512695v6.202507H67.3742828z"/>
			<path class="st1" d="M69.542244,40.4530525l1.0395889-0.1635323c0.058403,0.41642,0.2195969,0.7358894,0.4859238,0.9578247
				c0.2686539,0.2219353,0.6401062,0.3329048,1.1190186,0.3329048c0.4835892,0,0.8410187-0.0981178,1.0746384-0.2949409
				c0.2336121-0.1968231,0.3504181-0.4275169,0.3504181-0.6920891c0-0.2377014-0.1027908-0.4245949-0.3083725-0.5606766
				c-0.1448441-0.0934486-0.5022736-0.2120056-1.0746307-0.356266c-0.7709351-0.1944847-1.3059158-0.3632736-1.6049423-0.5051918
				c-0.2966919-0.141922-0.5233002-0.3387451-0.6774902-0.5898819c-0.1518478-0.2511368-0.2289429-0.5285568-0.2289429-0.8322563
				c0-0.2762527,0.0630798-0.5326462,0.1892319-0.768013c0.126152-0.2353706,0.2990265-0.4310226,0.5162888-0.5869598
				c0.1635361-0.1208992,0.3878021-0.2231064,0.6681442-0.3066216c0.2826767-0.083519,0.5863724-0.1255684,0.9087677-0.1255684
				c0.4882584,0,0.9134369,0.0700836,1.282547,0.2102547c0.3667831,0.1401672,0.6401138,0.3299828,0.8153229,0.5694389
				s0.2943573,0.5595093,0.3621063,0.960743l-1.027916,0.1401711c-0.0467224-0.3194695-0.1822205-0.5682716-0.4064865-0.74757
				c-0.2242737-0.1793022-0.5396576-0.2686577-0.9484863-0.2686577c-0.4835815,0-0.8269958,0.0800133-1.0349121,0.2394562
				c-0.2055893,0.1594429-0.3083801,0.3463326-0.3083801,0.5606766c0,0.1360817,0.0420532,0.2587318,0.1284943,0.3679466
				c0.0840988,0.1127205,0.2195969,0.2061653,0.4018173,0.2803383c0.1051254,0.0391312,0.4158401,0.1284904,0.9297943,0.2686577
				c0.742897,0.1985741,1.261528,0.360939,1.5558777,0.4876747c0.2943573,0.1267357,0.5256424,0.3107109,0.6915054,0.551918
				c0.1682053,0.2412071,0.2523041,0.5414047,0.2523041,0.8994217c0,0.3504219-0.1027908,0.6804047-0.3083725,0.9899483
				c-0.2032471,0.3095398-0.4975967,0.548996-0.8830643,0.7183685s-0.8223343,0.2540588-1.3082504,0.2540588
				c-0.8059769,0-1.4203873-0.1676216-1.8432312-0.5022774C69.9277115,41.6077003,69.65905,41.1112633,69.542244,40.4530525z"/>
			<path class="st1" d="M75.947998,34.9513931v-1.2089615h1.0512695v1.2089615H75.947998z M75.947998,42.3044586v-6.202507
				h1.0512695v6.202507H75.947998z"/>
			<path class="st1" d="M80.3236237,42.3044586l-2.35952-6.202507h1.1096725l1.3316116,3.7144966
				c0.1425095,0.4012337,0.2756653,0.8176575,0.3971481,1.2498474c0.0934448-0.3270645,0.2242737-0.7201233,0.3901367-1.1797638
				l1.378334-3.7845802h1.0816422l-2.3478394,6.202507H80.3236237z"/>
			<path class="st1" d="M84.1899719,39.2032051c0-1.1488075,0.3177185-1.9991684,0.9578247-2.5522537
				c0.5326462-0.4596405,1.1820984-0.689167,1.9506912-0.689167c0.8526993,0,1.5488739,0.279171,2.0908661,0.8380966
				C89.7290039,37.3588066,90,38.1303253,90,39.1156006c0,0.7983818-0.1191406,1.4262238-0.3574295,1.8835297
				c-0.2406311,0.4573021-0.5887146,0.8129845-1.0466003,1.0658722c-0.4578934,0.2528877-0.9578247,0.3796272-1.4974823,0.3796272
				c-0.8690491,0-1.5699005-0.2785873-2.1048813-0.8351784C84.4562912,41.0528603,84.1899719,40.2503891,84.1899719,39.2032051z
				 M85.2692719,39.2032051c0,0.7942963,0.1728821,1.3888474,0.5209656,1.7842445
				c0.3457565,0.3953934,0.7826157,0.5928001,1.3082504,0.5928001c0.5209656,0,0.9554901-0.1985741,1.301239-0.5957222
				c0.3480911-0.3971481,0.5209656-1.0027962,0.5209656-1.8163643c0-0.7668457-0.175209-1.3479652-0.5233002-1.7433586
				c-0.3480835-0.3953972-0.7826157-0.5928001-1.2989044-0.5928001c-0.5256348,0-0.9624939,0.1968193-1.3082504,0.5898781
				C85.4421539,37.8149414,85.2692719,38.4089127,85.2692719,39.2032051z"/>
		</g>
		<rect x="103" y="31" class="st1" width="1" height="15"/>
	</g>
	<g>
		<g id="Capa_2_1_">
			<g id="Capa_1-2">
				<path class="st2" d="M34.3194008,13.7352629c-0.303894,0.1444616-0.6160202,0.2709255-0.934761,0.3787384
					c-0.3706779,0.128932-0.7574768,0.2417469-1.1684494,0.3465061c-0.4109745,0.1047583-0.8058281,0.1853399-1.2248573,0.2498055
					c-0.3595276,0.0607023-0.7232704,0.0930357-1.0878658,0.0966997c-0.9948788,0.0151825-1.9855862-0.1317902-2.9332104-0.4351473
					c-0.8228493-0.2585802-1.5754414-0.7024164-2.1999092-1.2973824c-0.6181145-0.6036787-1.0919075-1.3391609-1.3860226-2.151557
					c-0.3324032-0.9721203-0.4932766-1.994627-0.4754391-3.021852c-0.0343304-1.0945978,0.1605511-2.1842847,0.5721359-3.1991334
					c0.6948757-1.6113534,2.0616646-2.8367505,3.7390385-3.3522415c0.8117847-0.2506452,1.6565266-0.3783071,2.5061226-0.378739
					c0.7928429-0.0032884,1.5848045,0.0532806,2.3691311,0.1692238c0.6074219,0.0769541,1.1996994,0.2453995,1.7567024,0.4996128
					c0,0.1853398,0,0.4351466,0,0.7333033s-0.0483475,0.6204875-0.0805779,0.9669933
					c-0.0322342,0.3465059-0.0886421,0.6849535-0.14505,1.0314596c-0.0564079,0.3465056-0.128933,0.6527195-0.201458,0.9347591
					h-0.8058281l-1.0798073-2.9009798c-0.2012138-0.0790844-0.4130249-0.1279624-0.6285439-0.1450491
					c-0.2675381-0.0306768-0.5365429-0.0468168-0.8058281-0.0483491c-0.5176201,0.0012758-1.0298309,0.1053607-1.5068951,0.3062136
					c-0.5018387,0.2166669-0.9420795,0.5544612-1.2812653,0.9831088c-0.4191723,0.5270152-0.7287655,1.1325045-0.9105873,1.780879
					c-0.2333527,0.8555813-0.3419151,1.7403789-0.3223305,2.626997c-0.0101547,0.7784591,0.090229,1.55442,0.2981548,2.304666
					c0.1602802,0.6394215,0.4331493,1.2451906,0.8058262,1.7889357c0.3349171,0.477766,0.7727585,0.874301,1.2812653,1.1603918
					c0.4912415,0.2784309,1.0470066,0.4229298,1.6116543,0.4190311c0.1997337-0.0004015,0.3991241-0.0165672,0.5963135-0.0483494
					c0.1934185-0.0262108,0.3846455-0.0666103,0.5721378-0.1208744c0.1608334-0.0413675,0.3173428-0.0980339,0.4673805-0.1692228
					c0.1032009-0.0430307,0.1985188-0.1029425,0.2820396-0.1772814V9.4563208
					c-0.3210297-0.0254574-0.6376934-0.090414-0.9428177-0.1933985c-0.2767239-0.1019669-0.5459881-0.2231359-0.8058262-0.3626232
					V8.1750555h5.2217598v0.7252436c-0.1354332,0.128499-0.2904892,0.2345867-0.4593201,0.3142729
					c-0.2311325,0.109498-0.4746437,0.19067-0.7252464,0.2417469L34.3194008,13.7352629z"/>
				<path class="st2" d="M41.5799026,14.5733242h-5.2781677v-0.7252445c0.4056549-0.1941748,0.8294067-0.3480196,1.2651482-0.459321
					V1.768729L36.116394,1.615622V0.8903779c0.2214928-0.094532,0.4506416-0.1700153,0.6849518-0.2256314
					c0.2901001-0.080583,0.6124268-0.1450492,0.9428177-0.2014568l1.0475769-0.1531084
					c0.3384438-0.04835,0.6446648-0.080583,0.9105835-0.1047576h0.6446648v13.1833334
					c0.4365845,0.1085443,0.860611,0.2624893,1.2651482,0.459321L41.5799026,14.5733242z"/>
				<path class="st2" d="M42.6516533,9.7947683c-0.0134659-0.7136879,0.103981-1.4238005,0.3465042-2.0951514
					c0.2201424-0.6032343,0.5662727-1.1526465,1.0153465-1.6116543c0.4586639-0.4437671,1.0086899-0.782033,1.6116524-0.9911671
					c0.6800041-0.2414279,1.3978348-0.3587928,2.1193237-0.3465061c0.7845001-0.019546,1.5658607,0.1061263,2.3046684,0.3706799
					c0.6073341,0.2194948,1.1579628,0.571897,1.6116524,1.0314593c0.4232941,0.4588447,0.7324944,1.0109868,0.9025307,1.6116548
					c0.198288,0.6529288,0.2961082,1.3322196,0.2900963,2.0145679c0.0091782,0.720005-0.1137238,1.4355907-0.3626251,2.111268
					c-0.2078438,0.6054268-0.5493698,1.1562729-0.9992256,1.6116543c-0.4621773,0.4392204-1.0111618,0.7768478-1.6116524,0.9911671
					c-0.6867523,0.2368002-1.40905,0.354002-2.1354446,0.3465061c-0.7664909,0.0152102-1.5290565-0.1132488-2.2482567-0.3787384
					c-0.6088181-0.2164803-1.16008-0.5692902-1.6116562-1.0314589c-0.4320297-0.4577036-0.7520027-1.0093775-0.934761-1.6116552
					C42.7394104,11.1642752,42.6386642,10.4808159,42.6516533,9.7947683z M45.6090393,9.7947683
					c-0.0061302,0.5391006,0.0288887,1.0778828,0.1047554,1.6116543c0.0554161,0.4233084,0.1806755,0.8344889,0.3706779,1.2167997
					c0.1888351,0.3012676,0.4526062,0.5483809,0.7655411,0.717185c0.3630753,0.1960869,0.7722626,0.2907305,1.1845665,0.273982
					c0.2662506,0.0040512,0.5284157-0.0656748,0.7574768-0.201457c0.2557259-0.1577339,0.4622726-0.3838148,0.5963135-0.6527195
					c0.1875877-0.3718939,0.3128128-0.7720766,0.3706779-1.1845655c0.0917358-0.5972071,0.1348495-1.2008715,0.1289368-1.8050528
					c0.0018387-0.5389776-0.0331612-1.0774498-0.1047554-1.6116543c-0.0553932-0.4181747-0.1807022-0.8240595-0.3706818-1.2006826
					c-0.152298-0.327363-0.3921356-0.6062455-0.6930122-0.8058276c-0.3367119-0.1961308-0.7227478-0.2912416-1.1120377-0.2739811
					c-0.2974892-0.0091314-0.5921173,0.0603576-0.8541756,0.2014565c-0.2634201,0.1495709-0.4765549,0.3739214-0.6124306,0.6446614
					c-0.1911697,0.3704324-0.316597,0.7712355-0.3706779,1.1845655C45.6597099,8.5315275,45.6057625,9.1626472,45.6090393,9.7947683
					z"/>
				<path class="st2" d="M54.6826553,1.768729L53.2321625,1.615622V0.8903779
					c0.2472343-0.0918569,0.5002785-0.1672326,0.7574806-0.2256314c0.31427-0.080583,0.6366043-0.1450492,0.9750481-0.2014568
					l0.9911728-0.1531068l0.8058243-0.1047577h0.6527214v6.6077828l0,0c0.22612-0.6034098,0.6309357-1.1234822,1.1603928-1.4907804
					c0.5490608-0.3622451,1.1958046-0.547832,1.853405-0.531846c1.0096626-0.0520611,1.983242,0.3823056,2.6189384,1.1684504
					c0.7023506,1.0366788,1.0319176,2.2811012,0.934761,3.5295229c0.1113625,1.44979-0.3915749,2.8796597-1.3860245,3.9404945
					c-1.1212807,0.944869-2.5664215,1.4159861-4.0291367,1.3134975c-0.3582344,0.0005083-0.716156-0.0210218-1.0717506-0.0644665
					c-0.3948517-0.0402908-0.8058281-0.0966997-1.1523323-0.1611662c-0.3430519-0.056324-0.6821861-0.1343794-1.0153427-0.2336903
					c-0.2387466-0.0589991-0.4689369-0.1483688-0.6849556-0.2659225L54.6826553,1.768729z M59.2516937,6.3216534
					c-0.4478378-0.0185761-0.8780975,0.1756382-1.1603928,0.5237875c-0.3178406,0.3865275-0.5413055,0.8417511-0.6527176,1.3296146
					v5.0605955c0.1997337,0.1415234,0.4236794,0.2453041,0.660778,0.3062134
					c0.2881737,0.0816793,0.586956,0.1197062,0.8864059,0.1128159c0.6863174,0.0361357,1.3251419-0.3503551,1.6116562-0.9750509
					c0.3979073-0.9665661,0.5714798-2.0107698,0.5076675-3.0540857c0.034111-0.8257341-0.1059151-1.649406-0.4109726-2.4174814
					C60.4535065,6.633534,59.8729515,6.2767668,59.2516937,6.3216534z"/>
				<path class="st2" d="M73.6195908,11.8012781c0,0.2820396,0,0.5237875,0,0.7252436
					c0.0018768,0.2181339,0.0153275,0.4360132,0.0402985,0.6527195l1.3215561,0.1933985v0.6688366
					c-0.2003098,0.0920582-0.4078369,0.1675234-0.6204834,0.2256327c-0.2578659,0.0805826-0.526474,0.1531057-0.8058319,0.2175732
					c-0.2900925,0.072525-0.5721359,0.128933-0.8058243,0.1772814l-0.7494202,0.1047573H71.347168
					c-0.1201706-0.2793598-0.1962814-0.5756645-0.2256317-0.8783522c0-0.2981567-0.0483475-0.6527195-0.0564041-1.0717497
					h-0.0967026c-0.0650482,0.2609587-0.1740417,0.508935-0.3223343,0.7333021
					c-0.1545563,0.2448416-0.3541718,0.4581308-0.5882568,0.6285458c-0.2419891,0.1936789-0.5142441,0.3461418-0.8058243,0.4512634
					c-0.3444214,0.120225-0.7069702,0.1801968-1.0717545,0.1772814c-0.3951492,0.0041008-0.7879333-0.0613642-1.1603928-0.1933985
					c-0.3434448-0.118104-0.6608429-0.3014307-0.934761-0.5399046c-0.2699127-0.2175055-0.4874725-0.4929047-0.6366043-0.8058271
					c-0.1565781-0.3437223-0.233696-0.7183056-0.2256317-1.0959253c-0.0203094-0.4929781,0.0909424-0.9824829,0.3223343-1.4182558
					c0.2473831-0.3928728,0.6026764-0.7061977,1.0233917-0.9025278c0.5685806-0.2657614,1.174675-0.4424267,1.7970047-0.5237875
					c0.8835983-0.1341162,1.774147-0.2175207,2.6672821-0.2498055c0.1224747-0.8066082,0.0758209-1.6298728-0.1369858-2.4174819
					c-0.1743927-0.5256991-0.6897964-0.8603749-1.2409744-0.8058271c-0.3715363-0.0042558-0.7405624,0.0613489-1.0878677,0.1933985
					l-0.9025269,2.2966075H66.858696c-0.1109543-0.1705427-0.210556-0.3482103-0.2981567-0.5318456
					c-0.1012421-0.2039561-0.1900482-0.4138556-0.2659225-0.6285458c-0.0805817-0.2256322-0.1531143-0.451263-0.2095184-0.6768951
					c-0.0544434-0.2201543-0.0948181-0.4435515-0.1208725-0.6688366c0.5691376-0.3797693,1.2026291-0.6528254,1.8695145-0.8058271
					c0.790741-0.1962543,1.6027603-0.2936964,2.4174805-0.2900982c0.6028824-0.0178323,1.2045746,0.0638466,1.7808838,0.2417474
					c0.4068222,0.1242924,0.7773743,0.3455176,1.0798035,0.6446614c0.2591934,0.2712283,0.4450073,0.6040277,0.5399017,0.9669933
					c0.1054459,0.3859005,0.1569672,0.7845368,0.1531067,1.1845655c0,0.7655358,0,1.4585462-0.0483475,2.0709758
					C73.7082214,10.4636002,73.6195908,11.1566162,73.6195908,11.8012781z M69.3245316,13.2759418
					c0.2375717,0.0075045,0.4731903-0.0451632,0.6849518-0.1531076c0.1806259-0.0963097,0.3462219-0.2184715,0.4915543-0.3626232
					c0.1247177-0.1367359,0.2279663-0.2916059,0.3062134-0.459321c0.0644684-0.1692228,0.1208801-0.3142719,0.1611633-0.4432049
					V9.947876c-0.493721,0.0069761-0.9863968,0.0473595-1.4746628,0.1208735
					c-0.3183823,0.0344706-0.6244965,0.142024-0.8944702,0.3142719c-0.2050858,0.1297731-0.3632202,0.3218021-0.4512634,0.5479631
					c-0.0855942,0.2598352-0.1264648,0.5323133-0.1208725,0.8058271c-0.0251999,0.4043646,0.0948257,0.8044376,0.3384476,1.1281576
					C68.6066208,13.1399574,68.9591751,13.2910528,69.3245316,13.2759418z"/>
				<path class="st2" d="M81.1540756,14.5733242h-5.294281v-0.7252445c0.4045334-0.1968317,0.8285599-0.3507776,1.2651443-0.459321
					V1.768729L75.6663971,1.615622V0.8903779c0.2243271-0.0943514,0.4561386-0.1698239,0.6930084-0.2256314
					c0.3105316-0.0836232,0.6252365-0.1508682,0.9428177-0.2014568l1.0153427-0.1531068
					c0.3384476-0.04835,0.6366043-0.080583,0.9025345-0.1047577h0.6688309v13.1833315
					c0.4357376,0.1113014,0.8594894,0.2651472,1.2651443,0.459321V14.5733242z"/>
				<path class="st3" d="M85.4410782,14.5733242h-2.8768005v-0.3465061c0.233963-0.129899,0.4868393-0.2223463,0.7494202-0.2739811
					V8.7471914c-0.1329346-0.0180025-0.2629547-0.053216-0.3868027-0.1047564
					c-0.1248627-0.0442686-0.2460938-0.0981522-0.3626175-0.1611662V8.1267042h2.8768005v0.3787403
					c-0.1161575,0.0660133-0.2374191,0.1226025-0.3626175,0.1692228c-0.1252594,0.0454731-0.2548828,0.077878-0.3868027,0.0966997
					v5.2056446l0.3868027,0.1047573c0.1279221,0.039854,0.2499008,0.0967751,0.3626175,0.1692228V14.5733242z"/>
				<path class="st3" d="M90.2276917,8.1267061h2.2804947v0.3787384c-0.1216812,0.0916443-0.2510986,0.1725321-0.386795,0.2417469
					C91.99543,8.813859,91.8631668,8.8678455,91.726532,8.9083576v5.7938986h-0.8058243l-3.2233124-4.6979723l-0.3706818-0.7091274
					l0,0l0.0886459,0.7413607v3.8357382c0.1413498,0.0384789,0.2789001,0.0897245,0.4109726,0.1531076
					c0.1343155,0.057477,0.2614288,0.1304998,0.3787384,0.2175732v0.3465061h-2.2724304v-0.3626242
					c0.1151733-0.0792627,0.2364273-0.1493187,0.3626175-0.2095156c0.1315002-0.0667944,0.2691269-0.1207647,0.4109726-0.1611662
					V8.8358335L86.335556,8.6746674l-0.3303986-0.1933985V8.1267042h1.9420471l2.6350555,3.8357382l0.4270859,0.8058271h0.0402985
					l-0.0483475-0.8058271V8.8922405c-0.1469879-0.0472698-0.2898331-0.1065636-0.4270935-0.1772814
					c-0.126976-0.0649233-0.2482758-0.140399-0.3626175-0.2256317L90.2276917,8.1267061z"/>
				<path class="st3" d="M94.1359482,13.8077869c0.0839539,0.0817947,0.1822968,0.1473627,0.2901001,0.1933985
					c0.1535873,0.0609837,0.3184357,0.0884571,0.4834976,0.0805836c0.3032913,0.0137863,0.6020737-0.0772724,0.8461227-0.257865
					c0.2200089-0.1783428,0.3425674-0.4503469,0.3303909-0.7333021c0.0055466-0.2119074-0.0726166-0.4174662-0.2175751-0.5721369
					c-0.1592102-0.1679268-0.3441849-0.3093815-0.5479584-0.4190302c-0.2175751-0.128933-0.4512634-0.257865-0.7091293-0.386797
					c-0.2485733-0.1227655-0.483551-0.2713165-0.7010651-0.4432049c-0.2214432-0.1658106-0.4076996-0.3739882-0.5479584-0.6124287
					c-0.1549149-0.2659979-0.230423-0.5707979-0.2175751-0.8783512c-0.0089493-0.2774277,0.046196-0.5531826,0.1611633-0.8058271
					c0.1074524-0.2165165,0.2649002-0.4043465,0.4593277-0.5479631c0.2056961-0.1501017,0.4381866-0.2595062,0.6849594-0.3223305
					c0.2787552-0.0729408,0.56604-0.1081738,0.8541718-0.1047568c0.3505096-0.0018969,0.7006683,0.0223451,1.0475769,0.0725245
					c0.2990112,0.0483179,0.5911789,0.1321812,0.8702927,0.2498055c0,0.1208744,0,0.257865,0,0.4190311
					s-0.0402908,0.3223305-0.0644684,0.4754381c-0.0241699,0.1531076-0.0483475,0.3062134-0.0725174,0.4432039l-0.0805893,0.3465061
					h-0.3787384l-0.4270859-1.2651482c-0.1041336-0.0423813-0.212059-0.0747595-0.3223267-0.0966997
					c-0.1482315-0.0324097-0.29953-0.0486202-0.4512634-0.0483494c-0.2364655-0.0076208-0.4687958,0.0632133-0.6607819,0.2014561
					c-0.1801376,0.1403046-0.2796021,0.3603344-0.2659225,0.588254c-0.009964,0.2213364,0.0716324,0.4370117,0.2256241,0.5963116
					c0.1615067,0.1721163,0.3458862,0.3212442,0.5479584,0.4432049c0.2256317,0.1369905,0.4673843,0.2739811,0.7252426,0.4029131
					c0.2568741,0.1246157,0.4999542,0.2758665,0.725235,0.4512634c0.217926,0.168848,0.4058914,0.3731556,0.5560226,0.6043701
					c0.1533127,0.2581501,0.2314529,0.5539923,0.2256317,0.8541765c0.0289078,0.5442419-0.2011566,1.070116-0.620491,1.4182558
					c-0.5336151,0.3736954-1.1793365,0.5529041-1.8292313,0.5076704c-0.1994019-0.0013809-0.3985367-0.0148363-0.5963135-0.0402908
					c-0.1895905-0.022357-0.3778687-0.0546331-0.5640793-0.0966997c-0.1611862-0.0389719-0.3199387-0.0874052-0.4754333-0.1450491
					c-0.1103058-0.0325766-0.213974-0.0844116-0.306221-0.1531076c-0.0112457-0.1502104-0.0112457-0.3010521,0-0.4512625
					c0-0.1692228,0.0564194-0.330389,0.0805893-0.4915552c0.0241776-0.1611662,0.0564117-0.3142719,0.0886459-0.4673796
					l0.0886383-0.386797h0.3787384L94.1359482,13.8077869z"/>
				<path class="st3" d="M97.8911057,8.1267061h2.8365173v0.3787384c-0.2140121,0.1337137-0.4522095,0.2240677-0.7010651,0.2659225
					v3.54564c-0.0078354,0.2539387,0.0275879,0.5073614,0.1047592,0.7494192
					c0.1038513,0.368576,0.3900299,0.657795,0.7574768,0.7655363c0.1988907,0.0576878,0.4053879,0.0848579,0.6124268,0.0805836
					c0.1884689,0.0032845,0.3762283-0.0239286,0.5560226-0.0805836c0.1664047-0.0608521,0.3176041-0.1570787,0.4432068-0.2820396
					c0.1312943-0.1469564,0.2301559-0.3199406,0.2901001-0.5076704c0.0732727-0.2620792,0.1058807-0.5338535,0.0966949-0.8058271
					V8.7955427c-0.1475525-0.0340109-0.2928772-0.0770693-0.4351425-0.128932
					c-0.1304474-0.046937-0.2548676-0.1091499-0.3706818-0.1853399V8.1267061h2.2804871v0.3787384
					c-0.1121216,0.0796757-0.2339859,0.1446705-0.3626175,0.1933985l-0.402916,0.1208735v3.4569998
					c0.1540222,1.1782494-0.6762848,2.2582655-1.8545303,2.4122829c-0.1707077,0.022316-0.3434753,0.0240602-0.5146027,0.0051985
					c-0.6805267,0.0410671-1.3545685-0.1523314-1.9098053-0.5479631c-0.4810562-0.4584045-0.7272186-1.110899-0.6688385-1.7728205
					V8.7471914c-0.1319199-0.0188217-0.2615356-0.0512276-0.386795-0.0966997
					c-0.1284409-0.0450287-0.2525177-0.1016703-0.3706818-0.1692228L97.8911057,8.1267061z"/>
				<path class="st3" d="M106.7310333,13.9608946c0.1292191,0.0268068,0.2559128,0.0645475,0.3787384,0.1128159l0.3223267,0.1531076
					v0.3465061h-2.8365173v-0.3465061c0.121521-0.074069,0.251358-0.1335726,0.386795-0.1772814
					c0.1208725-0.0402908,0.2417526-0.0644665,0.3626175-0.0966997V8.7471914
					c-0.2622604-0.0485888-0.5151825-0.1383371-0.7494125-0.2659225V8.1267042h1.3940811h0.4915543h0.5237808h0.5157318
					c0.3156815-0.00319,0.6302795,0.0374908,0.934761,0.1208744c0.2649536,0.0658398,0.5142059,0.1836185,0.7333069,0.3465052
					c0.2038651,0.1500921,0.3695068,0.3460979,0.4834976,0.5721369c0.1158524,0.2526083,0.1736832,0.5279531,0.1692276,0.8058271
					c0.0177078,0.3885212-0.0958176,0.7717028-0.322319,1.0878677c-0.2252426,0.2959938-0.5339813,0.5177269-0.8864212,0.6366043
					c0.2498093,0.386796,0.5076752,0.8058271,0.8058319,1.176507c0.2981491,0.3706789,0.5721436,0.8058271,0.8783493,1.1603909
					l0.4432068,0.2900982v0.3142729h-1.5391312l-0.3948669-0.2981567c-0.2956009-0.3581352-0.5472031-0.7504177-0.7494125-1.1684504
					c-0.2148819-0.4458914-0.408287-0.8810387-0.5801926-1.3054409h-0.7413635L106.7310333,13.9608946z M107.190361,8.6585522
					c-0.1545715-0.0043592-0.3090515,0.0119009-0.4593277,0.0483494v2.5705891h0.5560226
					c0.3046951,0.0078459,0.598114-0.1153898,0.8058243-0.3384476c0.2449493-0.272644,0.3672791-0.6338501,0.3384476-0.9992256
					c0.0047684-0.1977739-0.0280457-0.3946571-0.0966949-0.5801954c-0.0517654-0.1533442-0.1403122-0.2916765-0.2578735-0.4029131
					c-0.1110077-0.1024179-0.2430038-0.1794147-0.3867874-0.2256327
					C107.5286179,8.6792765,107.3597717,8.6547651,107.190361,8.6585522z"/>
				<path class="st3" d="M113.0970764,14.5733242h-2.272438v-0.3465061c0.099678-0.0680151,0.208107-0.1222296,0.3223267-0.1611662
					c0.1075516-0.0447807,0.2179184-0.0824661,0.3303909-0.1128149l2.4174805-5.9308891h0.6446609l2.3127213,5.9308891
					c0.1257172,0.0301371,0.2494965,0.0678101,0.3706894,0.1128149c0.114212,0.0389366,0.222641,0.0931511,0.3223267,0.1611662
					v0.3465061h-2.8848648v-0.3465061c0.1234741-0.0600033,0.2498932-0.1137915,0.3787384-0.1611662
					c0.1369934-0.0483494,0.2659225-0.0805826,0.386795-0.1128149l-0.5399017-1.4182568h-2.0467987l-0.5399017,1.4585466
					c0.2839737,0.0375919,0.5577927,0.1306868,0.8058243,0.273982L113.0970764,14.5733242z M113.0970764,11.8979778h1.6116562
					l-0.612442-1.780879l-0.1772842-0.8058271l0,0l-0.2014542,0.8058271L113.0970764,11.8979778z"/>
				<path class="st3" d="M122.0498123,8.1267061h2.2804947v0.3787384c-0.1228714,0.0898924-0.2521515,0.1706886-0.386795,0.2417469
					c-0.1259537,0.0666676-0.2582245,0.1206541-0.3948593,0.1611662v5.7938986h-0.8058243l-3.2233124-4.6979723
					l-0.3626175-0.7091274l0,0l0.0886383,0.7413607v3.8357382c0.1391449,0.0372629,0.2741394,0.088563,0.402916,0.1531076
					c0.1376877,0.0557232,0.2676697,0.1288424,0.386795,0.2175732v0.3465061h-2.272438v-0.3626242
					c0.112999-0.082653,0.234581-0.1528959,0.3626175-0.2095156c0.1314926-0.0667925,0.2691193-0.1207647,0.410965-0.1611662
					V8.8358335l-0.3706818-0.1611662l-0.4029007-0.1692228V8.1508799h1.9903946l2.6350555,3.8357382l0.4270859,0.8058271l0,0
					V11.986618V8.8922405c-0.1469803-0.0472698-0.2898254-0.1065636-0.4270859-0.1772814
					c-0.1280212-0.0630436-0.2494965-0.1386242-0.3626175-0.2256317L122.0498123,8.1267061z"/>
				<path class="st3" d="M129.4875946,12.6393375h0.3626251c0,0.0966997,0.0483398,0.2175732,0.072525,0.3545637
					c0.0241699,0.1369915,0.0402832,0.2900991,0.0564117,0.4432049c0.0161133,0.1531057,0,0.3142719,0,0.4673796
					s0,0.2900982,0,0.4109726c-0.246109,0.1489601-0.5205536,0.2450151-0.8058319,0.2820396
					c-0.3271942,0.0581961-0.6588287,0.0878563-0.9911652,0.0886412c-0.4690857,0.0053368-0.9363098-0.0598564-1.3860245-0.1933985
					c-0.3942642-0.1120481-0.7561493-0.3164682-1.0556259-0.5963116c-0.3012695-0.2909241-0.532692-0.646327-0.6768951-1.0395164
					c-0.1720581-0.4860773-0.2539825-0.9994688-0.2417526-1.5149546c-0.0123672-0.5149784,0.0780334-1.0272608,0.2659225-1.5068979
					c0.1566086-0.3903379,0.3957596-0.742198,0.7010727-1.0314589c0.2962189-0.2716007,0.648262-0.4751263,1.031456-0.5963125
					c0.3965149-0.1235571,0.8095398-0.1860523,1.2248535-0.1853399c0.3699799-0.0055265,0.7396393,0.0241547,1.1039886,0.0886421
					c0.2781982,0.0398388,0.549469,0.1185017,0.8058167,0.2336903c0,0.0966997,0,0.2256327,0,0.3787384
					s0,0.3142719-0.0483398,0.4834967l-0.072525,0.4915552c0,0.1611662-0.0564117,0.2981567-0.0805817,0.4109716h-0.386795
					l-0.5076752-1.3860216c-0.083313-0.042057-0.1732941-0.0693235-0.2659302-0.0805836
					c-0.1260986-0.0082731-0.2526245-0.0082731-0.3787384,0c-0.2422256-0.0022993-0.4818497,0.0500336-0.7010651,0.1531076
					c-0.2367935,0.1076021-0.4420853,0.2740564-0.5963135,0.4834967c-0.1882172,0.2530584-0.3250809,0.5404978-0.402916,0.846118
					c-0.1039963,0.4079809-0.1527863,0.8280735-0.1450424,1.249032c-0.0447693,0.7127371,0.1387024,1.4212036,0.5237808,2.0226259
					c0.3245773,0.4627752,0.8614426,0.7296867,1.4263229,0.7091274c0.1461639,0.0049028,0.2923584-0.0086336,0.4351349-0.0402908
					c0.0924072-0.0127211,0.1791687-0.0519009,0.2498016-0.1128149L129.4875946,12.6393375z"/>
				<path class="st3" d="M135.5393524,8.1267061c0,0.2820396,0,0.5640793-0.0644684,0.8622351
					c-0.0644684,0.2981548-0.072525,0.5640793-0.1208649,0.8058271h-0.3787384l-0.4190369-1.0798092h-1.724472v2.2563162h1.1281586
					l0.4029083-0.7091274h0.3223419c0.0339813,0.3319702,0.0501251,0.6655254,0.0483551,0.9992256
					c0.0011292,0.3444109-0.0150146,0.6886635-0.0483551,1.0314598h-0.2901001l-0.4029083-0.7252445h-1.1281586v2.4174814h1.7969971
					l0.4915466-1.1684504h0.3384552c0.0338898,0.130085,0.060791,0.2618914,0.0805817,0.3948555
					c0,0.1450491,0.0402985,0.2981567,0.0564117,0.4512625c0.0161285,0.1531067,0,0.3142729,0.0402985,0.4754391
					c0.0402985,0.1611652,0,0.3062134,0,0.4432039h-4.980011v-0.3545628
					c0.2369537-0.1296072,0.4924469-0.2220144,0.7574768-0.2739811V8.7471914
					c-0.1336975-0.0265341-0.2655792-0.0615234-0.3948517-0.1047564c-0.1248627-0.0442686-0.2460938-0.0981522-0.3626251-0.1611662
					V8.1267042L135.5393524,8.1267061z"/>
			</g>
		</g>
		<g>
			<path class="st3" d="M14.0562134,9.0632324c-2.3534546,0-4.2613525-1.9078979-4.2613525-4.2613525
				c0-1.4389038,0.7179565-2.7053833,1.8101196-3.4769897C10.4088745,0.4918213,8.9575195,0,7.3894043,0
				C3.3083496,0,0,3.3083496,0,7.3894043c0,4.0809937,3.3083496,7.3893433,7.3894043,7.3893433
				c3.5239868,0,6.4666138-2.4688721,7.2057495-5.7698364C14.416748,9.0316772,14.2408447,9.0632324,14.0562134,9.0632324z"/>
			<circle class="st2" cx="14.0562267" cy="4.8018579" r="4.2613807"/>
		</g>
	</g>
</g>
</svg>
