<?xml version="1.0" encoding="utf-8"?>
<!-- Generator: Adobe Illustrator 24.1.0, SVG Export Plug-In . SVG Version: 6.00 Build 0)  -->
<svg version="1.1" id="Capa_1" xmlns="http://www.w3.org/2000/svg" xmlns:xlink="http://www.w3.org/1999/xlink" x="0px" y="0px"
	 viewBox="0 0 225 55" style="enable-background:new 0 0 225 55;" xml:space="preserve">
<style type="text/css">
	.st0{fill:#333333;}
	.st1{fill-rule:evenodd;clip-rule:evenodd;fill:#0097D7;}
	.st2{fill:#0097D7;}
</style>
<g>
	<g>
		<path class="st0" d="M10.2956648,0.2990442l0.1025295,3.7166924L10.2016802,4.032825
			C9.80865,2.768295,9.3045473,1.8270178,8.6893702,1.2089931C8.074194,0.5909683,7.3308554,0.281956,6.4593549,0.281956
			c-0.6778336,0-1.2602577,0.1381299-1.7472725,0.4143898S3.7708051,1.421172,3.3492951,2.0420449
			C2.4948833,3.3122706,2.0676773,4.764771,2.0676773,6.3995461c0,0.7803631,0.1025293,1.5165815,0.3075883,2.2086549
			c0.2050588,0.6920738,0.5041029,1.3029785,0.8971326,1.8327141c0.7632749,1.0252943,1.6945837,1.5379419,2.7939274,1.5379419
			c0.4329019,0,0.8401718-0.0911369,1.2218089-0.2734118c0.3816376-0.1822748,0.694922-0.4329023,0.9398537-0.7518826
			C8.5640564,10.5092678,8.732091,9.9823809,8.732091,9.3729c0-0.5639114-0.1523695-0.9711819-0.4571104-1.2218094
			c-0.30474-0.250627-0.8074193-0.3759408-1.5080371-0.3759408V7.5786347h5.4511485v0.1965151
			c-0.501255,0.0455685-0.8529873,0.1153455-1.0551987,0.2093306c-0.2022104,0.0939851-0.3517332,0.2548995-0.4485664,0.4827428
			c-0.1082249,0.2506275-0.1623383,0.7490349-0.1623383,1.4952211c0,0.2050591,0.0113926,0.5240393,0.0341768,0.9569416
			l0.0170879,0.1965151c-0.2164507-0.0797453-0.3759413-0.1196175-0.4784708-0.1196175
			c-0.1253138,0-0.2848034,0.0655041-0.4784708,0.1965141C9.150753,11.5345631,8.575449,11.7965822,7.9203997,11.978857
			s-1.3471231,0.2734118-2.0762215,0.2734118c-1.0025101,0-1.9067626-0.1708822-2.7127581-0.5126476
			c-0.8059952-0.3417645-1.4596206-0.8316269-1.9608756-1.4695883C0.7946032,9.7915621,0.5055271,9.2219543,0.3033163,8.5612087
			S0,7.1998453,0,6.4593549c0-1.019598,0.1822746-1.9679956,0.5468237-2.845192s0.8771963-1.6005986,1.5379417-2.1702065
			c0.5411277-0.4613825,1.1648483-0.8173875,1.8711624-1.0680151S5.4084282,0,6.1944876,0
			c0.4556861,0,0.8786201,0.0427206,1.2688017,0.1281618S8.2678604,0.353157,8.706459,0.5468237l0.5041027,0.2306912
			C9.3358755,0.8287797,9.4497976,0.854412,9.5523272,0.854412c0.2278423,0,0.4015732-0.1851226,0.5211906-0.5553678H10.2956648z
			 M12.7478275,11.9617691v-0.2050591c0.575304,0,1.019599-0.1623383,1.3328829-0.4870148
			c0.1765785-0.1822748,0.2976208-0.4143906,0.3631248-0.6963463c0.065505-0.2819557,0.098258-0.7134342,0.098258-1.2944345
			V2.9818981c0-0.6037846-0.0356007-1.0495028-0.106802-1.3371549c-0.0712004-0.287652-0.2036343-0.5226154-0.3973017-0.70489
			c-0.1594896-0.1480981-0.337492-0.2563236-0.5340071-0.3246766s-0.4485664-0.1082255-0.756155-0.1196177V0.2990442h5.4596939
			V0.495559c-0.3132858,0.0170882-0.5696087,0.0598089-0.7689724,0.1281618
			c-0.1993618,0.0683529-0.3759403,0.1765785-0.5297337,0.3246766c-0.1936684,0.1879706-0.3246784,0.424358-0.3930302,0.709162
			c-0.0683537,0.284804-0.1025295,0.7262502-0.1025295,1.3243387v4.9299574c0,0.7575788,0.0199356,1.3214903,0.0598087,1.6917353
			c0.0398731,0.3702459,0.1167698,0.6721382,0.2306919,0.9056768c0.1993618,0.4101181,0.4955578,0.7105865,0.888588,0.9014053
			s0.9142208,0.2862282,1.5635738,0.2862282c0.6778336,0,1.2488651-0.0897141,1.7130966-0.2691402
			c0.4642296-0.1794262,0.8444443-0.4571104,1.1406403-0.8330517c0.1993618-0.2563238,0.3631248-0.5468235,0.4912872-0.8715
			c0.1281605-0.3246765,0.2463551-0.7518826,0.3545799-1.2816181l0.2050591,0.0170879l-0.1110744,3.5030899H12.7478275z
			 M23.8210087,6.2073035c0-0.9576535,0.2050591-1.84553,0.6151752-2.6629176
			c0.4101181-0.8180995,1.0082073-1.5322456,1.7942657-2.1424382c0.5866966-0.4499903,1.2189617-0.7960272,1.8967953-1.0388227
			C28.8050785,0.1210417,29.4886074,0,30.1778336,0c0.8771973,0,1.7259121,0.1922427,2.5461464,0.5774401
			c0.8202362,0.3844854,1.5379448,0.927749,2.1531181,1.6283671c1.0025101,1.1399279,1.5037651,2.4364982,1.5037651,3.8904228
			c0,0.7298102-0.1310081,1.4339881-0.3930283,2.1118217c-0.2620201,0.678546-0.6436577,1.2965708-1.1449127,1.8554983
			c-0.6151772,0.6956339-1.3428497,1.2339134-2.1830215,1.615551c-0.8401718,0.382349-1.718792,0.5731678-2.6358604,0.5731678
			c-0.9056778,0-1.7714825-0.1851225-2.597414-0.5560799c-0.8259315-0.370245-1.537941-0.8942842-2.1360302-1.5728302
			c-0.4727745-0.5297356-0.8358994-1.1328077-1.0893745-1.8085051C23.9477463,7.6398678,23.8210087,6.9371138,23.8210087,6.2073035z
			 M25.8886852,6.3354654c0,1.6532874,0.4499893,3.0474033,1.3499718,4.1809225
			c0.4044209,0.5076637,0.8330517,0.8764849,1.2858887,1.1078882c0.4528389,0.230691,0.9754543,0.3460369,1.5678463,0.3460369
			c0.5980892,0,1.1235523-0.1139221,1.5763912-0.3417654c0.452837-0.2285547,0.8843174-0.5987997,1.2944355-1.1121597
			c0.8999786-1.1399279,1.349968-2.5447235,1.349968-4.2150989c0-0.9177814-0.1238899-1.7857213-0.3716698-2.6031089
			c-0.247776-0.8180995-0.5966644-1.5123093-1.0466537-2.0826294c-0.3645477-0.4670786-0.7703934-0.8074194-1.2175369-1.0217344
			c-0.4471416-0.213603-0.9754524-0.3204045-1.5849342-0.3204045c-0.6037846,0-1.1264,0.1053775-1.5678463,0.3161324
			c-0.4414463,0.211467-0.8501396,0.5532318-1.2260799,1.0260065c-0.4499912,0.5646241-0.7974529,1.2574098-1.0423832,2.0783572
			C26.0111504,4.5141435,25.8886852,5.3948998,25.8886852,6.3354654z M37.6112175,11.9617691V11.765254
			c0.3303719-0.0170879,0.5966644-0.0640812,0.7988777-0.1409779c0.2022095-0.0768976,0.3802109-0.1950912,0.5340042-0.3545809
			c0.1822777-0.1822748,0.3047409-0.4129658,0.3673973-0.6920738c0.0626602-0.279108,0.0939865-0.7120104,0.0939865-1.298707
			V2.9818981c0-0.5866964-0.0313263-1.0195984-0.0939865-1.2987063c-0.0626564-0.2791079-0.1851196-0.5097992-0.3673973-0.6920738
			c-0.1537933-0.1651863-0.3332176-0.284804-0.5382767-0.358853S37.935894,0.5126472,37.6112175,0.495559V0.2990442h5.6134872
			c0.5696106,0,0.9427032,0.0056961,1.1192818,0.0170882c0.649353,0.0512647,1.1876297,0.2050589,1.6148376,0.4613825
			c0.3702469,0.2278433,0.6564751,0.5268874,0.8586845,0.8971326s0.3033142,0.7860591,0.3033142,1.2474415
			c0,0.7461867-0.23069,1.3585153-0.6920738,1.8369861c-0.165184,0.1765785-0.353157,0.3232527-0.5639114,0.440022
			c-0.2107544,0.1167698-0.5154953,0.2463555-0.9142189,0.3887577c0.5468216,0.0911374,0.97118,0.1908188,1.2730713,0.2990441
			c0.3018951,0.1082253,0.5753059,0.2591715,0.8202362,0.4528384c0.3645515,0.296196,0.6479301,0.6650171,0.8501396,1.1064634
			c0.2022133,0.4414463,0.303318,0.9184928,0.303318,1.4311404c0,0.518343-0.1039543,0.9925423-0.3118591,1.422596
			c-0.2079086,0.4300537-0.4969864,0.7760906-0.8672295,1.0381107c-0.3360672,0.2335396-0.7362175,0.3958778-1.2004509,0.4870148
			c-0.4642296,0.0911369-1.1178551,0.1367064-1.9608727,0.1367064H37.6112175z M41.2766457,0.563912v5.0752077h0.6920738
			c0.3246765,0,0.6607475-0.0227842,1.0082054-0.0683532c0.3018951-0.0455685,0.5454025-0.0996814,0.7305222-0.1623383
			c0.1851234-0.0626569,0.3545837-0.148098,0.5083771-0.2563233c0.2905006-0.2164512,0.5140724-0.4941354,0.6707115-0.8330522
			c0.1566429-0.3389165,0.2349663-0.7134337,0.2349663-1.1235516c0-0.4329021-0.0811691-0.844444-0.2435074-1.2346255
			s-0.3773651-0.6934978-0.6450844-0.9099488c-0.2335396-0.1879706-0.4998283-0.3161324-0.7988739-0.3844854
			S42.6807289,0.563912,42.0712509,0.563912H41.2766457z M41.2766457,5.9039874v3.5201774
			c0,0.427206,0.0299034,0.7718191,0.0897141,1.0338383c0.0598068,0.2620201,0.1580658,0.4841671,0.2947731,0.6664419
			c0.2905006,0.3816376,0.7889061,0.5724564,1.4952202,0.5724564c0.9170685,0,1.6418953-0.2506275,2.1744766-0.7518826
			c0.5325851-0.501255,0.7988777-1.1847849,0.7988777-2.0505896c0-0.4955587-0.0825958-0.9555173-0.2477798-1.3798752
			c-0.1651878-0.4243579-0.3873329-0.7504587-0.6664429-0.978302c-0.5126457-0.4215097-1.3157921-0.6322646-2.4094391-0.6322646
			H41.2766457z M61.2784309,11.9617691h-5.6134872V11.765254c0.5069542-0.0455685,0.8601112-0.1310101,1.0594711-0.2563238
			c0.353157-0.222147,0.5297356-0.5297356,0.5297356-0.9227648c0-0.2335396-0.0797424-0.5468235-0.2392349-0.9398537
			l-0.1452484-0.3588524l-0.8202362-2.0164127h-3.7594147l-0.444294,1.1790886l-0.213604,0.5297356
			c-0.256321,0.6265688-0.3844833,1.1192799-0.3844833,1.4781322c0,0.2107553,0.0469933,0.4072704,0.140976,0.5895443
			c0.0939865,0.1822748,0.220726,0.3303728,0.3802147,0.4442949c0.2221489,0.1537943,0.5069504,0.2449312,0.8544121,0.2734118
			v0.1965151h-3.8277664V11.765254c0.3018913-0.0170879,0.566761-0.0911369,0.7946053-0.222147
			c0.2278404-0.1310101,0.4499893-0.3417654,0.6664391-0.6322651c0.1822739-0.2335396,0.3602791-0.534008,0.534008-0.9014044
			c0.1737328-0.3673973,0.4029999-0.9184933,0.6878014-1.6532879l3.1271477-8.0571051h0.4870148l3.7166939,8.9798698
			c0.2791061,0.6778336,0.501255,1.1620007,0.6664429,1.4525013c0.165184,0.2904997,0.3446121,0.509799,0.5382767,0.657897
			c0.1367073,0.1025295,0.2933502,0.18085,0.4699287,0.2349634c0.1765785,0.0541124,0.4414444,0.1011047,0.7946014,0.1409779
			V11.9617691z M55.9127235,6.9207377l-1.7942657-4.4258547l-1.6917343,4.4258547H55.9127235z M61.5176659,11.9617691v-0.2050591
			c0.5753059,0,1.0195999-0.1623383,1.3328857-0.4870148c0.1765785-0.1822748,0.2976189-0.4143906,0.3631248-0.6963463
			c0.0655022-0.2819557,0.0982552-0.7134342,0.0982552-1.2944345V2.9818981c0-0.6037846-0.0355988-1.0495028-0.1068001-1.3371549
			s-0.2036362-0.5226154-0.3973007-0.70489c-0.1594925-0.1480981-0.3374939-0.2563236-0.534008-0.3246766
			s-0.4485664-0.1082255-0.7561569-0.1196177V0.2990442h5.4596977V0.495559
			c-0.3132858,0.0170882-0.5696106,0.0598089-0.7689743,0.1281618s-0.3759384,0.1765785-0.5297318,0.3246766
			c-0.1936722,0.1879706-0.3246765,0.424358-0.3930359,0.709162c-0.0683517,0.284804-0.1025238,0.7262502-0.1025238,1.3243387
			v4.9299574c0,0.7575788,0.0199356,1.3214903,0.0598068,1.6917353c0.0398712,0.3702459,0.1167679,0.6721382,0.23069,0.9056768
			c0.1993637,0.4101181,0.4955597,0.7105865,0.888588,0.9014053s0.9142227,0.2862282,1.5635757,0.2862282
			c0.6778336,0,1.2488632-0.0897141,1.7130966-0.2691402s0.8444443-0.4571104,1.1406403-0.8330517
			c0.1993637-0.2563238,0.363121-0.5468235,0.4912872-0.8715c0.1281586-0.3246765,0.2463531-0.7518826,0.3545761-1.2816181
			l0.2050629,0.0170879l-0.1110764,3.5030899H61.5176659z M82.0235596,0.2990442V0.495559
			c-0.3246765,0.0170882-0.5881195,0.0626569-0.7903366,0.1367059c-0.2022095,0.0740491-0.3830566,0.1936668-0.5425491,0.358853
			c-0.2221451,0.2278433-0.3588562,0.5439757-0.4101181,0.9483974c-0.0341797,0.3018923-0.0512619,0.6493533-0.0512619,1.0423827
			v6.2970161c0,0.4727755,0.0227814,0.8458681,0.0683517,1.1192799s0.1196136,0.4927111,0.2221451,0.6578979
			c0.1481018,0.2278433,0.3389206,0.3973017,0.5724564,0.5083752c0.2335434,0.1110735,0.5439758,0.1780024,0.9313126,0.2007866
			v0.1965151h-5.4596939V11.765254c0.330368-0.0170879,0.5966644-0.0640812,0.7988739-0.1409779
			c0.2022095-0.0768976,0.3802109-0.1950912,0.5340042-0.3545809c0.1822739-0.1822748,0.3047409-0.4129658,0.3674011-0.6920738
			c0.0626526-0.279108,0.0939865-0.7120104,0.0939865-1.298707V2.9818981c0-0.5866964-0.0313339-1.0195984-0.0939865-1.2987063
			c-0.0626602-0.2791079-0.1851273-0.5097992-0.3674011-0.6920738c-0.1537933-0.1651863-0.3332214-0.284804-0.5382767-0.358853
			c-0.2050629-0.0740491-0.4699249-0.1196177-0.7946014-0.1367059V0.2990442H82.0235596z M85.005455,1.84553v7.4333844
			c0,0.5866966,0.032753,1.019599,0.098259,1.298707s0.1865463,0.509799,0.363121,0.6920738
			c0.1594925,0.1651859,0.3403397,0.2848034,0.5425568,0.3588524c0.2022095,0.074049,0.4656525,0.1196184,0.790329,0.1367064
			v0.1965151H82.860878V11.765254c0.3246765-0.0170879,0.5881195-0.0626574,0.7903366-0.1367064
			c0.2022095-0.074049,0.3830566-0.1936665,0.5425491-0.3588524c0.1765747-0.1822748,0.2976227-0.4143906,0.363121-0.6963463
			c0.065506-0.2819557,0.098259-0.7134342,0.098259-1.2944345V2.9733539c0-0.575304-0.032753-1.0039341-0.098259-1.2858901
			c-0.0654984-0.281956-0.1865463-0.5140712-0.363121-0.6963458c-0.1537933-0.1651863-0.3317947-0.284804-0.5340042-0.358853
			c-0.2022171-0.0740491-0.4685059-0.1196177-0.7988815-0.1367059V0.2990442h3.2894897l6.9378281,8.8517084V2.9818981
			c0-0.5866964-0.032753-1.0195984-0.098259-1.2987063s-0.1865463-0.5097992-0.3631287-0.6920738
			c-0.1594849-0.1651863-0.3403397-0.284804-0.5425491-0.358853s-0.4656525-0.1196177-0.790329-0.1367059V0.2990442h3.9388351
			V0.495559c-0.569603,0-1.0139008,0.1651863-1.3328781,0.495559c-0.1765823,0.1822746-0.2976227,0.4143898-0.3631287,0.6963458
			s-0.098259,0.7105861-0.098259,1.2858901v8.9884148h-0.3844833L85.005455,1.84553z M96.4972992,11.9275923l0.0256271-3.5287218
			l0.1965179,0.008544c0.2392349,0.8978443,0.5240402,1.6055832,0.8544083,2.1225023
			c0.6208725,0.9548054,1.4012375,1.4318523,2.341095,1.4318523c0.6550446,0,1.1961746-0.2192993,1.6233826-0.6578979
			c0.4272003-0.4385977,0.6408081-0.9939661,0.6408081-1.6661034c0-0.2904997-0.0469971-0.5866966-0.140976-0.888588
			c-0.0939865-0.3018923-0.220726-0.5610647-0.3802185-0.7775154c-0.165184-0.222147-0.3973007-0.43575-0.6963425-0.6408091
			c-0.2990494-0.2050591-0.7561569-0.4642305-1.3713303-0.7775149c-0.5411301-0.2734118-0.9555206-0.5041032-1.2431717-0.6920738
			s-0.5197678-0.3787894-0.6963425-0.5724559c-0.4898682-0.5354319-0.7347946-1.187633-0.7347946-1.9566038
			c0-0.4727747,0.0954056-0.9284611,0.2862244-1.3670592s0.4571075-0.8145396,0.7988739-1.1278239
			C98.6048431,0.2791079,99.3197021,0,100.1456375,0c0.2677155,0,0.5154953,0.0270564,0.7433395,0.0811691
			s0.5325775,0.1609143,0.9142151,0.3204045c0.2848053,0.1139216,0.4784775,0.1865466,0.5810013,0.2178751
			c0.1025314,0.0313284,0.1936722,0.0469927,0.2734146,0.0469927c0.1993637,0,0.3332214-0.14525,0.4015732-0.4357501h0.1965179
			l0.0598068,3.3920159h-0.1965179c-0.1537933-0.5411277-0.2862244-0.9555175-0.3973007-1.2431695
			c-0.1096497-0.287652-0.2420807-0.5539439-0.395874-0.7988753c-0.2791138-0.4442942-0.5852737-0.7732429-0.9213409-0.9868459
			c-0.3360748-0.213603-0.7219772-0.3204045-1.1591568-0.3204045c-0.6379623,0-1.1406403,0.216451-1.5108795,0.6500651
			c-0.1523743,0.1765785-0.2734146,0.3851975-0.361702,0.6244329c-0.088295,0.2392354-0.1324387,0.4784707-0.1324387,0.718418
			c0,0.9519575,0.6109085,1.7187924,1.834137,2.3005047l1.2033005,0.5817122
			c0.9270401,0.4393101,1.594902,0.9234767,2.0050201,1.4539242c0.4656525,0.5931044,0.6991959,1.2830424,0.6991959,2.0698133
			c0,0.5226154-0.1053772,1.0231581-0.3161316,1.500205c-0.296196,0.6650171-0.7404938,1.1776648-1.3328857,1.5386543
			c-0.592392,0.3602762-1.2901611,0.5411272-2.0933075,0.5411272c-0.7347946,0-1.4411087-0.1452503-2.1189423-0.43575
			c-0.353157-0.1537943-0.5639114-0.2420835-0.6322708-0.2648678c-0.0683517-0.0227842-0.1452484-0.0341768-0.23069-0.0341768
			c-0.273407,0-0.46138,0.1367064-0.5639114,0.4101181H96.4972992z M110.4669342,0.2990442V0.495559
			c-0.3246765,0.0170882-0.5895462,0.0626569-0.7946014,0.1367059c-0.2050629,0.0740491-0.384491,0.1936668-0.5382843,0.358853
			c-0.1879654,0.1936667-0.3118591,0.4329021-0.371666,0.7177061s-0.0897141,0.7746669-0.0897141,1.4695889v4.8359723
			c0,0.7860584,0.0299072,1.3542433,0.0897141,1.7045517c0.0598068,0.3503094,0.1808472,0.673562,0.363121,0.969758
			c0.2734146,0.4499903,0.6109085,0.7760906,1.0124817,0.978302c0.4015732,0.2022104,0.9071045,0.3033161,1.5165787,0.3033161
			c0.592392,0,1.1577301-0.0897131,1.6960068-0.2691402c0.5382843-0.1794262,0.9868469-0.4286299,1.3457031-0.7476101
			c0.2221451-0.1993628,0.38591-0.4158144,0.4912872-0.649353c0.1053772-0.2335396,0.1751556-0.5297356,0.2093277-0.8885889
			c0.022789-0.2335396,0.0341797-0.7860594,0.0341797-1.6575594V2.9818981c0-0.5866964-0.032753-1.0195984-0.098259-1.2987063
			s-0.1865463-0.5097992-0.363121-0.6920738c-0.1594925-0.1651863-0.3403473-0.284804-0.5425568-0.358853
			s-0.4656525-0.1196177-0.790329-0.1367059V0.2990442h3.9388428V0.495559
			c-0.3246765,0.0170882-0.5881271,0.0626569-0.7903366,0.1367059s-0.3830566,0.1936668-0.5425491,0.358853
			c-0.1765823,0.1822746-0.2976227,0.4143898-0.3631287,0.6963458c-0.0654984,0.281956-0.0982513,0.713434-0.0982513,1.2944343
			v5.3913393c0,0.797452-0.0612335,1.3855724-0.1837006,1.7643614s-0.3659744,0.7248259-0.7305222,1.0381107
			c-0.8316269,0.7177057-2.0192642,1.0765591-3.5628967,1.0765591c-1.6119919,0-2.7996292-0.3389168-3.5629044-1.0167503
			c-0.4955521-0.4329023-0.791748-1.0025101-0.888588-1.7088242c-0.0341721-0.2506275-0.0512619-0.7034655-0.0512619-1.3585148
			V2.9818981c0-0.5866964-0.0313263-1.0195984-0.0939865-1.2987063c-0.0626526-0.2791079-0.1851196-0.5097992-0.3673935-0.6920738
			c-0.1537933-0.1651863-0.3318024-0.284804-0.5340118-0.358853s-0.4684982-0.1196177-0.7988739-0.1367059V0.2990442H110.4669342z
			 M121.9673233,6.2542963v3.0246181c0,0.5810003,0.0327454,1.0124788,0.0982513,1.2944345s0.1865463,0.5140715,0.3631287,0.6963463
			c0.1537933,0.1594896,0.3317947,0.2776833,0.5340042,0.3545809c0.2022171,0.0768967,0.4685059,0.1238899,0.7988815,0.1409779
			v0.1965151h-5.4596939V11.765254c0.330368-0.0170879,0.5966644-0.0640812,0.7988739-0.1409779
			c0.2022095-0.0768976,0.3802109-0.1950912,0.5340042-0.3545809c0.1822739-0.1822748,0.3047409-0.4129658,0.3674011-0.6920738
			c0.0626526-0.279108,0.0939865-0.7120104,0.0939865-1.298707V2.9818981c0-0.5866964-0.0313339-1.0195984-0.0939865-1.2987063
			c-0.0626602-0.2791079-0.1851273-0.5097992-0.3674011-0.6920738c-0.1537933-0.1651863-0.3332214-0.284804-0.5382767-0.358853
			c-0.2050629-0.0740491-0.4699249-0.1196177-0.7946014-0.1367059V0.2990442h4.1182632
			c0.6892242,0,1.142067,0.002848,1.3585129,0.0085441c0.8828964,0.0398726,1.5749664,0.1594903,2.0762253,0.358853
			c0.5639114,0.2278432,1.0010834,0.5681841,1.3115234,1.0210223c0.3104324,0.4528384,0.4656525,0.9783018,0.4656525,1.5763903
			c0,0.8885884-0.3360672,1.6005983-1.0082092,2.1360302c-0.2050552,0.1594901-0.4314728,0.2905002-0.6792526,0.3930297
			c-0.2477798,0.102529-0.5795822,0.1993628-0.9953918,0.2904997c0.3417664,0.1424022,0.5952377,0.2905002,0.7604294,0.4442945
			c0.1310043,0.1196175,0.2506256,0.2691398,0.3588486,0.4485664c0.108223,0.1794262,0.2705612,0.4969831,0.4870148,0.9526691
			c0.5069504,1.0423832,0.8900146,1.8042336,1.1491852,2.285552c0.2591705,0.4813194,0.4770508,0.830204,0.6536255,1.0466547
			c0.142395,0.1765785,0.2805328,0.2990446,0.4143829,0.3673973c0.1338654,0.0683537,0.3175659,0.1139221,0.5511017,0.1367064
			v0.1965151h-2.836647c-0.1424026-0.3132849-0.2335358-0.5126476-0.2734146-0.5980892l-0.5980835-1.3585148
			c-0.3588562-0.8145399-0.7205582-1.5350933-1.0851059-2.1616626c-0.3645477-0.6208725-0.6977692-1.0452309-0.9996643-1.2730737
			c-0.1537933-0.1139216-0.3189774-0.1950908-0.4955597-0.2435079c-0.1765747-0.0484166-0.3930283-0.0726247-0.649353-0.0726247
			H121.9673233z M121.9673233,6.0663257h0.3246765c0.7063141,0,1.2118378-0.0398726,1.5165787-0.1196179
			c0.3047409-0.0797448,0.5909653-0.2449312,0.8586807-0.4955587c0.5980911-0.5696082,0.8971329-1.2759223,0.8971329-2.118942
			c0-0.4499903-0.0868607-0.8729243-0.2605896-1.2688019c-0.1737366-0.3958775-0.4143906-0.7219781-0.7219849-0.9783018
			c-0.2392349-0.1936667-0.5240326-0.3289486-0.8544083-0.4058457s-0.8003006-0.1153456-1.4097824-0.1153456h-0.3503036V6.0663257z
			 M141.5248108,11.9617691h-5.6134796V11.765254c0.5069427-0.0455685,0.8601074-0.1310101,1.0594635-0.2563238
			c0.3531647-0.222147,0.5297394-0.5297356,0.5297394-0.9227648c0-0.2335396-0.0797424-0.5468235-0.2392426-0.9398537
			l-0.1452484-0.3588524l-0.8202362-2.0164127h-3.7594147l-0.4442902,1.1790886l-0.2136078,0.5297356
			c-0.2563171,0.6265688-0.3844757,1.1192799-0.3844757,1.4781322c0,0.2107553,0.0469818,0.4072704,0.140976,0.5895443
			c0.0939789,0.1822748,0.2207184,0.3303728,0.3802185,0.4442949c0.2221375,0.1537943,0.5069427,0.2449312,0.8544006,0.2734118
			v0.1965151h-3.8277588V11.765254c0.3018951-0.0170879,0.5667572-0.0911369,0.7946014-0.222147
			s0.4499817-0.3417654,0.6664429-0.6322651c0.1822662-0.2335396,0.3602753-0.534008,0.5340118-0.9014044
			c0.1737213-0.3673973,0.4029846-0.9184933,0.6877899-1.6532879l3.1271515-8.0571051h0.4870148l3.7166901,8.9798698
			c0.2791138,0.6778336,0.5012512,1.1620007,0.6664429,1.4525013c0.1651917,0.2904997,0.3446198,0.509799,0.5382843,0.657897
			c0.1367035,0.1025295,0.2933502,0.18085,0.4699249,0.2349634c0.1765747,0.0541124,0.441452,0.1011047,0.7946014,0.1409779
			V11.9617691z M136.1591034,6.9207377l-1.7942657-4.4258547l-1.6917419,4.4258547H136.1591034z M143.9086151,1.84553v7.4333844
			c0,0.5866966,0.0327606,1.019599,0.0982666,1.298707s0.1865387,0.509799,0.3631287,0.6920738
			c0.1594849,0.1651859,0.340332,0.2848034,0.5425415,0.3588524s0.4656525,0.1196184,0.790329,0.1367064v0.1965151h-3.9388275
			V11.765254c0.3246765-0.0170879,0.5881195-0.0626574,0.790329-0.1367064s0.3830566-0.1936665,0.5425415-0.3588524
			c0.17659-0.1822748,0.2976227-0.4143906,0.3631287-0.6963463s0.0982666-0.7134342,0.0982666-1.2944345V2.9733539
			c0-0.575304-0.0327606-1.0039341-0.0982666-1.2858901s-0.1865387-0.5140712-0.3631287-0.6963458
			c-0.1537933-0.1651863-0.3317871-0.284804-0.5339966-0.358853s-0.4685059-0.1196177-0.7988739-0.1367059V0.2990442h3.2894745
			l6.9378357,8.8517084V2.9818981c0-0.5866964-0.0327606-1.0195984-0.0982666-1.2987063s-0.1865387-0.5097992-0.3631134-0.6920738
			c-0.1595001-0.1651863-0.3403473-0.284804-0.5425568-0.358853s-0.4656525-0.1196177-0.790329-0.1367059V0.2990442h3.9388428
			V0.495559c-0.5696106,0-1.013916,0.1651863-1.3328857,0.495559c-0.17659,0.1822746-0.2976227,0.4143898-0.3631287,0.6963458
			s-0.0982513,0.7105861-0.0982513,1.2858901v8.9884148h-0.384491L143.9086151,1.84553z M165.4910736,0.2392354l0.1025238,3.819222
			h-0.1965179c-0.0626526-0.1651864-0.1110687-0.2905002-0.1452484-0.3759415
			c-0.1993561-0.5468237-0.3616943-0.9540935-0.4870148-1.2218091c-0.2221375-0.4784708-0.5439758-0.917069-0.9654846-1.3157946
			c-0.318985-0.3018922-0.649353-0.5211913-0.9911194-0.6578972s-0.7262421-0.2050589-1.1534576-0.2050589
			c-0.6436462,0-1.2018738,0.139554-1.6746368,0.4186619c-0.4158173,0.2449314-0.8031464,0.5966644-1.1620026,1.0551989
			s-0.6522064,0.9811498-0.8800507,1.5678459c-0.3246765,0.8259315-0.4870148,1.7657852-0.4870148,2.8195601
			c0,0.8942842,0.1110687,1.7002797,0.3332214,2.4179859s0.5468292,1.3186426,0.9740295,1.8028097
			c0.7860565,0.8999805,1.8284454,1.3499708,3.1271515,1.3499708c0.649353,0,1.2332001-0.1124973,1.7515411-0.3374929
			c0.5183411-0.2249947,0.9199219-0.542552,1.2047272-0.9526691c0.330368-0.4727745,0.5696106-1.1107359,0.7176971-1.9138832
			l0.1965179,0.0341768c-0.1082306,0.8999805-0.3531494,1.6148386-0.734787,2.1445742
			c-0.3645477,0.5069513-0.8672333,0.8942842-1.5080414,1.1619997c-0.6408081,0.2677164-1.3827209,0.4015741-2.2257385,0.4015741
			c-0.7860718,0-1.5379486-0.1167698-2.255661-0.3503094c-1.1449127-0.3759413-2.0391846-1.0551987-2.6828461-2.0377722
			s-0.9654846-2.1545424-0.9654846-3.5159059c0-1.0423827,0.187973-2.0035963,0.5639038-2.8836405
			c0.375946-0.8800445,0.8999939-1.5877824,1.5721283-2.1232138c0.5183411-0.4101179,1.1377869-0.7362185,1.8583374-0.9783019
			C160.0983124,0.1210417,160.820282,0,161.5436859,0c0.6892242,0,1.4183197,0.1310098,2.1873016,0.3930295l0.7006073,0.2306913
			c0.1367035,0.0512647,0.2563324,0.0768971,0.3588562,0.0768971c0.1424103,0,0.2591705-0.0598089,0.3503113-0.1794266
			c0.0398712-0.0569608,0.0882874-0.1509461,0.1452484-0.281956H165.4910736z M175.880722,0.2990442l0.1452484,2.8195598
			l-0.1965179,0.0085442c-0.0740509-0.4784708-0.1965179-0.8743484-0.3674011-1.1876328
			c-0.1708679-0.3132844-0.4186554-0.5895443-0.7433319-0.8287797c-0.2677155-0.1993628-0.583847-0.3403408-0.9483948-0.4229339
			s-0.8487244-0.1238897-1.4524994-0.1238897h-1.956604v5.1264725h0.5126495c0.5183411,0,0.9085236-0.0341768,1.1705322-0.1025295
			c0.2620239-0.0683532,0.4756317-0.1908188,0.6408234-0.3673973c0.1594849-0.1651864,0.2776794-0.3602772,0.3545685-0.5852723
			c0.0769043-0.2249951,0.140976-0.5567918,0.1922455-0.9953899l0.1965179,0.0085442l-0.0341797,4.579649h-0.1965179
			c-0.0512543-0.4385986-0.1267395-0.7917552-0.2264099-1.0594711c-0.0996857-0.2677159-0.2378082-0.4955592-0.4143982-0.6835299
			c-0.1708832-0.1822743-0.3930206-0.3161321-0.6664429-0.4015737c-0.273407-0.0854411-0.6208649-0.1281614-1.0423737-0.1281614
			h-0.4870148v1.9566035c0,0.7803631,0.019928,1.348547,0.0597992,1.7045517
			c0.0398865,0.3560057,0.1167755,0.6536255,0.2306976,0.8928604c0.1936646,0.4101181,0.4884338,0.7105865,0.8843231,0.9014053
			c0.395874,0.1908188,0.9184875,0.2862282,1.5678406,0.2862282c0.6835327,0,1.2559814-0.0868654,1.7173615-0.2605963
			c0.4613953-0.1737299,0.837326-0.4428701,1.1278229-0.8074188c0.2050629-0.2449322,0.3716736-0.5240393,0.4998322-0.8373241
			c0.1281738-0.3132849,0.2463684-0.7262506,0.3545837-1.2388973L177,8.5612087l-0.1110687,3.4005604h-10.1931458V11.765254
			c0.3246765-0.0170879,0.5881195-0.0626574,0.790329-0.1367064c0.2022247-0.074049,0.3830719-0.1936665,0.5425568-0.3588524
			c0.1765747-0.1822748,0.2976227-0.4143906,0.3631287-0.6963463s0.0982513-0.7134342,0.0982513-1.2944345V2.9818981
			c0-0.5810003-0.0327454-1.0124784-0.0982513-1.2944343s-0.186554-0.5140712-0.3631287-0.6963458
			c-0.1537933-0.1651863-0.3317871-0.284804-0.5340118-0.358853c-0.2022095-0.0740491-0.4684906-0.1196177-0.7988739-0.1367059
			V0.2990442H175.880722z"/>
	</g>
	<g>
		<path class="st1" d="M129.1558228,35.2073975L132.9944,45.2836342h-7.6771317L129.1558228,35.2073975z M124.8374405,54.8800468
			v-0.8396873c-0.9596405,0-1.4394608-0.7197304-1.4394608-1.6793747c0-0.4798203,0.119957-1.3195038,0.2399139-1.919281
			l1.0795898-3.3587418h8.9966431l1.3195038,3.5986557c0.2399139,0.7197266,0.4798279,1.4394608,0.4798279,1.9192772
			c0,0.8396873-0.4798279,1.4394646-1.319519,1.4394646v0.8396873c1.319519,0,2.5190582-0.1199532,3.8385773-0.1199532
			c1.3195038,0,2.5190582,0.1199532,3.838562,0.1199532v-0.8396873c-1.4394684-0.1199532-1.6793671-1.4394646-3.1188354-4.7982063
			l-8.3968658-21.4719734h-0.4798126l-8.1569519,20.6322861c-0.7197342,1.7993279-2.1591949,5.3979836-3.7186127,5.7578468V55
			c1.0795975,0,2.1591949-0.1199532,3.3587418-0.1199532C122.5582962,54.7600937,123.6378937,54.8800468,124.8374405,54.8800468
			L124.8374405,54.8800468z M150.0280304,39.8856468c2.9988708,0,4.078476,1.5594177,4.078476,5.1580696v6.2376709
			c-0.9596405,0.9596405-2.0392456,1.3195038-3.1188354,1.3195038c-3.3587494,0-5.2780304-3.7186089-5.2780304-6.9573975
			C145.7096405,43.1244354,147.0291443,39.8856468,150.0280304,39.8856468 M149.4282532,55
			c1.3195038,0,2.0392303-0.2399101,2.6390076-0.5997772l2.2791595-1.919281
			c0.5997772,1.1995544,1.6793671,2.1591949,2.8789215,2.5190582c0.7197266-0.9596405,2.1591949-1.919281,3.4786987-2.8789253
			l-0.5997772-0.5997772c-0.2399139,0.1199532-0.5997772,0.3598671-1.0796051,0.3598671
			c-0.8396759,0-1.1995392-0.7197304-1.1995392-2.1591949v-9.4764595c0-5.5179329,0.1199493-9.8363228,0.1199493-12.8352032
			h-0.7197266c-0.9596405,1.0795975-3.2388,2.159193-5.1580811,2.6390152v0.7197285
			c0.9596405,0.1199551,1.919281,0.7197304,1.919281,2.8789253v5.6378937
			c-1.3195038-0.5997734-2.6390076-0.9596405-3.9585114-0.9596405c-4.9181671,0-8.5168152,3.1188354-8.5168152,8.396862
			C141.6311646,51.4013443,144.6300507,55,149.4282532,55 M167.9013519,39.6457367
			c2.5190582,0,3.5986481,1.4394608,3.5986481,3.718605h-6.9573975
			C164.5426025,41.4450645,165.8621063,39.6457367,167.9013519,39.6457367 M169.580719,55
			c1.5594177,0,2.8789215-0.3598633,3.5986481-0.5997772l2.0392456-2.9988785l-0.3598633-0.4798203
			c-1.1995544,0.8396873-2.6390228,1.1995506-4.078476,1.1995506c-3.9585266,0-6.7174835-3.4787025-6.4775848-7.1973114h11.1558228
			c0-4.078476-3.1188202-6.5975342-7.0773468-6.5975342c-5.2780304,0-7.7970886,4.6782532-7.7970886,8.2769089
			C160.7040405,50.2017937,163.3430481,55,169.580719,55 M185.1748962,51.0414772
			c0,1.4394608-1.319519,2.3991013-2.6390228,2.3991013c-1.6793671,0-3.2387848-1.3195038-3.5986481-3.1188316h-1.4394684
			l0.2399139,3.5986557C178.9372253,54.6401291,180.8565063,55,182.1760101,55c3.3587494,0,6.1177063-1.4394646,6.1177063-5.1580696
			c0-5.2780304-7.677124-3.8385658-7.677124-7.5571747c0-1.5594177,1.0795898-2.3991051,2.6390076-2.3991051
			c2.0392303,0,3.1188354,0.9596405,3.5986481,2.8789253h1.1995544l0.1199493-3.4786987
			c-1.5594025-0.4798241-3.2387695-0.9596481-4.9181366-0.9596481c-3.1188354,0-6.1177216,1.5594177-6.1177216,5.0381203
			C177.257843,48.8822823,185.1748962,48.2825089,185.1748962,51.0414772 M191.4125671,33.6479836
			c0.1199493,1.4394608,0.3598633,4.3183823,0.3598633,6.5975304v12.355381c0,0.8396873-0.3598633,1.5594177-1.5594177,1.6793747V55
			c1.0795898,0,2.1591949-0.1199532,3.3587494-0.1199532S195.8509064,55,197.0504608,55v-0.7197304
			c-1.1995544-0.2399101-1.4394531-0.8396873-1.4394531-2.1591911V37.3665962c0-3.4787025,0.1199493-7.3172646,0.1199493-9.3565025
			h-0.7197266c-0.9596405,1.0795956-4.078476,2.1591911-5.3979797,2.2791481v0.8396873
			C190.6928253,31.2488785,191.2926025,32.0885658,191.4125671,33.6479836 M205.0874481,46.2432709
			c0.7197266,0,1.4394531,0.1199532,1.7993164,0.2399101l0.1199646,5.6378937
			c-0.5997772,0.3598633-1.4394684,0.5997772-2.5190582,0.5997772c-1.5594177,0-2.9988861-1.3195076-2.9988861-3.1188354
			C201.4887848,47.0829582,203.2881165,46.2432709,205.0874481,46.2432709 M202.9282532,55
			c1.6793823,0,2.8789368-0.9596405,4.1984406-1.919281c0.4798126,0.9596405,1.5594177,1.6793747,3.1188202,1.919281
			l2.8789368-2.2791481l-0.5997772-0.5997772c-0.2399139,0.1199532-0.5997772,0.1199532-0.8396912,0.1199532
			c-0.8396759,0-1.1995392-0.4798241-1.1995392-2.2791519v-1.3195038c0-2.1591911,0.1199493-4.1984291,0.1199493-5.5179367
			c0-3.8385658-2.8789215-4.7982063-6.3576355-4.7982063c-1.7993164,0-3.3587494,0.2399139-4.9181519,0.7197304v3.5986557h0.9596405
			c0.9596405-1.4394646,1.919281-2.039238,3.838562-2.039238c2.6390076,0,2.7589722,2.2791481,2.7589722,4.3183823
			c-0.4798279,0-1.1995544-0.1199532-1.7993317-0.1199532c-3.4786987,0-7.4372101,1.5594177-7.4372101,5.6378937
			C197.7701874,53.3206253,200.2892456,55,202.9282532,55 M221.8811646,51.0414772
			c0,1.4394608-1.3195038,2.3991013-2.6390076,2.3991013c-1.6793671,0-3.2387848-1.3195038-3.5986481-3.1188316h-1.4394684
			l0.2399139,3.5986557C215.6435089,54.6401291,217.5627899,55,218.8822937,55C222.2410431,55,225,53.5605354,225,49.8419304
			c0-5.2780304-7.6771393-3.8385658-7.6771393-7.5571747c0-1.5594177,1.0796051-2.3991051,2.6390228-2.3991051
			c2.0392303,0,3.1188202,0.9596405,3.5986481,2.8789253h1.1995544l0.1199493-3.4786987
			c-1.5594025-0.4798241-3.2387695-0.9596481-4.9181519-0.9596481c-3.1188354,0-6.1177063,1.5594177-6.1177063,5.0381203
			C213.9641266,48.8822823,221.8811646,48.2825089,221.8811646,51.0414772"/>
	</g>
	<g>
		<path class="st2" d="M0,42.3044586l3.288146-8.562027H4.50879l3.504241,8.562027H6.722302L5.7235932,39.711319H2.1434274
			l-0.9403048,2.5931396H0z M2.4704897,38.7885361h2.9026797L4.479588,36.4173355
			c-0.272747-0.7201233-0.4748249-1.3123398-0.6074021-1.7754822c-0.1092155,0.548996-0.2628179,1.0939064-0.4613917,1.6353111
			L2.4704897,38.7885361z"/>
		<path class="st2" d="M8.5912304,42.8184128l1.0220699,0.1518517c0.042635,0.3153801,0.1617794,0.5449104,0.3562651,0.689167
			c0.2610655,0.1944847,0.6173296,0.2920189,1.0687933,0.2920189c0.4865055,0,0.862627-0.0975342,1.1271973-0.2920189
			s0.4438705-0.4672318,0.5373173-0.8176575c0.0543156-0.2143402,0.0800133-0.6640511,0.0759249-1.3491325
			c-0.4596395,0.5414085-1.0319986,0.8118172-1.7170782,0.8118172c-0.8526983,0-1.5126638-0.3077888-1.9798956-0.9227829
			c-0.4672327-0.614994-0.7008486-1.3532219-0.7008486-2.2135124c0-0.5916328,0.1068792-1.1377106,0.3212223-1.6382332
			s0.5244684-0.8865738,0.9315443-1.159317c0.4070759-0.272747,0.88482-0.4088287,1.4338179-0.4088287
			c0.7318029,0,1.3357,0.2961082,1.8105249,0.8877411v-0.7475739h0.9695063v5.3614883
			c0,0.9654198-0.0981188,1.6499138-0.29494,2.0529022c-0.1968222,0.4029884-0.5081148,0.7212906-0.9344645,0.9549065
			s-0.9508171,0.3504219-1.573988,0.3504219c-0.7399788,0-1.3374519-0.1664505-1.7930031-0.4993515
			C8.7956448,43.9894142,8.5754614,43.488308,8.5912304,42.8184128z M9.4614506,39.0922394
			c0,0.8135681,0.1617785,1.4075356,0.4847527,1.7813225c0.3229742,0.3737831,0.7282982,0.5606766,1.2148037,0.5606766
			c0.4830008,0,0.8877411-0.1857224,1.2148037-0.5577583c0.3270626-0.3720322,0.4905939-0.9549065,0.4905939-1.7491989
			c0-0.7592545-0.1682043-1.3316116-0.5051956-1.7170792c-0.3369904-0.3854675-0.7428989-0.5781975-1.2177229-0.5781975
			c-0.4672327,0-0.8643799,0.1898117-1.1914425,0.5694389C9.6249809,37.7810669,9.4614506,38.3446655,9.4614506,39.0922394z"/>
		<path class="st2" d="M19.6821518,40.3070412l1.0863152,0.1343307c-0.1711235,0.6348495-0.488842,1.1271973-0.9519844,1.4776192
			c-0.4631443,0.3504257-1.0553608,0.5256386-1.7754822,0.5256386c-0.9070148,0-1.6265526-0.279171-2.1580286-0.8381004
			c-0.531477-0.5589256-0.7972155-1.3421211-0.7972155-2.3507614c0-1.0436783,0.2686586-1.853157,0.8059759-2.4296036
			c0.5373163-0.5764503,1.2340765-0.8643799,2.0908632-0.8643799c0.8293381,0,1.5068245,0.2820892,2.0324593,0.8468552
			c0.5256367,0.5647697,0.7884541,1.3590622,0.7884541,2.382885c0,0.0624924-0.0017509,0.155941-0.0058403,0.2803383h-4.625597
			c0.0391312,0.6815758,0.231863,1.203125,0.5781994,1.5652275c0.3463364,0.3621063,0.7785263,0.5431595,1.2965698,0.5431595
			c0.3854656,0,0.7142811-0.1010399,0.9870281-0.3037033C19.3066139,41.0738869,19.5227089,40.7509117,19.6821518,40.3070412z
			 M16.2304745,38.6074867h3.4633579c-0.0467224-0.5215492-0.1793003-0.9128571-0.3971462-1.1739235
			c-0.3346558-0.4047394-0.7691803-0.607399-1.3024101-0.607399c-0.4830017,0-0.8889084,0.1617775-1.2177238,0.4847527
			C16.4477386,37.6338882,16.2655182,38.0660782,16.2304745,38.6074867z"/>
		<path class="st2" d="M22.088398,42.3044586v-6.202507h0.9461441v0.8819008
			c0.4555511-0.681572,1.1131821-1.022068,1.9740562-1.022068c0.373785,0,0.7172012,0.0671616,1.031414,0.2014923
			c0.3130455,0.1343307,0.5478306,0.3107109,0.703186,0.5285568c0.1553535,0.2178459,0.2651539,0.4771614,0.3270607,0.7767715
			c0.0385475,0.1944885,0.0584049,0.5355682,0.0584049,1.0220718v3.8137817h-1.0512714V38.531559
			c0-0.4281006-0.040884-0.7487373-0.1226501-0.9607468c-0.0817642-0.2120056-0.2266064-0.3813782-0.4356937-0.5081139
			c-0.2079182-0.1267357-0.4520454-0.1898117-0.7323856-0.1898117c-0.4473743,0-0.8340092,0.141922-1.1599045,0.4263496
			c-0.3247261,0.2844276-0.4870892,0.823494-0.4870892,1.6177902v3.3874321H22.088398z"/>
		<path class="st2" d="M31.0358925,41.3641548l0.1518497,0.9286232c-0.2955227,0.0624924-0.5606785,0.0934448-0.7942944,0.0934448
			c-0.3819618,0-0.6774864-0.060154-0.8877411-0.1810493c-0.2102547-0.1208992-0.3586006-0.279171-0.4438705-0.4759941
			s-0.1284885-0.610321-0.1284885-1.2410851v-3.5684853h-0.7709332v-0.8176575h0.7709332v-1.536026l1.045433-0.6307602v2.1667862
			h1.0571117v0.8176575h-1.0571117v3.6268883c0,0.299614,0.0186882,0.4923477,0.0548992,0.5782013
			c0.0373783,0.0858536,0.0981178,0.1536026,0.1822205,0.2044144c0.0829334,0.0508118,0.2032452,0.0759239,0.3586006,0.0759239
			C30.691309,41.4050369,30.8454952,41.3916054,31.0358925,41.3641548z"/>
		<path class="st2" d="M36.3097763,40.3070412l1.0863113,0.1343307c-0.1717072,0.6348495-0.4882545,1.1271973-0.9519844,1.4776192
			c-0.463726,0.3504257-1.0547752,0.5256386-1.7754822,0.5256386c-0.9075966,0-1.6271362-0.279171-2.157444-0.8381004
			c-0.5326443-0.5589256-0.7977982-1.3421211-0.7977982-2.3507614c0-1.0436783,0.2686577-1.853157,0.8059769-2.4296036
			c0.5373154-0.5764503,1.2346611-0.8643799,2.0908623-0.8643799c0.8293381,0,1.5068245,0.2820892,2.0324593,0.8468552
			c0.5256348,0.5647697,0.788456,1.3590622,0.788456,2.382885c0,0.0624924-0.0023384,0.155941-0.0058403,0.2803383h-4.6255989
			c0.0385475,0.6815758,0.2312813,1.203125,0.5781975,1.5652275c0.34692,0.3621063,0.77911,0.5431595,1.2965698,0.5431595
			c0.3854675,0,0.7148666-0.1010399,0.98703-0.3037033C35.9336548,41.0738869,36.1497498,40.7509117,36.3097763,40.3070412z
			 M32.8580971,38.6074867h3.4633598c-0.0467262-0.5215492-0.1787186-0.9128571-0.3971481-1.1739235
			c-0.3352394-0.4047394-0.7685966-0.607399-1.3024101-0.607399c-0.4824181,0-0.8889084,0.1617775-1.2183075,0.4847527
			C33.0753593,37.6338882,32.8931389,38.0660782,32.8580971,38.6074867z"/>
		<path class="st2" d="M46.2851791,40.3070412l1.0863152,0.1343307c-0.1717072,0.6348495-0.4882584,1.1271973-0.9519844,1.4776192
			c-0.4637299,0.3504257-1.0547752,0.5256386-1.7754822,0.5256386c-0.9076004,0-1.6271362-0.279171-2.157444-0.8381004
			c-0.5326462-0.5589256-0.7977982-1.3421211-0.7977982-2.3507614c0-1.0436783,0.2686577-1.853157,0.8059731-2.4296036
			c0.5373192-0.5764503,1.2346611-0.8643799,2.0908661-0.8643799c0.8293343,0,1.5068207,0.2820892,2.0324593,0.8468552
			c0.5256348,0.5647697,0.7884521,1.3590622,0.7884521,2.382885c0,0.0624924-0.0023346,0.155941-0.0058403,0.2803383h-4.6255951
			c0.0385437,0.6815758,0.2312775,1.203125,0.5781975,1.5652275c0.34692,0.3621063,0.77911,0.5431595,1.2965698,0.5431595
			c0.3854675,0,0.7148666-0.1010399,0.9870262-0.3037033C45.9090576,41.0738869,46.1251526,40.7509117,46.2851791,40.3070412z
			 M42.8335037,38.6074867h3.463356c-0.0467224-0.5215492-0.1787148-0.9128571-0.3971443-1.1739235
			c-0.3352394-0.4047394-0.7685966-0.607399-1.3024101-0.607399c-0.4824181,0-0.8889084,0.1617775-1.2183075,0.4847527
			C43.050766,37.6338882,42.8685455,38.0660782,42.8335037,38.6074867z"/>
		<path class="st2" d="M47.9905777,42.3044586l2.2660751-3.2238998l-2.0967026-2.9786072h1.3140907l0.9519844,1.4542618
			c0.1787148,0.2762489,0.3235588,0.5081139,0.4321899,0.6950073c0.1717072-0.2569771,0.3293991-0.4847527,0.4730721-0.6833267
			l1.045433-1.4659424h1.2556839l-2.143425,2.9202003l2.3069572,3.2823067h-1.2907295l-1.2732086-1.9273338l-0.3387413-0.5197945
			l-1.6294708,2.4471283H47.9905777z"/>
		<path class="st2" d="M58.7193947,40.0325432l1.0337524,0.1343307c-0.1133041,0.7125282-0.4018211,1.2702866-0.8678856,1.673275
			c-0.4648972,0.4029846-1.036087,0.6044807-1.7135735,0.6044807c-0.8491936,0-1.531353-0.27742-2.0476456-0.8322601
			c-0.5151215-0.5548363-0.7732697-1.3502998-0.7732697-2.3858032c0-0.6698914,0.1109695-1.2556839,0.3329048-1.7579613
			c0.2219353-0.5022736,0.5595093-0.8789787,1.0127258-1.1301155c0.4543839-0.2511368,0.9473114-0.3767052,1.4811249-0.3767052
			c0.6739845,0,1.2241478,0.1705399,1.652832,0.5110321c0.428688,0.3404961,0.703186,0.8246651,0.8234978,1.4513397
			l-1.022068,0.157692c-0.0969505-0.41642-0.2698288-0.7300491-0.5174599-0.9403038
			c-0.2464676-0.2102547-0.5454941-0.3153801-0.8959198-0.3153801c-0.5291405,0-0.9601593,0.1898117-1.2907295,0.5694389
			c-0.3305664,0.3796234-0.4964333,0.9800186-0.4964333,1.8017616c0,0.8334274,0.1600266,1.4384918,0.4789124,1.8163643
			c0.3188858,0.3778763,0.7358932,0.5665207,1.2498474,0.5665207c0.4123306,0,0.756916-0.1267357,1.0337524-0.3796272
			C58.4705925,40.9477348,58.6458054,40.5581779,58.7193947,40.0325432z"/>
		<path class="st2" d="M60.6292076,42.3044586v-8.562027h1.0518532v8.562027H60.6292076z"/>
		<path class="st2" d="M67.3742828,42.3044586v-0.9111023c-0.4812469,0.7008476-1.1377106,1.0512733-1.967041,1.0512733
			c-0.3667831,0-0.7078629-0.0700874-1.0255814-0.2102547c-0.3177109-0.1401711-0.5536652-0.3165512-0.7055168-0.5285568
			c-0.1541862-0.2120056-0.2639847-0.4719048-0.3247261-0.7796936c-0.0443878-0.2061653-0.0654144-0.5332298-0.0654144-0.9811859
			v-3.8429871h1.0512772v3.4399986c0,0.548996,0.021019,0.9186935,0.0654068,1.1096764
			c0.0654144,0.2762489,0.2055817,0.4935112,0.4205093,0.6512032c0.2125931,0.157692,0.4789124,0.2365379,0.7942963,0.2365379
			s0.6097412-0.0805969,0.8877411-0.2423782c0.2756653-0.1617775,0.4719009-0.3813782,0.5863724-0.6599655
			c0.1144791-0.2785873,0.1728821-0.6821594,0.1728821-1.2118835v-3.3231888h1.0512695v6.202507H67.3742828z"/>
		<path class="st2" d="M69.542244,40.4530525l1.0395889-0.1635323c0.058403,0.41642,0.2195969,0.7358894,0.4859238,0.9578247
			c0.2686539,0.2219353,0.6401062,0.3329048,1.1190186,0.3329048c0.4835892,0,0.8410187-0.0981178,1.0746384-0.2949409
			c0.2336121-0.1968231,0.3504181-0.4275169,0.3504181-0.6920891c0-0.2377014-0.1027908-0.4245949-0.3083725-0.5606766
			c-0.1448441-0.0934486-0.5022736-0.2120056-1.0746307-0.356266c-0.7709351-0.1944847-1.3059158-0.3632736-1.6049423-0.5051918
			c-0.2966919-0.141922-0.5233002-0.3387451-0.6774902-0.5898819c-0.1518478-0.2511368-0.2289429-0.5285568-0.2289429-0.8322563
			c0-0.2762527,0.0630798-0.5326462,0.1892319-0.768013c0.126152-0.2353706,0.2990265-0.4310226,0.5162888-0.5869598
			c0.1635361-0.1208992,0.3878021-0.2231064,0.6681442-0.3066216c0.2826767-0.083519,0.5863724-0.1255684,0.9087677-0.1255684
			c0.4882584,0,0.9134369,0.0700836,1.282547,0.2102547c0.3667831,0.1401672,0.6401138,0.3299828,0.8153229,0.5694389
			s0.2943573,0.5595093,0.3621063,0.960743l-1.027916,0.1401711c-0.0467224-0.3194695-0.1822205-0.5682716-0.4064865-0.74757
			c-0.2242737-0.1793022-0.5396576-0.2686577-0.9484863-0.2686577c-0.4835815,0-0.8269958,0.0800133-1.0349121,0.2394562
			c-0.2055893,0.1594429-0.3083801,0.3463326-0.3083801,0.5606766c0,0.1360817,0.0420532,0.2587318,0.1284943,0.3679466
			c0.0840988,0.1127205,0.2195969,0.2061653,0.4018173,0.2803383c0.1051254,0.0391312,0.4158401,0.1284904,0.9297943,0.2686577
			c0.742897,0.1985741,1.261528,0.360939,1.5558777,0.4876747c0.2943573,0.1267357,0.5256424,0.3107109,0.6915054,0.551918
			c0.1682053,0.2412071,0.2523041,0.5414047,0.2523041,0.8994217c0,0.3504219-0.1027908,0.6804047-0.3083725,0.9899483
			c-0.2032471,0.3095398-0.4975967,0.548996-0.8830643,0.7183685s-0.8223343,0.2540588-1.3082504,0.2540588
			c-0.8059769,0-1.4203873-0.1676216-1.8432312-0.5022774C69.9277115,41.6077003,69.65905,41.1112633,69.542244,40.4530525z"/>
		<path class="st2" d="M75.947998,34.9513931v-1.2089615h1.0512695v1.2089615H75.947998z M75.947998,42.3044586v-6.202507h1.0512695
			v6.202507H75.947998z"/>
		<path class="st2" d="M80.3236237,42.3044586l-2.35952-6.202507h1.1096725l1.3316116,3.7144966
			c0.1425095,0.4012337,0.2756653,0.8176575,0.3971481,1.2498474c0.0934448-0.3270645,0.2242737-0.7201233,0.3901367-1.1797638
			l1.378334-3.7845802h1.0816422l-2.3478394,6.202507H80.3236237z"/>
		<path class="st2" d="M84.1899719,39.2032051c0-1.1488075,0.3177185-1.9991684,0.9578247-2.5522537
			c0.5326462-0.4596405,1.1820984-0.689167,1.9506912-0.689167c0.8526993,0,1.5488739,0.279171,2.0908661,0.8380966
			C89.7290039,37.3588066,90,38.1303253,90,39.1156006c0,0.7983818-0.1191406,1.4262238-0.3574295,1.8835297
			c-0.2406311,0.4573021-0.5887146,0.8129845-1.0466003,1.0658722c-0.4578934,0.2528877-0.9578247,0.3796272-1.4974823,0.3796272
			c-0.8690491,0-1.5699005-0.2785873-2.1048813-0.8351784C84.4562912,41.0528603,84.1899719,40.2503891,84.1899719,39.2032051z
			 M85.2692719,39.2032051c0,0.7942963,0.1728821,1.3888474,0.5209656,1.7842445
			c0.3457565,0.3953934,0.7826157,0.5928001,1.3082504,0.5928001c0.5209656,0,0.9554901-0.1985741,1.301239-0.5957222
			c0.3480911-0.3971481,0.5209656-1.0027962,0.5209656-1.8163643c0-0.7668457-0.175209-1.3479652-0.5233002-1.7433586
			c-0.3480835-0.3953972-0.7826157-0.5928001-1.2989044-0.5928001c-0.5256348,0-0.9624939,0.1968193-1.3082504,0.5898781
			C85.4421539,37.8149414,85.2692719,38.4089127,85.2692719,39.2032051z"/>
	</g>
	<rect x="103" y="31" class="st2" width="1" height="15"/>
</g>
</svg>
