<?xml version="1.0" encoding="utf-8"?>
<!-- Generator: Adobe Illustrator 24.1.0, SVG Export Plug-In . SVG Version: 6.00 Build 0)  -->
<svg version="1.1" id="Capa_1" xmlns="http://www.w3.org/2000/svg" xmlns:xlink="http://www.w3.org/1999/xlink" x="0px" y="0px"
	 viewBox="0 0 101.4 53.9" style="enable-background:new 0 0 101.4 53.9;" xml:space="preserve">
<style type="text/css">
	.st0{filter:url(#Adobe_OpacityMaskFilter);}
	.st1{fill-rule:evenodd;clip-rule:evenodd;fill:#FFFFFF;}
	.st2{mask:url(#mask-2_1_);fill-rule:evenodd;clip-rule:evenodd;fill:#0097D7;}
	.st3{filter:url(#Adobe_OpacityMaskFilter_1_);}
	.st4{mask:url(#mask-4_1_);fill-rule:evenodd;clip-rule:evenodd;fill:#0097D7;}
	.st5{filter:url(#Adobe_OpacityMaskFilter_2_);}
	.st6{mask:url(#mask-6_1_);fill-rule:evenodd;clip-rule:evenodd;fill:#0097D7;}
	.st7{fill-rule:evenodd;clip-rule:evenodd;fill:#0097D7;}
	.st8{filter:url(#Adobe_OpacityMaskFilter_3_);}
	.st9{mask:url(#mask-8_1_);fill-rule:evenodd;clip-rule:evenodd;fill:#0097D7;}
	.st10{filter:url(#Adobe_OpacityMaskFilter_4_);}
	.st11{mask:url(#mask-10_1_);fill-rule:evenodd;clip-rule:evenodd;fill:#0097D7;}
	.st12{fill:#333333;}
	.st13{fill:#0097D7;}
</style>
<desc>Created with Sketch.</desc>
<g id="Clip-2">
</g>
<g id="Clip-5">
</g>
<g id="Clip-8">
</g>
<g id="Clip-15">
</g>
<g id="Clip-18">
</g>
<g>
	<defs>
		<filter id="Adobe_OpacityMaskFilter" filterUnits="userSpaceOnUse" x="11.7" y="30.9" width="19.9" height="22.7">
			<feColorMatrix  type="matrix" values="1 0 0 0 0  0 1 0 0 0  0 0 1 0 0  0 0 0 1 0"/>
		</filter>
	</defs>
	<mask maskUnits="userSpaceOnUse" x="11.7" y="30.9" width="19.9" height="22.7" id="mask-2_1_">
		<g class="st0">
			<polygon id="path-1_1_" class="st1" points="11.8,30.9 31.7,30.9 31.7,53.5 11.8,53.5 			"/>
		</g>
	</mask>
	<path id="Fill-1" class="st2" d="M20.9,37.1l3.2,8.4h-6.4L20.9,37.1z M17.3,53.5v-0.7c-0.8,0-1.2-0.6-1.2-1.4
		c0-0.4,0.1-1.1,0.2-1.6l0.9-2.8h7.5l1.1,3c0.2,0.6,0.4,1.2,0.4,1.6c0,0.7-0.4,1.2-1.1,1.2v0.7c1.1,0,2.1-0.1,3.2-0.1
		c1.1,0,2.1,0.1,3.2,0.1v-0.7c-1.2-0.1-1.4-1.2-2.6-4l-7-17.9h-0.4l-6.8,17.2c-0.6,1.5-1.8,4.5-3.1,4.8v0.7c0.9,0,1.8-0.1,2.8-0.1
		C15.4,53.4,16.3,53.5,17.3,53.5L17.3,53.5z"/>
	<defs>
		<filter id="Adobe_OpacityMaskFilter_1_" filterUnits="userSpaceOnUse" x="31.3" y="30.9" width="15.9" height="23">
			<feColorMatrix  type="matrix" values="1 0 0 0 0  0 1 0 0 0  0 0 1 0 0  0 0 0 1 0"/>
		</filter>
	</defs>
	<mask maskUnits="userSpaceOnUse" x="31.3" y="30.9" width="15.9" height="23" id="mask-4_1_">
		<g class="st3">
			<polygon id="path-3_1_" class="st1" points="31.3,30.9 47.2,30.9 47.2,53.9 31.3,53.9 			"/>
		</g>
	</mask>
	<path id="Fill-4" class="st4" d="M38.3,41.3c2.5,0,3.4,1.3,3.4,4.3v5.2c-0.8,0.8-1.7,1.1-2.6,1.1c-2.8,0-4.4-3.1-4.4-5.8
		C34.7,44,35.8,41.3,38.3,41.3 M37.8,53.9c1.1,0,1.7-0.2,2.2-0.5l1.9-1.6c0.5,1,1.4,1.8,2.4,2.1c0.6-0.8,1.8-1.6,2.9-2.4L46.7,51
		c-0.2,0.1-0.5,0.3-0.9,0.3c-0.7,0-1-0.6-1-1.8v-7.9c0-4.6,0.1-8.2,0.1-10.7h-0.6c-0.8,0.9-2.7,1.8-4.3,2.2v0.6
		c0.8,0.1,1.6,0.6,1.6,2.4v4.7c-1.1-0.5-2.2-0.8-3.3-0.8c-4.1,0-7.1,2.6-7.1,7C31.3,50.9,33.8,53.9,37.8,53.9"/>
	<defs>
		<filter id="Adobe_OpacityMaskFilter_2_" filterUnits="userSpaceOnUse" x="47.2" y="40" width="12.4" height="13.9">
			<feColorMatrix  type="matrix" values="1 0 0 0 0  0 1 0 0 0  0 0 1 0 0  0 0 0 1 0"/>
		</filter>
	</defs>
	<mask maskUnits="userSpaceOnUse" x="47.2" y="40" width="12.4" height="13.9" id="mask-6_1_">
		<g class="st5">
			<polygon id="path-5_1_" class="st1" points="47.2,40 59.7,40 59.7,53.9 47.2,53.9 			"/>
		</g>
	</mask>
	<path id="Fill-7" class="st6" d="M53.2,41.1c2.1,0,3,1.2,3,3.1h-5.8C50.4,42.6,51.5,41.1,53.2,41.1 M54.6,53.9c1.3,0,2.4-0.3,3-0.5
		l1.7-2.5l-0.3-0.4c-1,0.7-2.2,1-3.4,1c-3.3,0-5.6-2.9-5.4-6h9.3c0-3.4-2.6-5.5-5.9-5.5c-4.4,0-6.5,3.9-6.5,6.9
		C47.2,49.9,49.4,53.9,54.6,53.9"/>
	<path id="Fill-10" class="st7" d="M67.6,50.6c0,1.2-1.1,2-2.2,2c-1.4,0-2.7-1.1-3-2.6h-1.2l0.2,3c1,0.6,2.6,0.9,3.7,0.9
		c2.8,0,5.1-1.2,5.1-4.3c0-4.4-6.4-3.2-6.4-6.3c0-1.3,0.9-2,2.2-2c1.7,0,2.6,0.8,3,2.4h1l0.1-2.9c-1.3-0.4-2.7-0.8-4.1-0.8
		c-2.6,0-5.1,1.3-5.1,4.2C61,48.8,67.6,48.3,67.6,50.6"/>
	<path id="Fill-12" class="st7" d="M72.8,35.6c0.1,1.2,0.3,3.6,0.3,5.5v10.3c0,0.7-0.3,1.3-1.3,1.4v0.6c0.9,0,1.8-0.1,2.8-0.1
		c1,0,1.9,0.1,2.9,0.1v-0.6c-1-0.2-1.2-0.7-1.2-1.8V38.7c0-2.9,0.1-6.1,0.1-7.8h-0.6c-0.8,0.9-3.4,1.8-4.5,1.9v0.7
		C72.2,33.6,72.7,34.3,72.8,35.6"/>
	<defs>
		<filter id="Adobe_OpacityMaskFilter_3_" filterUnits="userSpaceOnUse" x="78.1" y="40" width="12.8" height="13.9">
			<feColorMatrix  type="matrix" values="1 0 0 0 0  0 1 0 0 0  0 0 1 0 0  0 0 0 1 0"/>
		</filter>
	</defs>
	<mask maskUnits="userSpaceOnUse" x="78.1" y="40" width="12.8" height="13.9" id="mask-8_1_">
		<g class="st8">
			<polygon id="path-7_1_" class="st1" points="78.1,40 90.9,40 90.9,53.9 78.1,53.9 			"/>
		</g>
	</mask>
	<path id="Fill-14" class="st9" d="M84.2,46.6c0.6,0,1.2,0.1,1.5,0.2l0.1,4.7c-0.5,0.3-1.2,0.5-2.1,0.5c-1.3,0-2.5-1.1-2.5-2.6
		C81.2,47.3,82.7,46.6,84.2,46.6 M82.4,53.9c1.4,0,2.4-0.8,3.5-1.6c0.4,0.8,1.3,1.4,2.6,1.6l2.4-1.9l-0.5-0.5
		c-0.2,0.1-0.5,0.1-0.7,0.1c-0.7,0-1-0.4-1-1.9v-1.1c0-1.8,0.1-3.5,0.1-4.6c0-3.2-2.4-4-5.3-4c-1.5,0-2.8,0.2-4.1,0.6v3h0.8
		c0.8-1.2,1.6-1.7,3.2-1.7c2.2,0,2.3,1.9,2.3,3.6c-0.4,0-1-0.1-1.5-0.1c-2.9,0-6.2,1.3-6.2,4.7C78.1,52.5,80.2,53.9,82.4,53.9"/>
	<defs>
		<filter id="Adobe_OpacityMaskFilter_4_" filterUnits="userSpaceOnUse" x="91.6" y="40" width="9.2" height="13.9">
			<feColorMatrix  type="matrix" values="1 0 0 0 0  0 1 0 0 0  0 0 1 0 0  0 0 0 1 0"/>
		</filter>
	</defs>
	<mask maskUnits="userSpaceOnUse" x="91.6" y="40" width="9.2" height="13.9" id="mask-10_1_">
		<g class="st10">
			<polygon id="path-9_1_" class="st1" points="91.6,40 100.7,40 100.7,53.9 91.6,53.9 			"/>
		</g>
	</mask>
	<path id="Fill-17" class="st11" d="M98.2,50.6c0,1.2-1.1,2-2.2,2c-1.4,0-2.7-1.1-3-2.6h-1.2l0.2,3c1,0.6,2.6,0.9,3.7,0.9
		c2.8,0,5.1-1.2,5.1-4.3c0-4.4-6.4-3.2-6.4-6.3c0-1.3,0.9-2,2.2-2c1.7,0,2.6,0.8,3,2.4h1l0.1-2.9C99.4,40.4,98,40,96.6,40
		c-2.6,0-5.1,1.3-5.1,4.2C91.6,48.8,98.2,48.3,98.2,50.6"/>
	<path class="st12" d="M4.1,4.4c0.4,0,0.7,0.1,0.9,0.2S5.2,5,5.2,5.4c0,0.3-0.1,0.6-0.3,0.9C4.8,6.4,4.6,6.6,4.4,6.7
		S3.9,6.8,3.7,6.8C3.1,6.8,2.5,6.6,2.1,6c-0.2-0.3-0.4-0.7-0.5-1C1.5,4.5,1.4,4.1,1.4,3.7c0-0.9,0.2-1.8,0.7-2.5
		c0.2-0.4,0.5-0.6,0.8-0.8c0.3-0.2,0.6-0.2,1-0.2c0.5,0,0.9,0.2,1.3,0.5C5.5,1,5.8,1.6,6,2.3l0.1,0L6.1,0.2H6
		C5.9,0.4,5.8,0.5,5.7,0.5c-0.1,0-0.1,0-0.2,0L5.2,0.3C4.9,0.2,4.7,0.1,4.5,0.1S4,0,3.8,0C3.3,0,2.9,0.1,2.5,0.2S1.7,0.6,1.4,0.8
		C1,1.2,0.7,1.6,0.5,2.1s-0.3,1-0.3,1.6c0,0.4,0.1,0.8,0.2,1.2s0.3,0.7,0.5,1C1.2,6.2,1.5,6.5,2,6.7S3,7,3.6,7C4,7,4.4,7,4.7,6.8
		s0.7-0.3,1-0.4C5.8,6.3,5.9,6.3,6,6.3c0.1,0,0.1,0,0.3,0.1l0-0.1c0-0.2,0-0.4,0-0.5c0-0.4,0-0.7,0.1-0.9c0.1-0.1,0.1-0.2,0.3-0.3
		c0.1-0.1,0.3-0.1,0.6-0.1V4.3H4.1V4.4z"/>
	<path class="st12" d="M13.1,5.6c-0.1,0.2-0.2,0.4-0.3,0.5c-0.2,0.2-0.4,0.4-0.7,0.5c-0.3,0.1-0.6,0.2-1,0.2c-0.4,0-0.7-0.1-0.9-0.2
		C10,6.4,9.9,6.2,9.8,6C9.7,5.9,9.7,5.7,9.6,5.5s0-0.5,0-1V1.7c0-0.3,0-0.6,0.1-0.8s0.1-0.3,0.2-0.4c0.1-0.1,0.2-0.1,0.3-0.2
		s0.3-0.1,0.4-0.1V0.2H7.5v0.1c0.2,0,0.3,0,0.4,0.1s0.2,0.1,0.3,0.2c0.1,0.1,0.2,0.2,0.2,0.4c0,0.2,0.1,0.4,0.1,0.8v3.6
		c0,0.3,0,0.6-0.1,0.7c0,0.2-0.1,0.3-0.2,0.4C8.1,6.6,7.8,6.7,7.5,6.7v0.1h5.8l0.1-2l-0.1,0C13.2,5.1,13.2,5.4,13.1,5.6z"/>
	<path class="st12" d="M18.9,0.3C18.5,0.1,18,0,17.5,0c-0.4,0-0.8,0.1-1.2,0.2c-0.4,0.1-0.7,0.3-1.1,0.6c-0.4,0.3-0.8,0.8-1,1.2
		s-0.4,1-0.4,1.5c0,0.4,0.1,0.8,0.2,1.2s0.4,0.7,0.6,1c0.3,0.4,0.7,0.7,1.2,0.9c0.5,0.2,1,0.3,1.5,0.3c0.5,0,1-0.1,1.5-0.3
		c0.5-0.2,0.9-0.5,1.2-0.9c0.3-0.3,0.5-0.7,0.7-1.1S21,3.9,21,3.5c0-0.8-0.3-1.6-0.9-2.2C19.8,0.9,19.4,0.5,18.9,0.3z M19.1,6
		c-0.2,0.3-0.5,0.5-0.7,0.6c-0.3,0.1-0.6,0.2-0.9,0.2c-0.3,0-0.6-0.1-0.9-0.2C16.3,6.5,16,6.3,15.8,6C15.3,5.4,15,4.6,15,3.6
		c0-0.5,0.1-1,0.2-1.5c0.1-0.5,0.3-0.9,0.6-1.2c0.2-0.3,0.4-0.5,0.7-0.6c0.3-0.1,0.6-0.2,0.9-0.2c0.3,0,0.7,0.1,0.9,0.2
		c0.3,0.1,0.5,0.3,0.7,0.6c0.3,0.3,0.5,0.7,0.6,1.2c0.1,0.5,0.2,1,0.2,1.5C19.8,4.6,19.6,5.4,19.1,6z"/>
	<path class="st12" d="M27.1,3.6c-0.1-0.1-0.3-0.2-0.5-0.3s-0.4-0.1-0.7-0.2C26.1,3.1,26.3,3,26.4,3c0.1-0.1,0.2-0.2,0.3-0.3
		c0.3-0.3,0.4-0.6,0.4-1c0-0.3-0.1-0.5-0.2-0.7c-0.1-0.2-0.3-0.4-0.5-0.5c-0.2-0.1-0.6-0.2-0.9-0.3c-0.1,0-0.3,0-0.6,0h-3.2v0.1
		c0.2,0,0.3,0,0.5,0.1s0.2,0.1,0.3,0.2c0.1,0.1,0.2,0.2,0.2,0.4s0.1,0.4,0.1,0.7v3.6c0,0.3,0,0.6-0.1,0.7s-0.1,0.3-0.2,0.4
		c-0.1,0.1-0.2,0.2-0.3,0.2c-0.1,0-0.3,0.1-0.5,0.1v0.1h3.6c0.5,0,0.9,0,1.1-0.1c0.3-0.1,0.5-0.1,0.7-0.3c0.2-0.1,0.4-0.3,0.5-0.6
		c0.1-0.2,0.2-0.5,0.2-0.8c0-0.3-0.1-0.6-0.2-0.8C27.5,4,27.3,3.8,27.1,3.6z M23.8,0.3h0.5c0.3,0,0.6,0,0.8,0.1
		c0.2,0,0.3,0.1,0.5,0.2c0.2,0.1,0.3,0.3,0.4,0.5C26,1.3,26,1.6,26,1.8c0,0.2,0,0.4-0.1,0.6c-0.1,0.2-0.2,0.4-0.4,0.5
		c-0.1,0.1-0.2,0.1-0.3,0.1c-0.1,0-0.2,0.1-0.4,0.1c-0.2,0-0.4,0-0.6,0h-0.4V0.3z M26.1,6.3c-0.3,0.3-0.7,0.4-1.2,0.4
		c-0.4,0-0.7-0.1-0.9-0.3c-0.1-0.1-0.1-0.2-0.2-0.4c0-0.1-0.1-0.3-0.1-0.6v-2h0.9c0.6,0,1.1,0.1,1.4,0.4c0.2,0.1,0.3,0.3,0.4,0.6
		c0.1,0.2,0.1,0.5,0.1,0.8C26.6,5.6,26.4,6,26.1,6.3z"/>
	<path class="st12" d="M34.5,6.5c-0.1-0.1-0.2-0.2-0.3-0.4S34,5.7,33.8,5.3l-2.1-5.1h-0.3l-1.8,4.6c-0.2,0.4-0.3,0.7-0.4,0.9
		c-0.1,0.2-0.2,0.4-0.3,0.5c-0.1,0.2-0.3,0.3-0.4,0.4s-0.3,0.1-0.5,0.1v0.1h2.2V6.7c-0.2,0-0.4-0.1-0.5-0.2
		c-0.1-0.1-0.2-0.1-0.2-0.3c-0.1-0.1-0.1-0.2-0.1-0.3c0-0.2,0.1-0.5,0.2-0.8l0.1-0.3l0.3-0.7h2.1l0.5,1.2l0.1,0.2
		c0.1,0.2,0.1,0.4,0.1,0.5c0,0.2-0.1,0.4-0.3,0.5c-0.1,0.1-0.3,0.1-0.6,0.1v0.1h3.2V6.7c-0.2,0-0.4,0-0.5-0.1
		C34.7,6.6,34.6,6.6,34.5,6.5z M30.2,4l1-2.5l1,2.5H30.2z"/>
	<path class="st12" d="M40.9,5.6c-0.1,0.2-0.2,0.4-0.3,0.5c-0.2,0.2-0.4,0.4-0.7,0.5c-0.3,0.1-0.6,0.2-1,0.2c-0.4,0-0.7-0.1-0.9-0.2
		c-0.2-0.1-0.4-0.3-0.5-0.5c-0.1-0.1-0.1-0.3-0.1-0.5s0-0.5,0-1V1.7c0-0.3,0-0.6,0.1-0.8s0.1-0.3,0.2-0.4c0.1-0.1,0.2-0.1,0.3-0.2
		s0.3-0.1,0.4-0.1V0.2h-3.1v0.1c0.2,0,0.3,0,0.4,0.1c0.1,0,0.2,0.1,0.3,0.2c0.1,0.1,0.2,0.2,0.2,0.4c0,0.2,0.1,0.4,0.1,0.8v3.6
		c0,0.3,0,0.6-0.1,0.7c0,0.2-0.1,0.3-0.2,0.4c-0.2,0.2-0.4,0.3-0.8,0.3v0.1h5.8l0.1-2l-0.1,0C41.1,5.1,41,5.4,40.9,5.6z"/>
	<path class="st12" d="M44,0.3c0.2,0,0.3,0,0.5,0.1s0.2,0.1,0.3,0.2c0.1,0.1,0.2,0.2,0.2,0.4S45,1.4,45,1.7v3.6c0,0.3,0,0.6-0.1,0.7
		s-0.1,0.3-0.2,0.4c-0.1,0.1-0.2,0.2-0.3,0.2c-0.1,0-0.3,0.1-0.5,0.1v0.1h3.1V6.7c-0.2,0-0.4-0.1-0.5-0.1c-0.1-0.1-0.2-0.2-0.3-0.3
		c-0.1-0.1-0.1-0.2-0.1-0.4s0-0.4,0-0.6V1.7c0-0.2,0-0.4,0-0.6c0-0.2,0.1-0.4,0.2-0.5c0.1-0.1,0.2-0.2,0.3-0.2
		c0.1,0,0.3-0.1,0.5-0.1V0.2H44V0.3z"/>
	<path class="st12" d="M52.4,0.3c0.2,0,0.3,0,0.5,0.1c0.1,0,0.2,0.1,0.3,0.2c0.1,0.1,0.2,0.2,0.2,0.4c0,0.2,0.1,0.4,0.1,0.7v3.5
		l-4-5.1h-1.9v0.1c0.2,0,0.3,0,0.5,0.1c0.1,0,0.2,0.1,0.3,0.2c0.1,0.1,0.2,0.2,0.2,0.4c0,0.2,0.1,0.4,0.1,0.7v3.6
		c0,0.3,0,0.6-0.1,0.7c0,0.2-0.1,0.3-0.2,0.4c-0.1,0.1-0.2,0.2-0.3,0.2c-0.1,0-0.3,0.1-0.5,0.1v0.1h2.3V6.7c-0.2,0-0.3,0-0.5-0.1
		c-0.1,0-0.2-0.1-0.3-0.2C49,6.3,48.9,6.2,48.9,6c0-0.2-0.1-0.4-0.1-0.7V1.1l4.6,5.8h0.2V1.7c0-0.3,0-0.6,0.1-0.7
		c0-0.2,0.1-0.3,0.2-0.4c0.2-0.2,0.4-0.3,0.8-0.3V0.2h-2.3V0.3z"/>
	<path class="st12" d="M58.1,2.9l-0.7-0.3c-0.7-0.3-1-0.8-1-1.3c0-0.1,0-0.3,0.1-0.4c0.1-0.1,0.1-0.3,0.2-0.4
		c0.2-0.2,0.5-0.4,0.9-0.4c0.2,0,0.5,0.1,0.7,0.2c0.2,0.1,0.4,0.3,0.5,0.6c0.1,0.1,0.2,0.3,0.2,0.5c0.1,0.2,0.1,0.4,0.2,0.7h0.1
		l0-1.9h-0.1c0,0.2-0.1,0.2-0.2,0.2c0,0-0.1,0-0.2,0c-0.1,0-0.2-0.1-0.3-0.1C58.2,0.1,58,0.1,57.9,0c-0.1,0-0.3,0-0.4,0
		c-0.5,0-0.9,0.2-1.2,0.5c-0.2,0.2-0.3,0.4-0.5,0.6c-0.1,0.3-0.2,0.5-0.2,0.8c0,0.4,0.1,0.8,0.4,1.1c0.1,0.1,0.2,0.2,0.4,0.3
		c0.2,0.1,0.4,0.2,0.7,0.4c0.4,0.2,0.6,0.3,0.8,0.4c0.2,0.1,0.3,0.2,0.4,0.4c0.1,0.1,0.2,0.3,0.2,0.4c0.1,0.2,0.1,0.3,0.1,0.5
		c0,0.4-0.1,0.7-0.4,1s-0.6,0.4-0.9,0.4c-0.5,0-1-0.3-1.3-0.8c-0.2-0.3-0.4-0.7-0.5-1.2l-0.1,0l0,2h0.1c0.1-0.2,0.2-0.2,0.3-0.2
		c0,0,0.1,0,0.1,0s0.2,0.1,0.4,0.2C56.7,6.9,57.1,7,57.5,7c0.5,0,0.9-0.1,1.2-0.3s0.6-0.5,0.8-0.9c0.1-0.3,0.2-0.6,0.2-0.9
		c0-0.4-0.1-0.8-0.4-1.2C59,3.5,58.6,3.2,58.1,2.9z"/>
	<path class="st12" d="M65.2,0.3c0.2,0,0.3,0,0.5,0.1c0.1,0,0.2,0.1,0.3,0.2C66,0.7,66.1,0.8,66.1,1c0,0.2,0.1,0.4,0.1,0.7v2.7
		c0,0.5,0,0.8,0,0.9c0,0.2-0.1,0.4-0.1,0.5C66,6,65.9,6.1,65.8,6.3c-0.2,0.2-0.5,0.3-0.8,0.4c-0.3,0.1-0.6,0.2-1,0.2
		c-0.3,0-0.6-0.1-0.9-0.2c-0.2-0.1-0.4-0.3-0.6-0.6c-0.1-0.2-0.2-0.4-0.2-0.6c0-0.2-0.1-0.5-0.1-1V1.8c0-0.4,0-0.7,0.1-0.8
		c0-0.2,0.1-0.3,0.2-0.4c0.1-0.1,0.2-0.2,0.3-0.2s0.3-0.1,0.5-0.1V0.2h-3.1v0.1c0.2,0,0.3,0,0.5,0.1c0.1,0,0.2,0.1,0.3,0.2
		c0.1,0.1,0.2,0.2,0.2,0.4s0.1,0.4,0.1,0.7v3c0,0.4,0,0.6,0,0.8c0.1,0.4,0.2,0.7,0.5,1c0.4,0.4,1.1,0.6,2,0.6c0.9,0,1.6-0.2,2-0.6
		c0.2-0.2,0.3-0.4,0.4-0.6c0.1-0.2,0.1-0.6,0.1-1V1.7c0-0.3,0-0.6,0.1-0.7c0-0.2,0.1-0.3,0.2-0.4c0.1-0.1,0.2-0.2,0.3-0.2
		c0.1,0,0.3-0.1,0.5-0.1V0.2h-2.3V0.3z"/>
	<path class="st12" d="M80.4,6.5c-0.1-0.1-0.2-0.2-0.3-0.4s-0.2-0.4-0.4-0.8l-2.1-5.1h-0.3l-1.8,4.6c-0.2,0.4-0.3,0.7-0.4,0.9
		c-0.1,0.2-0.2,0.4-0.3,0.5c-0.1,0.2-0.3,0.3-0.4,0.4c-0.1,0.1-0.2,0.1-0.4,0.1c-0.1,0-0.2,0-0.2-0.1c-0.1,0-0.2-0.1-0.2-0.2
		c-0.1-0.1-0.2-0.3-0.4-0.6c-0.1-0.3-0.4-0.7-0.7-1.3c-0.1-0.3-0.2-0.4-0.3-0.5c-0.1-0.1-0.1-0.2-0.2-0.3c-0.1-0.1-0.2-0.2-0.4-0.3
		c0.2-0.1,0.4-0.1,0.6-0.2c0.1-0.1,0.3-0.1,0.4-0.2c0.4-0.3,0.6-0.7,0.6-1.2c0-0.3-0.1-0.6-0.3-0.9c-0.2-0.3-0.4-0.5-0.7-0.6
		c-0.3-0.1-0.7-0.2-1.2-0.2c-0.1,0-0.4,0-0.8,0h-2.4v0.1c0.2,0,0.3,0,0.5,0.1s0.2,0.1,0.3,0.2c0.1,0.1,0.2,0.2,0.2,0.4
		s0.1,0.4,0.1,0.7v3.6c0,0.3,0,0.6-0.1,0.7s-0.1,0.3-0.2,0.4c-0.1,0.1-0.2,0.2-0.3,0.2c-0.1,0-0.3,0.1-0.5,0.1v0.1h3.1V6.7
		c-0.2,0-0.3,0-0.5-0.1c-0.1,0-0.2-0.1-0.3-0.2C70.1,6.3,70,6.2,70,6c0-0.2-0.1-0.4-0.1-0.7V3.6h0.2c0.1,0,0.3,0,0.4,0
		c0.1,0,0.2,0.1,0.3,0.1c0.2,0.1,0.4,0.4,0.6,0.7c0.2,0.4,0.4,0.8,0.6,1.2l0.3,0.8c0,0,0.1,0.2,0.2,0.3H74h0.2h2V6.7
		c-0.2,0-0.4-0.1-0.5-0.2c-0.1-0.1-0.2-0.1-0.2-0.3c-0.1-0.1-0.1-0.2-0.1-0.3c0-0.2,0.1-0.5,0.2-0.8l0.1-0.3L76,4.2h2.1l0.5,1.2
		l0.1,0.2c0.1,0.2,0.1,0.4,0.1,0.5c0,0.2-0.1,0.4-0.3,0.5c-0.1,0.1-0.3,0.1-0.6,0.1v0.1h3.2V6.7c-0.2,0-0.4,0-0.5-0.1
		C80.5,6.6,80.5,6.6,80.4,6.5z M71,3.4c-0.2,0-0.5,0.1-0.9,0.1h-0.2V0.3h0.2c0.3,0,0.6,0,0.8,0.1c0.2,0,0.4,0.1,0.5,0.2
		c0.2,0.1,0.3,0.3,0.4,0.6C71.9,1.4,72,1.6,72,1.9c0,0.5-0.2,0.9-0.5,1.2C71.3,3.3,71.1,3.4,71,3.4z M76,4l1-2.5L78,4H76z"/>
	<path class="st12" d="M86.1,0.3c0.2,0,0.3,0,0.5,0.1c0.1,0,0.2,0.1,0.3,0.2C86.9,0.7,87,0.8,87,1c0,0.2,0.1,0.4,0.1,0.7v3.5l-4-5.1
		h-1.9v0.1c0.2,0,0.3,0,0.5,0.1c0.1,0,0.2,0.1,0.3,0.2c0.1,0.1,0.2,0.2,0.2,0.4c0,0.2,0.1,0.4,0.1,0.7v3.6c0,0.3,0,0.6-0.1,0.7
		c0,0.2-0.1,0.3-0.2,0.4c-0.1,0.1-0.2,0.2-0.3,0.2c-0.1,0-0.3,0.1-0.5,0.1v0.1h2.3V6.7c-0.2,0-0.3,0-0.5-0.1c-0.1,0-0.2-0.1-0.3-0.2
		c-0.1-0.1-0.2-0.2-0.2-0.4c0-0.2-0.1-0.4-0.1-0.7V1.1l4.6,5.8h0.2V1.7c0-0.3,0-0.6,0.1-0.7c0-0.2,0.1-0.3,0.2-0.4
		c0.2-0.2,0.4-0.3,0.8-0.3V0.2h-2.3V0.3z"/>
	<path class="st12" d="M94.4,6c-0.2,0.2-0.4,0.4-0.7,0.5c-0.3,0.1-0.6,0.2-1,0.2c-0.7,0-1.3-0.3-1.8-0.8c-0.2-0.3-0.4-0.6-0.6-1
		S90.2,4,90.2,3.5c0-0.6,0.1-1.1,0.3-1.6C90.6,1.6,90.8,1.3,91,1c0.2-0.3,0.4-0.5,0.7-0.6c0.3-0.2,0.6-0.2,1-0.2
		c0.2,0,0.5,0,0.7,0.1s0.4,0.2,0.6,0.4c0.2,0.2,0.4,0.5,0.6,0.8c0.1,0.2,0.2,0.4,0.3,0.7c0,0,0,0.1,0.1,0.2h0.1l-0.1-2.2h-0.1
		c0,0.1-0.1,0.1-0.1,0.2c-0.1,0.1-0.1,0.1-0.2,0.1c-0.1,0-0.1,0-0.2,0l-0.4-0.1C93.3,0.1,92.9,0,92.5,0c-0.4,0-0.8,0.1-1.2,0.2
		c-0.4,0.1-0.8,0.3-1.1,0.6c-0.4,0.3-0.7,0.7-0.9,1.2C89.1,2.5,89,3,89,3.6c0,0.8,0.2,1.4,0.6,2c0.4,0.6,0.9,1,1.5,1.2
		C91.5,6.9,91.9,7,92.4,7c0.5,0,0.9-0.1,1.3-0.2c0.4-0.2,0.7-0.4,0.9-0.7c0.2-0.3,0.4-0.7,0.4-1.2l-0.1,0C94.7,5.3,94.6,5.7,94.4,6z
		"/>
	<path class="st12" d="M101.3,4.9c-0.1,0.3-0.1,0.5-0.2,0.7c-0.1,0.2-0.2,0.3-0.3,0.5c-0.2,0.2-0.4,0.4-0.6,0.5
		c-0.3,0.1-0.6,0.1-1,0.1c-0.4,0-0.7-0.1-0.9-0.2C98,6.4,97.9,6.2,97.7,6c-0.1-0.1-0.1-0.3-0.1-0.5c0-0.2,0-0.5,0-1V3.4h0.3
		c0.2,0,0.4,0,0.6,0.1s0.3,0.1,0.4,0.2c0.1,0.1,0.2,0.2,0.2,0.4c0.1,0.2,0.1,0.4,0.1,0.6h0.1l0-2.6l-0.1,0c0,0.3-0.1,0.4-0.1,0.6
		c0,0.1-0.1,0.2-0.2,0.3c-0.1,0.1-0.2,0.2-0.4,0.2s-0.4,0.1-0.7,0.1h-0.3V0.3h1.1c0.3,0,0.6,0,0.8,0.1c0.2,0,0.4,0.1,0.5,0.2
		c0.2,0.1,0.3,0.3,0.4,0.5s0.2,0.4,0.2,0.7l0.1,0l-0.1-1.6h-5.2v0.1c0.2,0,0.3,0,0.5,0.1c0.1,0,0.2,0.1,0.3,0.2
		c0.1,0.1,0.2,0.2,0.2,0.4c0,0.2,0.1,0.4,0.1,0.7v3.6c0,0.3,0,0.6-0.1,0.7c0,0.2-0.1,0.3-0.2,0.4c-0.1,0.1-0.2,0.2-0.3,0.2
		c-0.1,0-0.3,0.1-0.5,0.1v0.1h5.8l0.1-1.9L101.3,4.9z"/>
	<path class="st13" d="M2.7,13.3L0,20.8h0.1l0.8-2.2h3.6l0.8,2.2h0.1L2.7,13.3L2.7,13.3z M0.9,18.5l1.8-5l1.7,5H0.9z"/>
	<path class="st13" d="M9.1,20.5L7,20.2c-0.3,0-0.6-0.2-0.6-0.6c0-0.4,0.3-0.6,0.5-0.7c0.2,0.1,0.6,0.2,1,0.2c1.3,0,1.7-0.7,1.7-1.6
		c0-0.7-0.2-1.2-0.8-1.5l1.3,0v-0.1H8.4c-0.2,0-0.3,0-0.5,0c-1.3,0-1.7,0.7-1.7,1.6c0,0.6,0.2,1.1,0.7,1.4c-0.3,0.2-0.5,0.4-0.5,0.8
		c0,0.5,0.4,0.7,0.7,0.7c-0.8,0.2-1.4,0.7-1.4,1.6c0,0.9,0.7,1.5,2.2,1.5c1.5,0,2.6-0.6,2.6-1.7C10.4,20.9,9.9,20.6,9.1,20.5z
		 M6.3,17.4c0-0.8,0.3-1.5,1.6-1.5c1.3,0,1.6,0.7,1.6,1.5S9.2,19,7.9,19C6.6,19,6.3,18.2,6.3,17.4z M7.8,23.3
		c-1.3,0-2.1-0.4-2.1-1.4c0-1.1,0.9-1.4,1.5-1.6l1.9,0.2c0.8,0.1,1.2,0.4,1.2,1.1C10.3,22.8,9.1,23.3,7.8,23.3z"/>
	<path class="st13" d="M12.9,15.8c-1.6,0-2,1.1-2,2.5s0.4,2.5,2,2.5c0.5,0,1.2-0.1,1.6-0.2v-0.1c-0.4,0.1-0.8,0.2-1.6,0.2
		c-1.6,0-1.9-1.1-1.9-2.4h3.7v-0.1C14.7,16.9,14.5,15.8,12.9,15.8z M11,18.3c0-1.3,0.3-2.4,1.9-2.4c1.6,0,1.7,1.1,1.7,2.4H11z"/>
	<path class="st13" d="M18,15.8c-0.8,0-1.5,0.2-2,0.5l0-0.5h-0.1v5h0.1v-4.4C16.4,16.2,17.2,15.9,18,15.8c0.9,0.1,1.5,0.3,1.5,1.3
		v3.7h0.1v-3.7C19.7,16.1,19.2,15.8,18,15.8z"/>
	<path class="st13" d="M21.7,14.2l-0.1,0v1.6l-0.9,0v0.1h0.9v3.6c0,0.9,0.5,1.4,1.7,1.4h0v-0.1h0c-0.9,0-1.6-0.3-1.6-1.3v-3.6h1.9
		v-0.1h-1.9V14.2z"/>
	<path class="st13" d="M26.6,15.8c-1.6,0-2,1.1-2,2.5s0.4,2.5,2,2.5c0.5,0,1.2-0.1,1.6-0.2v-0.1c-0.4,0.1-0.8,0.2-1.6,0.2
		c-1.6,0-1.9-1.1-1.9-2.4h3.7v-0.1C28.4,16.9,28.2,15.8,26.6,15.8z M24.6,18.3c0-1.3,0.3-2.4,1.9-2.4c1.6,0,1.7,1.1,1.7,2.4H24.6z"
		/>
	<path class="st13" d="M33.5,15.8c-1.6,0-2,1.1-2,2.5s0.4,2.5,2,2.5c0.5,0,1.2-0.1,1.6-0.2v-0.1c-0.4,0.1-0.8,0.2-1.6,0.2
		c-1.6,0-1.9-1.1-1.9-2.4h3.7v-0.1C35.4,16.9,35.2,15.8,33.5,15.8z M31.6,18.3c0-1.3,0.3-2.4,1.9-2.4c1.6,0,1.7,1.1,1.7,2.4H31.6z"
		/>
	<polygon class="st13" points="39.7,15.8 39.6,15.8 37.8,18.2 36.1,15.8 36,15.8 37.8,18.3 35.9,20.8 36,20.8 37.8,18.3 39.7,20.8 
		39.8,20.8 37.9,18.3 	"/>
	<path class="st13" d="M40.2,18.3c0,1.5,0.4,2.5,2,2.5c0.4,0,0.9-0.1,1.3-0.2v-0.1c-0.4,0.1-0.7,0.2-1.3,0.2c-1.6,0-1.9-1.2-1.9-2.4
		c0-1.3,0.3-2.4,1.9-2.4c0.6,0,1,0.1,1.3,0.2V16c-0.4-0.1-0.9-0.2-1.3-0.2C40.6,15.8,40.2,16.9,40.2,18.3z"/>
	<path class="st13" d="M45,20.4v-7.1h-0.1v7.1c0,0.4,0.1,0.5,0.6,0.5v-0.1C45.2,20.8,45,20.7,45,20.4z"/>
	<path class="st13" d="M50.4,20.3c-0.4,0.2-1.1,0.5-2,0.5c-1,0-1.5-0.2-1.5-1.2v-3.7h-0.1v3.7c0,1,0.5,1.3,1.6,1.3
		c0.8,0,1.5-0.2,2-0.5l0,0.5h0.1v-5h-0.1V20.3z"/>
	<path class="st13" d="M53.4,18.2c-1.1-0.1-1.5-0.3-1.5-1.1c0-0.7,0.4-1.2,1.7-1.2c0.6,0,1,0.1,1.3,0.2V16c-0.4-0.1-0.9-0.2-1.3-0.2
		c-1.3,0-1.8,0.5-1.8,1.3c0,0.8,0.3,1.1,1.6,1.2c1.1,0.1,1.5,0.5,1.5,1.2c0,0.6-0.4,1.2-1.8,1.2c-0.6,0-1-0.1-1.3-0.2v0.1
		c0.4,0.1,0.9,0.2,1.3,0.2c1.5,0,1.9-0.7,1.9-1.4C55,18.7,54.6,18.3,53.4,18.2z"/>
	<path class="st13" d="M56.5,14.3c0-0.1-0.1-0.2-0.1-0.2s-0.2,0.1-0.2,0.2s0.1,0.1,0.2,0.1S56.5,14.4,56.5,14.3z"/>
	<path class="st13" d="M56.4,20.4v-4.6h-0.1v4.6c0,0.4,0.1,0.5,0.6,0.5v-0.1C56.5,20.8,56.4,20.7,56.4,20.4z"/>
	<polygon class="st13" points="59.8,20.7 57.9,15.8 57.8,15.8 59.8,20.9 59.8,20.9 61.9,15.8 61.7,15.8 	"/>
	<path class="st13" d="M64.5,15.8c-1.6,0-2,1.1-2,2.5c0,1.4,0.4,2.5,2,2.5c1.6,0,2-1.1,2-2.5C66.5,16.9,66.1,15.8,64.5,15.8z
		 M64.5,20.8c-1.6,0-1.9-1.2-1.9-2.4c0-1.2,0.3-2.4,1.9-2.4s1.9,1.2,1.9,2.4C66.4,19.6,66.1,20.8,64.5,20.8z"/>
</g>
</svg>
