<?xml version="1.0" encoding="utf-8"?>
<!-- Generator: Adobe Illustrator 24.1.0, SVG Export Plug-In . SVG Version: 6.00 Build 0)  -->
<svg version="1.1" id="Capa_1" xmlns="http://www.w3.org/2000/svg" xmlns:xlink="http://www.w3.org/1999/xlink" x="0px" y="0px"
	 viewBox="0 0 100 54" style="enable-background:new 0 0 100 54;" xml:space="preserve">
<style type="text/css">
	.st0{fill:#333333;}
	.st1{fill-rule:evenodd;clip-rule:evenodd;fill:#0097D7;}
	.st2{fill:#0097D7;}
</style>
<g>
	<path class="st0" d="M5.8725276,0.1689515l0.0579262,2.0998263L5.8194289,2.2784321
		c-0.2220507-0.7144237-0.506855-1.2462187-0.8544121-1.5953852C4.6174593,0.3338804,4.197494,0.1592972,3.7051208,0.1592972
		c-0.3829567,0-0.7120099,0.0780395-0.9871595,0.2341186S2.186166,0.8029221,1.948025,1.1536976
		C1.4653063,1.8713394,1.2239469,2.6919611,1.2239469,3.6155629c0,0.4408832,0.0579263,0.8568254,0.1737788,1.2478275
		s0.284804,0.736146,0.5068545,1.0354319C2.335809,6.4780846,2.8619723,6.7677159,3.4830704,6.7677159
		c0.2445774,0,0.4746733-0.0514903,0.6902876-0.15447c0.2156143-0.1029801,0.392611-0.2445774,0.5309906-0.4247928
		C4.894218,5.9374394,4.9891524,5.6397634,4.9891524,5.295424c0-0.3185945-0.0860848-0.5486903-0.2582545-0.6902881
		C4.5587282,4.4635386,4.2747288,4.3927398,3.8788996,4.3927398V4.2817144h3.0797453v0.1110253
		c-0.283195,0.0257449-0.481914,0.065167-0.5961576,0.1182661S6.1637678,4.6550169,6.1090598,4.783742
		C6.0479155,4.9253397,6.0173435,5.2069254,6.0173435,5.6284995c0,0.1158528,0.0064359,0.2960677,0.0193086,0.5406451
		L6.0463066,6.28017C5.9240179,6.235116,5.8339105,6.2125893,5.7759838,6.2125893
		c-0.0707984,0-0.1609058,0.0370083-0.2703223,0.1110253C5.2256846,6.5167022,4.9006543,6.6647358,4.53057,6.7677159
		c-0.3700843,0.1029797-0.7610867,0.15447-1.1730065,0.15447c-0.56639,0-1.0772672-0.0965438-1.5326318-0.2896314
		s-0.8246444-0.4698462-1.1078393-0.830276c-0.2123962-0.2703223-0.375716-0.592135-0.4899594-0.9654374
		S0.0557678,4.0677094,0.0557678,3.6493533c0-0.5760443,0.10298-1.1118622,0.3089399-1.6074533
		S0.8602989,1.137607,1.2336013,0.8157945c0.3057218-0.260668,0.6581064-0.4618008,1.0571539-0.6033983S3.111377,0,3.5554781,0
		c0.2574501,0,0.4963956,0.0241359,0.7168374,0.0724078C4.4927568,0.1206797,4.7268753,0.1995237,4.9746709,0.30894
		l0.2848043,0.130334c0.0707984,0.0289631,0.1351609,0.0434447,0.1930871,0.0434447
		c0.1287251,0,0.2268782-0.104589,0.2944584-0.3137671H5.8725276z M7.2579303,6.7580614V6.6422091
		c0.3250308,0,0.5760446-0.0917168,0.7530408-0.2751498c0.099762-0.1029801,0.1681471-0.2341185,0.2051554-0.3934155
		c0.0370092-0.1592975,0.0555134-0.4030704,0.0555134-0.731319V1.6846882c0-0.3411212-0.0201139-0.5929395-0.0603399-0.7554548
		C8.171073,0.7667181,8.0962515,0.6339705,7.9868355,0.5309905C7.896728,0.4473193,7.7961617,0.3861749,7.6851363,0.3475575
		s-0.253427-0.0611444-0.427206-0.0675806V0.1689515h3.0845723v0.1110253
		C10.1655054,0.2896312,10.02069,0.3137671,9.9080563,0.3523846C9.7954216,0.3910021,9.6956596,0.4521465,9.6087704,0.5358177
		C9.4993544,0.6420158,9.4253368,0.775568,9.3867197,0.9364742s-0.0579262,0.4103109-0.0579262,0.748214V4.469975
		c0,0.4280105,0.0112629,0.7466049,0.0337906,0.9557829c0.0225267,0.209178,0.0659714,0.3797388,0.1303339,0.5116816
		c0.1126337,0.2317052,0.2799768,0.4014611,0.5020275,0.5092683s0.5165091,0.1617107,0.8833752,0.1617107
		c0.3829565,0,0.7055731-0.0506854,0.9678507-0.1520562c0.2622766-0.1013708,0.477087-0.2582545,0.6444292-0.4706507
		c0.1126347-0.1448154,0.2051554-0.3089399,0.2775631-0.492373s0.139184-0.4247928,0.2003288-0.7240782l0.1158524,0.0096545
		l-0.0627537,1.9791465H7.2579303z M13.5139647,3.5069511c0-0.5410471,0.1158524-1.0426722,0.3475571-1.5044732
		c0.2317047-0.462203,0.5696077-0.8656754,1.0137091-1.210417c0.3314667-0.2542319,0.6886787-0.4497329,1.0716352-0.5869055
		C16.3298225,0.0683851,16.7159977,0,17.1053905,0c0.4955921,0,0.9750919,0.1086117,1.4385033,0.3262374
		c0.4634094,0.2172234,0.8688927,0.524152,1.2164497,0.9199813c0.566391,0.6440272,0.8495846,1.3765528,0.8495846,2.197979
		c0,0.4123223-0.0740166,0.810163-0.2220497,1.1931195c-0.1480331,0.3833594-0.3636475,0.7325258-0.646843,1.0483041
		c-0.3475571,0.3930135-0.7586727,0.6971264-1.2333469,0.9127407c-0.4746723,0.2160168-0.9710693,0.3238239-1.4891872,0.3238239
		c-0.5116806,0-1.0008354-0.104589-1.4674644-0.3141694c-0.4666281-0.2091784-0.8688936-0.5052457-1.2067966-0.8886046
		c-0.2671041-0.2992859-0.4722595-0.6400046-0.6154661-1.0217547C13.5855675,4.3163095,13.5139647,3.9192734,13.5139647,3.5069511z
		 M14.6821432,3.5793591c0,0.9340606,0.2542324,1.7216964,0.7626963,2.3621035
		c0.2284861,0.2868152,0.4706507,0.4951887,0.7264919,0.6259251c0.2558403,0.1303339,0.5511036,0.1955009,0.885788,0.1955009
		c0.337904,0,0.6347752-0.0643625,0.8906155-0.1930871c0.2558422-0.1291275,0.4996147-0.3383055,0.7313194-0.6283388
		c0.5084629-0.6440272,0.7626953-1.4376974,0.7626953-2.3814123c0-0.5185204-0.069994-1.008882-0.2099819-1.4706829
		c-0.1399899-0.4622031-0.3370991-0.8544121-0.5913315-1.1766269c-0.2059593-0.2638862-0.4352512-0.4561691-0.6878738-0.5772511
		C17.6999397,0.2148098,17.4014587,0.15447,17.0571194,0.15447c-0.3411217,0-0.636385,0.0595353-0.885788,0.1786059
		c-0.2494059,0.1194729-0.4803057,0.3125603-0.6927023,0.5796646c-0.2542315,0.3189966-0.4505377,0.710401-0.5889168,1.1742132
		C14.7513332,2.5503635,14.6821432,3.0479662,14.6821432,3.5793591z M21.3050442,6.7580614V6.6470361
		c0.1866512-0.0096545,0.3370972-0.0362039,0.4513416-0.0796485c0.1142426-0.0434446,0.2148094-0.1102209,0.3016987-0.2003284
		c0.1029797-0.1029801,0.1721706-0.233314,0.2075691-0.3910022c0.0354004-0.1576881,0.0530987-0.4022655,0.0530987-0.7337322
		V1.6846882c0-0.3314669-0.0176983-0.5760443-0.0530987-0.7337324c-0.0353985-0.1576881-0.1045895-0.2880222-0.2075691-0.3910022
		c-0.0868893-0.0933256-0.1882591-0.1609062-0.3041134-0.2027418c-0.1158524-0.0418356-0.2654934-0.0675806-0.4489269-0.077235
		V0.1689515h3.1714611c0.3218117,0,0.5326004,0.0032181,0.6323624,0.0096544
		c0.3668652,0.0289631,0.6709785,0.1158525,0.9123383,0.2606681c0.209177,0.128725,0.3708878,0.2976765,0.4851322,0.5068547
		c0.1142426,0.2091781,0.1713638,0.4441012,0.1713638,0.7047693c0,0.4215742-0.1303329,0.7675227-0.3910007,1.0378453
		c-0.0933266,0.0997617-0.1995239,0.1826284-0.3185959,0.2486c-0.1190701,0.0659716-0.2912388,0.139184-0.5165081,0.2196369
		c0.308939,0.0514901,0.5486908,0.1078072,0.7192516,0.1689515c0.1705589,0.0611444,0.3250294,0.1464248,0.4634094,0.255841
		c0.2059593,0.1673424,0.3660603,0.375716,0.4803047,0.6251209c0.1142426,0.2494044,0.1713657,0.5189223,0.1713657,0.8085537
		c0,0.2928491-0.0587311,0.5607581-0.1761932,0.8037267c-0.1174622,0.2429681-0.2807808,0.4384694-0.4899597,0.586503
		c-0.1898689,0.1319432-0.4159412,0.2236595-0.6782188,0.2751493c-0.2622776,0.0514903-0.6315575,0.0772352-1.1078396,0.0772352
		H21.3050442z M23.375906,0.3185943v2.8673487h0.3910027c0.1834335,0,0.3733025-0.0128725,0.5696087-0.0386174
		c0.1705608-0.0257449,0.3081341-0.0563171,0.4127235-0.0917165s0.2003288-0.0836713,0.2872181-0.1448157
		c0.1641235-0.1222887,0.2904358-0.2791722,0.3789349-0.4706507c0.0884972-0.1914785,0.1327477-0.40307,0.1327477-0.634775
		c0-0.2445774-0.0458584-0.4770869-0.1375751-0.6975285S25.1973648,0.7160327,25.046114,0.593744
		c-0.1319427-0.1061981-0.2823906-0.1786059-0.4513416-0.2172234c-0.1689529-0.0386175-0.4255981-0.0579262-0.7699375-0.0579262
		H23.375906z M23.375906,3.3355861v1.988801c0,0.2413592,0.0168953,0.4360557,0.0506859,0.5840893
		c0.0337906,0.1480341,0.089304,0.273541,0.1665382,0.3765206c0.1641235,0.2156143,0.4457111,0.3234215,0.8447571,0.3234215
		c0.5181179,0,0.9276257-0.1415973,1.2285194-0.4247923c0.3008957-0.283195,0.4513416-0.6693697,0.4513416-1.158525
		c0-0.2799768-0.0466614-0.5398402-0.1399879-0.7795906c-0.0933247-0.2397499-0.218832-0.4239879-0.3765202-0.5527127
		c-0.2896309-0.2381413-0.7433872-0.3572118-1.3612671-0.3572118H23.375906z M34.6763496,6.7580614h-3.1714611V6.6470361
		c0.2864132-0.0257449,0.4859371-0.074017,0.5985737-0.1448154c0.1995201-0.1255069,0.2992821-0.2992859,0.2992821-0.5213361
		c0-0.1319432-0.0450516-0.3089399-0.1351585-0.5309906L32.185524,5.2471519l-0.4634113-1.1392159h-2.1239624l-0.2510128,0.6661515
		l-0.1206799,0.2992859c-0.1448154,0.3539934-0.2172241,0.6323614-0.2172241,0.835103
		c0,0.119071,0.0265503,0.2300959,0.079649,0.333076s0.1247025,0.1866512,0.2148094,0.2510138
		c0.1255074,0.0868893,0.2864132,0.1383796,0.4827194,0.15447v0.1110253h-2.1625805V6.6470361
		c0.1705608-0.0096545,0.3202038-0.0514898,0.4489288-0.1255069c0.1287251-0.0740166,0.2542324-0.1930876,0.3765202-0.3572116
		c0.1029797-0.1319432,0.2035465-0.3016992,0.3016987-0.5092683c0.0981541-0.2075691,0.2276821-0.5189228,0.3885899-0.9340606
		l1.7667503-4.5520372h0.2751484l2.0998287,5.0733733c0.1576881,0.382957,0.2831917,0.6564975,0.3765182,0.8206215
		c0.0933266,0.1641245,0.1946983,0.2880225,0.3041115,0.3716936c0.0772362,0.0579262,0.1657333,0.1021752,0.2654953,0.1327477
		c0.099762,0.0305719,0.2494049,0.0571218,0.4489288,0.0796485V6.7580614z M31.6448784,3.9100213l-1.01371-2.5004828
		l-0.9557838,2.5004828H31.6448784z M34.811512,6.7580614V6.6422091c0.3250313,0,0.576046-0.0917168,0.7530403-0.2751498
		c0.099762-0.1029801,0.168148-0.2341185,0.2051582-0.3934155c0.0370064-0.1592975,0.0555115-0.4030704,0.0555115-0.731319
		V1.6846882c0-0.3411212-0.0201149-0.5929395-0.0603409-0.7554548s-0.1150475-0.2952629-0.2244644-0.3982429
		c-0.090107-0.0836712-0.1906738-0.1448156-0.3016968-0.1834331C35.1276932,0.30894,34.9852905,0.2864131,34.811512,0.2799768
		V0.1689515h3.0845718v0.1110253c-0.1769981,0.0096544-0.3218117,0.0337903-0.4344444,0.0724078
		c-0.1126366,0.0386175-0.2123985,0.0997619-0.2992859,0.1834331C37.0529366,0.6420158,36.97892,0.775568,36.9403,0.9364742
		c-0.0386162,0.1609062-0.0579262,0.4103109-0.0579262,0.748214V4.469975c0,0.4280105,0.0112648,0.7466049,0.0337906,0.9557829
		c0.0225296,0.209178,0.0659714,0.3797388,0.1303368,0.5116816c0.1126328,0.2317052,0.2799759,0.4014611,0.5020256,0.5092683
		s0.51651,0.1617107,0.8833771,0.1617107c0.3829536,0,0.7055702-0.0506854,0.9678497-0.1520562
		c0.2622757-0.1013708,0.4770851-0.2582545,0.6444283-0.4706507c0.1126366-0.1448154,0.2051544-0.3089399,0.277565-0.492373
		c0.0724068-0.1834331,0.139183-0.4247928,0.2003288-0.7240782l0.1158524,0.0096545l-0.0627556,1.9791465H34.811512z
		 M46.396759,0.1689515v0.1110253c-0.1834335,0.0096544-0.3322716,0.0353994-0.4465141,0.077235
		s-0.2164192,0.1094162-0.3065262,0.2027418c-0.1255074,0.128725-0.2027397,0.3073309-0.2317047,0.5358178
		c-0.01931,0.1705606-0.0289612,0.3668661-0.0289612,0.5889168v3.5576367c0,0.2671041,0.0128708,0.4778914,0.0386162,0.6323614
		s0.0675812,0.278368,0.1255074,0.3716931c0.0836716,0.1287251,0.1914787,0.2244644,0.3234215,0.2872176
		c0.1319427,0.0627537,0.3073311,0.1005664,0.5261612,0.1134391v0.1110253h-3.0845718V6.6470361
		c0.1866531-0.0096545,0.337101-0.0362039,0.4513435-0.0796485s0.2148094-0.1102209,0.3016968-0.2003284
		c0.1029816-0.1029801,0.1721725-0.233314,0.2075691-0.3910022c0.0354004-0.1576881,0.0531006-0.4022655,0.0531006-0.7337322
		V1.6846882c0-0.3314669-0.0177002-0.5760443-0.0531006-0.7337324c-0.0353966-0.1576881-0.1045876-0.2880222-0.2075691-0.3910022
		c-0.0868874-0.0933256-0.1882591-0.1609062-0.3041115-0.2027418s-0.2654953-0.0675806-0.4489288-0.077235V0.1689515H46.396759z
		 M48.0814476,1.0426723v4.1996527c0,0.3314667,0.0185051,0.5760441,0.0555153,0.7337322
		c0.0370064,0.1576881,0.1053925,0.288022,0.2051544,0.3910022c0.090107,0.0933256,0.1922836,0.1609063,0.3065262,0.2027421
		c0.1142426,0.0418353,0.2630806,0.0675802,0.4465141,0.0772347v0.1110253h-2.2253342V6.6470361
		c0.1834335-0.0096545,0.3322716-0.0353994,0.4465141-0.0772347c0.1142464-0.0418358,0.2164192-0.1094165,0.3065262-0.2027421
		c0.099762-0.1029801,0.168148-0.2341185,0.2051582-0.3934155c0.0370064-0.1592975,0.0555115-0.4030704,0.0555115-0.731319
		V1.6798609c0-0.3250306-0.0185051-0.5671945-0.0555115-0.7264916c-0.0370102-0.1592972-0.1053963-0.2904357-0.2051582-0.3934157
		c-0.0868874-0.0933256-0.1874542-0.1609062-0.3016968-0.2027418s-0.2646904-0.0675806-0.4513435-0.077235V0.1689515h1.8584671
		l3.9196777,5.0009656v-3.485229c0-0.3314669-0.0185051-0.5760443-0.0555153-0.7337324
		c-0.0370064-0.1576881-0.1053925-0.2880222-0.2051544-0.3910022c-0.090107-0.0933256-0.1922836-0.1609062-0.3065262-0.2027418
		s-0.2630806-0.0675806-0.4465141-0.077235V0.1689515h2.2253342v0.1110253c-0.3218155,0-0.5728264,0.0933256-0.7530441,0.2799768
		c-0.099762,0.10298-0.1681442,0.2341186-0.2051544,0.3934157c-0.0370064,0.1592971-0.0555115,0.401461-0.0555115,0.7264916
		v5.0782003h-0.2172241L48.0814476,1.0426723z M54.5740128,6.7387528l0.0144844-1.9936285l0.1110229,0.0048275
		c0.1351624,0.507257,0.2960701,0.9071088,0.4827194,1.1991534c0.3507767,0.5394382,0.7916603,0.8089561,1.3226509,0.8089561
		c0.3700829,0,0.6758041-0.123898,0.9171638-0.3716936s0.3620377-0.5615625,0.3620377-0.9413013
		c0-0.164124-0.0265465-0.3314667-0.0796471-0.502027c-0.0531006-0.1705608-0.1247025-0.3169856-0.2148094-0.4392743
		c-0.0933266-0.1255069-0.2244644-0.2461863-0.3934174-0.3620391c-0.1689491-0.1158524-0.4272041-0.2622769-0.7747612-0.4392738
		c-0.3057213-0.15447-0.5398407-0.2848041-0.7023582-0.3910022c-0.1625137-0.1061981-0.2936516-0.2140052-0.3934135-0.3234215
		c-0.2767601-0.3025036-0.4151382-0.6709788-0.4151382-1.1054257c0-0.2671043,0.0539017-0.5245543,0.1617088-0.7723498
		s0.258255-0.4601918,0.4513435-0.6371887C55.7647209,0.1576881,56.1685944,0,56.6352234,0
		c0.1512527,0,0.2912407,0.0152861,0.4199638,0.0458583c0.128727,0.0305722,0.3008957,0.090912,0.51651,0.1810195
		c0.1609077,0.0643625,0.2703209,0.1053936,0.3282471,0.1230932c0.05793,0.0176997,0.109417,0.0265495,0.1544724,0.0265495
		c0.1126328,0,0.1882591-0.0820622,0.2268791-0.2461865h0.1110229l0.0337906,1.9163932h-0.1110268
		c-0.0868874-0.3057219-0.1617088-0.5398403-0.2244606-0.7023556c-0.0619507-0.1625154-0.1367722-0.3129627-0.2236633-0.451342
		c-0.1576881-0.2510138-0.3306618-0.4368604-0.5205307-0.5575401S56.93853,0.15447,56.6915398,0.15447
		c-0.3604279,0-0.6444283,0.1222887-0.8536072,0.3672684c-0.0860863,0.0997619-0.1544685,0.2176257-0.2043495,0.3527869
		s-0.0748215,0.2703224-0.0748215,0.4058859c0,0.537829,0.3451424,0.9710691,1.0362358,1.29972l0.6798286,0.328651
		c0.5237503,0.2481978,0.9010735,0.5217385,1.1327782,0.8214264c0.2630844,0.3350871,0.3950272,0.7248824,0.3950272,1.1693857
		c0,0.2952633-0.059536,0.5780559-0.1786079,0.8475738c-0.1673431,0.3757162-0.418354,0.6653471-0.7530403,0.8692961
		c-0.3346863,0.203546-0.7289047,0.3057218-1.1826591,0.3057218c-0.4151382,0-0.8141861-0.0820622-1.1971436-0.2461867
		c-0.1995239-0.0868893-0.3185959-0.1367702-0.3572121-0.1496429c-0.0386162-0.0128722-0.0820618-0.0193086-0.1303329-0.0193086
		c-0.1544724,0-0.2606697,0.0772352-0.3185959,0.2317052H54.5740128z M62.466465,0.1689515v0.1110253
		c-0.1834335,0.0096544-0.3330765,0.0353994-0.4489288,0.077235S61.800312,0.466628,61.7134247,0.5599536
		c-0.1061974,0.1094162-0.1761932,0.2445775-0.2099838,0.4054837S61.452755,1.4031023,61.452755,1.7957134v2.7321877
		c0,0.4441013,0.0168953,0.7651091,0.0506859,0.9630237s0.1021767,0.3805432,0.2051544,0.5478859
		c0.1544724,0.2542315,0.3451462,0.4384694,0.5720215,0.5527129c0.2268791,0.114243,0.5124893,0.1713648,0.8568268,0.1713648
		c0.3346863,0,0.6540833-0.0506854,0.9581985-0.1520562c0.3041077-0.1013708,0.5575409-0.2421637,0.7602768-0.422379
		c0.1255112-0.1126342,0.2180328-0.2349229,0.277565-0.3668661c0.0595398-0.1319432,0.0989609-0.2992854,0.1182709-0.5020275
		c0.0128708-0.1319427,0.0193024-0.4441009,0.0193024-0.9364738V1.6846882c0-0.3314669-0.0185013-0.5760443-0.0555115-0.7337324
		s-0.1053925-0.2880222-0.2051544-0.3910022c-0.0901031-0.0933256-0.1922836-0.1609062-0.3065262-0.2027418
		s-0.2630844-0.0675806-0.4465103-0.077235V0.1689515h2.2253265v0.1110253
		c-0.1834335,0.0096544-0.3322678,0.0353994-0.4465103,0.077235s-0.216423,0.1094162-0.3065262,0.2027418
		c-0.099762,0.10298-0.1681519,0.2341186-0.2051544,0.3934157c-0.0370102,0.1592971-0.0555191,0.4030701-0.0555191,0.7313188
		v3.0459547c0,0.4505377-0.0345917,0.7828088-0.1037827,0.9968143s-0.2067642,0.4095063-0.4127197,0.586503
		c-0.4698486,0.4054837-1.1408272,0.6082258-2.0129395,0.6082258c-0.9107285,0-1.581707-0.1914787-2.0129356-0.5744352
		c-0.2799797-0.2445774-0.447319-0.56639-0.5020294-0.9654374c-0.01931-0.1415977-0.0289612-0.3974385-0.0289612-0.7675228
		V1.6846882c0-0.3314669-0.0177002-0.5760443-0.0531006-0.7337324s-0.1045876-0.2880222-0.2075691-0.3910022
		c-0.0868874-0.0933256-0.1874542-0.1609062-0.3017006-0.2027418c-0.1142426-0.0418356-0.2646904-0.0675806-0.4513397-0.077235
		V0.1689515H62.466465z M68.9638596,3.5335007v1.7088242c0,0.3282485,0.0185013,0.5720215,0.0555115,0.731319
		c0.0370102,0.159297,0.1053925,0.2904353,0.2051544,0.3934155c0.0868912,0.0901074,0.1874542,0.1568837,0.3016968,0.2003284
		c0.1142502,0.0434446,0.2646942,0.069994,0.4513474,0.0796485v0.1110253h-3.0845718V6.6470361
		c0.1866455-0.0096545,0.3370972-0.0362039,0.4513397-0.0796485s0.2148056-0.1102209,0.3016968-0.2003284
		c0.1029816-0.1029801,0.1721725-0.233314,0.2075729-0.3910022s0.0531006-0.4022655,0.0531006-0.7337322V1.6846882
		c0-0.3314669-0.0177002-0.5760443-0.0531006-0.7337324s-0.1045914-0.2880222-0.2075729-0.3910022
		c-0.0868912-0.0933256-0.1882553-0.1609062-0.3041077-0.2027418s-0.2654953-0.0675806-0.4489288-0.077235V0.1689515h2.3266983
		c0.3893967,0,0.6452332,0.0016091,0.7675247,0.0048272c0.4988098,0.0225269,0.8898087,0.0901075,1.1730042,0.2027418
		c0.3185959,0.128725,0.5655899,0.3210079,0.7409744,0.5768488c0.1753922,0.2558409,0.2630844,0.5527129,0.2630844,0.8906159
		c0,0.5020275-0.1898727,0.9042931-0.5696106,1.2067966c-0.1158524,0.0901074-0.2437744,0.1641245-0.3837585,0.2220507
		c-0.1399918,0.0579262-0.327446,0.1126344-0.5623703,0.1641243c0.1930923,0.0804532,0.3362961,0.1641245,0.4296188,0.2510138
		c0.0740204,0.0675807,0.1416016,0.1520565,0.2027435,0.2534273c0.061142,0.101371,0.1528625,0.2807815,0.2751541,0.5382311
		c0.2864075,0.5889168,0.5028305,1.019341,0.6492538,1.2912726s0.269516,0.4690418,0.369278,0.5913305
		c0.080452,0.099762,0.158493,0.1689515,0.2341232,0.2075691c0.0756226,0.0386171,0.1794052,0.064362,0.311348,0.0772347v0.1110253
		h-1.602623c-0.080452-0.1769967-0.1319427-0.2896314-0.1544724-0.337903l-0.3378983-0.7675228
		c-0.2027435-0.4601917-0.4070969-0.8672843-0.6130524-1.2212782c-0.2059631-0.3507757-0.3942261-0.5905259-0.5647812-0.7192509
		c-0.0868912-0.0643623-0.1802216-0.1102207-0.2799835-0.1375747s-0.2220459-0.0410311-0.3668594-0.0410311H68.9638596z
		 M68.9638596,3.4273026h0.1834335c0.3990479,0,0.6846542-0.022527,0.8568268-0.0675807
		c0.1721649-0.0450537,0.3338776-0.1383793,0.4851303-0.2799768c0.3378983-0.3218124,0.5068512-0.7208598,0.5068512-1.1971422
		c0-0.2542318-0.0490723-0.4931775-0.1472244-0.7168372s-0.2341232-0.4078974-0.4078979-0.5527129
		c-0.1351624-0.1094162-0.2960663-0.1858467-0.4827194-0.2292914s-0.4521484-0.065167-0.7964859-0.065167h-0.1979141V3.4273026z
		 M80.0132904,6.7580614h-3.171463V6.6470361c0.2864151-0.0257449,0.485939-0.074017,0.5985718-0.1448154
		c0.1995239-0.1255069,0.2992859-0.2992859,0.2992859-0.5213361c0-0.1319432-0.0450516-0.3089399-0.1351624-0.5309906
		l-0.0820618-0.2027421l-0.4634094-1.1392159h-2.1239624l-0.2510147,0.6661515l-0.1206818,0.2992859
		c-0.1448135,0.3539934-0.2172241,0.6323614-0.2172241,0.835103c0,0.119071,0.0265503,0.2300959,0.0796509,0.333076
		s0.1247025,0.1866512,0.2148132,0.2510138c0.1255035,0.0868893,0.2864075,0.1383796,0.4827194,0.15447v0.1110253h-2.1625824
		V6.6470361c0.1705627-0.0096545,0.3202057-0.0514898,0.4489288-0.1255069
		c0.1287231-0.0740166,0.2542267-0.1930876,0.3765182-0.3572116c0.1029816-0.1319432,0.2035446-0.3016992,0.3016968-0.5092683
		c0.0981598-0.2075691,0.227684-0.5189228,0.3885956-0.9340606l1.7667465-4.5520372h0.2751465l2.0998306,5.0733733
		c0.1576843,0.382957,0.2831955,0.6564975,0.3765182,0.8206215c0.0933304,0.1641245,0.1946945,0.2880225,0.3041153,0.3716936
		c0.0772324,0.0579262,0.1657333,0.1021752,0.2654953,0.1327477c0.099762,0.0305719,0.2494049,0.0571218,0.4489288,0.0796485
		V6.7580614z M76.9818115,3.9100213l-1.0137024-2.5004828l-0.9557877,2.5004828H76.9818115z M81.3600769,1.0426723v4.1996527
		c0,0.3314667,0.0185013,0.5760441,0.0555115,0.7337322c0.0370026,0.1576881,0.1053925,0.288022,0.2051544,0.3910022
		c0.0901031,0.0933256,0.1922836,0.1609063,0.3065262,0.2027421c0.1142426,0.0418353,0.2630844,0.0675802,0.4465103,0.0772347
		v0.1110253h-2.2253265V6.6470361c0.1834335-0.0096545,0.3322678-0.0353994,0.4465103-0.0772347
		c0.1142426-0.0418358,0.216423-0.1094165,0.3065262-0.2027421c0.099762-0.1029801,0.1681519-0.2341185,0.2051544-0.3934155
		c0.0370102-0.1592975,0.0555115-0.4030704,0.0555115-0.731319V1.6798609c0-0.3250306-0.0185013-0.5671945-0.0555115-0.7264916
		c-0.0370026-0.1592972-0.1053925-0.2904357-0.2051544-0.3934157c-0.0868912-0.0933256-0.1874542-0.1609062-0.3016968-0.2027418
		s-0.2646942-0.0675806-0.4513397-0.077235V0.1689515h1.8584671L85.92659,5.1699171v-3.485229
		c0-0.3314669-0.0185013-0.5760443-0.0555115-0.7337324s-0.1053925-0.2880222-0.2051544-0.3910022
		c-0.0901108-0.0933256-0.1922836-0.1609062-0.3065262-0.2027418s-0.2630844-0.0675806-0.4465179-0.077235V0.1689515h2.2253342
		v0.1110253c-0.3218079,0-0.5728226,0.0933256-0.7530365,0.2799768c-0.099762,0.10298-0.1681519,0.2341186-0.2051544,0.3934157
		c-0.0370102,0.1592971-0.0555191,0.401461-0.0555191,0.7264916v5.0782003H85.90728L81.3600769,1.0426723z M93.5535507,0.1351612
		l0.0579224,2.1577525h-0.1110229c-0.0354004-0.0933256-0.0627518-0.1641243-0.0820618-0.2123961
		c-0.1126404-0.3089401-0.2043533-0.5390359-0.2751541-0.6902877c-0.1255035-0.2703226-0.3073273-0.5181181-0.5454712-0.7433868
		c-0.1802139-0.1705606-0.3668671-0.2944584-0.5599518-0.3716934s-0.4103088-0.1158525-0.6516724-0.1158525
		c-0.3636475,0-0.6790237,0.078844-0.9461288,0.2365322c-0.2349243,0.1383793-0.4537506,0.3370985-0.6564941,0.5961576
		s-0.3684769,0.5543219-0.4972,0.8857888c-0.1834335,0.4666281-0.2751541,0.9976184-0.2751541,1.5929716
		c0,0.5052454,0.0627594,0.9606102,0.1882629,1.3660939s0.3089371,0.7449956,0.5503006,1.0185366
		c0.4440994,0.5084634,1.03302,0.7626953,1.7667465,0.7626953c0.3668671,0,0.6967239-0.0635581,0.9895782-0.1906738
		c0.2928467-0.1271157,0.519722-0.3065262,0.6806335-0.5382314c0.1866455-0.2671041,0.3218079-0.6275344,0.4054794-1.0812898
		l0.1110306,0.0193086c-0.0611496,0.5084639-0.1995239,0.9123383-0.4151382,1.2116241
		c-0.2059631,0.2864127-0.4899597,0.5052452-0.852005,0.6564975c-0.3620377,0.1512518-0.7811966,0.2268777-1.2574768,0.2268777
		c-0.4441071,0-0.8688965-0.0659719-1.2743759-0.1979146c-0.646843-0.2123966-1.152092-0.5961576-1.5157394-1.1512842
		s-0.5454712-1.2172556-0.5454712-1.9863873c0-0.5889168,0.1061935-1.1319754,0.3185959-1.6291757
		c0.2123947-0.4972001,0.508461-0.8970522,0.8881989-1.1995559c0.2928467-0.231705,0.6428223-0.4159425,1.0499115-0.5527129
		C90.5067902,0.0683851,90.9146881,0,91.3233871,0c0.3893967,0,0.8013153,0.0740169,1.2357559,0.2220506l0.3958359,0.130334
		c0.0772324,0.0289631,0.1448135,0.0434447,0.2027359,0.0434447c0.0804596,0,0.146431-0.0337903,0.1979141-0.1013709
		c0.0225296-0.0321812,0.049881-0.0852803,0.0820694-0.1592972H93.5535507z M99.4234085,0.1689515l0.0820618,1.5929717
		l-0.1110306,0.0048271c-0.041832-0.2703224-0.1110229-0.4939821-0.2075653-0.6709789s-0.2365341-0.3330759-0.4199677-0.4682372
		c-0.1512527-0.1126344-0.3298569-0.1922829-0.5358124-0.2389458c-0.2059631-0.0466628-0.4795074-0.0699942-0.8206253-0.0699942
		h-1.105423v2.8963122h0.2896271c0.2928543,0,0.5132904-0.0193088,0.6613235-0.0579264
		c0.1480331-0.0386174,0.2687149-0.1078072,0.3620453-0.2075689c0.0901031-0.0933256,0.1568832-0.2035465,0.200325-0.3306623
		c0.0434418-0.127116,0.0796509-0.3145719,0.1086121-0.5623674l0.1110229,0.0048273l-0.01931,2.5873723h-0.1110229
		c-0.0289612-0.2477956-0.0716019-0.4473195-0.1279221-0.5985713c-0.0563126-0.151252-0.1343536-0.2799768-0.2341156-0.3861749
		c-0.0965424-0.1029801-0.2220535-0.178606-0.3765182-0.2268779c-0.1544724-0.0482719-0.3507767-0.0724077-0.5889206-0.0724077
		h-0.2751465V4.469975c0,0.4408832,0.011261,0.7618909,0.0337906,0.9630237
		c0.022522,0.2011328,0.0659714,0.3692799,0.1303329,0.5044408c0.1094131,0.2317052,0.2759552,0.4014611,0.4996109,0.5092683
		c0.2236633,0.1078072,0.5189209,0.1617107,0.885788,0.1617107c0.3861771,0,0.7096024-0.0490761,0.9702682-0.1472292
		c0.2606659-0.0981526,0.4730606-0.2502089,0.6371841-0.4561691c0.1158524-0.1383791,0.2099838-0.2960672,0.2823944-0.4730639
		c0.072403-0.1769972,0.139183-0.4103112,0.200325-0.6999421l0.1110306,0.004827l-0.0627594,1.9212203h-5.7588272V6.6470361
		c0.1834259-0.0096545,0.3322678-0.0353994,0.4465103-0.0772347c0.1142426-0.0418358,0.216423-0.1094165,0.3065262-0.2027421
		c0.099762-0.1029801,0.1681442-0.2341185,0.2051544-0.3934155c0.0370102-0.1592975,0.0555115-0.4030704,0.0555115-0.731319
		V1.6846882c0-0.3282487-0.0185013-0.5720217-0.0555115-0.7313188s-0.1053925-0.2904357-0.2051544-0.3934157
		c-0.0868912-0.0933256-0.1874542-0.1609062-0.3016968-0.2027418s-0.2646942-0.0675806-0.4513397-0.077235V0.1689515H99.4234085z"/>
	<path class="st1" d="M20.1000042,37.5l3.2000008,8.4000015h-6.3999996L20.1000042,37.5z M16.5000038,53.9000015v-0.7000008
		c-0.7999992,0-1.2000008-0.5999985-1.2000008-1.4000015c0-0.4000015,0.1000004-1.0999985,0.2000008-1.5999985l0.8999996-2.7999992
		h7.5l1.1000004,3C25.2000046,51,25.4000034,51.6000023,25.4000034,52c0,0.7000008-0.3999996,1.2000008-1.1000004,1.2000008
		v0.7000008c1.1000004,0,2.1000004-0.0999985,3.2000008-0.0999985s2.1000004,0.0999985,3.2000008,0.0999985v-0.7000008
		c-1.2000008-0.0999985-1.3999996-1.2000008-2.6000004-4l-7-17.8999996h-0.3999996L13.9000044,48.5
		C13.300004,50,12.1000042,53,10.800005,53.2999992V54c0.8999996,0,1.8000002-0.0999985,2.8000002-0.0999985
		C14.6000042,53.8000031,15.5000038,53.9000015,16.5000038,53.9000015L16.5000038,53.9000015z M37.5000038,41.3999977
		c2.5,0,3.4000015,1.2999992,3.4000015,4.2999992v5.2000008c-0.7999992,0.7999992-1.7000008,1.0999985-2.5999985,1.0999985
		c-2.7999992,0-4.4000015-3.0999985-4.4000015-5.7999992C33.9000053,44.0999985,35.0000038,41.3999977,37.5000038,41.3999977
		 M37.0000038,54c1.0999985,0,1.7000008-0.2000008,2.2000008-0.5l1.9000015-1.5999985
		c0.5,1,1.4000015,1.7999992,2.4000015,2.0999985c0.5999985-0.7999992,1.7999992-1.5999985,2.9000015-2.4000015l-0.5000038-0.5
		c-0.2000008,0.0999985-0.5,0.2999992-0.9000015,0.2999992c-0.7000008,0-1-0.5999985-1-1.7999992v-7.9000015
		c0-4.5999985,0.0999985-8.2000008,0.0999985-10.7000008h-0.5999985c-0.7999992,0.8999996-2.7000008,1.7999992-4.2999992,2.2000008
		v0.5999985c0.7999992,0.0999985,1.5999985,0.5999985,1.5999985,2.4000015v4.7000008
		c-1.0999985-0.5-2.2000008-0.7999992-3.2999992-0.7999992c-4.0999985,0-7.1000004,2.5999985-7.1000004,7
		C30.5000038,51,33.0000038,54,37.0000038,54 M52.4000053,41.1999969c2.0999985,0,3,1.2000008,3,3.0999985h-5.7999992
		C49.6000061,42.6999969,50.7000046,41.1999969,52.4000053,41.1999969 M53.8000031,54c1.2999992,0,2.4000015-0.2999992,3-0.5
		l1.7000008-2.5l-0.2999992-0.4000015c-1,0.7000008-2.2000008,1-3.4000015,1c-3.2999992,0-5.5999985-2.9000015-5.4000015-6
		h9.2999992c0-3.4000015-2.5999985-5.5-5.9000015-5.5c-4.4000015,0-6.5,3.9000015-6.5,6.9000015
		C46.4000053,50,48.6000061,54,53.8000031,54 M66.8000031,50.6999969c0,1.2000008-1.0999985,2-2.1999969,2
		c-1.4000015,0-2.7000008-1.0999985-3-2.5999985h-1.2000008l0.2000008,3C61.6000061,53.6999969,63.2000046,54,64.3000031,54
		c2.8000031,0,5.0999985-1.2000008,5.0999985-4.2999992C69.4000015,45.2999992,63,46.5,63,43.4000015
		c0-1.2999992,0.9000015-2,2.1999969-2c1.6999969,0,2.5999985,0.7999992,3,2.4000015h1l0.0999985-2.9000015
		C68.0000076,40.5,66.6000061,40.0999985,65.2000046,40.0999985c-2.5999985,0-5.0999985,1.2999992-5.0999985,4.2000008
		C60.2000046,48.8999977,66.8000031,48.3999977,66.8000031,50.6999969 M72.0000076,36.2000008
		c0.0999985,1.2000008,0.3000031,3.5999985,0.3000031,5.5V52c0,0.7000008-0.3000031,1.2999992-1.3000031,1.4000015V54
		c0.9000015,0,1.8000031-0.0999985,2.8000031-0.0999985S75.7000122,54,76.7000122,54v-0.5999985
		c-1-0.2000008-1.1999969-0.7000008-1.1999969-1.7999992V39.3000031c0-2.9000015,0.0999985-6.0999985,0.0999985-7.7999992
		h-0.5999985c-0.8000031,0.8999977-3.4000015,1.7999992-4.5,1.9000015v0.7000008
		C71.4000015,34.2000008,71.9000015,34.9000015,72.0000076,36.2000008 M83.4000015,46.6999969
		c0.5999985,0,1.1999969,0.0999985,1.5,0.2000008L85,51.5999985c-0.5,0.2999992-1.1999969,0.5-2.0999985,0.5
		c-1.3000031,0-2.5-1.0999985-2.5-2.5999985C80.4000015,47.3999977,81.9000015,46.6999969,83.4000015,46.6999969 M81.6000061,54
		c1.4000015,0,2.4000015-0.7999992,3.5-1.5999985C85.5000076,53.2000008,86.4000092,53.8000031,87.7000046,54l2.4000015-1.9000015
		l-0.5-0.5c-0.1999969,0.0999985-0.5,0.0999985-0.6999969,0.0999985c-0.6999969,0-1-0.4000015-1-1.9000015v-1.0999985
		c0-1.7999992,0.0999985-3.5,0.0999985-4.5999985c0-3.2000008-2.4000015-4-5.3000031-4
		c-1.5,0-2.8000031,0.2000008-4.0999985,0.5999985v3h0.8000031c0.8000031-1.2000008,1.5999985-1.7000008,3.1999969-1.7000008
		c2.1999969,0,2.3000031,1.9000015,2.3000031,3.5999985c-0.4000015,0-1-0.0999985-1.5-0.0999985
		c-2.9000015,0-6.1999969,1.2999992-6.1999969,4.7000008C77.3000031,52.5999985,79.4000015,54,81.6000061,54 M97.4000015,50.6999969
		c0,1.2000008-1.0999985,2-2.1999969,2c-1.4000015,0-2.6999969-1.0999985-3-2.5999985h-1.1999969l0.1999969,3
		C92.2000046,53.6999969,93.8000031,54,94.9000015,54C97.7000046,54,100,52.7999992,100,49.7000008
		c0-4.4000015-6.4000015-3.2000008-6.4000015-6.2999992c0-1.2999992,0.9000015-2,2.1999969-2
		c1.6999969,0,2.5999985,0.7999992,3,2.4000015h1l0.0999985-2.9000015C98.6000061,40.5,97.2000046,40.0999985,95.8000031,40.0999985
		c-2.5999985,0-5.0999985,1.2999992-5.0999985,4.2000008C90.8000031,48.8999977,97.4000015,48.3999977,97.4000015,50.6999969"/>
	<g>
		<path class="st2" d="M0.0004883,22.1557617l2.7490234-7.1582031h1.0205078l2.9296875,7.1582031H5.6206055L4.7856445,19.987793
			H1.7924805l-0.7861328,2.1679688H0.0004883z M2.065918,19.2163086h2.4267578l-0.7470703-1.9824219
			c-0.2280273-0.6020508-0.3969727-1.097168-0.5078125-1.484375c-0.0913086,0.4589844-0.2197266,0.9145508-0.3857422,1.3671875
			L2.065918,19.2163086z"/>
		<path class="st2" d="M7.1831055,22.5854492l0.8544922,0.1269531c0.0356445,0.2636719,0.1352539,0.4555664,0.2978516,0.5761719
			c0.2182617,0.1625977,0.5161133,0.2441406,0.8935547,0.2441406c0.4067383,0,0.7211914-0.081543,0.9423828-0.2441406
			s0.3710938-0.390625,0.4492188-0.6835938c0.0454102-0.1791992,0.0668945-0.5551758,0.0634766-1.1279297
			c-0.3842773,0.4526367-0.862793,0.6787109-1.4355469,0.6787109c-0.7128906,0-1.2646484-0.2573242-1.6552734-0.7714844
			s-0.5859375-1.1313477-0.5859375-1.8505859c0-0.4946289,0.0893555-0.9511719,0.2685547-1.3696289
			s0.4384766-0.7412109,0.7788086-0.9692383s0.7397461-0.3417969,1.1987305-0.3417969
			c0.6118164,0,1.1166992,0.2475586,1.5136719,0.7421875v-0.625h0.8105469v4.4824219
			c0,0.8071289-0.0820312,1.3793945-0.246582,1.7163086s-0.4248047,0.6030273-0.78125,0.7983398
			s-0.7949219,0.2929688-1.315918,0.2929688c-0.6186523,0-1.1181641-0.1391602-1.4990234-0.4174805
			S7.1699219,23.1455078,7.1831055,22.5854492z M7.9106445,19.4702148c0,0.6801758,0.1352539,1.1767578,0.4052734,1.4892578
			s0.6088867,0.46875,1.015625,0.46875c0.4038086,0,0.7421875-0.1552734,1.015625-0.4663086
			s0.4101562-0.7983398,0.4101562-1.4624023c0-0.6347656-0.140625-1.1132812-0.4223633-1.4355469
			s-0.6210938-0.4833984-1.0180664-0.4833984c-0.390625,0-0.7226562,0.1586914-0.9960938,0.4760742
			S7.9106445,18.8452148,7.9106445,19.4702148z"/>
		<path class="st2" d="M16.4555664,20.4858398l0.9082031,0.1123047c-0.1430664,0.5307617-0.4086914,0.9423828-0.7958984,1.2353516
			s-0.8823242,0.4394531-1.484375,0.4394531c-0.7583008,0-1.3598633-0.2333984-1.8041992-0.7006836
			s-0.6665039-1.1220703-0.6665039-1.965332c0-0.8725586,0.2246094-1.5493164,0.6738281-2.03125
			s1.0317383-0.7226562,1.7480469-0.7226562c0.6933594,0,1.2597656,0.2358398,1.6992188,0.7080078
			s0.6591797,1.1362305,0.6591797,1.9921875c0,0.0522461-0.0014648,0.1303711-0.0048828,0.234375h-3.8671875
			c0.0327148,0.5698242,0.1938477,1.0058594,0.4833984,1.3085938s0.6508789,0.4541016,1.0839844,0.4541016
			c0.3222656,0,0.597168-0.0844727,0.8251953-0.2539062S16.3222656,20.8569336,16.4555664,20.4858398z M13.5698242,19.0649414
			h2.8955078c-0.0390625-0.4360352-0.1499023-0.7631836-0.3320312-0.9814453
			c-0.2797852-0.3383789-0.6430664-0.5078125-1.0888672-0.5078125c-0.4038086,0-0.7431641,0.1352539-1.0180664,0.4052734
			S13.5991211,18.6123047,13.5698242,19.0649414z"/>
		<path class="st2" d="M18.4672852,22.1557617v-5.1855469h0.7910156v0.7373047
			c0.3808594-0.5698242,0.9306641-0.8544922,1.6503906-0.8544922c0.3125,0,0.5996094,0.0561523,0.8623047,0.168457
			c0.2617188,0.1123047,0.4580078,0.2597656,0.5878906,0.4418945s0.2216797,0.3989258,0.2734375,0.6494141
			c0.0322266,0.1625977,0.0488281,0.4477539,0.0488281,0.8544922v3.1884766h-0.8789062v-3.1542969
			c0-0.3579102-0.0341797-0.6259766-0.1025391-0.8032227s-0.1894531-0.3188477-0.3642578-0.4248047
			c-0.1738281-0.105957-0.3779297-0.1586914-0.6123047-0.1586914c-0.3740234,0-0.6972656,0.1186523-0.9697266,0.3564453
			c-0.2714844,0.237793-0.4072266,0.6884766-0.4072266,1.3525391v2.8320312H18.4672852z"/>
		<path class="st2" d="M25.9477539,21.3696289l0.1269531,0.7763672c-0.2470703,0.0522461-0.46875,0.078125-0.6640625,0.078125
			c-0.3193359,0-0.5664062-0.050293-0.7421875-0.1513672s-0.2998047-0.2333984-0.3710938-0.3979492
			s-0.1074219-0.5102539-0.1074219-1.0375977v-2.9833984h-0.6445312v-0.6835938h0.6445312v-1.2841797l0.8740234-0.5273438v1.8115234
			h0.8837891v0.6835938h-0.8837891v3.0322266c0,0.2504883,0.015625,0.4116211,0.0458984,0.4833984
			c0.03125,0.0717773,0.0820312,0.128418,0.1523438,0.1708984c0.0693359,0.0424805,0.1699219,0.0634766,0.2998047,0.0634766
			C25.659668,21.4038086,25.7885742,21.3925781,25.9477539,21.3696289z"/>
		<path class="st2" d="M30.3569336,20.4858398l0.9082031,0.1123047c-0.1435547,0.5307617-0.4082031,0.9423828-0.7958984,1.2353516
			s-0.8818359,0.4394531-1.484375,0.4394531c-0.7587891,0-1.3603516-0.2333984-1.8037109-0.7006836
			c-0.4453125-0.4672852-0.6669922-1.1220703-0.6669922-1.965332c0-0.8725586,0.2246094-1.5493164,0.6738281-2.03125
			s1.0322266-0.7226562,1.7480469-0.7226562c0.6933594,0,1.2597656,0.2358398,1.6992188,0.7080078
			s0.6591797,1.1362305,0.6591797,1.9921875c0,0.0522461-0.0019531,0.1303711-0.0048828,0.234375h-3.8671875
			c0.0322266,0.5698242,0.1933594,1.0058594,0.4833984,1.3085938s0.6513672,0.4541016,1.0839844,0.4541016
			c0.3222656,0,0.5976562-0.0844727,0.8251953-0.2539062S30.2231445,20.8569336,30.3569336,20.4858398z M27.4711914,19.0649414
			h2.8955078c-0.0390625-0.4360352-0.1494141-0.7631836-0.3320312-0.9814453
			c-0.2802734-0.3383789-0.6425781-0.5078125-1.0888672-0.5078125c-0.4033203,0-0.7431641,0.1352539-1.0185547,0.4052734
			C27.652832,18.2509766,27.5004883,18.6123047,27.4711914,19.0649414z"/>
		<path class="st2" d="M38.6967773,20.4858398l0.9082031,0.1123047c-0.1435547,0.5307617-0.4082031,0.9423828-0.7958984,1.2353516
			s-0.8818359,0.4394531-1.484375,0.4394531c-0.7587891,0-1.3603516-0.2333984-1.8037109-0.7006836
			c-0.4453125-0.4672852-0.6669922-1.1220703-0.6669922-1.965332c0-0.8725586,0.2246094-1.5493164,0.6738281-2.03125
			s1.0322266-0.7226562,1.7480469-0.7226562c0.6933594,0,1.2597656,0.2358398,1.6992188,0.7080078
			s0.6591797,1.1362305,0.6591797,1.9921875c0,0.0522461-0.0019531,0.1303711-0.0048828,0.234375H35.762207
			c0.0322266,0.5698242,0.1933594,1.0058594,0.4833984,1.3085938s0.6513672,0.4541016,1.0839844,0.4541016
			c0.3222656,0,0.5976562-0.0844727,0.8251953-0.2539062S38.5629883,20.8569336,38.6967773,20.4858398z M35.8110352,19.0649414
			h2.8955078c-0.0390625-0.4360352-0.1494141-0.7631836-0.3320312-0.9814453
			c-0.2802734-0.3383789-0.6425781-0.5078125-1.0888672-0.5078125c-0.4033203,0-0.7431641,0.1352539-1.0185547,0.4052734
			C35.9926758,18.2509766,35.840332,18.6123047,35.8110352,19.0649414z"/>
		<path class="st2" d="M40.1225586,22.1557617l1.8945312-2.6953125l-1.7529297-2.4902344h1.0986328l0.7958984,1.2158203
			c0.1494141,0.230957,0.2705078,0.4248047,0.3613281,0.5810547c0.1435547-0.2148438,0.2753906-0.4052734,0.3955078-0.5712891
			l0.8740234-1.2255859h1.0498047l-1.7919922,2.4414062l1.9287109,2.7441406h-1.0791016l-1.0644531-1.6113281l-0.2832031-0.4345703
			l-1.3623047,2.0458984H40.1225586z"/>
		<path class="st2" d="M49.0922852,20.2563477l0.8642578,0.1123047c-0.0947266,0.5957031-0.3359375,1.0620117-0.7255859,1.3989258
			c-0.3886719,0.3369141-0.8662109,0.5053711-1.4326172,0.5053711c-0.7099609,0-1.2802734-0.2319336-1.7119141-0.6958008
			c-0.4306641-0.4638672-0.6464844-1.1289062-0.6464844-1.9946289c0-0.5600586,0.0927734-1.0498047,0.2783203-1.4697266
			s0.4677734-0.7348633,0.8466797-0.9448242c0.3798828-0.2099609,0.7919922-0.3149414,1.2382812-0.3149414
			c0.5634766,0,1.0234375,0.1425781,1.3818359,0.4272461s0.5878906,0.6894531,0.6884766,1.2133789l-0.8544922,0.1318359
			c-0.0810547-0.3481445-0.2255859-0.6103516-0.4326172-0.7861328c-0.2060547-0.1757812-0.4560547-0.2636719-0.7490234-0.2636719
			c-0.4423828,0-0.8027344,0.1586914-1.0791016,0.4760742s-0.4150391,0.8193359-0.4150391,1.5063477
			c0,0.6967773,0.1337891,1.2026367,0.4003906,1.5185547s0.6152344,0.4736328,1.0449219,0.4736328
			c0.3447266,0,0.6328125-0.105957,0.8642578-0.3173828S49.0307617,20.6958008,49.0922852,20.2563477z"/>
		<path class="st2" d="M50.6889648,22.1557617v-7.1582031h0.8793945v7.1582031H50.6889648z"/>
		<path class="st2" d="M56.328125,22.1557617V21.394043c-0.4023438,0.5859375-0.9511719,0.8789062-1.6445312,0.8789062
			c-0.3066406,0-0.5917969-0.0585938-0.8574219-0.1757812s-0.4628906-0.2646484-0.5898438-0.4418945
			c-0.1289062-0.1772461-0.2207031-0.3945312-0.2714844-0.6518555c-0.0371094-0.1723633-0.0546875-0.4458008-0.0546875-0.8203125
			v-3.2128906h0.8789062v2.8759766c0,0.4589844,0.0175781,0.7680664,0.0546875,0.9277344
			c0.0546875,0.230957,0.171875,0.4125977,0.3515625,0.5444336c0.1777344,0.1318359,0.4003906,0.1977539,0.6640625,0.1977539
			s0.5097656-0.0673828,0.7421875-0.2026367c0.2304688-0.1352539,0.3945312-0.3188477,0.4902344-0.5517578
			s0.1445312-0.5703125,0.1445312-1.0131836v-2.7783203h0.8789062v5.1855469H56.328125z"/>
		<path class="st2" d="M58.140625,20.6079102l0.8691406-0.1367188c0.0488281,0.3481445,0.1835938,0.6152344,0.40625,0.8007812
			c0.2246094,0.1855469,0.5351562,0.2783203,0.9355469,0.2783203c0.4042969,0,0.703125-0.0820312,0.8984375-0.246582
			s0.2929688-0.3574219,0.2929688-0.5786133c0-0.1987305-0.0859375-0.3549805-0.2578125-0.46875
			c-0.1210938-0.078125-0.4199219-0.1772461-0.8984375-0.2978516c-0.6445312-0.1625977-1.0917969-0.3037109-1.3417969-0.4223633
			c-0.2480469-0.1186523-0.4375-0.2832031-0.5664062-0.4931641c-0.1269531-0.2099609-0.1914062-0.4418945-0.1914062-0.6958008
			c0-0.230957,0.0527344-0.4453125,0.1582031-0.6420898s0.25-0.3603516,0.4316406-0.4907227
			c0.1367188-0.1010742,0.3242188-0.1865234,0.5585938-0.2563477c0.2363281-0.0698242,0.4902344-0.1049805,0.7597656-0.1049805
			c0.4082031,0,0.7636719,0.0585938,1.0722656,0.1757812c0.3066406,0.1171875,0.5351562,0.2758789,0.6816406,0.4760742
			s0.2460938,0.4677734,0.3027344,0.8032227l-0.859375,0.1171875c-0.0390625-0.2670898-0.1523438-0.4750977-0.3398438-0.625
			s-0.4511719-0.2246094-0.7929688-0.2246094c-0.4042969,0-0.6914062,0.0668945-0.8652344,0.2001953
			c-0.171875,0.1333008-0.2578125,0.2895508-0.2578125,0.46875c0,0.1137695,0.0351562,0.2163086,0.1074219,0.3076172
			c0.0703125,0.0942383,0.1835938,0.1723633,0.3359375,0.234375c0.0878906,0.0327148,0.3476562,0.1074219,0.7773438,0.2246094
			c0.6210938,0.1660156,1.0546875,0.3017578,1.3007812,0.4077148s0.4394531,0.2597656,0.578125,0.4614258
			c0.140625,0.2016602,0.2109375,0.4526367,0.2109375,0.7519531c0,0.2929688-0.0859375,0.5688477-0.2578125,0.8276367
			c-0.1699219,0.2587891-0.4160156,0.4589844-0.7382812,0.6005859s-0.6875,0.2124023-1.09375,0.2124023
			c-0.6738281,0-1.1875-0.1401367-1.5410156-0.4199219S58.2382812,21.1582031,58.140625,20.6079102z"/>
		<path class="st2" d="M63.4960938,16.0083008v-1.0107422H64.375v1.0107422H63.4960938z M63.4960938,22.1557617v-5.1855469H64.375
			v5.1855469H63.4960938z"/>
		<path class="st2" d="M67.1542969,22.1557617l-1.9726562-5.1855469h0.9277344l1.1132812,3.1054688
			c0.1191406,0.3354492,0.2304688,0.6835938,0.3320312,1.0449219c0.078125-0.2734375,0.1875-0.6020508,0.3261719-0.9863281
			l1.1523438-3.1640625H69.9375l-1.9628906,5.1855469H67.1542969z"/>
		<path class="st2" d="M70.3867188,19.5629883c0-0.9604492,0.265625-1.6713867,0.8007812-2.1337891
			c0.4453125-0.3842773,0.9882812-0.5761719,1.6308594-0.5761719c0.7128906,0,1.2949219,0.2333984,1.7480469,0.7006836
			c0.4511719,0.4672852,0.6777344,1.1123047,0.6777344,1.9360352c0,0.6674805-0.0996094,1.1923828-0.2988281,1.574707
			c-0.2011719,0.3823242-0.4921875,0.6796875-0.875,0.8911133s-0.8007812,0.3173828-1.2519531,0.3173828
			c-0.7265625,0-1.3125-0.2329102-1.7597656-0.6982422C70.609375,21.109375,70.3867188,20.4384766,70.3867188,19.5629883z
			 M71.2890625,19.5629883c0,0.6640625,0.1445312,1.1611328,0.4355469,1.4916992
			c0.2890625,0.3305664,0.6542969,0.4956055,1.09375,0.4956055c0.4355469,0,0.7988281-0.1660156,1.0878906-0.4980469
			c0.2910156-0.3320312,0.4355469-0.8383789,0.4355469-1.5185547c0-0.6411133-0.1464844-1.1269531-0.4375-1.4575195
			S73.25,17.5805664,72.8183594,17.5805664c-0.4394531,0-0.8046875,0.1645508-1.09375,0.4931641
			C71.4335938,18.4023438,71.2890625,18.8989258,71.2890625,19.5629883z"/>
	</g>
</g>
</svg>
