<?xml version="1.0" encoding="utf-8"?>
<!-- Generator: Adobe Illustrator 24.1.0, SVG Export Plug-In . SVG Version: 6.00 Build 0)  -->
<svg version="1.1" id="Capa_1" xmlns="http://www.w3.org/2000/svg" xmlns:xlink="http://www.w3.org/1999/xlink" x="0px" y="0px"
	 viewBox="0 0 100 58" style="enable-background:new 0 0 100 58;" xml:space="preserve">
<style type="text/css">
	.st0{fill-rule:evenodd;clip-rule:evenodd;fill:#0097D7;}
	.st1{fill:#0097D7;}
	.st2{fill:#016790;}
	.st3{fill:#019DDD;}
</style>
<g>
	<path class="st0" d="M20.1000042,41.5l3.2000008,8.4000015h-6.3999996L20.1000042,41.5z M16.5000038,57.9000015v-0.7000008
		c-0.7999992,0-1.2000008-0.5999985-1.2000008-1.4000015c0-0.4000015,0.1000004-1.0999985,0.2000008-1.5999985l0.8999996-2.7999992
		h7.5l1.1000004,3C25.2000046,55,25.4000034,55.6000023,25.4000034,56c0,0.7000008-0.3999996,1.2000008-1.1000004,1.2000008
		v0.7000008c1.1000004,0,2.1000004-0.0999985,3.2000008-0.0999985s2.1000004,0.0999985,3.2000008,0.0999985v-0.7000008
		c-1.2000008-0.0999985-1.3999996-1.2000008-2.6000004-4l-7-17.8999977h-0.3999996L13.9000044,52.5
		C13.300004,54,12.1000042,57,10.800005,57.2999992V58c0.8999996,0,1.8000002-0.0999985,2.8000002-0.0999985
		C14.6000042,57.8000031,15.5000038,57.9000015,16.5000038,57.9000015L16.5000038,57.9000015z M37.5000038,45.3999977
		c2.5,0,3.4000015,1.2999992,3.4000015,4.2999992v5.2000008c-0.7999992,0.7999992-1.7000008,1.0999985-2.5999985,1.0999985
		c-2.7999992,0-4.4000015-3.0999985-4.4000015-5.7999992C33.9000053,48.0999985,35.0000038,45.3999977,37.5000038,45.3999977
		 M37.0000038,58c1.0999985,0,1.7000008-0.2000008,2.2000008-0.5l1.9000015-1.5999985
		c0.5,1,1.4000015,1.7999992,2.4000015,2.0999985c0.5999985-0.7999992,1.7999992-1.5999985,2.9000015-2.4000015l-0.5000038-0.5
		c-0.2000008,0.0999985-0.5,0.2999992-0.9000015,0.2999992c-0.7000008,0-1-0.5999985-1-1.7999992v-7.9000015
		c0-4.5999985,0.0999985-8.2000008,0.0999985-10.7000008h-0.5999985c-0.7999992,0.8999977-2.7000008,1.7999992-4.2999992,2.2000008
		v0.5999985c0.7999992,0.0999985,1.5999985,0.5999985,1.5999985,2.4000015v4.7000008
		c-1.0999985-0.5-2.2000008-0.7999992-3.2999992-0.7999992c-4.0999985,0-7.1000004,2.5999985-7.1000004,7
		C30.5000038,55,33.0000038,58,37.0000038,58 M52.4000053,45.1999969c2.0999985,0,3,1.2000008,3,3.0999985h-5.7999992
		C49.6000061,46.6999969,50.7000046,45.1999969,52.4000053,45.1999969 M53.8000031,58c1.2999992,0,2.4000015-0.2999992,3-0.5
		l1.7000008-2.5l-0.2999992-0.4000015c-1,0.7000008-2.2000008,1-3.4000015,1c-3.2999992,0-5.5999985-2.9000015-5.4000015-6
		h9.2999992c0-3.4000015-2.5999985-5.5-5.9000015-5.5c-4.4000015,0-6.5,3.9000015-6.5,6.9000015
		C46.4000053,54,48.6000061,58,53.8000031,58 M66.8000031,54.6999969c0,1.2000008-1.0999985,2-2.1999969,2
		c-1.4000015,0-2.7000008-1.0999985-3-2.5999985h-1.2000008l0.2000008,3C61.6000061,57.6999969,63.2000046,58,64.3000031,58
		c2.8000031,0,5.0999985-1.2000008,5.0999985-4.2999992C69.4000015,49.2999992,63,50.5,63,47.4000015
		c0-1.2999992,0.9000015-2,2.1999969-2c1.6999969,0,2.5999985,0.7999992,3,2.4000015h1l0.0999985-2.9000015
		C68.0000076,44.5,66.6000061,44.0999985,65.2000046,44.0999985c-2.5999985,0-5.0999985,1.2999992-5.0999985,4.2000008
		C60.2000046,52.8999977,66.8000031,52.3999977,66.8000031,54.6999969 M72.0000076,40.2000008
		c0.0999985,1.2000008,0.3000031,3.5999985,0.3000031,5.5V56c0,0.7000008-0.3000031,1.2999992-1.3000031,1.4000015V58
		c0.9000015,0,1.8000031-0.0999985,2.8000031-0.0999985S75.7000122,58,76.7000122,58v-0.5999985
		c-1-0.2000008-1.1999969-0.7000008-1.1999969-1.7999992V43.3000031c0-2.9000015,0.0999985-6.0999985,0.0999985-7.7999992
		h-0.5999985c-0.8000031,0.8999977-3.4000015,1.7999992-4.5,1.9000015v0.7000008
		C71.4000015,38.2000008,71.9000015,38.9000015,72.0000076,40.2000008 M83.4000015,50.6999969
		c0.5999985,0,1.1999969,0.0999985,1.5,0.2000008L85,55.5999985c-0.5,0.2999992-1.1999969,0.5-2.0999985,0.5
		c-1.3000031,0-2.5-1.0999985-2.5-2.5999985C80.4000015,51.3999977,81.9000015,50.6999969,83.4000015,50.6999969 M81.6000061,58
		c1.4000015,0,2.4000015-0.7999992,3.5-1.5999985C85.5000076,57.2000008,86.4000092,57.8000031,87.7000046,58l2.4000015-1.9000015
		l-0.5-0.5c-0.1999969,0.0999985-0.5,0.0999985-0.6999969,0.0999985c-0.6999969,0-1-0.4000015-1-1.9000015v-1.0999985
		c0-1.7999992,0.0999985-3.5,0.0999985-4.5999985c0-3.2000008-2.4000015-4-5.3000031-4
		c-1.5,0-2.8000031,0.2000008-4.0999985,0.5999985v3h0.8000031c0.8000031-1.2000008,1.5999985-1.7000008,3.1999969-1.7000008
		c2.1999969,0,2.3000031,1.9000015,2.3000031,3.5999985c-0.4000015,0-1-0.0999985-1.5-0.0999985
		c-2.9000015,0-6.1999969,1.2999992-6.1999969,4.7000008C77.3000031,56.5999985,79.4000015,58,81.6000061,58 M97.4000015,54.6999969
		c0,1.2000008-1.0999985,2-2.1999969,2c-1.4000015,0-2.6999969-1.0999985-3-2.5999985h-1.1999969l0.1999969,3
		C92.2000046,57.6999969,93.8000031,58,94.9000015,58C97.7000046,58,100,56.7999992,100,53.7000008
		c0-4.4000015-6.4000015-3.2000008-6.4000015-6.2999992c0-1.2999992,0.9000015-2,2.1999969-2
		c1.6999969,0,2.5999985,0.7999992,3,2.4000015h1l0.0999985-2.9000015C98.6000061,44.5,97.2000046,44.0999985,95.8000031,44.0999985
		c-2.5999985,0-5.0999985,1.2999992-5.0999985,4.2000008C90.8000031,52.8999977,97.4000015,52.3999977,97.4000015,54.6999969"/>
	<g>
		<path class="st1" d="M0.0004883,26.1557617l2.7490234-7.1582031h1.0205078l2.9296875,7.1582031H5.6206055L4.7856445,23.987793
			H1.7924805l-0.7861328,2.1679688H0.0004883z M2.065918,23.2163086h2.4267578l-0.7470703-1.9824219
			c-0.2280273-0.6020508-0.3969727-1.097168-0.5078125-1.484375c-0.0913086,0.4589844-0.2197266,0.9145508-0.3857422,1.3671875
			L2.065918,23.2163086z"/>
		<path class="st1" d="M7.1831055,26.5854492l0.8544922,0.1269531c0.0356445,0.2636719,0.1352539,0.4555664,0.2978516,0.5761719
			c0.2182617,0.1625977,0.5161133,0.2441406,0.8935547,0.2441406c0.4067383,0,0.7211914-0.081543,0.9423828-0.2441406
			s0.3710938-0.390625,0.4492188-0.6835938c0.0454102-0.1791992,0.0668945-0.5551758,0.0634766-1.1279297
			c-0.3842773,0.4526367-0.862793,0.6787109-1.4355469,0.6787109c-0.7128906,0-1.2646484-0.2573242-1.6552734-0.7714844
			s-0.5859375-1.1313477-0.5859375-1.8505859c0-0.4946289,0.0893555-0.9511719,0.2685547-1.3696289
			s0.4384766-0.7412109,0.7788086-0.9692383s0.7397461-0.3417969,1.1987305-0.3417969
			c0.6118164,0,1.1166992,0.2475586,1.5136719,0.7421875v-0.625h0.8105469v4.4824219
			c0,0.8071289-0.0820312,1.3793945-0.246582,1.7163086s-0.4248047,0.6030273-0.78125,0.7983398
			s-0.7949219,0.2929688-1.315918,0.2929688c-0.6186523,0-1.1181641-0.1391602-1.4990234-0.4174805
			S7.1699219,27.1455078,7.1831055,26.5854492z M7.9106445,23.4702148c0,0.6801758,0.1352539,1.1767578,0.4052734,1.4892578
			s0.6088867,0.46875,1.015625,0.46875c0.4038086,0,0.7421875-0.1552734,1.015625-0.4663086
			s0.4101562-0.7983398,0.4101562-1.4624023c0-0.6347656-0.140625-1.1132812-0.4223633-1.4355469
			s-0.6210938-0.4833984-1.0180664-0.4833984c-0.390625,0-0.7226562,0.1586914-0.9960938,0.4760742
			S7.9106445,22.8452148,7.9106445,23.4702148z"/>
		<path class="st1" d="M16.4555664,24.4858398l0.9082031,0.1123047c-0.1430664,0.5307617-0.4086914,0.9423828-0.7958984,1.2353516
			s-0.8823242,0.4394531-1.484375,0.4394531c-0.7583008,0-1.3598633-0.2333984-1.8041992-0.7006836
			s-0.6665039-1.1220703-0.6665039-1.965332c0-0.8725586,0.2246094-1.5493164,0.6738281-2.03125
			s1.0317383-0.7226562,1.7480469-0.7226562c0.6933594,0,1.2597656,0.2358398,1.6992188,0.7080078
			s0.6591797,1.1362305,0.6591797,1.9921875c0,0.0522461-0.0014648,0.1303711-0.0048828,0.234375h-3.8671875
			c0.0327148,0.5698242,0.1938477,1.0058594,0.4833984,1.3085938s0.6508789,0.4541016,1.0839844,0.4541016
			c0.3222656,0,0.597168-0.0844727,0.8251953-0.2539062S16.3222656,24.8569336,16.4555664,24.4858398z M13.5698242,23.0649414
			h2.8955078c-0.0390625-0.4360352-0.1499023-0.7631836-0.3320312-0.9814453
			c-0.2797852-0.3383789-0.6430664-0.5078125-1.0888672-0.5078125c-0.4038086,0-0.7431641,0.1352539-1.0180664,0.4052734
			S13.5991211,22.6123047,13.5698242,23.0649414z"/>
		<path class="st1" d="M18.4672852,26.1557617v-5.1855469h0.7910156v0.7373047
			c0.3808594-0.5698242,0.9306641-0.8544922,1.6503906-0.8544922c0.3125,0,0.5996094,0.0561523,0.8623047,0.168457
			c0.2617188,0.1123047,0.4580078,0.2597656,0.5878906,0.4418945s0.2216797,0.3989258,0.2734375,0.6494141
			c0.0322266,0.1625977,0.0488281,0.4477539,0.0488281,0.8544922v3.1884766h-0.8789062v-3.1542969
			c0-0.3579102-0.0341797-0.6259766-0.1025391-0.8032227s-0.1894531-0.3188477-0.3642578-0.4248047
			c-0.1738281-0.105957-0.3779297-0.1586914-0.6123047-0.1586914c-0.3740234,0-0.6972656,0.1186523-0.9697266,0.3564453
			c-0.2714844,0.237793-0.4072266,0.6884766-0.4072266,1.3525391v2.8320312H18.4672852z"/>
		<path class="st1" d="M25.9477539,25.3696289l0.1269531,0.7763672c-0.2470703,0.0522461-0.46875,0.078125-0.6640625,0.078125
			c-0.3193359,0-0.5664062-0.050293-0.7421875-0.1513672s-0.2998047-0.2333984-0.3710938-0.3979492
			s-0.1074219-0.5102539-0.1074219-1.0375977v-2.9833984h-0.6445312v-0.6835938h0.6445312v-1.2841797l0.8740234-0.5273438v1.8115234
			h0.8837891v0.6835938h-0.8837891v3.0322266c0,0.2504883,0.015625,0.4116211,0.0458984,0.4833984
			c0.03125,0.0717773,0.0820312,0.128418,0.1523438,0.1708984c0.0693359,0.0424805,0.1699219,0.0634766,0.2998047,0.0634766
			C25.659668,25.4038086,25.7885742,25.3925781,25.9477539,25.3696289z"/>
		<path class="st1" d="M30.3569336,24.4858398l0.9082031,0.1123047c-0.1435547,0.5307617-0.4082031,0.9423828-0.7958984,1.2353516
			s-0.8818359,0.4394531-1.484375,0.4394531c-0.7587891,0-1.3603516-0.2333984-1.8037109-0.7006836
			c-0.4453125-0.4672852-0.6669922-1.1220703-0.6669922-1.965332c0-0.8725586,0.2246094-1.5493164,0.6738281-2.03125
			s1.0322266-0.7226562,1.7480469-0.7226562c0.6933594,0,1.2597656,0.2358398,1.6992188,0.7080078
			s0.6591797,1.1362305,0.6591797,1.9921875c0,0.0522461-0.0019531,0.1303711-0.0048828,0.234375h-3.8671875
			c0.0322266,0.5698242,0.1933594,1.0058594,0.4833984,1.3085938s0.6513672,0.4541016,1.0839844,0.4541016
			c0.3222656,0,0.5976562-0.0844727,0.8251953-0.2539062S30.2231445,24.8569336,30.3569336,24.4858398z M27.4711914,23.0649414
			h2.8955078c-0.0390625-0.4360352-0.1494141-0.7631836-0.3320312-0.9814453
			c-0.2802734-0.3383789-0.6425781-0.5078125-1.0888672-0.5078125c-0.4033203,0-0.7431641,0.1352539-1.0185547,0.4052734
			C27.652832,22.2509766,27.5004883,22.6123047,27.4711914,23.0649414z"/>
		<path class="st1" d="M38.6967773,24.4858398l0.9082031,0.1123047c-0.1435547,0.5307617-0.4082031,0.9423828-0.7958984,1.2353516
			s-0.8818359,0.4394531-1.484375,0.4394531c-0.7587891,0-1.3603516-0.2333984-1.8037109-0.7006836
			c-0.4453125-0.4672852-0.6669922-1.1220703-0.6669922-1.965332c0-0.8725586,0.2246094-1.5493164,0.6738281-2.03125
			s1.0322266-0.7226562,1.7480469-0.7226562c0.6933594,0,1.2597656,0.2358398,1.6992188,0.7080078
			s0.6591797,1.1362305,0.6591797,1.9921875c0,0.0522461-0.0019531,0.1303711-0.0048828,0.234375H35.762207
			c0.0322266,0.5698242,0.1933594,1.0058594,0.4833984,1.3085938s0.6513672,0.4541016,1.0839844,0.4541016
			c0.3222656,0,0.5976562-0.0844727,0.8251953-0.2539062S38.5629883,24.8569336,38.6967773,24.4858398z M35.8110352,23.0649414
			h2.8955078c-0.0390625-0.4360352-0.1494141-0.7631836-0.3320312-0.9814453
			c-0.2802734-0.3383789-0.6425781-0.5078125-1.0888672-0.5078125c-0.4033203,0-0.7431641,0.1352539-1.0185547,0.4052734
			C35.9926758,22.2509766,35.840332,22.6123047,35.8110352,23.0649414z"/>
		<path class="st1" d="M40.1225586,26.1557617l1.8945312-2.6953125l-1.7529297-2.4902344h1.0986328l0.7958984,1.2158203
			c0.1494141,0.230957,0.2705078,0.4248047,0.3613281,0.5810547c0.1435547-0.2148438,0.2753906-0.4052734,0.3955078-0.5712891
			l0.8740234-1.2255859h1.0498047l-1.7919922,2.4414062l1.9287109,2.7441406h-1.0791016l-1.0644531-1.6113281l-0.2832031-0.4345703
			l-1.3623047,2.0458984H40.1225586z"/>
		<path class="st1" d="M49.0922852,24.2563477l0.8642578,0.1123047c-0.0947266,0.5957031-0.3359375,1.0620117-0.7255859,1.3989258
			c-0.3886719,0.3369141-0.8662109,0.5053711-1.4326172,0.5053711c-0.7099609,0-1.2802734-0.2319336-1.7119141-0.6958008
			c-0.4306641-0.4638672-0.6464844-1.1289062-0.6464844-1.9946289c0-0.5600586,0.0927734-1.0498047,0.2783203-1.4697266
			s0.4677734-0.7348633,0.8466797-0.9448242c0.3798828-0.2099609,0.7919922-0.3149414,1.2382812-0.3149414
			c0.5634766,0,1.0234375,0.1425781,1.3818359,0.4272461s0.5878906,0.6894531,0.6884766,1.2133789l-0.8544922,0.1318359
			c-0.0810547-0.3481445-0.2255859-0.6103516-0.4326172-0.7861328c-0.2060547-0.1757812-0.4560547-0.2636719-0.7490234-0.2636719
			c-0.4423828,0-0.8027344,0.1586914-1.0791016,0.4760742s-0.4150391,0.8193359-0.4150391,1.5063477
			c0,0.6967773,0.1337891,1.2026367,0.4003906,1.5185547s0.6152344,0.4736328,1.0449219,0.4736328
			c0.3447266,0,0.6328125-0.105957,0.8642578-0.3173828S49.0307617,24.6958008,49.0922852,24.2563477z"/>
		<path class="st1" d="M50.6889648,26.1557617v-7.1582031h0.8793945v7.1582031H50.6889648z"/>
		<path class="st1" d="M56.328125,26.1557617V25.394043c-0.4023438,0.5859375-0.9511719,0.8789062-1.6445312,0.8789062
			c-0.3066406,0-0.5917969-0.0585938-0.8574219-0.1757812s-0.4628906-0.2646484-0.5898438-0.4418945
			c-0.1289062-0.1772461-0.2207031-0.3945312-0.2714844-0.6518555c-0.0371094-0.1723633-0.0546875-0.4458008-0.0546875-0.8203125
			v-3.2128906h0.8789062v2.8759766c0,0.4589844,0.0175781,0.7680664,0.0546875,0.9277344
			c0.0546875,0.230957,0.171875,0.4125977,0.3515625,0.5444336c0.1777344,0.1318359,0.4003906,0.1977539,0.6640625,0.1977539
			s0.5097656-0.0673828,0.7421875-0.2026367c0.2304688-0.1352539,0.3945312-0.3188477,0.4902344-0.5517578
			s0.1445312-0.5703125,0.1445312-1.0131836v-2.7783203h0.8789062v5.1855469H56.328125z"/>
		<path class="st1" d="M58.140625,24.6079102l0.8691406-0.1367188c0.0488281,0.3481445,0.1835938,0.6152344,0.40625,0.8007812
			c0.2246094,0.1855469,0.5351562,0.2783203,0.9355469,0.2783203c0.4042969,0,0.703125-0.0820312,0.8984375-0.246582
			s0.2929688-0.3574219,0.2929688-0.5786133c0-0.1987305-0.0859375-0.3549805-0.2578125-0.46875
			c-0.1210938-0.078125-0.4199219-0.1772461-0.8984375-0.2978516c-0.6445312-0.1625977-1.0917969-0.3037109-1.3417969-0.4223633
			c-0.2480469-0.1186523-0.4375-0.2832031-0.5664062-0.4931641c-0.1269531-0.2099609-0.1914062-0.4418945-0.1914062-0.6958008
			c0-0.230957,0.0527344-0.4453125,0.1582031-0.6420898s0.25-0.3603516,0.4316406-0.4907227
			c0.1367188-0.1010742,0.3242188-0.1865234,0.5585938-0.2563477c0.2363281-0.0698242,0.4902344-0.1049805,0.7597656-0.1049805
			c0.4082031,0,0.7636719,0.0585938,1.0722656,0.1757812c0.3066406,0.1171875,0.5351562,0.2758789,0.6816406,0.4760742
			s0.2460938,0.4677734,0.3027344,0.8032227l-0.859375,0.1171875c-0.0390625-0.2670898-0.1523438-0.4750977-0.3398438-0.625
			s-0.4511719-0.2246094-0.7929688-0.2246094c-0.4042969,0-0.6914062,0.0668945-0.8652344,0.2001953
			c-0.171875,0.1333008-0.2578125,0.2895508-0.2578125,0.46875c0,0.1137695,0.0351562,0.2163086,0.1074219,0.3076172
			c0.0703125,0.0942383,0.1835938,0.1723633,0.3359375,0.234375c0.0878906,0.0327148,0.3476562,0.1074219,0.7773438,0.2246094
			c0.6210938,0.1660156,1.0546875,0.3017578,1.3007812,0.4077148s0.4394531,0.2597656,0.578125,0.4614258
			c0.140625,0.2016602,0.2109375,0.4526367,0.2109375,0.7519531c0,0.2929688-0.0859375,0.5688477-0.2578125,0.8276367
			c-0.1699219,0.2587891-0.4160156,0.4589844-0.7382812,0.6005859s-0.6875,0.2124023-1.09375,0.2124023
			c-0.6738281,0-1.1875-0.1401367-1.5410156-0.4199219S58.2382812,25.1582031,58.140625,24.6079102z"/>
		<path class="st1" d="M63.4960938,20.0083008v-1.0107422H64.375v1.0107422H63.4960938z M63.4960938,26.1557617v-5.1855469H64.375
			v5.1855469H63.4960938z"/>
		<path class="st1" d="M67.1542969,26.1557617l-1.9726562-5.1855469h0.9277344l1.1132812,3.1054688
			c0.1191406,0.3354492,0.2304688,0.6835938,0.3320312,1.0449219c0.078125-0.2734375,0.1875-0.6020508,0.3261719-0.9863281
			l1.1523438-3.1640625H69.9375l-1.9628906,5.1855469H67.1542969z"/>
		<path class="st1" d="M70.3867188,23.5629883c0-0.9604492,0.265625-1.6713867,0.8007812-2.1337891
			c0.4453125-0.3842773,0.9882812-0.5761719,1.6308594-0.5761719c0.7128906,0,1.2949219,0.2333984,1.7480469,0.7006836
			c0.4511719,0.4672852,0.6777344,1.1123047,0.6777344,1.9360352c0,0.6674805-0.0996094,1.1923828-0.2988281,1.574707
			c-0.2011719,0.3823242-0.4921875,0.6796875-0.875,0.8911133s-0.8007812,0.3173828-1.2519531,0.3173828
			c-0.7265625,0-1.3125-0.2329102-1.7597656-0.6982422C70.609375,25.109375,70.3867188,24.4384766,70.3867188,23.5629883z
			 M71.2890625,23.5629883c0,0.6640625,0.1445312,1.1611328,0.4355469,1.4916992
			c0.2890625,0.3305664,0.6542969,0.4956055,1.09375,0.4956055c0.4355469,0,0.7988281-0.1660156,1.0878906-0.4980469
			c0.2910156-0.3320312,0.4355469-0.8383789,0.4355469-1.5185547c0-0.6411133-0.1464844-1.1269531-0.4375-1.4575195
			S73.25,21.5805664,72.8183594,21.5805664c-0.4394531,0-0.8046875,0.1645508-1.09375,0.4931641
			C71.4335938,22.4023438,71.2890625,22.8989258,71.2890625,23.5629883z"/>
	</g>
</g>
<g>
	<g id="Capa_2_1_">
		<g id="Capa_1-2">
			<path class="st2" d="M25.293211,10.1228142c-0.2239666,0.1064672-0.4540024,0.1996708-0.6889133,0.2791281
				c-0.2731876,0.0950222-0.5582561,0.1781664-0.8611412,0.255373s-0.5938892,0.1365948-0.9027138,0.1841059
				c-0.2649689,0.0447369-0.5330448,0.0685663-0.8017502,0.0712671c-0.7332191,0.0111895-1.4633675-0.0971298-2.1617603-0.3207016
				c-0.6064339-0.1905727-1.1610909-0.5176773-1.6213207-0.9561634c-0.4555473-0.4449081-0.8047295-0.9869547-1.021492-1.5856857
				c-0.244978-0.7164483-0.3635426-1.4700298-0.3503952-2.2270889c-0.025301-0.8067126,0.1183262-1.6098061,0.4216614-2.3577442
				c0.5121193-1.1875584,1.5194359-2.0906696,2.7556515-2.4705834c0.59828-0.1847242,1.22085-0.2788103,1.8469982-0.2791286
				c0.584322-0.0024235,1.1679916,0.0392675,1.7460365,0.124717c0.4476662,0.0567148,0.8841705,0.1808581,1.2946815,0.3682119
				c0,0.1365945,0,0.3207008,0,0.5404407s-0.035635,0.4572957-0.0593872,0.7126687
				c-0.0237541,0.255373-0.0653286,0.504807-0.1069012,0.76018s-0.0950222,0.481051-0.1484718,0.6889126H24.040102
				l-0.7958126-2.1380062c-0.1482944-0.0582848-0.3043976-0.0943075-0.4632339-0.1069005
				c-0.1971741-0.0226086-0.3954296-0.0345037-0.5938911-0.0356331c-0.3814812,0.0009402-0.7589798,0.0776504-1.1105728,0.2256778
				c-0.3698521,0.1596823-0.6943073,0.4086349-0.9442863,0.7245457c-0.3089275,0.3884072-0.537096,0.8346496-0.6710968,1.3124981
				c-0.1719799,0.6305587-0.2519913,1.2826502-0.2375565,1.9360826c-0.0074844,0.5737205,0.0664997,1.1455989,0.219738,1.6985264
				c0.1181259,0.4712505,0.3192291,0.9176984,0.5938911,1.3184361c0.2468319,0.3521099,0.5695171,0.6443548,0.9442844,0.8552027
				c0.3620434,0.2052021,0.7716389,0.311697,1.1877804,0.3088226c0.1472015-0.0002956,0.2941532-0.0122099,0.4394798-0.0356331
				c0.1425495-0.0193167,0.2834816-0.0490913,0.4216633-0.0890827c0.1185322-0.030488,0.2338791-0.0722513,0.3444557-0.1247168
				c0.0760593-0.0317135,0.146307-0.0758686,0.2078609-0.1306553V6.9692569
				c-0.2365952-0.0187616-0.4699745-0.0666342-0.6948509-0.1425333c-0.2039433-0.0751495-0.4023895-0.1644502-0.5938892-0.2672515
				V6.0249715h3.8484077v0.5345006c-0.0998135,0.0947032-0.2140884,0.1728892-0.3385162,0.231617
				c-0.1703415,0.0806999-0.3498096,0.140523-0.534502,0.1781669L25.293211,10.1228142z"/>
			<path class="st2" d="M30.6441612,10.7404604h-3.8899803v-0.5345011c0.2989655-0.1431055,0.611269-0.2564888,0.9324074-0.3385172
				V1.3035436l-1.0690022-0.1128389V0.6562036c0.1632385-0.0696695,0.332119-0.1253003,0.5048065-0.1662891
				c0.2138004-0.0593893,0.451355-0.1069004,0.694849-0.1484726l0.7720604-0.11284
				c0.2494316-0.0356337,0.4751129-0.0593892,0.671093-0.0772058h0.4751148v9.7160454
				c0.3217621,0.0799961,0.6342659,0.1934528,0.9324074,0.3385172L30.6441612,10.7404604z"/>
			<path class="st2" d="M31.4340363,7.2186909c-0.009922-0.5259838,0.0766335-1.0493331,0.255373-1.5441151
				c0.1622429-0.4445806,0.4173374-0.8494945,0.7483044-1.1877804c0.3380318-0.327054,0.7434006-0.5763543,1.1877785-0.730485
				c0.5011597-0.1779308,1.0301971-0.2644281,1.5619316-0.255373c0.5781708-0.0144053,1.1540298,0.0782146,1.6985245,0.2731891
				c0.4476013,0.1617665,0.8534164,0.4214849,1.1877823,0.76018c0.3119659,0.3381662,0.5398445,0.7450914,0.6651573,1.1877804
				c0.1461411,0.481205,0.218235,0.9818392,0.2138023,1.484726c0.0067635,0.5306396-0.0838165,1.0580225-0.2672539,1.5559931
				c-0.1531792,0.4461956-0.4048843,0.8521662-0.7364235,1.1877804c-0.3406219,0.3237028-0.7452202,0.5725327-1.1877785,0.730485
				c-0.506134,0.1745205-1.0384636,0.2608976-1.5738106,0.255373c-0.5649033,0.0112095-1.1269073-0.0834637-1.6569557-0.2791281
				c-0.4486923-0.1595449-0.8549728-0.4195633-1.1877785-0.7601795c-0.3184052-0.3373251-0.5542221-0.743906-0.6889172-1.1877813
				C31.4987125,8.2280102,31.4244633,7.7243042,31.4340363,7.2186909z M33.6136131,7.2186909
				c-0.0045166,0.3973141,0.0212898,0.7943935,0.0772018,1.1877804c0.040844,0.3119755,0.1331596,0.6150141,0.2731895,0.8967743
				c0.1391716,0.2220325,0.3335724,0.4041538,0.5642014,0.5285625c0.2675819,0.1445141,0.5691528,0.2142658,0.8730164,0.2019224
				c0.196228,0.002986,0.3894424-0.0484009,0.5582581-0.1484728c0.1884689-0.1162491,0.3406944-0.2828693,0.4394798-0.4810505
				c0.1382484-0.2740841,0.2305412-0.5690165,0.2731895-0.8730183c0.0676079-0.4401379,0.0993843-0.8850355,0.0950241-1.3303142
				c0.0013542-0.3972235-0.0244408-0.7940741-0.0772057-1.1877804c-0.0408249-0.3081923-0.1331749-0.607327-0.2731895-0.8848963
				c-0.1122398-0.2412648-0.2890015-0.4467998-0.510746-0.5938907C35.6578789,4.38976,35.3733711,4.319664,35.0864677,4.3323851
				c-0.2192459-0.0067301-0.4363861,0.0444832-0.6295242,0.1484723c-0.1941376,0.1102328-0.3512154,0.275578-0.451355,0.475112
				c-0.140892,0.2730064-0.2333298,0.5683966-0.2731895,0.8730183C33.650959,6.2876892,33.6111984,6.7528214,33.6136131,7.2186909z"
				/>
			<path class="st2" d="M40.3008194,1.3035436l-1.0690041-0.1128389V0.6562036
				c0.182209-0.067698,0.3687019-0.1232495,0.5582581-0.1662891c0.231617-0.0593893,0.4691734-0.1069004,0.718605-0.1484726
				l0.7304878-0.1128389l0.5938911-0.0772058h0.4810486v4.8699002l0,0c0.1666527-0.4447098,0.4649963-0.8280001,0.8552055-1.0986972
				c0.4046555-0.2669725,0.8813019-0.4037492,1.3659477-0.3919675c0.7441177-0.0383687,1.4616394,0.2817571,1.9301453,0.8611414
				c0.5176277,0.7640266,0.7605171,1.681159,0.6889114,2.6012387c0.082077,1.0684876-0.2885895,2.1222939-1.021492,2.9041238
				c-0.8263741,0.6963634-1.8914375,1.0435734-2.9694481,0.9680405c-0.264019,0.0003748-0.5278053-0.0154934-0.789875-0.0475111
				c-0.291008-0.0296946-0.5938911-0.0712681-0.8492661-0.1187792c-0.2528267-0.0415106-0.5027657-0.0990362-0.7483025-0.1722288
				c-0.1759529-0.0434818-0.3456039-0.1093464-0.5048065-0.1959829L40.3008194,1.3035436z M43.6681747,4.6590242
				c-0.3300514-0.0136905-0.6471519,0.1294441-0.8552017,0.3860283c-0.2342453,0.2848687-0.398941,0.6203661-0.4810524,0.979919
				v3.7296309c0.1472054,0.1043024,0.312252,0.180788,0.4869919,0.2256784
				c0.2123833,0.0601969,0.4325867,0.0882225,0.6532784,0.0831442c0.5058098,0.0266323,0.9766197-0.2582102,1.1877785-0.7186069
				c0.2932587-0.7123537,0.4211769-1.4819269,0.3741493-2.250845c0.0251389-0.6085615-0.0780602-1.2156034-0.3028831-1.7816706
				C44.5539055,4.8888783,44.1260414,4.6259432,43.6681747,4.6590242z"/>
			<path class="st2" d="M54.2572403,8.6974773c0,0.2078619,0,0.3860283,0,0.5345011
				c0.0013809,0.1607628,0.0112915,0.3213396,0.0296974,0.4810514l0.9739799,0.1425333v0.4929285
				c-0.147625,0.0678463-0.3005714,0.1234636-0.4572945,0.1662903c-0.1900444,0.0593891-0.3880081,0.1128378-0.5938911,0.1603498
				c-0.2137985,0.0534506-0.4216614,0.0950232-0.5938911,0.1306562l-0.5523186,0.0772047h-0.4810486
				c-0.088562-0.2058859-0.1446571-0.4242611-0.1662865-0.6473408c0-0.2197399-0.0356331-0.4810505-0.0415726-0.7898741h-0.07127
				c-0.0479393,0.1923256-0.1282692,0.375083-0.2375565,0.5404406c-0.1139107,0.1804466-0.2610245,0.3376398-0.4335403,0.4632349
				c-0.1783485,0.1427393-0.3789978,0.2551041-0.5938911,0.3325777c-0.2538338,0.0886059-0.5210304,0.1328049-0.789875,0.1306562
				c-0.2912216,0.0030222-0.5807076-0.0452261-0.8552055-0.1425343c-0.2531166-0.0870419-0.4870377-0.2221527-0.6889153-0.3979063
				c-0.1989212-0.1603003-0.3592644-0.3632679-0.4691734-0.5938902c-0.1153946-0.2533216-0.1722336-0.5293875-0.1662865-0.8076916
				c-0.0149727-0.3633223,0.0670204-0.7240839,0.2375565-1.0452466c0.1823235-0.2895451,0.4441719-0.5204639,0.7542381-0.6651578
				c0.4190369-0.1958647,0.8657265-0.326066,1.324379-0.3860283c0.651207-0.0988431,1.3075371-0.1603122,1.9657745-0.1841059
				c0.0902634-0.5944657,0.0558815-1.2012072-0.1009598-1.7816706c-0.1285286-0.3874378-0.5083771-0.6340919-0.9145927-0.5938902
				c-0.273819-0.0031366-0.5457878,0.0452137-0.8017502,0.1425333l-0.6651611,1.6925874H49.274498
				c-0.0817719-0.125689-0.1551781-0.256629-0.2197418-0.3919673c-0.0746155-0.1503143-0.1400681-0.3050094-0.1959839-0.4632349
				c-0.059391-0.1662898-0.1128426-0.3325782-0.1544151-0.498868c-0.0401268-0.1622524-0.0698814-0.3268952-0.0890846-0.492929
				c0.4194565-0.2798877,0.8863335-0.4811287,1.3778267-0.59389c0.5827713-0.1446383,1.1812248-0.2164528,1.7816696-0.2138009
				c0.4443169-0.0131423,0.887764,0.0470545,1.3124962,0.1781666c0.2998276,0.0916026,0.5729218,0.2546446,0.7958107,0.4751115
				c0.1910286,0.1998944,0.3279724,0.4451652,0.3979073,0.7126689c0.077713,0.2844067,0.1156845,0.5781994,0.1128387,0.8730183
				c0,0.5641966,0,1.0749412-0.0356293,1.526298C54.3225594,7.7116165,54.2572403,8.2223654,54.2572403,8.6974773z
				 M51.0918045,9.784297c0.175087,0.0055313,0.3487358-0.0332851,0.5048065-0.1128397
				c0.1331215-0.0709801,0.2551651-0.1610126,0.3622742-0.267251c0.0919151-0.1007738,0.1680069-0.2149124,0.2256737-0.3385172
				c0.0475121-0.1247168,0.0890846-0.231617,0.1187782-0.3266392V7.3315306
				c-0.3638687,0.0051413-0.7269707,0.0349035-1.0868225,0.0890832c-0.234642,0.0254045-0.4602509,0.104671-0.6592178,0.231617
				C50.4061508,7.7478724,50.2896042,7.8893967,50.22472,8.056076c-0.0630836,0.1914968-0.0932083,0.392312-0.0890846,0.5938902
				c-0.0185738,0.2980146,0.0698853,0.5928659,0.2494316,0.8314466C50.562706,9.6840773,50.8225403,9.795434,51.0918045,9.784297z"
				/>
			<path class="st2" d="M59.810112,10.7404604h-3.9018555v-0.5345011c0.2981377-0.1450644,0.6106453-0.2585211,0.9324074-0.3385172
				V1.3035436l-1.0749397-0.1128389V0.6562036c0.1653252-0.0695364,0.3361702-0.1251593,0.510746-0.1662891
				c0.2288551-0.0616299,0.4607887-0.111189,0.6948471-0.1484726l0.7483063-0.1128389
				c0.2494316-0.0356337,0.4691734-0.0593892,0.6651573-0.0772058h0.4929237v9.7160435
				c0.3211441,0.0820284,0.6334419,0.1954117,0.9324074,0.3385172V10.7404604z"/>
			<path class="st3" d="M62.9696083,10.7404604h-2.1201859v-0.255373c0.1724319-0.0957346,0.358799-0.163868,0.5523186-0.2019224
				V6.4466329c-0.0979691-0.013268-0.1937981-0.0392208-0.2850723-0.0772052
				c-0.0920181-0.0326257-0.181366-0.0723381-0.2672462-0.1187787V5.989337h2.1201859v0.279129
				c-0.0856018,0.0486522-0.1749725,0.0903578-0.2672462,0.1247168c-0.0923157,0.0335135-0.1878433,0.0573955-0.2850685,0.0712671
				v3.8365316l0.2850685,0.0772057c0.0942802,0.0293722,0.1841774,0.0713224,0.2672462,0.1247158V10.7404604z"/>
			<path class="st3" d="M66.4973221,5.9893384h1.6807098V6.268466c-0.0896759,0.0675421-0.1850586,0.1271553-0.2850647,0.1781669
				c-0.0928345,0.0491333-0.1903152,0.0889211-0.291008,0.1187787v4.270071h-0.593895l-2.3755569-3.4623799L64.359314,6.8504796l0,0
				l0.0653305,0.5463791v2.8269181c0.1041718,0.0283585,0.2055511,0.0661268,0.302887,0.1128387
				c0.0989838,0.0423613,0.1926727,0.0961781,0.279129,0.1603508v0.255373h-1.6747742v-0.267252
				c0.0848846-0.0584164,0.1742477-0.1100473,0.2672501-0.1544113c0.0969162-0.0492277,0.1983452-0.0890036,0.302887-0.1187792
				V6.511961l-0.2731895-0.1187782L63.385334,6.250649V5.989337h1.4312782l1.9420242,2.8269176l0.3147583,0.5938902h0.0296936
				l-0.0356293-0.5938902V6.5535331c-0.1083298-0.0348377-0.2136002-0.078537-0.3147583-0.1306553
				c-0.0935898-0.0478487-0.1829834-0.1034737-0.2672501-0.1662898L66.4973221,5.9893384z"/>
			<path class="st3" d="M69.3776855,10.1762638c0.0618744,0.0602827,0.1343536,0.1086054,0.2137985,0.1425343
				c0.1131897,0.0449438,0.2346878,0.0651922,0.3563385,0.0593891c0.223526,0.0101604,0.443718-0.0569496,0.6235886-0.1900444
				c0.1621399-0.1314383,0.2524643-0.3319035,0.2434921-0.5404406c0.0040894-0.1561737-0.0535202-0.3076696-0.1603546-0.4216614
				c-0.1173325-0.1237621-0.2536621-0.228013-0.4038391-0.3088236c-0.1603546-0.0950222-0.3325729-0.1900444-0.5226288-0.2850666
				c-0.183197-0.0904779-0.356369-0.1999588-0.5166779-0.3266392c-0.1632004-0.1222019-0.3004684-0.2756281-0.4038391-0.4513569
				c-0.1141739-0.1960392-0.1698227-0.4206753-0.1603546-0.6473408c-0.0065994-0.2044625,0.0340424-0.4076924,0.1187744-0.5938902
				c0.0791931-0.1595712,0.1952362-0.2980008,0.3385239-0.4038458c0.1515961-0.1106234,0.3229446-0.1912541,0.5048065-0.2375555
				c0.205452-0.0537572,0.4171753-0.0797234,0.6295242-0.0772052c0.2583237-0.0013981,0.5163956,0.0164676,0.7720566,0.0534501
				c0.2203751,0.0356102,0.4356995,0.0974169,0.6414032,0.1841054c0,0.0890837,0,0.1900449,0,0.3088236
				c0,0.1187782-0.0296936,0.2375555-0.0475082,0.3503952c-0.0178146,0.1128392-0.0356293,0.225678-0.0534515,0.3266392
				l-0.0593872,0.255373h-0.279129L70.898056,6.4406962c-0.0767441-0.0312347-0.1562805-0.0550976-0.2375488-0.0712676
				c-0.1092453-0.0238853-0.2207565-0.0358324-0.3325806-0.0356331c-0.1742706-0.0056162-0.3454971,0.0465879-0.4869919,0.1484728
				c-0.1327591,0.1034036-0.2060623,0.2655644-0.1959839,0.4335394c-0.0073395,0.1631236,0.0527954,0.3220754,0.1662903,0.4394789
				c0.1190262,0.1268482,0.2549133,0.2367549,0.4038391,0.3266392c0.1662903,0.1009612,0.3444595,0.2019229,0.5344925,0.2969451
				c0.1893158,0.0918403,0.3684692,0.2033114,0.5345001,0.3325782c0.1606064,0.1244402,0.2991409,0.2750139,0.40979,0.4454174
				c0.1129837,0.1902561,0.1705704,0.4082899,0.1662827,0.6295233c0.0213089,0.401104-0.1482544,0.7886705-0.4572983,1.0452471
				c-0.3932724,0.2754116-0.8691635,0.4074879-1.3481293,0.3741512c-0.1469574-0.0010185-0.2937241-0.0109348-0.4394836-0.0296946
				c-0.1397247-0.0164766-0.2784882-0.0402651-0.4157181-0.0712671c-0.1187973-0.0287218-0.2357941-0.0644178-0.3503952-0.1069002
				c-0.0812988-0.0240088-0.1576996-0.062211-0.2256851-0.1128397c-0.0082855-0.1107044-0.0082855-0.2218742,0-0.3325787
				c0-0.1247158,0.0415802-0.243495,0.0593948-0.3622732s0.0415802-0.231617,0.0653305-0.3444567l0.0653305-0.2850666h0.279129
				L69.3776855,10.1762638z"/>
			<path class="st3" d="M72.1452103,5.9893384h2.0904999V6.268466c-0.1577225,0.0985465-0.3332748,0.1651368-0.5166855,0.1959839
				v2.6131172c-0.0057678,0.1871519,0.02034,0.3739223,0.0772095,0.5523176
				c0.0765381,0.2716389,0.2874527,0.4847918,0.5582581,0.5641966c0.1465836,0.0425158,0.2987671,0.0625391,0.451355,0.0593891
				c0.1389008,0.0024204,0.2772827-0.0176344,0.40979-0.0593891c0.1226349-0.0448484,0.2340698-0.1157665,0.3266373-0.2078619
				c0.0967636-0.1083059,0.1696243-0.2357941,0.2137985-0.3741503c0.0540009-0.1931505,0.0780334-0.3934469,0.0712662-0.5938902
				v-2.535912c-0.1087418-0.0250654-0.2158508-0.0567994-0.320694-0.0950222
				c-0.096138-0.0345922-0.1878433-0.0804424-0.2731934-0.1365943v-0.261312h1.6807098V6.268466
				c-0.0826416,0.0587211-0.1724548,0.1066217-0.2672501,0.1425338L76.349968,6.500083v2.5477896
				c0.1135101,0.8683643-0.4984207,1.6643305-1.3667831,1.7778406c-0.1258087,0.0164461-0.2531433,0.0177317-0.3792572,0.0038309
				c-0.5015488,0.0302658-0.9983139-0.1122675-1.4075165-0.4038458c-0.354538-0.337842-0.5359573-0.8187265-0.4929276-1.3065596
				V6.4466329c-0.097229-0.0138717-0.1927567-0.037755-0.2850647-0.0712676
				c-0.0946655-0.033186-0.1861115-0.0749302-0.2731934-0.1247163L72.1452103,5.9893384z"/>
			<path class="st3" d="M78.6601868,10.2891035c0.0952377,0.0197563,0.1886139,0.0475712,0.279129,0.0831442l0.2375565,0.1128397
				v0.255373h-2.0904999v-0.255373c0.0895615-0.0545883,0.1852493-0.0984421,0.2850647-0.1306553
				c0.0890808-0.0296946,0.1781693-0.0475111,0.2672501-0.0712671V6.4466329
				c-0.1932831-0.03581-0.3796921-0.1019535-0.5523148-0.1959839V5.989337H78.1138h0.3622742h0.3860245h0.3800888
				c0.232666-0.0023518,0.4645157,0.0276303,0.6889191,0.0890832c0.1952667,0.0485239,0.3789673,0.1353259,0.5404434,0.255373
				c0.1502457,0.1106172,0.2723236,0.2550721,0.3563385,0.4216619c0.0853806,0.1861706,0.1279984,0.3890982,0.1247177,0.5938902
				c0.0130539,0.2863379-0.0706177,0.5687408-0.2375488,0.8017521c-0.1660004,0.2181463-0.3935394,0.3815622-0.6532822,0.4691734
				c0.1840973,0.2850676,0.3741531,0.5938911,0.5938873,0.8670797s0.421669,0.5938902,0.6473389,0.8552027l0.3266373,0.2138004
				v0.231617h-1.1343307l-0.291008-0.2197399c-0.2178574-0.2639437-0.4032898-0.5530529-0.5523148-0.8611412
				c-0.158371-0.328619-0.3009033-0.6493206-0.4276047-0.9621029H78.678009L78.6601868,10.2891035z M78.9987106,6.3813057
				c-0.1139145-0.0032125-0.2277679,0.0087709-0.3385239,0.0356331v1.8945103h0.40979
				c0.224556,0.0057831,0.4408035-0.085042,0.5938873-0.2494335c0.1805267-0.2009377,0.2706833-0.4671445,0.2494354-0.7364244
				c0.0035172-0.1457582-0.020668-0.2908597-0.0712662-0.4276004c-0.038147-0.1130137-0.1034088-0.2149644-0.1900482-0.2969451
				c-0.08181-0.0754814-0.1790924-0.1322279-0.2850647-0.1662898C79.2480087,6.3965797,79.1235657,6.3785148,78.9987106,6.3813057z"
				/>
			<path class="st3" d="M83.3519287,10.7404604h-1.6747742v-0.255373c0.0734634-0.050127,0.1533737-0.0900822,0.2375488-0.1187782
				c0.0792694-0.0330029,0.1606064-0.0607767,0.2434998-0.0831442l1.7816696-4.3710332h0.4751129l1.7044678,4.3710332
				c0.0926514,0.0222111,0.183876,0.0499754,0.2731934,0.0831442c0.0841751,0.0286961,0.1640854,0.0686512,0.2375488,0.1187782
				v0.255373h-2.1261292v-0.255373c0.0910034-0.0442219,0.1841736-0.0838633,0.279129-0.1187782
				c0.1009598-0.0356331,0.1959839-0.0593891,0.2850647-0.0831442l-0.3979034-1.0452471h-1.5084763l-0.3979034,1.0749407
				c0.2092819,0.0277052,0.411087,0.0963154,0.5938873,0.2019234L83.3519287,10.7404604z M83.3519287,8.7687445h1.1877823
				l-0.4513626-1.3124976l-0.130661-0.5938902l0,0l-0.148468,0.5938902L83.3519287,8.7687445z"/>
			<path class="st3" d="M89.9500504,5.9893384h1.6807098V6.268466c-0.0905533,0.0662503-0.1858368,0.1257973-0.2850647,0.1781669
				c-0.0928345,0.0491333-0.1903076,0.0889211-0.291008,0.1187787v4.270071h-0.593895l-2.3755569-3.4623799l-0.2672501-0.5226231
				l0,0l0.0653305,0.5463791v2.8269181c0.1025467,0.027462,0.202034,0.0652704,0.2969437,0.1128387
				c0.1014786,0.0410681,0.1972733,0.0949574,0.2850647,0.1603508v0.255373h-1.6747742v-0.267252
				c0.0832825-0.060915,0.1728821-0.1126833,0.2672501-0.1544113c0.0969086-0.0492268,0.1983414-0.0890036,0.3028793-0.1187792
				V6.511961l-0.2731934-0.1187782l-0.296936-0.1247168V6.007154h1.4669113l1.9420242,2.8269181l0.3147583,0.5938902l0,0V8.8340721
				v-2.280539c-0.1083298-0.0348377-0.2136002-0.078537-0.3147583-0.1306553
				c-0.0943604-0.0464635-0.1838837-0.1021657-0.2672501-0.1662898L89.9500504,5.9893384z"/>
			<path class="st3" d="M95.4316559,9.3151226h0.2672501c0,0.0712671,0.0356293,0.1603508,0.0534439,0.2613125
				s0.0297012,0.2138004,0.0415802,0.3266392c0.011879,0.1128378,0,0.231617,0,0.3444557c0,0.1128397,0,0.2138014,0,0.3028851
				c-0.1813812,0.1097832-0.3836441,0.1805744-0.593895,0.2078609c-0.2411346,0.0428915-0.4855499,0.0647497-0.7304764,0.0653286
				c-0.3457184,0.003933-0.6900558-0.0441141-1.021492-0.1425333c-0.2905807-0.0825787-0.5572815-0.2332354-0.7779999-0.4394789
				c-0.2220306-0.2144089-0.3925858-0.4763393-0.4988632-0.766118c-0.1268082-0.3582363-0.1871872-0.7366028-0.1781693-1.1165133
				c-0.0091171-0.3795362,0.0575104-0.7570848,0.1959839-1.1105752c0.1154175-0.2876768,0.2916718-0.5469961,0.5166855-0.76018
				c0.2183075-0.2001681,0.4777679-0.3501654,0.7601776-0.4394784c0.2922287-0.0910611,0.5966263-0.1371202,0.9027176-0.1365948
				c0.2726669-0.0040731,0.5450974,0.0178013,0.8136215,0.0653286c0.20504,0.0293608,0.4049606,0.0873356,0.593895,0.1722288
				c0,0.0712671,0,0.1662893,0,0.2791276c0,0.1128387,0,0.231617-0.0356369,0.3563347l-0.0534439,0.3622732
				c0,0.1187787-0.0415802,0.2197399-0.0593948,0.3028846h-0.2850647l-0.3741531-1.0214911
				c-0.0613937-0.0309958-0.1277084-0.0510907-0.1959839-0.0593891c-0.0929413-0.0060978-0.1861877-0.0060978-0.279129,0
				c-0.1785202-0.0016947-0.3551254,0.0368743-0.5166855,0.1128392c-0.1745148,0.0793018-0.3258133,0.2019782-0.4394836,0.3563342
				c-0.13871,0.1865029-0.2395782,0.398344-0.2969437,0.6235847c-0.0766449,0.3006797-0.1126022,0.6102853-0.1068954,0.9205289
				c-0.0329895,0.5252838,0.1022186,1.0474205,0.3860245,1.4906654c0.239212,0.3410625,0.6348801,0.5377741,1.0511932,0.5226231
				c0.1077194,0.0036135,0.2154694-0.0063629,0.320694-0.0296946c0.0681-0.0093756,0.1320419-0.0382509,0.1841049-0.0831442
				L95.4316559,9.3151226z"/>
			<path class="st3" d="M99.8917694,5.9893384c0,0.2078614,0,0.4157233-0.0475159,0.6354623
				c-0.0475082,0.2197385-0.0534439,0.4157238-0.0890808,0.5938902h-0.279129l-0.3088226-0.7958131h-1.2709274v1.6628928h0.8314438
				l0.2969437-0.5226235h0.2375641c0.0250473,0.2446609,0.0369492,0.4904895,0.0356293,0.736424
				c0.0008392,0.253829-0.0110626,0.5075417-0.0356293,0.7601795h-0.2137985L98.751503,8.5252504h-0.8314438v1.7816706h1.3243713
				l0.3622742-0.8611412h0.2494278c0.0249863,0.0958719,0.0448074,0.1930122,0.0593948,0.2910061
				c0,0.1069002,0.0297012,0.2197399,0.0415802,0.3325777c0.011879,0.1128387,0,0.231617,0.0296936,0.3503952
				c0.0296936,0.1187792,0,0.2256784,0,0.3266392h-3.6702347v-0.2613106c0.1746292-0.09552,0.3629227-0.1636229,0.5582581-0.2019224
				V6.4466329c-0.0985413-0.019556-0.1957397-0.0453429-0.291008-0.0772052
				c-0.0920181-0.0326257-0.1813736-0.0723381-0.2672501-0.1187787V5.989337L99.8917694,5.9893384z"/>
		</g>
	</g>
	<g>
		<path class="st3" d="M10.3593531,6.679553c-1.7344837,0-3.140594-1.4061103-3.140594-3.1405938
			c0-1.0604641,0.52913-1.9938527,1.3340487-2.5625224C7.6712837,0.3624696,6.6016431,0,5.445951,0
			C2.4382358,0,0,2.4382358,0,5.445951c0,3.0076699,2.4382358,5.4459052,5.445951,5.4459052
			c2.5971589,0,4.7658591-1.8195448,5.3105979-4.2523375C10.6250648,6.6562972,10.4954252,6.679553,10.3593531,6.679553z"/>
		<circle class="st2" cx="10.3593626" cy="3.5389431" r="3.1406143"/>
	</g>
</g>
</svg>
