<?xml version="1.0" encoding="utf-8"?>
<!-- Generator: Adobe Illustrator 24.1.0, SVG Export Plug-In . SVG Version: 6.00 Build 0)  -->
<svg version="1.1" id="Capa_1" xmlns="http://www.w3.org/2000/svg" xmlns:xlink="http://www.w3.org/1999/xlink" x="0px" y="0px"
	 viewBox="0 0 225.1 54.4" style="enable-background:new 0 0 225.1 54.4;" xml:space="preserve">
<style type="text/css">
	.st0{fill:#333333;}
	.st1{fill:#0097D7;}
	.st2{filter:url(#Adobe_OpacityMaskFilter);}
	.st3{fill-rule:evenodd;clip-rule:evenodd;fill:#FFFFFF;}
	.st4{mask:url(#mask-2_2_);fill-rule:evenodd;clip-rule:evenodd;fill:#0097D7;}
	.st5{filter:url(#Adobe_OpacityMaskFilter_1_);}
	.st6{mask:url(#mask-4_2_);fill-rule:evenodd;clip-rule:evenodd;fill:#0097D7;}
	.st7{filter:url(#Adobe_OpacityMaskFilter_2_);}
	.st8{mask:url(#mask-6_2_);fill-rule:evenodd;clip-rule:evenodd;fill:#0097D7;}
	.st9{fill-rule:evenodd;clip-rule:evenodd;fill:#0097D7;}
	.st10{filter:url(#Adobe_OpacityMaskFilter_3_);}
	.st11{mask:url(#mask-8_2_);fill-rule:evenodd;clip-rule:evenodd;fill:#0097D7;}
	.st12{filter:url(#Adobe_OpacityMaskFilter_4_);}
	.st13{mask:url(#mask-10_2_);fill-rule:evenodd;clip-rule:evenodd;fill:#0097D7;}
</style>
<g>
	<path class="st0" d="M6,6.2h4.5v0.2c-0.4,0-0.7,0.1-0.9,0.2C9.4,6.7,9.3,6.8,9.2,7C9.1,7.2,9.1,7.6,9.1,8.2c0,0.2,0,0.4,0,0.8
		l0,0.2C8.9,9.1,8.8,9.1,8.7,9.1c-0.1,0-0.2,0.1-0.4,0.2C7.9,9.5,7.4,9.7,6.9,9.9s-1.1,0.2-1.7,0.2c-0.8,0-1.6-0.1-2.2-0.4
		S1.8,9,1.4,8.5C1,8.1,0.8,7.6,0.6,7S0.4,5.9,0.4,5.3c0-0.8,0.1-1.6,0.5-2.3s0.7-1.3,1.3-1.8c0.4-0.4,1-0.7,1.5-0.9S4.8,0,5.5,0
		c0.4,0,0.7,0,1,0.1c0.3,0.1,0.7,0.2,1,0.3L8,0.6c0.1,0,0.2,0.1,0.3,0.1c0.2,0,0.3-0.2,0.4-0.5h0.2L9,3.3l-0.2,0
		C8.5,2.3,8.1,1.5,7.5,1C7,0.5,6.4,0.2,5.7,0.2c-0.6,0-1,0.1-1.4,0.3C3.9,0.8,3.5,1.2,3.1,1.7c-0.7,1-1.1,2.2-1.1,3.6
		c0,0.6,0.1,1.2,0.3,1.8c0.2,0.6,0.4,1.1,0.7,1.5c0.6,0.8,1.4,1.3,2.3,1.3c0.4,0,0.7-0.1,1-0.2S7,9.3,7.2,9c0.3-0.4,0.4-0.8,0.4-1.3
		c0-0.5-0.1-0.8-0.4-1C7,6.5,6.5,6.4,6,6.4V6.2z M18.9,8c-0.1,0.3-0.2,0.5-0.4,0.7C18.3,9,18,9.3,17.6,9.4c-0.4,0.1-0.9,0.2-1.4,0.2
		c-0.5,0-1-0.1-1.3-0.2c-0.3-0.2-0.6-0.4-0.7-0.7C14,8.5,14,8.2,14,7.9c0-0.3,0-0.8,0-1.4V2.5c0-0.5,0-0.9,0.1-1.1
		c0.1-0.2,0.2-0.4,0.3-0.6c0.1-0.1,0.3-0.2,0.4-0.3c0.2-0.1,0.4-0.1,0.6-0.1V0.2h-4.5v0.2c0.3,0,0.5,0,0.6,0.1s0.3,0.1,0.4,0.3
		c0.2,0.2,0.3,0.3,0.3,0.6c0.1,0.2,0.1,0.6,0.1,1.1v5.2c0,0.5,0,0.8-0.1,1.1c-0.1,0.2-0.2,0.4-0.3,0.6c-0.3,0.3-0.6,0.4-1.1,0.4v0.2
		h8.4L19.4,7l-0.2,0C19.1,7.4,19,7.7,18.9,8z M29.1,1.8c0.8,0.9,1.2,2,1.2,3.2c0,0.6-0.1,1.2-0.3,1.7s-0.5,1.1-0.9,1.5
		c-0.5,0.6-1.1,1-1.8,1.3c-0.7,0.3-1.4,0.5-2.2,0.5c-0.7,0-1.5-0.2-2.1-0.5c-0.7-0.3-1.3-0.7-1.8-1.3c-0.4-0.4-0.7-0.9-0.9-1.5
		S20,5.7,20,5.1c0-0.8,0.2-1.5,0.5-2.2c0.3-0.7,0.8-1.3,1.5-1.8c0.5-0.4,1-0.7,1.6-0.9C24.1,0.1,24.7,0,25.2,0
		c0.7,0,1.4,0.2,2.1,0.5S28.6,1.2,29.1,1.8z M28.6,5.2c0-0.8-0.1-1.5-0.3-2.1c-0.2-0.7-0.5-1.2-0.9-1.7c-0.3-0.4-0.6-0.7-1-0.8
		c-0.4-0.2-0.8-0.3-1.3-0.3c-0.5,0-0.9,0.1-1.3,0.3c-0.4,0.2-0.7,0.5-1,0.8c-0.4,0.5-0.7,1-0.9,1.7c-0.2,0.7-0.3,1.4-0.3,2.2
		c0,1.4,0.4,2.5,1.1,3.4c0.3,0.4,0.7,0.7,1.1,0.9c0.4,0.2,0.8,0.3,1.3,0.3c0.5,0,0.9-0.1,1.3-0.3c0.4-0.2,0.7-0.5,1.1-0.9
		C28.3,7.7,28.6,6.6,28.6,5.2z M39.8,6.1c0.2,0.4,0.3,0.8,0.3,1.2c0,0.4-0.1,0.8-0.3,1.2c-0.2,0.4-0.4,0.6-0.7,0.9
		c-0.3,0.2-0.6,0.3-1,0.4c-0.4,0.1-0.9,0.1-1.6,0.1h-5.1V9.7c0.3,0,0.5-0.1,0.7-0.1c0.2-0.1,0.3-0.2,0.4-0.3
		c0.2-0.2,0.3-0.3,0.3-0.6c0.1-0.2,0.1-0.6,0.1-1.1V2.5c0-0.5,0-0.8-0.1-1.1S32.6,1,32.5,0.8c-0.1-0.1-0.3-0.2-0.4-0.3
		s-0.4-0.1-0.7-0.1V0.2H36c0.5,0,0.8,0,0.9,0c0.5,0,1,0.2,1.3,0.4c0.3,0.2,0.5,0.4,0.7,0.7c0.2,0.3,0.3,0.6,0.3,1
		c0,0.6-0.2,1.1-0.6,1.5c-0.1,0.1-0.3,0.3-0.5,0.4c-0.2,0.1-0.4,0.2-0.8,0.3c0.5,0.1,0.8,0.2,1,0.2s0.5,0.2,0.7,0.4
		C39.4,5.5,39.7,5.8,39.8,6.1z M34.4,4.6h0.6c0.3,0,0.5,0,0.8-0.1c0.2,0,0.4-0.1,0.6-0.1c0.2-0.1,0.3-0.1,0.4-0.2
		c0.2-0.2,0.4-0.4,0.6-0.7c0.1-0.3,0.2-0.6,0.2-0.9c0-0.4-0.1-0.7-0.2-1C37.2,1.3,37,1,36.8,0.9c-0.2-0.2-0.4-0.3-0.7-0.3
		c-0.2-0.1-0.6-0.1-1.1-0.1h-0.7V4.6z M38.4,7.3c0-0.4-0.1-0.8-0.2-1.1c-0.1-0.4-0.3-0.6-0.5-0.8c-0.4-0.3-1.1-0.5-2-0.5h-1.3v2.9
		c0,0.4,0,0.6,0.1,0.9c0.1,0.2,0.1,0.4,0.2,0.5c0.2,0.3,0.7,0.5,1.2,0.5c0.8,0,1.4-0.2,1.8-0.6C38.2,8.6,38.4,8,38.4,7.3z M50.2,9.6
		c0.1,0,0.4,0.1,0.7,0.1v0.2h-4.6V9.7c0.4,0,0.7-0.1,0.9-0.2c0.3-0.2,0.4-0.4,0.4-0.8c0-0.2-0.1-0.5-0.2-0.8l-0.1-0.3L46.5,6h-3.1
		l-0.4,1l-0.2,0.4c-0.2,0.5-0.3,0.9-0.3,1.2c0,0.2,0,0.3,0.1,0.5c0.1,0.2,0.2,0.3,0.3,0.4c0.2,0.1,0.4,0.2,0.7,0.2v0.2h-3.2V9.7
		c0.2,0,0.5-0.1,0.7-0.2c0.2-0.1,0.4-0.3,0.5-0.5c0.2-0.2,0.3-0.4,0.4-0.7c0.1-0.3,0.3-0.8,0.6-1.4l2.6-6.6h0.4l3.1,7.4
		c0.2,0.6,0.4,1,0.5,1.2c0.1,0.2,0.3,0.4,0.4,0.5C49.9,9.5,50,9.5,50.2,9.6z M46.4,5.7L45,2.1l-1.4,3.6H46.4z M59.1,8
		c-0.1,0.3-0.2,0.5-0.4,0.7c-0.2,0.3-0.6,0.5-0.9,0.7c-0.4,0.1-0.9,0.2-1.4,0.2c-0.5,0-1-0.1-1.3-0.2c-0.3-0.2-0.6-0.4-0.7-0.7
		c-0.1-0.2-0.2-0.4-0.2-0.7s0-0.8,0-1.4V2.5c0-0.5,0-0.9,0.1-1.1c0.1-0.2,0.2-0.4,0.3-0.6c0.1-0.1,0.3-0.2,0.4-0.3
		c0.2-0.1,0.4-0.1,0.6-0.1V0.2H51v0.2c0.3,0,0.5,0,0.6,0.1c0.2,0.1,0.3,0.1,0.4,0.3c0.2,0.2,0.3,0.3,0.3,0.6
		c0.1,0.2,0.1,0.6,0.1,1.1v5.2c0,0.5,0,0.8-0.1,1.1c-0.1,0.2-0.2,0.4-0.3,0.6c-0.3,0.3-0.6,0.4-1.1,0.4v0.2h8.4L59.5,7l-0.2,0
		C59.3,7.4,59.2,7.7,59.1,8z M63.4,0.4c0.3,0,0.5,0.1,0.7,0.1c0.2,0.1,0.3,0.2,0.4,0.3c0.2,0.2,0.3,0.3,0.3,0.6s0.1,0.6,0.1,1.1v5.2
		c0,0.5,0,0.8-0.1,1.1c-0.1,0.2-0.2,0.4-0.3,0.6c-0.1,0.1-0.3,0.2-0.4,0.3c-0.2,0.1-0.4,0.1-0.7,0.1v0.2h4.5V9.7
		c-0.3,0-0.6-0.1-0.8-0.2c-0.2-0.1-0.3-0.2-0.5-0.4c-0.1-0.1-0.1-0.3-0.2-0.5c0-0.2-0.1-0.5-0.1-0.9V2.5c0-0.3,0-0.6,0-0.9
		c0-0.3,0.2-0.6,0.3-0.8c0.1-0.1,0.3-0.2,0.4-0.3c0.2-0.1,0.4-0.1,0.7-0.1V0.2h-4.5V0.4z M75.6,0.4c0.3,0,0.5,0.1,0.7,0.1
		c0.2,0.1,0.3,0.2,0.4,0.3C76.8,1,76.9,1.2,77,1.4C77,1.6,77,2,77,2.5v5.1l-5.7-7.3h-2.7v0.2c0.3,0,0.5,0.1,0.7,0.1
		c0.2,0.1,0.3,0.2,0.4,0.3C69.9,1,70,1.2,70,1.4c0.1,0.2,0.1,0.6,0.1,1.1v5.2c0,0.5,0,0.8-0.1,1.1c-0.1,0.2-0.2,0.4-0.3,0.6
		c-0.1,0.1-0.3,0.2-0.4,0.3c-0.2,0.1-0.4,0.1-0.7,0.1v0.2h3.2V9.7c-0.3,0-0.5-0.1-0.7-0.1c-0.2-0.1-0.3-0.2-0.4-0.3
		c-0.1-0.2-0.2-0.3-0.3-0.6c-0.1-0.2-0.1-0.6-0.1-1.1V1.5L77,9.8h0.3V2.4c0-0.5,0-0.8,0.1-1.1c0.1-0.2,0.2-0.4,0.3-0.6
		c0.3-0.3,0.6-0.4,1.1-0.4V0.2h-3.2V0.4z M83.8,4.2l-1-0.5c-1-0.5-1.5-1.1-1.5-1.9c0-0.2,0-0.4,0.1-0.6c0.1-0.2,0.2-0.4,0.3-0.5
		c0.3-0.4,0.7-0.5,1.2-0.5c0.4,0,0.7,0.1,1,0.3c0.3,0.2,0.5,0.4,0.8,0.8C84.8,1.5,84.9,1.7,85,2c0.1,0.2,0.2,0.6,0.3,1h0.2l0-2.8
		h-0.2c-0.1,0.2-0.2,0.4-0.3,0.4c-0.1,0-0.1,0-0.2,0c-0.1,0-0.2-0.1-0.5-0.2c-0.3-0.1-0.6-0.2-0.8-0.3C83.3,0,83.1,0,82.9,0
		c-0.7,0-1.3,0.2-1.8,0.7c-0.3,0.3-0.5,0.6-0.7,0.9c-0.2,0.4-0.2,0.7-0.2,1.1c0,0.6,0.2,1.2,0.6,1.6c0.1,0.2,0.3,0.3,0.6,0.5
		c0.2,0.2,0.6,0.3,1,0.6c0.5,0.3,0.9,0.5,1.1,0.6c0.2,0.2,0.4,0.3,0.6,0.5c0.1,0.2,0.2,0.4,0.3,0.6c0.1,0.2,0.1,0.5,0.1,0.7
		c0,0.6-0.2,1-0.5,1.4c-0.4,0.4-0.8,0.5-1.3,0.5c-0.8,0-1.4-0.4-1.9-1.2c-0.3-0.4-0.5-1-0.7-1.7l-0.2,0l0,2.9H80
		c0.1-0.2,0.2-0.3,0.5-0.3c0.1,0,0.1,0,0.2,0c0.1,0,0.2,0.1,0.5,0.2c0.6,0.2,1.1,0.4,1.7,0.4c0.7,0,1.2-0.1,1.7-0.4
		c0.5-0.3,0.9-0.7,1.1-1.3C85.9,8,86,7.6,86,7.1c0-0.6-0.2-1.2-0.6-1.7C85.1,5,84.5,4.6,83.8,4.2z M94,0.4c0.3,0,0.5,0.1,0.7,0.1
		c0.2,0.1,0.3,0.2,0.4,0.3c0.1,0.2,0.2,0.3,0.3,0.6c0.1,0.2,0.1,0.6,0.1,1.1v3.9c0,0.7,0,1.2,0,1.4c0,0.3-0.1,0.5-0.2,0.7
		C95.2,8.7,95,8.9,94.8,9c-0.3,0.3-0.7,0.5-1.1,0.6c-0.4,0.1-0.9,0.2-1.4,0.2c-0.5,0-0.9-0.1-1.2-0.2c-0.3-0.2-0.6-0.4-0.8-0.8
		C90.1,8.6,90,8.3,89.9,8c0-0.3-0.1-0.8-0.1-1.4v-4c0-0.6,0-1,0.1-1.2C90,1.2,90.1,1,90.3,0.8c0.1-0.1,0.3-0.2,0.4-0.3
		s0.4-0.1,0.7-0.1V0.2h-4.5v0.2c0.3,0,0.5,0.1,0.7,0.1c0.2,0.1,0.3,0.2,0.4,0.3c0.2,0.2,0.3,0.3,0.3,0.6s0.1,0.6,0.1,1.1v4.3
		c0,0.5,0,0.9,0,1.1c0.1,0.6,0.3,1.1,0.7,1.4c0.6,0.6,1.6,0.8,2.9,0.8c1.3,0,2.2-0.3,2.9-0.9c0.3-0.3,0.5-0.5,0.6-0.9
		c0.1-0.3,0.2-0.8,0.2-1.5V2.5c0-0.5,0-0.8,0.1-1.1C95.9,1.2,96,1,96.1,0.8c0.1-0.1,0.3-0.2,0.4-0.3c0.2-0.1,0.4-0.1,0.7-0.1V0.2H94
		V0.4z M116.3,9.6c0.1,0,0.4,0.1,0.7,0.1v0.2h-4.6V9.7c0.4,0,0.7-0.1,0.9-0.2c0.3-0.2,0.4-0.4,0.4-0.8c0-0.2-0.1-0.5-0.2-0.8
		l-0.1-0.3L112.6,6h-3.1l-0.4,1L109,7.4c-0.2,0.5-0.3,0.9-0.3,1.2c0,0.2,0,0.3,0.1,0.5c0.1,0.2,0.2,0.3,0.3,0.4
		c0.2,0.1,0.4,0.2,0.7,0.2v0.2h-2.9h-0.2h-2.1c-0.1-0.3-0.2-0.4-0.2-0.5l-0.5-1.1c-0.3-0.7-0.6-1.3-0.9-1.8c-0.3-0.5-0.6-0.9-0.8-1
		c-0.1-0.1-0.3-0.2-0.4-0.2c-0.1,0-0.3-0.1-0.5-0.1h-0.3v2.5c0,0.5,0,0.8,0.1,1.1c0.1,0.2,0.2,0.4,0.3,0.6c0.1,0.1,0.3,0.2,0.4,0.3
		c0.2,0.1,0.4,0.1,0.7,0.1v0.2h-4.5V9.7c0.3,0,0.5-0.1,0.7-0.1c0.2-0.1,0.3-0.2,0.4-0.3c0.2-0.2,0.3-0.3,0.3-0.6
		c0.1-0.2,0.1-0.6,0.1-1.1V2.5c0-0.5,0-0.8-0.1-1.1S99,1,98.9,0.8c-0.1-0.1-0.3-0.2-0.4-0.3c-0.2-0.1-0.4-0.1-0.7-0.1V0.2h3.4
		c0.6,0,0.9,0,1.1,0c0.7,0,1.3,0.1,1.7,0.3c0.5,0.2,0.8,0.5,1.1,0.8c0.3,0.4,0.4,0.8,0.4,1.3c0,0.7-0.3,1.3-0.8,1.8
		c-0.2,0.1-0.4,0.2-0.6,0.3c-0.2,0.1-0.5,0.2-0.8,0.2c0.3,0.1,0.5,0.2,0.6,0.4c0.1,0.1,0.2,0.2,0.3,0.4c0.1,0.1,0.2,0.4,0.4,0.8
		c0.4,0.9,0.7,1.5,0.9,1.9c0.2,0.4,0.4,0.7,0.5,0.9c0.1,0.1,0.2,0.2,0.3,0.3c0.1,0,0.2,0.1,0.3,0.1c0.2,0,0.4-0.1,0.5-0.2
		c0.2-0.1,0.4-0.3,0.5-0.5c0.2-0.2,0.3-0.4,0.4-0.7c0.1-0.3,0.3-0.8,0.6-1.4l2.6-6.6h0.4l3.1,7.4c0.2,0.6,0.4,1,0.5,1.2
		c0.1,0.2,0.3,0.4,0.4,0.5C116,9.5,116.1,9.5,116.3,9.6z M103,4.5c0.5-0.5,0.7-1.1,0.7-1.7c0-0.4-0.1-0.7-0.2-1
		c-0.1-0.3-0.3-0.6-0.6-0.8c-0.2-0.2-0.4-0.3-0.7-0.3c-0.3-0.1-0.7-0.1-1.2-0.1h-0.3V5h0.3c0.6,0,1,0,1.2-0.1
		C102.6,4.8,102.8,4.7,103,4.5z M112.5,5.7L111,2.1l-1.4,3.6H112.5z M124.1,0.4c0.3,0,0.5,0.1,0.7,0.1c0.2,0.1,0.3,0.2,0.4,0.3
		c0.1,0.2,0.2,0.3,0.3,0.6c0.1,0.2,0.1,0.6,0.1,1.1v5.1l-5.7-7.3h-2.7v0.2c0.3,0,0.5,0.1,0.7,0.1c0.2,0.1,0.3,0.2,0.4,0.3
		c0.1,0.2,0.2,0.3,0.3,0.6c0.1,0.2,0.1,0.6,0.1,1.1v5.2c0,0.5,0,0.8-0.1,1.1c-0.1,0.2-0.2,0.4-0.3,0.6c-0.1,0.1-0.3,0.2-0.4,0.3
		c-0.2,0.1-0.4,0.1-0.7,0.1v0.2h3.2V9.7c-0.3,0-0.5-0.1-0.7-0.1c-0.2-0.1-0.3-0.2-0.4-0.3c-0.1-0.2-0.2-0.3-0.3-0.6
		c-0.1-0.2-0.1-0.6-0.1-1.1V1.5l6.6,8.3h0.3V2.4c0-0.5,0-0.8,0.1-1.1c0.1-0.2,0.2-0.4,0.3-0.6c0.3-0.3,0.6-0.4,1.1-0.4V0.2h-3.2V0.4
		z M136.1,8.6c-0.2,0.3-0.6,0.6-1,0.8c-0.4,0.2-0.9,0.3-1.4,0.3c-1.1,0-1.9-0.4-2.6-1.1c-0.4-0.4-0.6-0.9-0.8-1.5s-0.3-1.3-0.3-2
		c0-0.9,0.1-1.6,0.4-2.3c0.2-0.5,0.4-0.9,0.7-1.3c0.3-0.4,0.6-0.7,1-0.9c0.4-0.2,0.8-0.3,1.4-0.3c0.4,0,0.7,0.1,0.9,0.2
		s0.6,0.3,0.8,0.5c0.3,0.3,0.6,0.7,0.8,1.1c0.1,0.2,0.2,0.6,0.4,1c0,0.1,0.1,0.2,0.1,0.3h0.2l-0.1-3.1h-0.2c0,0.1-0.1,0.2-0.1,0.2
		c-0.1,0.1-0.2,0.1-0.3,0.1c-0.1,0-0.2,0-0.3-0.1l-0.6-0.2C134.6,0.1,134,0,133.4,0c-0.6,0-1.2,0.1-1.8,0.3
		c-0.6,0.2-1.1,0.5-1.5,0.8c-0.6,0.4-1,1-1.3,1.7c-0.3,0.7-0.5,1.5-0.5,2.4c0,1.1,0.3,2.1,0.8,2.9c0.5,0.8,1.3,1.4,2.2,1.7
		c0.6,0.2,1.2,0.3,1.9,0.3c0.7,0,1.3-0.1,1.8-0.3c0.5-0.2,0.9-0.5,1.2-1c0.3-0.4,0.5-1,0.6-1.8l-0.2,0
		C136.6,7.7,136.4,8.2,136.1,8.6z M146,7c-0.1,0.4-0.2,0.8-0.3,1c-0.1,0.3-0.2,0.5-0.4,0.7c-0.2,0.3-0.5,0.5-0.9,0.7
		c-0.4,0.1-0.9,0.2-1.4,0.2c-0.5,0-1-0.1-1.3-0.2c-0.3-0.2-0.6-0.4-0.7-0.7c-0.1-0.2-0.2-0.4-0.2-0.7c0-0.3,0-0.8,0-1.4V4.9h0.4
		c0.3,0,0.6,0,0.9,0.1c0.2,0.1,0.4,0.2,0.5,0.3c0.1,0.2,0.3,0.3,0.3,0.6c0.1,0.2,0.1,0.5,0.2,0.9h0.2l0-3.8L143,3
		c0,0.4-0.1,0.6-0.2,0.8c-0.1,0.2-0.2,0.3-0.3,0.5c-0.1,0.1-0.3,0.2-0.5,0.3c-0.2,0.1-0.5,0.1-1,0.1h-0.4V0.5h1.6
		c0.5,0,0.9,0,1.2,0.1c0.3,0.1,0.6,0.2,0.8,0.3c0.3,0.2,0.5,0.4,0.6,0.7c0.1,0.3,0.2,0.6,0.3,1l0.2,0l-0.1-2.3h-7.6v0.2
		c0.3,0,0.5,0.1,0.7,0.1c0.2,0.1,0.3,0.2,0.4,0.3c0.1,0.2,0.2,0.3,0.3,0.6c0.1,0.2,0.1,0.6,0.1,1.1v5.2c0,0.5,0,0.8-0.1,1.1
		c-0.1,0.2-0.2,0.4-0.3,0.6c-0.1,0.1-0.3,0.2-0.4,0.3c-0.2,0.1-0.4,0.1-0.7,0.1v0.2h8.4l0.1-2.8L146,7z"/>
	<path class="st1" d="M3.7,36.4L0,46.7h0.2l1.1-3h4.9l1.1,3h0.2L3.7,36.4L3.7,36.4z M1.3,43.5l2.4-6.9l2.4,6.9H1.3z"/>
	<path class="st1" d="M12.5,46.2l-2.9-0.4c-0.4-0.1-0.8-0.2-0.8-0.8c0-0.5,0.4-0.8,0.7-1c0.3,0.1,0.8,0.2,1.3,0.2
		c1.8,0,2.4-0.9,2.4-2.2c0-1-0.3-1.7-1.1-2l1.8,0v-0.1h-2.3c-0.2,0-0.5-0.1-0.8-0.1c-1.8,0-2.4,0.9-2.4,2.2c0,0.9,0.2,1.6,0.9,1.9
		C9,44.2,8.6,44.5,8.6,45c0,0.7,0.5,0.9,1,1c-1.2,0.3-1.9,1-1.9,2.2c0,1.3,0.9,2,3,2c2.1,0,3.5-0.8,3.5-2.3
		C14.2,46.8,13.6,46.4,12.5,46.2z M8.6,42c0-1.1,0.4-2.1,2.2-2.1c1.8,0,2.2,1,2.2,2.1c0,1.1-0.4,2.1-2.2,2.1C9,44.1,8.6,43.1,8.6,42
		z M10.7,50c-1.8,0-2.8-0.6-2.8-1.9c0-1.5,1.3-2,2-2.2l2.6,0.3c1.1,0.2,1.6,0.5,1.6,1.5C14.1,49.4,12.5,50,10.7,50z"/>
	<path class="st1" d="M17.7,39.8c-2.2,0-2.8,1.4-2.8,3.5c0,2,0.6,3.5,2.8,3.5c0.7,0,1.6-0.2,2.1-0.3v-0.1c-0.5,0.2-1.2,0.3-2.1,0.3
		c-2.2,0-2.6-1.5-2.6-3.3h5.1v-0.1C20.2,41.3,19.9,39.8,17.7,39.8z M15,43.2c0-1.8,0.4-3.3,2.6-3.3c2.1,0,2.3,1.6,2.3,3.3H15z"/>
	<path class="st1" d="M24.7,39.8c-1.1,0-2.1,0.3-2.7,0.7l0-0.6h-0.1v6.8H22v-6c0.5-0.3,1.5-0.7,2.7-0.7c1.3,0,2.1,0.3,2.1,1.7v5.1
		h0.2v-5.1C26.9,40.3,26.3,39.8,24.7,39.8z"/>
	<path class="st1" d="M29.7,37.6l-0.2,0v2.2l-1.3,0V40h1.3v4.9c0,1.3,0.7,1.9,2.3,1.9h0.1v-0.1h-0.1c-1.3,0-2.2-0.4-2.2-1.7V40h2.6
		v-0.1h-2.6V37.6z"/>
	<path class="st1" d="M36.4,39.8c-2.2,0-2.8,1.4-2.8,3.5c0,2,0.6,3.5,2.8,3.5c0.7,0,1.6-0.2,2.1-0.3v-0.1c-0.5,0.2-1.2,0.3-2.1,0.3
		c-2.2,0-2.6-1.5-2.6-3.3h5.1v-0.1C38.9,41.3,38.6,39.8,36.4,39.8z M33.7,43.2c0-1.8,0.4-3.3,2.6-3.3c2.1,0,2.3,1.6,2.3,3.3H33.7z"
		/>
	<path class="st1" d="M45.9,39.8c-2.2,0-2.8,1.4-2.8,3.5c0,2,0.6,3.5,2.8,3.5c0.7,0,1.6-0.2,2.1-0.3v-0.1c-0.5,0.2-1.2,0.3-2.1,0.3
		c-2.2,0-2.6-1.5-2.6-3.3h5.1v-0.1C48.4,41.3,48.1,39.8,45.9,39.8z M43.3,43.2c0-1.8,0.4-3.3,2.6-3.3c2.1,0,2.3,1.6,2.3,3.3H43.3z"
		/>
	<polygon class="st1" points="54.3,39.9 54.1,39.9 51.8,43 49.5,39.9 49.3,39.9 51.7,43.2 49.1,46.7 49.3,46.7 51.8,43.3 54.3,46.7 
		54.5,46.7 51.9,43.2 	"/>
	<path class="st1" d="M55.1,43.3c0,2,0.6,3.5,2.8,3.5c0.6,0,1.3-0.1,1.8-0.3v-0.1c-0.5,0.1-1,0.3-1.8,0.3c-2.2,0-2.6-1.6-2.6-3.4
		c0-1.7,0.4-3.4,2.6-3.4c0.8,0,1.4,0.1,1.8,0.3V40c-0.6-0.2-1.3-0.3-1.8-0.3C55.6,39.8,55.1,41.3,55.1,43.3z"/>
	<path class="st1" d="M61.6,46.1v-9.7h-0.2v9.7c0,0.5,0.2,0.7,0.8,0.7v-0.1C61.8,46.6,61.6,46.5,61.6,46.1z"/>
	<path class="st1" d="M69,45.9c-0.5,0.3-1.5,0.7-2.7,0.7c-1.3,0-2.1-0.3-2.1-1.7v-5.1H64v5.1c0,1.3,0.6,1.8,2.3,1.8
		c1.1,0,2.1-0.3,2.7-0.7l0,0.6h0.1v-6.8H69V45.9z"/>
	<path class="st1" d="M73.1,43.1c-1.5-0.2-2.1-0.5-2.1-1.5c0-1,0.6-1.6,2.3-1.6c0.8,0,1.4,0.2,1.8,0.3v-0.1
		c-0.6-0.2-1.3-0.3-1.8-0.3c-1.8,0-2.4,0.8-2.4,1.8c0,1,0.4,1.5,2.2,1.7c1.5,0.2,2.1,0.6,2.1,1.7c0,0.9-0.6,1.7-2.5,1.7
		c-0.8,0-1.4-0.2-1.8-0.3v0.2c0.6,0.2,1.3,0.3,1.8,0.3c2.1,0,2.7-0.9,2.7-1.9C75.3,43.8,74.8,43.2,73.1,43.1z"/>
	<path class="st1" d="M77.4,37.8c0-0.1-0.1-0.2-0.2-0.2s-0.2,0.1-0.2,0.2S77,38,77.2,38S77.4,37.9,77.4,37.8z"/>
	<path class="st1" d="M77.2,46.1v-6.3h-0.2v6.2c0,0.5,0.2,0.7,0.8,0.7v-0.1C77.4,46.6,77.2,46.5,77.2,46.1z"/>
	<polygon class="st1" points="81.9,46.4 79.2,39.9 79.1,39.9 81.8,46.8 81.9,46.8 84.7,39.9 84.5,39.9 	"/>
	<path class="st1" d="M88.2,39.8c-2.2,0-2.8,1.5-2.8,3.5c0,1.9,0.6,3.5,2.8,3.5c2.2,0,2.8-1.5,2.8-3.5C91,41.3,90.5,39.8,88.2,39.8z
		 M88.2,46.6c-2.3,0-2.6-1.7-2.6-3.4c0-1.7,0.4-3.4,2.6-3.4c2.3,0,2.6,1.7,2.6,3.4C90.9,44.9,90.5,46.6,88.2,46.6z"/>
	<rect x="102.5" y="34.7" class="st1" width="1" height="15"/>
	<defs>
		<filter id="Adobe_OpacityMaskFilter" filterUnits="userSpaceOnUse" x="117.3" y="26.6" width="24.1" height="27.5">
			<feColorMatrix  type="matrix" values="1 0 0 0 0  0 1 0 0 0  0 0 1 0 0  0 0 0 1 0"/>
		</filter>
	</defs>
	<mask maskUnits="userSpaceOnUse" x="117.3" y="26.6" width="24.1" height="27.5" id="mask-2_2_">
		<g class="st2">
			<polygon id="path-1_2_" class="st3" points="117.3,26.6 141.5,26.6 141.5,54 117.3,54 			"/>
		</g>
	</mask>
	<path id="Fill-1" class="st4" d="M128.4,34.2l3.9,10.2h-7.7L128.4,34.2z M124,54v-0.9c-0.9,0-1.4-0.7-1.4-1.7
		c0-0.4,0.1-1.3,0.3-1.9l1.1-3.4h9.1l1.4,3.6c0.3,0.8,0.5,1.4,0.5,2c0,0.9-0.5,1.4-1.3,1.4V54c1.3,0,2.6-0.2,3.9-0.2
		c1.3,0,2.6,0.2,3.9,0.2v-0.9c-1.4-0.2-1.7-1.4-3.1-4.9l-8.5-21.7h-0.5l-8.3,20.8c-0.7,1.9-2.2,5.5-3.8,5.8V54
		c1.1,0,2.2-0.2,3.3-0.2C121.8,53.9,122.9,54,124,54L124,54z"/>
	<defs>
		<filter id="Adobe_OpacityMaskFilter_1_" filterUnits="userSpaceOnUse" x="141" y="26.6" width="19.3" height="27.8">
			<feColorMatrix  type="matrix" values="1 0 0 0 0  0 1 0 0 0  0 0 1 0 0  0 0 0 1 0"/>
		</filter>
	</defs>
	<mask maskUnits="userSpaceOnUse" x="141" y="26.6" width="19.3" height="27.8" id="mask-4_2_">
		<g class="st5">
			<polygon id="path-3_2_" class="st3" points="141,26.6 160.3,26.6 160.3,54.4 141,54.4 			"/>
		</g>
	</mask>
	<path id="Fill-4" class="st6" d="M149.5,39.2c3.1,0,4.2,1.5,4.2,5.2v6.3c-1,1-2,1.4-3.1,1.4c-3.4,0-5.3-3.8-5.3-7
		C145.2,42.5,146.4,39.2,149.5,39.2 M148.8,54.4c1.3,0,2.1-0.2,2.7-0.6l2.3-2c0.6,1.2,1.7,2.1,3,2.5c0.7-0.9,2.2-2,3.5-2.9l-0.6-0.6
		c-0.3,0.2-0.5,0.3-1.1,0.3c-0.9,0-1.2-0.8-1.2-2.2v-9.6c0-5.6,0.2-9.9,0.2-12.9h-0.8c-1,1.1-3.3,2.2-5.2,2.7V30c1,0.2,2,0.7,2,2.9
		v5.7c-1.3-0.6-2.6-1-4-1c-5,0-8.6,3.1-8.6,8.5C141,50.8,144.1,54.4,148.8,54.4"/>
	<defs>
		<filter id="Adobe_OpacityMaskFilter_2_" filterUnits="userSpaceOnUse" x="160.3" y="37.6" width="15.1" height="16.8">
			<feColorMatrix  type="matrix" values="1 0 0 0 0  0 1 0 0 0  0 0 1 0 0  0 0 0 1 0"/>
		</filter>
	</defs>
	<mask maskUnits="userSpaceOnUse" x="160.3" y="37.6" width="15.1" height="16.8" id="mask-6_2_">
		<g class="st7">
			<polygon id="path-5_2_" class="st3" points="160.3,37.6 175.4,37.6 175.4,54.4 160.3,54.4 			"/>
		</g>
	</mask>
	<path id="Fill-7" class="st8" d="M167.6,39c2.5,0,3.6,1.5,3.6,3.8h-7C164.1,40.7,165.5,39,167.6,39 M169.2,54.4
		c1.6,0,2.9-0.3,3.7-0.6l2.1-3.1l-0.4-0.5c-1.2,0.8-2.6,1.2-4.1,1.2c-4,0-6.8-3.5-6.5-7.3h11.3c0-4.1-3.2-6.6-7.2-6.6
		c-5.3,0-7.9,4.8-7.9,8.4C160.3,49.7,162.9,54.4,169.2,54.4"/>
	<path id="Fill-10" class="st9" d="M185,50.5c0,1.5-1.3,2.4-2.7,2.4c-1.7,0-3.3-1.3-3.7-3.2h-1.4l0.2,3.6c1.2,0.7,3.1,1.1,4.5,1.1
		c3.3,0,6.2-1.5,6.2-5.2c0-5.3-7.7-3.9-7.7-7.6c0-1.6,1.1-2.4,2.7-2.4c2.1,0,3.2,1,3.6,2.9h1.2l0.2-3.5c-1.6-0.5-3.3-1-4.9-1
		c-3.2,0-6.1,1.5-6.1,5.1C177,48.2,185,47.7,185,50.5"/>
	<path id="Fill-12" class="st9" d="M191.3,32.3c0.1,1.5,0.3,4.4,0.3,6.6v12.5c0,0.8-0.3,1.5-1.5,1.7V54c1.1,0,2.2-0.1,3.3-0.1
		c1.2,0,2.3,0.1,3.5,0.1v-0.8c-1.2-0.2-1.5-0.9-1.5-2.2V36c0-3.6,0.1-7.3,0.2-9.4h-0.8c-1,1.1-4.1,2.2-5.4,2.4v0.9
		C190.6,29.8,191.2,30.7,191.3,32.3"/>
	<defs>
		<filter id="Adobe_OpacityMaskFilter_3_" filterUnits="userSpaceOnUse" x="197.7" y="37.6" width="15.5" height="16.8">
			<feColorMatrix  type="matrix" values="1 0 0 0 0  0 1 0 0 0  0 0 1 0 0  0 0 0 1 0"/>
		</filter>
	</defs>
	<mask maskUnits="userSpaceOnUse" x="197.7" y="37.6" width="15.5" height="16.8" id="mask-8_2_">
		<g class="st10">
			<polygon id="path-7_2_" class="st3" points="197.7,37.6 213.2,37.6 213.2,54.4 197.7,54.4 			"/>
		</g>
	</mask>
	<path id="Fill-14" class="st11" d="M205.1,45.6c0.7,0,1.4,0.1,1.9,0.2l0.1,5.7c-0.6,0.4-1.4,0.7-2.6,0.7c-1.6,0-3-1.4-3-3.1
		C201.4,46.5,203.3,45.6,205.1,45.6 M202.9,54.4c1.7,0,2.9-0.9,4.3-1.9c0.5,1,1.6,1.7,3.1,1.9l2.9-2.3l-0.6-0.6
		c-0.3,0.1-0.6,0.2-0.8,0.2c-0.9,0-1.2-0.5-1.2-2.3V48c0-2.2,0.2-4.2,0.2-5.6c0-3.9-3-4.8-6.4-4.8c-1.8,0-3.4,0.2-5,0.7V42h0.9
		c1-1.4,1.9-2.1,3.8-2.1c2.6,0,2.8,2.3,2.8,4.4c-0.5,0-1.2-0.1-1.8-0.1c-3.5,0-7.5,1.6-7.5,5.7C197.7,52.8,200.3,54.4,202.9,54.4"/>
	<defs>
		<filter id="Adobe_OpacityMaskFilter_4_" filterUnits="userSpaceOnUse" x="214" y="37.6" width="11.1" height="16.8">
			<feColorMatrix  type="matrix" values="1 0 0 0 0  0 1 0 0 0  0 0 1 0 0  0 0 0 1 0"/>
		</filter>
	</defs>
	<mask maskUnits="userSpaceOnUse" x="214" y="37.6" width="11.1" height="16.8" id="mask-10_2_">
		<g class="st12">
			<polygon id="path-9_2_" class="st3" points="214,37.6 225.1,37.6 225.1,54.4 214,54.4 			"/>
		</g>
	</mask>
	<path id="Fill-17" class="st13" d="M222,50.5c0,1.5-1.3,2.4-2.7,2.4c-1.7,0-3.3-1.3-3.7-3.2h-1.4l0.2,3.6c1.2,0.7,3.1,1.1,4.5,1.1
		c3.3,0,6.2-1.5,6.2-5.2c0-5.3-7.7-3.9-7.7-7.6c0-1.6,1.1-2.4,2.7-2.4c2.1,0,3.2,1,3.6,2.9h1.2l0.2-3.5c-1.6-0.5-3.3-1-4.9-1
		c-3.2,0-6.1,1.5-6.1,5.1C214,48.2,222,47.7,222,50.5"/>
</g>
</svg>
