<?xml version="1.0" encoding="utf-8"?>
<!-- Generator: Adobe Illustrator 24.1.0, SVG Export Plug-In . SVG Version: 6.00 Build 0)  -->
<svg version="1.1" id="Capa_1" xmlns="http://www.w3.org/2000/svg" xmlns:xlink="http://www.w3.org/1999/xlink" x="0px" y="0px"
	 viewBox="0 0 200 21.87467" style="enable-background:new 0 0 200 21.87467;" xml:space="preserve">
<style type="text/css">
	.st0{fill:#FFFFFF;}
</style>
<g>
	<g id="Capa_2_1_">
		<g id="Capa_1-2">
			<path class="st0" d="M50.586422,20.2456284c-0.4479332,0.2129345-0.9080048,0.3993416-1.3778267,0.5582561
				c-0.5463753,0.1900444-1.1165123,0.3563328-1.7222824,0.510746s-1.1877785,0.2731895-1.8054276,0.3682117
				c-0.5299377,0.0894737-1.0660896,0.1371326-1.6035004,0.1425343c-1.4664383,0.0223789-2.9267349-0.1942596-4.3235207-0.6414032
				c-1.2128677-0.3811455-2.3221817-1.0353546-3.2426414-1.9123268c-0.9110947-0.8898163-1.6094589-1.9739094-2.042984-3.1713715
				c-0.4899559-1.4328966-0.7270851-2.9400597-0.7007904-4.4541779c-0.050602-1.6134253,0.2366524-3.2196121,0.8433228-4.7154884
				c1.0242386-2.3751168,3.0388718-4.1813393,5.5113029-4.9411669c1.1965599-0.3694483,2.4417-0.5576205,3.6939964-0.5582572
				c1.168644-0.004847,2.3359833,0.0785351,3.4920731,0.249434c0.8953323,0.1134297,1.7683411,0.3617162,2.5893631,0.7364239
				c0,0.2731891,0,0.6414015,0,1.0808814s-0.07127,0.9145913-0.1187744,1.4253373
				c-0.0475082,0.510746-0.1306572,1.009614-0.2138023,1.52036s-0.1900444,0.9621019-0.2969437,1.3778253H48.080204
				l-1.5916252-4.2760124c-0.2965889-0.1165695-0.6087952-0.1886151-0.9264679-0.2138009
				c-0.3943481-0.0452173-0.7908592-0.0690074-1.1877823-0.0712662c-0.7629623,0.0018804-1.5179596,0.1553009-2.2211456,0.4513557
				c-0.7397041,0.3193645-1.3886147,0.8172698-1.8885727,1.4490914c-0.6178551,0.7768145-1.074192,1.6692991-1.3421936,2.6249962
				c-0.3439598,1.2611175-0.5039825,2.5653005-0.4751129,3.8721652c-0.0149689,1.1474409,0.1329994,2.2911978,0.439476,3.3970528
				c0.2362518,0.9425011,0.6384583,1.8353968,1.1877823,2.6368723c0.4936638,0.7042198,1.1390343,1.2887096,1.8885689,1.7104053
				c0.7240868,0.4104042,1.5432777,0.623394,2.3755608,0.6176453c0.2944031-0.0005913,0.5883064-0.0244198,0.8789597-0.0712662
				c0.285099-0.0386333,0.5669632-0.0981827,0.8433266-0.1781654c0.2370644-0.060976,0.4677582-0.1445026,0.6889114-0.2494335
				c0.1521187-0.063427,0.292614-0.1517372,0.4157219-0.2613106v-5.3212614
				c-0.4731903-0.0375233-0.939949-0.1332684-1.3897018-0.2850666c-0.4078865-0.1502991-0.8047791-0.3289003-1.1877785-0.534503
				V12.049943h7.6968155v1.0690012c-0.1996269,0.1894064-0.4281769,0.3457785-0.6770325,0.4632339
				c-0.340683,0.1613998-0.6996193,0.2810459-1.0690041,0.3563337L50.586422,20.2456284z"/>
			<path class="st0" d="M61.2883224,21.4809208h-7.7799606v-1.0690022c0.5979309-0.286211,1.222538-0.5129776,1.8648148-0.6770344
				V2.6070871l-2.1380043-0.2256777V1.3124073c0.3264771-0.1393391,0.664238-0.2506007,1.009613-0.3325782
				c0.4276009-0.1187785,0.90271-0.2138008,1.389698-0.2969452l1.5441208-0.2256801
				c0.4988632-0.0712673,0.9502258-0.1187785,1.342186-0.1544116h0.9502296v19.4320908
				c0.6435242,0.1599922,1.2685318,0.3869057,1.8648148,0.6770344L61.2883224,21.4809208z"/>
			<path class="st0" d="M62.8680725,14.4373817c-0.0198441-1.0519676,0.1532669-2.0986662,0.510746-3.0882301
				c0.3244858-0.8891611,0.8346748-1.6989889,1.4966087-2.3755608c0.6760635-0.654108,1.4868011-1.1527085,2.3755569-1.4609699
				c1.0023193-0.3558617,2.0603943-0.5288563,3.1238632-0.510746c1.1563416-0.0288105,2.3080597,0.1564293,3.397049,0.5463781
				c0.8952026,0.3235331,1.7068329,0.8429699,2.3755646,1.52036c0.6239319,0.6763325,1.079689,1.4901829,1.3303146,2.3755608
				c0.2922821,0.96241,0.43647,1.9636784,0.4276047,2.9694519c0.0135269,1.0612793-0.1676331,2.116045-0.5345078,3.1119862
				c-0.3063583,0.8923912-0.8097687,1.7043324-1.472847,2.3755608c-0.6812439,0.6474056-1.4904404,1.1450653-2.3755569,1.4609699
				c-1.0122681,0.349041-2.0769272,0.5217953-3.1476212,0.510746c-1.1298065,0.022419-2.2538147-0.1669273-3.3139114-0.5582561
				c-0.8973846-0.3190899-1.7099457-0.8391266-2.3755569-1.520359c-0.6368103-0.6746502-1.1084442-1.487812-1.3778343-2.3755627
				C62.9974251,16.4560204,62.8489265,15.4486084,62.8680725,14.4373817z M67.2272263,14.4373817
				c-0.0090332,0.7946281,0.0425797,1.5887871,0.1544037,2.3755608c0.0816879,0.623951,0.2663193,1.2300282,0.5463791,1.7935486
				c0.2783432,0.4440651,0.6671448,0.8083076,1.1284027,1.0571251c0.5351639,0.2890282,1.1383057,0.4285316,1.7460327,0.4038448
				c0.3924561,0.0059719,0.7788849-0.0968018,1.1165161-0.2969456c0.3769379-0.2324982,0.6813889-0.5657387,0.8789597-0.962101
				c0.2764969-0.5481682,0.4610825-1.1380329,0.5463791-1.7460365c0.1352158-0.8802757,0.1987686-1.770071,0.1900482-2.6606283
				c0.0027084-0.7944469-0.0488815-1.5881481-0.1544113-2.3755608c-0.0816498-0.6163845-0.2663498-1.214654-0.5463791-1.7697926
				c-0.2244797-0.4825296-0.5780029-0.8935995-1.021492-1.1877813c-0.4963074-0.2890949-1.0653229-0.429287-1.6391296-0.4038448
				C69.7344437,8.65131,69.3001633,8.7537365,68.913887,8.9617147c-0.3882751,0.2204657-0.7024307,0.551156-0.90271,0.9502239
				c-0.2817841,0.5460129-0.4666595,1.1367931-0.5463791,1.7460365
				C67.301918,12.5753784,67.2223969,13.5056429,67.2272263,14.4373817z"/>
			<path class="st0" d="M80.6016388,2.6070871l-2.1380081-0.2256777V1.3124073
				c0.364418-0.135396,0.7374039-0.2464989,1.1165161-0.3325782c0.4632339-0.1187785,0.9383469-0.2138008,1.4372101-0.2969452
				l1.4609756-0.2256778l1.1877823-0.1544116h0.9620972v9.7398005l0,0c0.3333054-0.8894196,0.9299927-1.6560001,1.7104111-2.1973944
				c0.8093109-0.5339451,1.7626038-0.8074985,2.7318954-0.7839351c1.4882355-0.0767374,2.9232788,0.5635142,3.8602905,1.7222829
				c1.0352554,1.5280533,1.5210342,3.362318,1.3778229,5.2024775c0.1641541,2.1369753-0.577179,4.2445879-2.042984,5.8082476
				c-1.6527481,1.3927269-3.7828751,2.0871468-5.9388962,1.9360809c-0.528038,0.0007496-1.0556107-0.0309868-1.5797501-0.0950222
				c-0.582016-0.0593891-1.1877823-0.1425362-1.6985321-0.2375584c-0.5056534-0.0830212-1.0055313-0.1980724-1.4966049-0.3444576
				c-0.3519058-0.0869637-0.6912079-0.2186928-1.009613-0.3919659L80.6016388,2.6070871z M87.3363495,9.3180485
				c-0.6601028-0.0273809-1.2943039,0.2588882-1.7104034,0.7720566c-0.4684906,0.5697374-0.7978821,1.2407322-0.9621048,1.9598379
				v7.4592619c0.2944107,0.2086048,0.6245041,0.3615761,0.9739838,0.4513569
				c0.4247665,0.1203938,0.8651733,0.176445,1.3065567,0.1662884c1.0116196,0.0532646,1.9532394-0.5164204,2.3755569-1.4372139
				c0.5865173-1.4247074,0.8423538-2.9638538,0.7482986-4.5016899c0.0502777-1.217123-0.1561203-2.4312067-0.6057663-3.5633411
				C89.107811,9.7777567,88.2520828,9.2518864,87.3363495,9.3180485z"/>
			<path class="st0" d="M108.5144806,17.3949547c0,0.4157238,0,0.7720566,0,1.0690022
				c0.0027618,0.3215256,0.022583,0.6426792,0.0593948,0.9621029l1.9479599,0.2850666v0.985857
				c-0.2952499,0.1356926-0.6011429,0.2469273-0.9145889,0.3325806c-0.3800888,0.1187782-0.7760162,0.2256756-1.1877823,0.3206997
				c-0.427597,0.1069012-0.8433228,0.1900463-1.1877823,0.2613125l-1.1046371,0.1544094h-0.9620972
				c-0.177124-0.4117718-0.2893143-0.8485222-0.3325729-1.2946815c0-0.4394798-0.0712662-0.962101-0.0831451-1.5797482h-0.14254
				c-0.0958786,0.3846512-0.2565384,0.7501659-0.4751129,1.0808811c-0.2278214,0.3608932-0.522049,0.6752796-0.8670807,0.9264698
				c-0.3566971,0.2854786-0.7579956,0.5102081-1.1877823,0.6651554c-0.5076675,0.1772118-1.0420609,0.2656097-1.5797501,0.2613125
				c-0.5824432,0.0060444-1.1614151-0.0904522-1.7104111-0.2850685c-0.5062332-0.1740837-0.9740753-0.4443054-1.3778305-0.7958126
				c-0.3978424-0.3206005-0.7185287-0.7265358-0.9383469-1.1877804c-0.2307892-0.5066433-0.3444672-1.0587749-0.3325729-1.6153831
				c-0.0299454-0.7266445,0.1340408-1.4481678,0.4751129-2.0904932c0.3646469-0.5790901,0.8883438-1.0409279,1.5084763-1.3303156
				c0.8380737-0.3917294,1.7314529-0.652132,2.6487579-0.7720566c1.3024139-0.1976862,2.6150742-0.3206244,3.9315491-0.3682117
				c0.1805267-1.1889315,0.111763-2.4024143-0.2019196-3.5633411c-0.2570572-0.7748756-1.0167542-1.2681837-1.8291855-1.1877804
				c-0.5476379-0.0062733-1.0915756,0.0904274-1.6035004,0.2850666l-1.3303223,3.3851748H98.548996
				c-0.1635437-0.2513781-0.3103561-0.513258-0.4394836-0.7839346c-0.149231-0.3006287-0.2801361-0.6100187-0.3919678-0.9264698
				c-0.118782-0.3325796-0.2256851-0.6651564-0.3088303-0.997736c-0.0802536-0.3245049-0.1397629-0.6537905-0.1781693-0.985858
				c0.838913-0.5597754,1.7726669-0.9622574,2.7556534-1.1877799c1.1655426-0.2892766,2.3624496-0.4329057,3.5633392-0.4276018
				c0.8886337-0.0262847,1.775528,0.0941091,2.6249924,0.3563333c0.5996552,0.1832051,1.1458435,0.5092893,1.5916214,0.950223
				c0.3820572,0.3997889,0.6559448,0.8903303,0.7958145,1.4253378c0.155426,0.5688133,0.231369,1.1563988,0.2256775,1.7460365
				c0,1.1283932,0,2.1498823-0.0712585,3.0525961C108.6451187,15.423233,108.5144806,16.4447308,108.5144806,17.3949547z
				 M102.183609,19.568594c0.350174,0.0110626,0.6974716-0.0665703,1.009613-0.2256794
				c0.266243-0.1419601,0.5103302-0.3220253,0.7245483-0.534502c0.1838303-0.2015476,0.3360138-0.4298248,0.4513474-0.6770344
				c0.0950241-0.2494335,0.1781693-0.4632339,0.2375565-0.6532784v-2.8150387
				c-0.7277374,0.0102825-1.4539413,0.0698071-2.173645,0.1781664c-0.4692841,0.0508089-0.9205017,0.209342-1.3184357,0.4632339
				c-0.3022919,0.1912832-0.5353851,0.4743319-0.6651535,0.8076906c-0.1261673,0.3829937-0.1864166,0.7846241-0.1781693,1.1877804
				c-0.0371475,0.5960293,0.1397705,1.1857319,0.4988632,1.6628933
				C101.125412,19.3681545,101.6450806,19.590868,102.183609,19.568594z"/>
			<path class="st0" d="M119.620224,21.4809208h-7.8037109v-1.0690022c0.5962753-0.2901287,1.2212906-0.5170422,1.8648148-0.6770344
				V2.6070871l-2.1498795-0.2256777V1.3124073c0.3306503-0.1390729,0.6723404-0.2503186,1.021492-0.3325782
				c0.4577103-0.1232597,0.9215775-0.2223781,1.3896942-0.2969452l1.4966125-0.2256778
				c0.4988632-0.0712673,0.9383469-0.1187785,1.3303146-0.1544116h0.9858475v19.4320869
				c0.6422882,0.1640568,1.2668839,0.3908234,1.8648148,0.6770344V21.4809208z"/>
			<path class="st0" d="M125.9392166,21.4809208h-4.2403717v-0.510746c0.3448639-0.1914692,0.717598-0.3277359,1.1046371-0.4038448
				v-7.6730642c-0.1959381-0.026536-0.3875961-0.0784416-0.5701447-0.1544104
				c-0.1840363-0.0652514-0.3627319-0.1446762-0.5344925-0.2375574v-0.522624h4.2403717v0.5582581
				c-0.1712036,0.0973043-0.3499451,0.1807156-0.5344925,0.2494335c-0.1846313,0.0670271-0.3756866,0.1147909-0.570137,0.1425343
				v7.6730633l0.570137,0.1544113c0.1885605,0.0587444,0.3683548,0.1426449,0.5344925,0.2494316V21.4809208z"/>
			<path class="st0" d="M132.9946442,11.9786768h3.3614197v0.5582552c-0.1793518,0.1350842-0.3701172,0.2543106-0.5701294,0.3563337
				c-0.1856689,0.0982666-0.3806305,0.1778421-0.582016,0.2375574v8.5401421h-1.1877899l-4.7511139-6.9247599l-0.5463867-1.0452461
				l0,0l0.130661,1.0927582v5.6538363c0.2083435,0.0567169,0.4111023,0.1322536,0.6057739,0.2256775
				c0.1979675,0.0847225,0.3853455,0.1923561,0.5582581,0.3207016v0.510746h-3.3495483v-0.5345039
				c0.1697693-0.1168327,0.3484955-0.2200947,0.5345001-0.3088226c0.1938324-0.0984554,0.3966904-0.1780071,0.6057739-0.2375584
				V13.023922l-0.5463791-0.2375565l-0.4869995-0.2850676v-0.522624h2.8625565l3.8840485,5.6538353l0.6295166,1.1877804h0.0593872
				l-0.0712585-1.1877804v-4.5254431c-0.2166595-0.0696754-0.4272003-0.157074-0.6295166-0.2613106
				c-0.1871796-0.0956974-0.3659668-0.2069473-0.5345001-0.3325796L132.9946442,11.9786768z"/>
			<path class="st0" d="M138.7553711,20.3525276c0.1237488,0.1205654,0.2687073,0.2172108,0.427597,0.2850685
				c0.2263794,0.0898876,0.4693756,0.1303844,0.712677,0.1187782c0.447052,0.0203209,0.8874359-0.1138992,1.2471771-0.3800888
				c0.3242798-0.2628765,0.5049286-0.6638069,0.4869843-1.0808811c0.0081787-0.3123474-0.1070404-0.6153393-0.3207092-0.8433228
				c-0.2346649-0.2475243-0.5073242-0.4560261-0.8076782-0.6176472c-0.3207092-0.1900444-0.6651459-0.3800888-1.0452576-0.5701332
				c-0.366394-0.1809559-0.712738-0.3999176-1.0333557-0.6532784c-0.3264008-0.2444038-0.6009369-0.5512562-0.8076782-0.9027138
				c-0.2283478-0.3920784-0.3396454-0.8413506-0.3207092-1.2946815c-0.0131989-0.4089251,0.0680847-0.8153849,0.2375488-1.1877804
				c0.1583862-0.3191423,0.3904724-0.5960016,0.6770477-0.8076916c0.3031921-0.2212467,0.6458893-0.3825083,1.009613-0.475111
				c0.4109039-0.1075144,0.8343506-0.1594467,1.2590485-0.1544104c0.5166473-0.0027962,1.0327911,0.0329351,1.5441132,0.1069002
				c0.4407501,0.0712204,0.8713989,0.1948338,1.2828064,0.3682108c0,0.1781673,0,0.3800898,0,0.6176472
				c0,0.2375565-0.0593872,0.475111-0.0950165,0.7007904c-0.0356293,0.2256784-0.0712585,0.4513559-0.1069031,0.6532784
				l-0.1187744,0.510746h-0.5582581l-0.6295319-1.8648148c-0.1534882-0.0624695-0.312561-0.1101952-0.4750977-0.1425352
				c-0.2184906-0.0477705-0.4415131-0.0716648-0.6651611-0.0712662c-0.3485413-0.0112324-0.6909943,0.0931759-0.9739838,0.2969456
				c-0.2655182,0.2068071-0.4121246,0.5311289-0.3919678,0.8670788c-0.014679,0.3262472,0.1055908,0.6441507,0.3325806,0.8789577
				c0.2380524,0.2536964,0.5098267,0.4735098,0.8076782,0.6532784c0.3325806,0.2019224,0.6889191,0.4038458,1.068985,0.5938902
				c0.3786316,0.1836805,0.7369385,0.4066229,1.0690002,0.6651564c0.3212128,0.2488804,0.5982819,0.5500278,0.8195801,0.8908348
				c0.2259674,0.3805122,0.3411407,0.8165798,0.3325653,1.2590466c0.0426178,0.8022079-0.2965088,1.5773411-0.9145966,2.0904942
				c-0.7865448,0.5508232-1.738327,0.8149757-2.6962585,0.7483025c-0.2939148-0.002037-0.5874481-0.0218697-0.8789673-0.0593891
				c-0.2794495-0.0329533-0.5569763-0.0805302-0.8314362-0.1425343c-0.2375946-0.0574436-0.4715881-0.1288357-0.7007904-0.2138004
				c-0.1625977-0.0480175-0.3153992-0.1244221-0.4513702-0.2256794c-0.016571-0.2214088-0.016571-0.4437485,0-0.6651573
				c0-0.2494316,0.0831604-0.48699,0.1187897-0.7245464s0.0831604-0.4632339,0.130661-0.6889133l0.130661-0.5701332h0.5582581
				L138.7553711,20.3525276z"/>
			<path class="st0" d="M144.2904205,11.9786768h4.1809998v0.5582552c-0.3154449,0.197093-0.6665497,0.3302736-1.033371,0.3919678
				v5.2262344c-0.0115356,0.3743038,0.0406799,0.7478447,0.1544189,1.1046352
				c0.1530762,0.5432777,0.5749054,0.9695835,1.1165161,1.1283932c0.2931671,0.0850315,0.5975342,0.1250782,0.90271,0.1187782
				c0.2778015,0.0048409,0.5545654-0.0352688,0.8195801-0.1187782c0.2452698-0.0896969,0.4681396-0.2315331,0.6532745-0.4157238
				c0.1935272-0.2166119,0.3392487-0.4715881,0.427597-0.7483006c0.1080017-0.386301,0.1560669-0.7868938,0.1425323-1.1877804
				v-5.0718241c-0.2174835-0.0501308-0.4317017-0.1135988-0.6413879-0.1900444
				c-0.192276-0.0691843-0.3756866-0.1608849-0.5463867-0.2731886v-0.522624h3.3614197v0.5582552
				c-0.1652832,0.1174421-0.3449097,0.2132435-0.5345001,0.2850676l-0.5938873,0.1781664v5.0955791
				c0.2270203,1.7367287-0.9968414,3.328661-2.7335663,3.5556812c-0.2516174,0.0328922-0.5062866,0.0354633-0.7585144,0.0076618
				c-1.0030975,0.0605316-1.9966278-0.224535-2.815033-0.8076916c-0.7090759-0.675684-1.0719147-1.6374531-0.9858551-2.6131191
				v-5.3450117c-0.194458-0.0277433-0.3855133-0.07551-0.5701294-0.1425352
				c-0.1893311-0.0663719-0.3722229-0.1498604-0.5463867-0.2494326L144.2904205,11.9786768z"/>
			<path class="st0" d="M157.3203735,20.578207c0.1904755,0.0395126,0.3772278,0.0951424,0.5582581,0.1662884l0.4751129,0.2256794
				v0.510746h-4.1809998v-0.510746c0.1791229-0.1091766,0.3704987-0.1968842,0.5701294-0.2613106
				c0.1781616-0.0593891,0.3563385-0.0950222,0.5345001-0.1425343v-7.6730642
				c-0.3865662-0.07162-0.7593842-0.203907-1.1046295-0.3919678v-0.522624h2.0548553h0.7245483h0.772049h0.7601776
				c0.465332-0.0047035,0.9290314,0.0552607,1.3778381,0.1781664c0.3905334,0.0970478,0.7579346,0.2706518,1.0808868,0.510746
				c0.3004913,0.2212343,0.5446472,0.5101442,0.712677,0.8433237c0.1707611,0.3723412,0.2559967,0.7781963,0.2494354,1.1877804
				c0.0261078,0.5726757-0.1412354,1.1374817-0.4750977,1.6035042c-0.3320007,0.4362926-0.7870789,0.7631245-1.3065643,0.9383469
				c0.3681946,0.5701351,0.7483063,1.1877823,1.1877747,1.7341595s0.843338,1.1877804,1.2946777,1.7104053l0.6532745,0.4276009
				v0.4632339h-2.2686615l-0.582016-0.4394798c-0.4357147-0.5278873-0.8065796-1.1061058-1.1046295-1.7222824
				c-0.3167419-0.657238-0.6018066-1.2986412-0.8552094-1.9242058h-1.0927429L157.3203735,20.578207z M157.9974213,12.7626114
				c-0.227829-0.0064249-0.4555359,0.0175419-0.6770477,0.0712662v3.7890205h0.8195801
				c0.4491119,0.0115662,0.8816071-0.170084,1.1877747-0.498867c0.3610535-0.4018755,0.5413666-0.934289,0.4988708-1.4728489
				c0.0070343-0.2915163-0.0413361-0.5817194-0.1425323-0.8552008c-0.0762939-0.2260275-0.2068176-0.4299288-0.3800964-0.5938902
				c-0.16362-0.1509628-0.3581848-0.2644558-0.5701294-0.3325796
				C158.4960175,12.7931595,158.2471313,12.7570295,157.9974213,12.7626114z"/>
			<path class="st0" d="M166.7038574,21.4809208h-3.3495483v-0.510746c0.1469269-0.1002541,0.3067474-0.1801643,0.4750977-0.2375565
				c0.1585388-0.0660057,0.3212128-0.1215534,0.4869995-0.1662884l3.5633392-8.7420664h0.9502258l3.4089355,8.7420664
				c0.1853027,0.0444221,0.3677521,0.0999508,0.5463867,0.1662884c0.1683502,0.0573921,0.3281708,0.1373024,0.4750977,0.2375565
				v0.510746h-4.2522583v-0.510746c0.1820068-0.0884438,0.3683472-0.1677265,0.5582581-0.2375565
				c0.2019196-0.0712662,0.3919678-0.1187782,0.5701294-0.1662884l-0.7958069-2.0904942h-3.0169525l-0.7958069,2.1498814
				c0.4185638,0.0554104,0.8221741,0.1926308,1.1877747,0.4038467L166.7038574,21.4809208z M166.7038574,17.5374889h2.3755646
				l-0.9027252-2.6249952l-0.261322-1.1877804l0,0l-0.296936,1.1877804L166.7038574,17.5374889z"/>
			<path class="st0" d="M179.9001007,11.9786768h3.3614197v0.5582552c-0.1811066,0.1325006-0.3716736,0.2515945-0.5701294,0.3563337
				c-0.1856689,0.0982666-0.3806152,0.1778421-0.582016,0.2375574v8.5401421h-1.1877899l-4.7511139-6.9247599l-0.5345001-1.0452461
				l0,0l0.130661,1.0927582v5.6538363c0.2050934,0.054924,0.404068,0.1305408,0.5938873,0.2256775
				c0.2029572,0.0821362,0.3945465,0.1899147,0.5701294,0.3207016v0.510746h-3.3495483v-0.5345039
				c0.1665649-0.12183,0.3457642-0.2253666,0.5345001-0.3088226c0.1938171-0.0984535,0.3966827-0.1780071,0.6057587-0.2375584
				V13.023922l-0.5463867-0.2375565l-0.5938721-0.2494335v-0.522624h2.9338226l3.8840485,5.6538363l0.6295166,1.1877804l0,0
				v-1.1877804v-4.5610781c-0.2166595-0.0696754-0.4272003-0.157074-0.6295166-0.2613106
				c-0.1887207-0.092927-0.3677673-0.2043314-0.5345001-0.3325796L179.9001007,11.9786768z"/>
			<path class="st0" d="M190.8633118,18.6302452h0.5345001c0,0.1425343,0.0712585,0.3207016,0.1068878,0.522625
				s0.0594025,0.4276009,0.0831604,0.6532784c0.0237579,0.2256756,0,0.4632339,0,0.6889114c0,0.2256794,0,0.4276028,0,0.6057701
				c-0.3627625,0.2195663-0.7672882,0.3611488-1.1877899,0.4157219c-0.4822693,0.085783-0.9710999,0.1294994-1.4609528,0.1306572
				c-0.6914368,0.0078659-1.3801117-0.0882282-2.042984-0.2850666c-0.5811615-0.1651573-1.114563-0.4664707-1.5559998-0.8789577
				c-0.4440613-0.4288177-0.7851715-0.9526787-0.9977264-1.5322361c-0.2536163-0.7164726-0.3743744-1.4732056-0.3563385-2.2330265
				c-0.0182343-0.7590723,0.1150208-1.5141697,0.3919678-2.2211504c0.230835-0.5753536,0.5833435-1.0939922,1.033371-1.52036
				c0.436615-0.4003363,0.9555359-0.7003307,1.5203552-0.8789568c0.5844574-0.1821222,1.1932526-0.2742405,1.8054352-0.2731895
				c0.5453339-0.0081463,1.0901947,0.0356026,1.627243,0.1306572c0.41008,0.0587215,0.8099213,0.1746712,1.1877899,0.3444576
				c0,0.1425343,0,0.3325787,0,0.5582552c0,0.2256775,0,0.4632339-0.0712738,0.7126694l-0.1068878,0.7245464
				c0,0.2375574-0.0831604,0.4394798-0.1187897,0.6057692h-0.5701294l-0.7483063-2.0429821
				c-0.1227875-0.0619917-0.2554169-0.1021814-0.3919678-0.1187782c-0.1858826-0.0121956-0.3723755-0.0121956-0.5582581,0
				c-0.3570404-0.0033894-0.7102509,0.0737486-1.033371,0.2256784c-0.3490295,0.1586037-0.6516266,0.4039564-0.8789673,0.7126684
				c-0.27742,0.3730059-0.4791565,0.7966881-0.5938873,1.2471695c-0.1532898,0.6013594-0.2252045,1.2205706-0.2137909,1.8410578
				c-0.065979,1.0505676,0.2044373,2.094841,0.772049,2.9813309c0.4784241,0.6821251,1.2697601,1.0755482,2.1023865,1.0452461
				c0.2154388,0.0072269,0.4309387-0.0127258,0.6413879-0.0593891c0.1362-0.0187511,0.2640839-0.0765018,0.3682098-0.1662884
				L190.8633118,18.6302452z"/>
			<path class="st0" d="M199.7835388,11.9786768c0,0.4157228,0,0.8314466-0.0950317,1.2709246
				c-0.0950165,0.439477-0.1068878,0.8314476-0.1781616,1.1877804h-0.5582581l-0.6176453-1.5916262h-2.5418549v3.3257856h1.6628876
				l0.5938873-1.0452471h0.4751282c0.0500946,0.4893217,0.0738983,0.980979,0.0712585,1.4728479
				c0.0016785,0.507658-0.0221252,1.0150833-0.0712585,1.520359h-0.427597l-0.5938873-1.0690002h-1.6628876v3.5633411h2.6487427
				l0.7245483-1.7222824h0.4988556c0.0499725,0.1917439,0.0896149,0.3860245,0.1187897,0.5820122
				c0,0.2138004,0.0594025,0.4394798,0.0831604,0.6651554c0.0237579,0.2256775,0,0.4632339,0.0593872,0.7007904
				c0.0593872,0.2375584,0,0.4513569,0,0.6532784h-7.3404694v-0.5226212c0.3492584-0.19104,0.7258453-0.3272457,1.1165161-0.4038448
				v-7.6730642c-0.1970825-0.0391121-0.3914795-0.0906858-0.582016-0.1544104
				c-0.1840363-0.0652514-0.3627472-0.1446762-0.5345001-0.2375574v-0.522624L199.7835388,11.9786768z"/>
		</g>
	</g>
	<g>
		<path class="st0" d="M20.7187061,13.3591061c-3.4689674,0-6.281188-2.8122206-6.281188-6.2811875
			c0-2.1209283,1.05826-3.9877055,2.6680975-5.1250448C15.3425674,0.7249392,13.2032862,0,10.891902,0
			C4.8764715,0,0,4.8764715,0,10.891902c0,6.0153399,4.8764715,10.8918104,10.891902,10.8918104
			c5.1943178,0,9.5317183-3.6390896,10.6211958-8.5046749C21.2501297,13.3125944,20.9908504,13.3591061,20.7187061,13.3591061z"/>
		<circle class="st0" cx="20.7187252" cy="7.0778861" r="5.0916228"/>
	</g>
</g>
</svg>
